<svg width="50" height="50" viewBox="0 0 50 50" fill="none" xmlns="http://www.w3.org/2000/svg">
<g clip-path="url(#clip0)">
<path d="M49.9024 24.9023C49.9024 38.7096 38.7096 49.9024 24.9023 49.9024C11.095 49.9024 -0.0976562 38.7096 -0.0976562 24.9023C-0.0976562 11.095 11.095 -0.0976562 24.9023 -0.0976562C38.7096 -0.0976562 49.9024 11.095 49.9024 24.9023Z" fill="#FBAC2A"/>
<path d="M33.7986 48.2738C31.0345 49.3255 28.0365 49.9023 24.9027 49.9023C21.769 49.9023 18.771 49.3255 16.0069 48.2738L18.0515 42.3511L19.6987 37.5828H30.1068L31.7536 42.3511L33.7986 48.2738Z" fill="#EDEDED"/>
<path d="M31.7535 42.3511L16.6222 46.4905L19.6987 37.5828H30.1067L31.7535 42.3511Z" fill="#D6D6D6"/>
<path d="M48.9334 7.72667V31.8207C48.1171 34.6615 46.8098 37.2952 45.1107 39.6236H4.69437C2.99568 37.2952 1.68838 34.6615 0.87204 31.8207V7.72667C0.87204 6.06956 2.21481 4.72565 3.87192 4.72565H45.9324C47.5895 4.72565 48.9334 6.06956 48.9334 7.72667Z" fill="#EDEDED"/>
<path d="M3.87231 33.4404C3.34322 33.4404 2.91254 33.0101 2.91254 32.481V7.72632C2.91254 7.19722 3.34322 6.76654 3.87231 6.76654H45.9324C46.4619 6.76654 46.8922 7.19722 46.8922 7.72632V32.481C46.8922 33.0101 46.4615 33.4404 45.9324 33.4404H3.87231Z" fill="#0680AE"/>
<path d="M13.0093 20.2072L17.8619 17.0547C17.9577 16.9781 18.0912 16.959 18.2251 16.959C18.7984 16.959 19.5244 17.5705 19.5244 18.3536C19.5244 18.6787 19.3905 18.9651 19.1803 19.099L15.8176 21.2768L19.1803 23.455C19.3905 23.5889 19.5244 23.8754 19.5244 24.2004C19.5244 24.9836 18.7984 25.5951 18.2251 25.5951C18.0912 25.5951 17.9577 25.576 17.8619 25.4993L13.0093 22.3469C12.5698 22.0604 12.4168 21.6019 12.4168 21.2768C12.4168 20.9522 12.5698 20.4937 13.0093 20.2072Z" fill="#ADE8F0"/>
<path d="M29.2679 12.8323C29.2679 12.9471 29.2488 13.0806 29.1916 13.1954L22.4663 26.9707C22.3324 27.2575 21.9696 27.4487 21.6065 27.4487C20.9568 27.4487 20.5364 26.9135 20.5364 26.4359C20.5364 26.321 20.575 26.1875 20.6322 26.0727L27.3384 12.2971C27.4914 11.9724 27.797 11.8195 28.1407 11.8195C28.6759 11.8195 29.2679 12.2208 29.2679 12.8323Z" fill="#ADE8F0"/>
<path d="M36.7954 22.3473L31.9427 25.4998C31.847 25.5761 31.7135 25.5951 31.5796 25.5951C31.0062 25.5951 30.2803 24.9836 30.2803 24.2005C30.2803 23.8758 30.4142 23.589 30.6244 23.4555L33.987 21.2773L30.6244 19.0991C30.4142 18.9656 30.2803 18.6787 30.2803 18.3541C30.2803 17.5705 31.0062 16.9594 31.5796 16.9594C31.7135 16.9594 31.847 16.9785 31.9427 17.0548L36.7954 20.2076C37.2353 20.4941 37.3878 20.9526 37.3878 21.2773C37.3878 21.6023 37.2353 22.0604 36.7954 22.3473Z" fill="#ADE8F0"/>
</g>
<defs>
<clipPath id="clip0">
<rect width="50" height="50" fill="white"/>
</clipPath>
</defs>
</svg>
