<svg width="50" height="50" viewBox="0 0 50 50" fill="none" xmlns="http://www.w3.org/2000/svg">
<path d="M0 25C0 11.1931 11.1927 0 25 0C38.7695 0 50.0988 11.4151 49.9992 25.1846C49.9184 36.385 42.4713 45.8332 32.2624 48.9277C32.0423 48.9944 31.8081 48.9929 31.5865 48.9326C29.488 48.3608 27.2797 48.0549 25 48.0549C22.7493 48.0549 20.5685 48.3532 18.4937 48.9109C18.2056 48.9883 17.9016 48.9788 17.6167 48.8907C7.41386 45.7413 0 36.237 0 25Z" fill="#FBAC2A"/>
<path d="M30.1987 5.81819C33.1841 5.5443 36.0813 5.03237 38.8573 4.28545C39.1178 4.21526 39.2719 3.94747 39.2017 3.68692C39.1319 3.42676 38.8641 3.27227 38.6036 3.34246C34.3239 4.49411 29.747 5.07814 25 5.07814C20.253 5.07814 15.6761 4.49411 11.3964 3.34246C11.1362 3.27227 10.8681 3.42638 10.7983 3.68692C10.7281 3.94747 10.8826 4.21526 11.1427 4.28545C13.9187 5.03237 16.8159 5.5443 19.8013 5.81819C11.3567 8.1093 5.12695 15.8402 5.12695 25C5.12695 35.9581 14.0419 44.8731 25 44.8731C35.9581 44.8731 44.873 35.9581 44.873 25C44.873 15.8402 38.6433 8.1093 30.1987 5.81819ZM25 43.4082C14.8499 43.4082 6.5918 35.1502 6.5918 25C6.5918 14.8499 14.8499 6.59182 25 6.59182C35.1501 6.59182 43.4082 14.8499 43.4082 25C43.4082 35.1502 35.1505 43.4082 25 43.4082Z" fill="#CA7E00"/>
<path d="M26.9531 4.00391V6.93359C26.9531 7.20329 26.7345 7.42188 26.4648 7.42188H23.5352C23.2655 7.42188 23.0469 7.20329 23.0469 6.93359V4.00391C23.0469 3.73421 23.2655 3.51562 23.5352 3.51562H26.4648C26.7345 3.51562 26.9531 3.73421 26.9531 4.00391ZM6.93359 23.0469H4.00391C3.73421 23.0469 3.51562 23.2655 3.51562 23.5352V26.4648C3.51562 26.7345 3.73421 26.9531 4.00391 26.9531H6.93359C7.20329 26.9531 7.42188 26.7345 7.42188 26.4648V23.5352C7.42188 23.2655 7.20329 23.0469 6.93359 23.0469ZM45.9961 23.0469H43.0664C42.7967 23.0469 42.5781 23.2655 42.5781 23.5352V26.4648C42.5781 26.7345 42.7967 26.9531 43.0664 26.9531H45.9961C46.2658 26.9531 46.4844 26.7345 46.4844 26.4648V23.5352C46.4844 23.2655 46.2658 23.0469 45.9961 23.0469ZM11.2499 2.34375C10.4408 2.34375 9.78508 2.9995 9.78508 3.80859C9.78508 4.61769 10.4408 5.27344 11.2499 5.27344C12.059 5.27344 12.7148 4.61769 12.7148 3.80859C12.7148 2.9995 12.059 2.34375 11.2499 2.34375ZM38.7501 2.34375C37.941 2.34375 37.2852 2.9995 37.2852 3.80859C37.2852 4.61769 37.941 5.27344 38.7501 5.27344C39.5592 5.27344 40.2149 4.61769 40.2149 3.80859C40.2149 2.9995 39.5592 2.34375 38.7501 2.34375Z" fill="#FFD288"/>
<path d="M35.2371 30.9471C31.9115 34.2727 30.043 38.7836 30.043 43.4868H19.957C19.957 38.7836 18.0885 34.2727 14.7629 30.9471C13.9759 30.1605 13.8119 28.9448 14.3619 27.9773L24.5754 10.0124C24.7627 9.6832 25.2373 9.6832 25.4246 10.0124L35.638 27.9773C36.1881 28.9448 36.0241 30.1605 35.2371 30.9471Z" fill="#ADE8F0"/>
<path d="M22.4609 37.1093H31.2294C30.9837 37.7468 30.7758 38.3991 30.6049 39.0625H22.4609C21.9215 39.0625 21.4844 38.6253 21.4844 38.0859C21.4844 37.5465 21.9215 37.1093 22.4609 37.1093ZM35.638 27.9773L25.4246 10.0124C25.2373 9.6832 24.7627 9.6832 24.5754 10.0124L20.6108 16.9864C20.5433 17.6578 20.5078 18.3445 20.5078 19.0429C20.5078 26.8635 24.8798 33.2031 30.2734 33.2031C31.72 33.2031 33.0925 32.7465 34.3277 31.9282C34.6176 31.591 34.9205 31.2637 35.2371 30.9471C36.0241 30.1605 36.1881 28.9448 35.638 27.9773Z" fill="#D3F1F5"/>
<path d="M27.4414 29.7851C27.4414 31.1336 26.3485 32.2265 25 32.2265C23.6515 32.2265 22.5586 31.1336 22.5586 29.7851C22.5586 28.7842 23.1613 27.9243 24.0234 27.5474V10.9836L24.5754 10.0124C24.7627 9.6832 25.2373 9.6832 25.4246 10.0124L25.9766 10.9836V27.5474C26.8387 27.9243 27.4414 28.7842 27.4414 29.7851Z" fill="#88B9D3"/>
<path d="M32.4219 42.9688V48.8796C30.077 49.6078 27.5845 50 25 50C22.4155 50 19.923 49.6078 17.5781 48.8796V42.9688C17.5781 41.89 18.4525 41.0156 19.5312 41.0156H30.4688C31.5475 41.0156 32.4219 41.89 32.4219 42.9688Z" fill="#025F80"/>
<path d="M32.4219 42.9688V48.8796C30.077 49.6078 27.5845 50 25 50C23.4665 50 21.9654 49.8611 20.5078 49.5968V42.9688C20.5078 41.89 21.3821 41.0156 22.4609 41.0156H30.4688C31.5475 41.0156 32.4219 41.89 32.4219 42.9688Z" fill="#0680AE"/>
</svg>
