<svg width="50" height="50" viewBox="0 0 50 50" fill="none" xmlns="http://www.w3.org/2000/svg">
<path d="M23.9258 49.5605C37.1396 49.5605 47.8516 38.8486 47.8516 25.6348C47.8516 12.4209 37.1396 1.70898 23.9258 1.70898C10.7119 1.70898 0 12.4209 0 25.6348C0 38.8486 10.7119 49.5605 23.9258 49.5605Z" fill="#FBAC2A"/>
<path d="M5.56641 15.6085H2.19756C0.787891 18.6583 0 22.0543 0 25.6347C0 26.0598 0.0115234 26.4825 0.0333984 26.9021H5.56641V15.6085Z" fill="#0680AE"/>
<path d="M40.5642 33.0811H38.465V40.9788H40.5642C41.1013 40.9788 41.5407 40.5394 41.5407 40.0022V34.0576C41.5407 33.5205 41.1013 33.0811 40.5642 33.0811Z" fill="#0680AE"/>
<path d="M27.5104 32.7139V41.346L35.5898 46.1666V27.8932L27.5104 32.7139Z" fill="#EEF6FF"/>
<path d="M38.5626 47.7114C38.5626 47.98 38.3428 48.1997 38.0743 48.1997H35.9805C35.712 48.1997 35.4923 47.98 35.4923 47.7114V26.3483C35.4923 26.0798 35.712 25.86 35.9805 25.86H38.0743C38.3428 25.86 38.5626 26.0798 38.5626 26.3483V47.7114Z" fill="#FE3745"/>
<path d="M37.1696 47.7114V26.3483C37.1696 26.0798 37.3893 25.86 37.6579 25.86H35.9805C35.712 25.86 35.4922 26.0798 35.4922 26.3483V47.7115C35.4922 47.9801 35.712 48.1998 35.9805 48.1998H37.6579C37.3893 48.1997 37.1696 47.98 37.1696 47.7114Z" fill="#B7092B"/>
<path d="M18.6443 33.4132H16.3806C16.112 33.4132 15.8923 33.6329 15.8923 33.9015V40.1581C15.8923 40.4267 16.112 40.6464 16.3806 40.6464H18.6443V33.4132Z" fill="#EEF6FF"/>
<path d="M17.3093 40.1582V33.9016C17.3093 33.6331 17.529 33.4133 17.7976 33.4133H16.3806C16.112 33.4133 15.8923 33.6331 15.8923 33.9016V40.1582C15.8923 40.4268 16.112 40.6465 16.3806 40.6465H17.7976C17.529 40.6465 17.3093 40.4268 17.3093 40.1582Z" fill="#D9EAFC"/>
<path d="M27.6081 41.3929C27.6081 41.6614 27.3884 41.8812 27.1199 41.8812H19.035C18.7664 41.8812 18.5467 41.6614 18.5467 41.3929V32.6666C18.5467 32.3981 18.7664 32.1783 19.035 32.1783H27.1199C27.3884 32.1783 27.6081 32.3981 27.6081 32.6666V41.3929Z" fill="#FE3745"/>
<path d="M20.4845 41.3929V32.6666C20.4845 32.3981 20.7042 32.1783 20.9728 32.1783H19.035C18.7664 32.1783 18.5467 32.3981 18.5467 32.6666V41.3929C18.5467 41.6614 18.7664 41.8812 19.035 41.8812H20.9728C20.7042 41.8812 20.4845 41.6614 20.4845 41.3929Z" fill="#D0000F"/>
<path d="M47.317 8.31458C47.317 8.04602 47.0973 7.82629 46.8287 7.82629H33.5034C33.2349 7.82629 33.0151 8.04602 33.0151 8.31458V17.5876C33.0151 17.8562 33.2349 18.0759 33.5034 18.0759H37.5258C37.7943 18.0759 38.1456 18.2519 38.3064 18.467L39.8736 20.5635C40.0344 20.7786 40.2977 20.7786 40.4584 20.5635L42.0256 18.467C42.1864 18.2519 42.5377 18.0759 42.8063 18.0759H46.8286C47.0972 18.0759 47.3169 17.8562 47.3169 17.5876V8.31458H47.317Z" fill="#0680AE"/>
<path d="M34.9529 17.5876V8.31458C34.9529 8.04602 35.1727 7.82629 35.4412 7.82629H33.5034C33.2349 7.82629 33.0151 8.04602 33.0151 8.31458V17.5876C33.0151 17.8562 33.2349 18.0759 33.5034 18.0759H35.4412C35.1727 18.0759 34.9529 17.8562 34.9529 17.5876Z" fill="#1E99D6"/>
<path d="M44.3499 11.4492H35.9824C35.5778 11.4492 35.2499 11.1214 35.2499 10.7168C35.2499 10.3123 35.5778 9.98438 35.9824 9.98438H44.3499C44.7545 9.98438 45.0824 10.3123 45.0824 10.7168C45.0824 11.1214 44.7544 11.4492 44.3499 11.4492Z" fill="white"/>
<path d="M44.3499 13.72H35.9824C35.5778 13.72 35.2499 13.3921 35.2499 12.9876C35.2499 12.583 35.5778 12.2551 35.9824 12.2551H44.3499C44.7545 12.2551 45.0824 12.583 45.0824 12.9876C45.0824 13.3921 44.7544 13.72 44.3499 13.72Z" fill="white"/>
<path d="M40.1828 15.9905H35.9824C35.5778 15.9905 35.2499 15.6626 35.2499 15.2581C35.2499 14.8535 35.5778 14.5256 35.9824 14.5256H40.1828C40.5874 14.5256 40.9153 14.8535 40.9153 15.2581C40.9153 15.6626 40.5873 15.9905 40.1828 15.9905Z" fill="white"/>
<path d="M26.1729 11.3004C29.1719 11.3004 31.6031 8.86915 31.6031 5.87009C31.6031 2.87104 29.1719 0.439819 26.1729 0.439819C23.1738 0.439819 20.7426 2.87104 20.7426 5.87009C20.7426 8.86915 23.1738 11.3004 26.1729 11.3004Z" fill="#FE3745"/>
<path d="M22.68 5.86973C22.68 3.20156 24.6049 0.984473 27.1414 0.527344C26.8268 0.470605 26.5034 0.439453 26.1725 0.439453C23.1734 0.439453 20.7423 2.8707 20.7423 5.86973C20.7423 8.86875 23.1734 11.2999 26.1725 11.2999C26.5034 11.2999 26.8268 11.2687 27.1414 11.212C24.6049 10.755 22.68 8.53789 22.68 5.86973Z" fill="#B7092B"/>
<path d="M26.1628 8.85897C26.0747 8.85897 25.9918 8.8244 25.9292 8.76151L23.3641 6.17479C23.0547 5.86278 22.8844 5.44755 22.8844 5.00555C22.8844 4.56376 23.0547 4.14842 23.3641 3.83651C23.6736 3.52411 24.0855 3.35223 24.5235 3.35223C24.9614 3.35223 25.373 3.52411 25.683 3.83651L26.1722 4.32977L26.6617 3.83651C26.9712 3.52411 27.3829 3.35223 27.821 3.35223C28.2593 3.35223 28.6708 3.52411 28.9806 3.83651C29.2902 4.14862 29.4606 4.56395 29.4606 5.00555C29.4606 5.44715 29.2902 5.86219 28.9804 6.17479L26.3952 8.76229C26.3331 8.82459 26.2505 8.85897 26.1628 8.85897Z" fill="white"/>
<path d="M7.53631 35.9791C7.4619 35.9791 7.39198 35.9498 7.33915 35.8968L5.17391 33.7135C4.91278 33.4501 4.76903 33.0996 4.76903 32.7266C4.76903 32.3537 4.91288 32.0031 5.17391 31.7397C5.43524 31.4761 5.7828 31.3311 6.15252 31.3311C6.52215 31.3311 6.86961 31.4761 7.13124 31.7397L7.54413 32.1562L7.95731 31.7397C8.21854 31.4761 8.566 31.3311 8.93592 31.3311C9.30584 31.3311 9.65321 31.4761 9.91463 31.7397C10.1761 32.0032 10.3199 32.3538 10.3199 32.7266C10.3199 33.0993 10.1761 33.4497 9.91454 33.7135L7.73241 35.8976C7.68016 35.9501 7.61034 35.9791 7.53631 35.9791Z" fill="#FE3745"/>
<path d="M6.26542 33.2578C6.00429 32.9945 5.86044 32.644 5.86044 32.2708C5.86044 31.9207 5.98867 31.5913 6.22021 31.3343C6.19775 31.3331 6.17538 31.331 6.15263 31.331C5.7829 31.331 5.43525 31.476 5.17402 31.7397C4.91288 32.003 4.76913 32.3536 4.76913 32.7265C4.76913 33.0995 4.91298 33.45 5.17402 33.7134L7.33925 35.8967C7.39208 35.9497 7.46201 35.979 7.53642 35.979C7.61044 35.979 7.68027 35.95 7.73261 35.8975L8.31015 35.3194L6.26542 33.2578Z" fill="#B7092B"/>
<path d="M18.1809 27.5621V26.2142C18.1809 25.4603 18.7941 24.847 19.548 24.847H19.8641C19.9181 24.847 19.9617 24.8033 19.9617 24.7493C19.9617 24.6953 19.9181 24.6517 19.8641 24.6517C19.1102 24.6517 18.4969 24.0384 18.4969 23.2845V21.9365C18.4969 21.1826 19.1102 20.5693 19.8641 20.5693C19.9181 20.5693 19.9617 20.5257 19.9617 20.4717C19.9617 20.4177 19.9181 20.374 19.8641 20.374C19.1102 20.374 18.4969 19.7608 18.4969 19.0068V17.6587C18.4969 16.9048 19.1102 16.2915 19.8641 16.2915C19.9181 16.2915 19.9617 16.2479 19.9617 16.1939C19.9617 16.1399 19.9181 16.0962 19.8641 16.0962H19.2606C18.5067 16.0962 17.8935 15.4829 17.8935 14.729V13.3809C17.8935 12.7111 18.3778 12.1535 19.0145 12.037V6.78906C19.0145 5.9834 18.3553 5.32422 17.5496 5.32422L15.2712 5.32432C14.4655 5.32432 13.7174 5.97744 13.6085 6.77568L12.6907 13.5099C12.5822 14.3051 12.0079 14.956 11.4123 14.9607V27.6564H18.1856C18.1835 27.6251 18.1809 27.5941 18.1809 27.5621Z" fill="#FFD18E"/>
<path d="M17.5497 5.32422L15.2713 5.32432C14.4656 5.32432 13.7175 5.97744 13.6086 6.77568L12.6908 13.5099C12.5824 14.3051 12.008 14.956 11.4124 14.9607V16.8991C12.4613 16.899 13.3311 16.899 13.3434 16.899C13.9413 16.899 14.5197 16.2459 14.6285 15.4477L15.5463 8.71348C15.6552 7.91523 16.4033 7.26211 17.209 7.26211L19.0145 7.26201V6.78906C19.0146 5.9834 18.3554 5.32422 17.5497 5.32422Z" fill="#FFBD6C"/>
<path d="M19.5481 29.027C18.7424 29.027 18.0832 28.3678 18.0832 27.5621V26.2142C18.0832 25.4085 18.7424 24.7493 19.5481 24.7493H27.4924C28.2981 24.7493 28.9572 25.4085 28.9572 26.2142V27.5621C28.9572 28.3678 28.2981 29.027 27.4924 29.027H19.5481Z" fill="#FFD18E"/>
<path d="M5.95703 29.2459C5.68848 29.2459 5.46875 29.0262 5.46875 28.7577V13.753C5.46875 13.4844 5.68848 13.2647 5.95703 13.2647H11.0217C11.2902 13.2647 11.51 13.4844 11.51 13.753V28.7576C11.51 29.0261 11.2902 29.2458 11.0217 29.2458H5.95703V29.2459Z" fill="#025F80"/>
<path d="M7.40654 28.7577V13.753C7.40654 13.4844 7.62627 13.2647 7.89482 13.2647H5.95703C5.68848 13.2647 5.46875 13.4844 5.46875 13.753V28.7576C5.46875 29.0261 5.68848 29.2459 5.95703 29.2459H7.89482C7.62627 29.246 7.40654 29.0262 7.40654 28.7577Z" fill="#003244"/>
<path d="M8.48925 16.9635C9.21121 16.9635 9.79648 16.3782 9.79648 15.6563C9.79648 14.9343 9.21121 14.3491 8.48925 14.3491C7.76729 14.3491 7.18202 14.9343 7.18202 15.6563C7.18202 16.3782 7.76729 16.9635 8.48925 16.9635Z" fill="#D9EAFC"/>
<path d="M19.2608 16.194C18.4551 16.194 17.7959 15.5348 17.7959 14.7291V13.381C17.7959 12.5753 18.4551 11.9161 19.2608 11.9161H27.4924C28.2981 11.9161 28.9573 12.5753 28.9573 13.381V14.7291C28.9573 15.5348 28.2981 16.194 27.4924 16.194H19.2608Z" fill="#FFD18E"/>
<path d="M19.8641 20.4717C19.0584 20.4717 18.3993 19.8126 18.3993 19.0069V17.6588C18.3993 16.8531 19.0584 16.1939 19.8641 16.1939H27.849C28.6546 16.1939 29.3138 16.8531 29.3138 17.6588V19.0069C29.3138 19.8126 28.6546 20.4717 27.849 20.4717H19.8641Z" fill="#FFD18E"/>
<path d="M19.8641 24.7494C19.0584 24.7494 18.3993 24.0903 18.3993 23.2846V21.9366C18.3993 21.131 19.0584 20.4718 19.8641 20.4718H27.849C28.6546 20.4718 29.3138 21.131 29.3138 21.9366V23.2846C29.3138 24.0903 28.6546 24.7494 27.849 24.7494H19.8641Z" fill="#FFD18E"/>
<path d="M21.056 27.5191C20.2503 27.5191 19.5911 26.8599 19.5911 26.0542V24.7495H19.5481C18.7424 24.7495 18.0832 25.4086 18.0832 26.2143V27.5623C18.0832 28.3679 18.7424 29.0271 19.5481 29.0271H27.4924C28.2981 29.0271 28.9572 28.3679 28.9572 27.5623V27.5192H21.056V27.5191Z" fill="#FFBD6C"/>
<path d="M20.7687 14.6861C19.963 14.6861 19.3038 14.0269 19.3038 13.2212V11.9163H19.2608C18.4551 11.9163 17.7959 12.5754 17.7959 13.3811V14.7292C17.7959 15.5349 18.4551 16.1941 19.2608 16.1941H27.4924C28.2981 16.1941 28.9573 15.5349 28.9573 14.7292V14.6862H20.7687V14.6861Z" fill="#FFBD6C"/>
<path d="M21.3721 18.9639C20.5664 18.9639 19.9072 18.3047 19.9072 17.499V16.194H19.8642C19.0585 16.194 18.3993 16.8532 18.3993 17.6589V19.007C18.3993 19.8127 19.0585 20.4719 19.8642 20.4719H27.849C28.6547 20.4719 29.3139 19.8127 29.3139 19.007V18.964L21.3721 18.9639Z" fill="#FFBD6C"/>
<path d="M21.3721 23.2414C20.5664 23.2414 19.9072 22.5823 19.9072 21.7766V20.4718H19.8642C19.0585 20.4718 18.3993 21.131 18.3993 21.9366V23.2846C18.3993 24.0903 19.0585 24.7494 19.8642 24.7494H27.849C28.6547 24.7494 29.3139 24.0903 29.3139 23.2846V23.2415H21.3721V23.2414Z" fill="#FFBD6C"/>
<path d="M11.9125 38.0514H3.17646C3.06962 38.0514 2.98232 38.1391 2.98232 38.2464V43.8519C2.98232 43.9592 3.06962 44.0469 3.17646 44.0469H11.9125C12.0193 44.0469 12.1066 43.9592 12.1066 43.8519V38.2464C12.1067 38.1391 12.0193 38.0514 11.9125 38.0514Z" fill="#FFAF10"/>
<path d="M4.92013 43.8518V39.5824L3.02921 38.1209C3.038 38.1105 3.04777 38.1011 3.05851 38.0927C3.01252 38.1285 2.98244 38.1837 2.98244 38.2462V43.8517C2.98244 43.959 3.06974 44.0467 3.17658 44.0467H5.11427C5.00744 44.0468 4.92013 43.9591 4.92013 43.8518Z" fill="#EF9614"/>
<path d="M11.9125 38.0514H3.17646C3.11738 38.0514 3.06474 38.0788 3.0291 38.1211L7.39062 41.492C7.47529 41.5574 7.61377 41.5574 7.69834 41.492L12.0598 38.1211C12.0242 38.0788 11.9717 38.0514 11.9125 38.0514Z" fill="#FFD00D"/>
<path d="M49.8059 22.6712H41.0698C40.963 22.6712 40.8757 22.7589 40.8757 22.8662V28.4717C40.8757 28.579 40.9631 28.6667 41.0698 28.6667H49.8059C49.9127 28.6667 50 28.579 50 28.4717V22.8662C50 22.759 49.9126 22.6712 49.8059 22.6712Z" fill="#FFAF10"/>
<path d="M42.8134 28.4718V24.2024L40.9224 22.7409C40.9312 22.7305 40.941 22.7211 40.9517 22.7127C40.9057 22.7484 40.8757 22.8037 40.8757 22.8662V28.4717C40.8757 28.579 40.9631 28.6667 41.0698 28.6667H43.0076C42.9008 28.6668 42.8134 28.579 42.8134 28.4718Z" fill="#EF9614"/>
<path d="M49.8058 22.6712H41.0698C41.0107 22.6712 40.9581 22.6986 40.9224 22.7409L45.2839 26.1118C45.3686 26.1773 45.5071 26.1773 45.5917 26.1118L49.9531 22.7409C49.9174 22.6987 49.8649 22.6712 49.8058 22.6712Z" fill="#FFD00D"/>
</svg>
