<svg width="80" height="102" viewBox="0 0 80 102" fill="none" xmlns="http://www.w3.org/2000/svg">
<path d="M61.6209 2.36743H0V93.5498H61.6209V2.36743Z" fill="#535461"/>
<path d="M44.8279 95.9081L0 93.5488V2.36644L44.8279 0.00708008V95.9081Z" fill="#FBAC2A"/>
<path d="M41.0806 52.8857C41.3872 52.8857 41.6358 52.6371 41.6358 52.3305C41.6358 52.0239 41.3872 51.7754 41.0806 51.7754C40.774 51.7754 40.5255 52.0239 40.5255 52.3305C40.5255 52.6371 40.774 52.8857 41.0806 52.8857Z" fill="#535461"/>
<path d="M41.0807 52.4138L41.4651 53.08L41.8509 53.7462H41.0807H40.3104L40.6962 53.08L41.0807 52.4138Z" fill="#535461"/>
<path d="M46.7709 95.9091L44.0257 95.9008L44.1339 0.00805664H46.7709V95.9091Z" fill="#D6932E"/>
<g opacity="0.1">
<path opacity="0.1" d="M46.8014 95.9011H44.0257L44.1645 0H46.8014V95.9011Z" fill="white"/>
</g>
<path opacity="0.1" d="M41.0806 50.1101C42.0771 50.1101 42.8848 49.3024 42.8848 48.3059C42.8848 47.3095 42.0771 46.5017 41.0806 46.5017C40.0842 46.5017 39.2764 47.3095 39.2764 48.3059C39.2764 49.3024 40.0842 50.1101 41.0806 50.1101Z" fill="black"/>
<path d="M41.0806 49.8326C42.0771 49.8326 42.8848 49.0248 42.8848 48.0283C42.8848 47.0319 42.0771 46.2241 41.0806 46.2241C40.0842 46.2241 39.2764 47.0319 39.2764 48.0283C39.2764 49.0248 40.0842 49.8326 41.0806 49.8326Z" fill="#535461"/>
<path d="M48.0144 27.4173V28.411L52.214 25.7602L51.7727 25.205L51.5673 25.3258L48.3183 20.5654V17.8036L47.0817 17.9146V17.4733C43.8203 13.7177 43.483 17.9146 44.1575 19.1304C44.832 20.3461 46.0658 21.2344 46.0658 21.2344C46.7598 21.8131 47.9561 26.1849 48.2489 27.2813L48.0144 27.4173Z" fill="url(#paint0_linear)"/>
<path d="M75.2608 25.2092L74.6876 24.8206H74.6627L74.1422 23.2745L73.9535 23.2815L73.3067 21.9894C73.864 21.7141 74.369 21.3435 74.7987 20.8943C75.809 19.8979 76.7306 18.188 76.503 15.2971C76.4558 14.6989 77.4425 13.1501 74.4892 12.3451C74.4013 11.5072 74.0552 10.7174 73.4988 10.0848C72.9423 9.4523 72.203 9.00834 71.3832 8.8144C70.2418 8.53087 69.0631 8.42785 67.8899 8.50908C65.6235 8.70199 63.6361 10.3674 63.6361 12.6421C63.6361 12.6421 62.9519 12.8531 62.9144 15.0972H63.0019C62.5913 16.7552 62.8558 18.5084 63.7372 19.9715C64.6186 21.4346 66.0449 22.4878 67.7025 22.8998L67.7414 23.1329C67.7817 23.1552 67.8233 23.1746 67.8649 23.194L68.2813 24.2793L66.9365 25.0871L64.2385 25.1759C62.9947 25.2188 61.7684 25.4814 60.6161 25.9517C58.1458 26.944 53.6477 27.8961 53.6477 27.8961L52.214 25.8462L48.0172 28.7385L50.779 32.9562C51.2203 33.2902 51.7032 33.5654 52.2154 33.7751H52.2279H52.2432L52.3681 33.825C53.051 34.0897 53.758 34.2877 54.479 34.4162C56.1445 34.7507 58.6426 34.9991 61.7695 34.5287L61.7472 34.5217L61.825 34.512L62.7632 53.5257H62.8242L62.3759 56.7816C57.9556 62.315 56.7399 78.3351 56.7399 78.3351L63.2808 97.1419C63.1573 97.679 62.6605 98.8393 60.6633 99.6526C57.9862 100.742 62.5619 101.532 62.5619 101.532L66.7255 100.254C67.0697 100.947 69.003 101.862 69.003 101.862L77.2871 101.641V97.5527H77.1761C77.1761 97.5527 77.9491 90.1527 77.3967 88.6066C76.8444 87.0605 77.3967 79.5494 77.3967 79.5494L77.8381 63.5335C79.3842 60.4414 79.3842 57.7906 78.1698 55.2494C77.8041 54.4776 77.5695 53.6502 77.4759 52.8012C77.8089 52.0171 77.9491 50.7291 77.6146 48.6224C76.6209 42.3576 79.8241 36.0845 79.8241 36.0845C80.2006 34.0244 79.9697 31.8994 79.1594 29.9683C78.3492 28.0373 76.9946 26.3837 75.2608 25.2092ZM70.3201 98.5048L69.3874 95.1587L69.1751 95.2184L65.1336 78.224L68.8892 70.3826V77.8937L70.9876 92.5842V97.5527C70.8546 97.9243 70.624 98.2531 70.3201 98.5048Z" fill="url(#paint1_linear)"/>
<path d="M48.8485 19.2703V21.9281L52.0086 26.558L48.8485 28.6134C48.8485 28.6134 47.444 23.2008 46.6876 22.5637C46.6876 22.5637 45.4982 21.7144 44.8501 20.5472C44.2019 19.38 44.5253 15.3469 47.6605 18.9553V19.38L48.8485 19.2703Z" fill="#FDA57D"/>
<path d="M74.0034 25.5976L72.7544 23.0995C72.7176 23.0261 72.662 22.9637 72.5932 22.9189C72.5244 22.874 72.445 22.8482 72.363 22.8441L67.6193 22.5971C67.542 22.593 67.465 22.6084 67.3952 22.6417C67.3254 22.6751 67.2651 22.7253 67.2197 22.788C67.1743 22.8506 67.1453 22.9236 67.1353 23.0003C67.1254 23.077 67.1348 23.155 67.1627 23.2272L68.3882 26.3956C68.4245 26.4894 68.4903 26.5687 68.5756 26.6218C68.661 26.6749 68.7613 26.6988 68.8614 26.6899L73.6384 26.2652C73.7127 26.2571 73.784 26.2312 73.8461 26.1897C73.9082 26.1482 73.9594 26.0923 73.9953 26.0267C74.0311 25.9611 74.0506 25.8879 74.052 25.8132C74.0534 25.7385 74.0368 25.6645 74.0034 25.5976Z" fill="#FDA57D"/>
<path d="M73.6578 24.5234L74.4642 26.8897L66.1759 26.5927L69.3596 24.6817L73.6578 24.5234Z" fill="#EDEEF9"/>
<path d="M52.5915 26.9105L52.1669 26.3804L48.5584 28.5024V29.4586L52.5915 26.9105Z" fill="#EDEEF9"/>
<path d="M76.972 50.3889C76.972 50.3889 76.3656 52.8052 77.5272 55.2464C78.6888 57.6877 78.6944 60.2344 77.2094 63.2058L76.7888 78.5944C76.7888 78.5944 76.2587 85.8112 76.7888 87.2962C77.319 88.7813 76.5765 95.8926 76.5765 95.8926H70.6337V91.1184L68.6171 77.0039V69.787L65.0087 77.3217L69.1459 94.7268L63.7333 96.9557L56.9411 77.4286C56.9411 77.4286 58.1083 62.04 62.3537 56.7342L63.1504 50.9496L76.972 50.3889Z" fill="#7A7478"/>
<path d="M76.6834 99.8205V95.8943H70.6337C70.6337 95.8943 70.209 97.4862 67.45 97.804C64.6909 98.1218 68.7296 100.033 68.7296 100.033L76.6834 99.8205Z" fill="#333333"/>
<path d="M70.1494 97.3763L69.096 93.593L63.267 95.2154C63.267 95.2154 63.285 96.8628 60.7119 97.9093C58.1388 98.9557 62.5369 99.7135 62.5369 99.7135L70.1494 97.3763Z" fill="#333333"/>
<path opacity="0.1" d="M63.1518 51.2675L76.9721 50.7124C76.8013 51.5362 76.7661 52.3824 76.868 53.2175C76.2351 54.7053 74.8792 54.2972 74.8792 54.2972L62.7867 53.9253L63.1518 51.2675Z" fill="black"/>
<path d="M74.1894 26.0085L74.7445 26.3819C76.4114 27.5108 77.7135 29.1005 78.492 30.957C79.2706 32.8135 79.4918 34.8565 79.1288 36.8366C79.1288 36.8366 76.0505 42.8585 77.0068 48.8805C77.963 54.9024 74.8847 53.9753 74.8847 53.9753L62.7326 53.602L61.8305 35.3308C61.8305 35.3308 54.5082 36.3731 51.2176 33.825L48.564 29.7724L52.5971 26.9967L53.9766 28.9647C53.9766 28.9647 58.2984 28.0515 60.6716 27.0897C61.7778 26.6373 62.9553 26.3841 64.1496 26.3416L74.1894 26.0085Z" fill="#252A62"/>
<path opacity="0.1" d="M74.0825 55.4062C74.0825 55.4062 74.825 59.1202 70.5809 65.2767L74.0825 55.4062Z" fill="black"/>
<path opacity="0.1" d="M61.7722 35.3485C61.7722 35.3485 56.6788 33.6511 54.4499 33.6511C52.221 33.6511 52.5929 34.6143 52.5929 34.6143C52.5929 34.6143 56.1472 36.1965 61.7722 35.3485Z" fill="black"/>
<path opacity="0.1" d="M67.5485 22.8094L69.5761 23.0523C69.64 23.0606 69.6983 23.1411 69.733 23.266C69.2875 24.0696 68.7295 24.5498 68.1244 24.5498C67.9082 24.5471 67.6963 24.4883 67.5096 24.3791L67.3542 23.4409C67.3014 23.1273 67.4055 22.7928 67.5485 22.8094Z" fill="black"/>
<path d="M68.9627 24.336C72.3813 24.336 75.1525 21.5647 75.1525 18.1462C75.1525 14.7276 72.3813 11.9563 68.9627 11.9563C65.5441 11.9563 62.7728 14.7276 62.7728 18.1462C62.7728 21.5647 65.5441 24.336 68.9627 24.336Z" fill="#FDA57D"/>
<path opacity="0.1" d="M63.6986 14.642L64.0108 14.9279C64.1436 15.0494 64.2436 15.2024 64.3015 15.3727C64.3595 15.5431 64.3736 15.7253 64.3424 15.9025C64.3113 16.0797 64.236 16.2463 64.1234 16.3867C64.0109 16.5271 63.8648 16.6368 63.6986 16.7058C63.6986 16.7058 66.4743 19.4815 66.8573 19.9936C67.2404 20.5057 66.7935 21.863 66.7935 21.863C66.7935 21.863 65.568 24.1197 72.016 23.6034C72.016 23.6034 76.2712 22.7013 75.8201 16.9625C75.7743 16.3879 76.7222 14.8988 73.8854 14.1257C73.8013 13.3206 73.4689 12.5615 72.9343 11.9535C72.3997 11.3456 71.6894 10.9188 70.9015 10.7324C69.8051 10.4598 68.6728 10.3605 67.5457 10.4382C66.4945 10.5299 65.5161 11.0127 64.8037 11.7911C64.0914 12.5695 63.697 13.5869 63.6986 14.642Z" fill="black"/>
<path d="M63.564 14.3034C63.564 14.3034 62.9075 14.506 62.87 16.6628L63.8041 16.5989C63.8041 16.5989 65.9664 22.3821 65.7387 21.6285C64.906 18.8528 66.5715 19.3719 66.9642 19.8881C67.357 20.4044 66.9004 21.7576 66.9004 21.7576C66.9004 21.7576 65.6763 24.0101 72.1229 23.498C72.1229 23.498 76.3781 22.5959 75.927 16.8571C75.8812 16.2825 76.8291 14.7933 73.9923 14.0203C73.9082 13.2151 73.5758 12.456 73.0412 11.848C72.5066 11.2401 71.7962 10.8134 71.0084 10.6269C69.912 10.3544 68.7797 10.2551 67.6526 10.3327C65.4737 10.5187 63.564 12.1175 63.564 14.3034Z" fill="#72351C"/>
<path opacity="0.1" d="M7.3307 2.23608V93.9805" stroke="black" stroke-width="2" stroke-miterlimit="10"/>
<path opacity="0.1" d="M15.2415 1.68091V94.2581" stroke="black" stroke-width="2" stroke-miterlimit="10"/>
<path opacity="0.1" d="M23.1523 1.2644V94.7909" stroke="black" stroke-width="2" stroke-miterlimit="10"/>
<path opacity="0.1" d="M31.0631 0.8479V95.368" stroke="black" stroke-width="2" stroke-miterlimit="10"/>
<path opacity="0.1" d="M38.9739 0.431641V95.4847" stroke="black" stroke-width="2" stroke-miterlimit="10"/>
<defs>
<linearGradient id="paint0_linear" x1="48.0394" y1="28.411" x2="48.0394" y2="15.948" gradientUnits="userSpaceOnUse">
<stop stop-color="#808080" stop-opacity="0.25"/>
<stop offset="0.54" stop-color="#808080" stop-opacity="0.12"/>
<stop offset="1" stop-color="#808080" stop-opacity="0.1"/>
</linearGradient>
<linearGradient id="paint1_linear" x1="24770.1" y1="76294.2" x2="24770.1" y2="13460.8" gradientUnits="userSpaceOnUse">
<stop stop-color="#808080" stop-opacity="0.25"/>
<stop offset="0.54" stop-color="#808080" stop-opacity="0.12"/>
<stop offset="1" stop-color="#808080" stop-opacity="0.1"/>
</linearGradient>
</defs>
</svg>
