<svg width="50" height="50" viewBox="0 0 50 50" fill="none" xmlns="http://www.w3.org/2000/svg">
<g clip-path="url(#clip0)">
<path d="M50 24.9996C50 38.8069 38.8073 49.9996 25.0004 49.9996C11.1931 49.9996 0.000366211 38.8069 0.000366211 24.9996C0.000366211 11.1927 11.1931 0 25.0004 0C38.8073 0 50 11.1927 50 24.9996Z" fill="#FBAC2A"/>
<path d="M22.7043 42.0513H27.296V48.0202H22.7043V42.0513Z" fill="#3B3B3B"/>
<path d="M49.2019 8.46632V31.2866C48.7224 33.1436 48.0327 34.9159 47.1611 36.5791C46.3489 38.1325 45.3777 39.5893 44.2695 40.9282C43.6775 41.6435 43.0469 42.3252 42.3805 42.9691H7.61984C6.95341 42.3252 6.32284 41.6435 5.7308 40.9282C4.62263 39.5893 3.65141 38.1325 2.83926 36.5791C1.96761 34.9159 1.27791 33.1436 0.798401 31.2866V8.46632C0.798401 7.48862 1.59109 6.69592 2.5688 6.69592H47.4315C48.4092 6.69592 49.2019 7.48862 49.2019 8.46632Z" fill="#4A4A4A"/>
<path d="M47.1615 8.73639V36.5791C46.3493 38.1321 45.3777 39.5893 44.2696 40.9282H5.7312C4.62303 39.5893 3.65181 38.1321 2.83966 36.5791V8.73639H47.1615Z" fill="#FFCB75"/>
<path d="M36.5123 47.1966C33.0665 48.9872 29.1523 49.9996 25.0003 49.9996C20.8481 49.9996 16.9338 48.9872 13.488 47.1966C16.2666 46.6702 20.3941 46.3364 25.0003 46.3364C29.6074 46.3364 33.7337 46.6702 36.5123 47.1966Z" fill="#4A4A4A"/>
<path d="M45.8119 3.31957L42.3187 33.6785L18.8435 33.1352L16.6042 33.0834L20.0974 2.72448C20.2412 1.47516 21.3406 0.568028 22.5815 0.649282C22.6204 0.65157 22.6589 0.655385 22.6982 0.659963L45.8119 3.31957Z" fill="#0680AE"/>
<path d="M22.5811 0.649282L18.8431 33.1352L16.6042 33.0834L20.0974 2.72448C20.2412 1.47516 21.3406 0.568028 22.5811 0.649282Z" fill="#025F80"/>
<path d="M42.3191 33.6785L41.782 38.3438L18.6684 35.6842C18.0241 35.6102 17.471 35.2822 17.0979 34.8111C16.724 34.3407 16.5303 33.7277 16.6043 33.0834C16.7527 31.7948 17.9169 30.8705 19.2051 31.0189L42.3191 33.6785Z" fill="#CCCCCC"/>
<path d="M42.2477 34.2956L42.1573 35.0818L20.6066 32.6019C20.4983 32.5893 20.4048 32.5336 20.3418 32.4551C20.2793 32.3761 20.2465 32.2723 20.2591 32.1636C20.2839 31.9462 20.4799 31.7909 20.6974 31.8157L42.2477 34.2956Z" fill="#EAEAEA"/>
<path d="M42.0959 35.6178L42.0051 36.4041L20.4547 33.9245C20.346 33.9119 20.2526 33.8562 20.1896 33.7773C20.1271 33.6983 20.0943 33.5945 20.1068 33.4858C20.1316 33.2688 20.3277 33.1131 20.5452 33.1383L42.0959 35.6178Z" fill="#EAEAEA"/>
<path d="M41.9437 36.9404L41.8529 37.7266L22.0897 35.4523C21.981 35.4401 21.8875 35.3844 21.8246 35.3054C21.762 35.2264 21.7292 35.1227 21.7418 35.014C21.7666 34.7965 21.9627 34.6413 22.1801 34.6661L41.9437 36.9404Z" fill="#EAEAEA"/>
<path d="M35.0056 34.7854L19.4271 40.9282H8.1375L2.83964 22.7863L0.101837 13.4121C-0.276963 12.1162 0.433334 10.7589 1.69562 10.3222C1.73529 10.3088 1.77534 10.2958 1.81616 10.2844L2.83964 9.98532L7.11592 8.73639L25.8037 3.27832L27.3975 8.73639L35.0056 34.7854Z" fill="#FE3745"/>
<path d="M10.6342 40.9283H8.1375L2.83964 22.7863L0.101837 13.4121C-0.276963 12.1163 0.433334 10.759 1.69562 10.3222L2.83964 14.2388L10.6342 40.9283Z" fill="#BF000D"/>
<path d="M36.4197 39.6271L31.9656 40.9283H13.974L35.0067 34.7855L35.1933 35.4263L35.5942 36.7985L35.8322 37.6148L35.9943 38.171L36.2331 38.9873L36.4197 39.6271Z" fill="#CCCCCC"/>
<path d="M10.5225 17.6658L7.85141 16.5138L6.21986 18.9224L3.54919 9.7778L7.85179 8.52124L10.5225 17.6658Z" fill="#4C4C4C"/>
<path d="M35.4309 36.2423L19.3863 40.9283H16.3555L35.1933 35.4263L35.4309 36.2423Z" fill="#EAEAEA"/>
<path d="M35.8322 37.6148L24.4862 40.9282H21.4535L35.5942 36.7985L35.8322 37.6148Z" fill="#EAEAEA"/>
<path d="M36.2332 38.9874L29.5872 40.9283H26.5545L35.9944 38.171L36.2332 38.9874Z" fill="#EAEAEA"/>
</g>
<defs>
<clipPath id="clip0">
<rect width="50" height="50" fill="white"/>
</clipPath>
</defs>
</svg>
