<svg width="50" height="50" viewBox="0 0 50 50" fill="none" xmlns="http://www.w3.org/2000/svg">
<g clip-path="url(#clip0)">
<path d="M49.6365 25.0001C49.6365 32.5315 46.2816 39.279 40.9847 43.8302C39.8248 44.828 38.5718 45.7194 37.2397 46.4903C36.2196 47.0819 35.1529 47.6025 34.0478 48.0452C32.9173 48.498 31.7463 48.8708 30.5408 49.1544C29.2422 49.4613 27.9051 49.6659 26.5365 49.7591C25.9693 49.7987 25.3959 49.8179 24.8186 49.8179C24.2412 49.8179 23.6678 49.7987 23.1006 49.7591C21.732 49.666 20.394 49.4613 19.0953 49.1544C17.8899 48.8708 16.7189 48.4979 15.5894 48.0452C14.4842 47.6025 13.4176 47.0818 12.3975 46.4903C11.0654 45.7194 9.81134 44.827 8.65148 43.8302C3.3547 39.2779 0.000694275 32.5305 0.000694275 25.0001C0.000694275 11.2935 11.112 0.18219 24.8186 0.18219C38.5251 0.18219 49.6365 11.2934 49.6365 25.0001Z" fill="#FBAC2A"/>
<path d="M48.2751 33.1272C44.91 42.8426 35.6787 49.818 24.8186 49.818C20.8396 49.818 17.0795 48.8819 13.7458 47.2177C8.61806 37.4192 4.51854 27.102 1.51913 16.4323C1.01571 14.6434 0.543641 12.8434 0.103016 11.0352C-0.375109 9.07404 0.857704 7.10275 2.82997 6.67023C5.21552 6.14757 7.60009 5.62384 9.98563 5.10011C16.6459 3.63947 23.3053 2.17775 29.9655 0.717007C30.2562 0.653237 30.5479 0.58937 30.8387 0.525601C31.2327 0.439468 31.6267 0.352358 32.0219 0.266323C33.1321 0.0232569 34.2342 0.320034 35.0558 0.986538C35.6453 1.46261 36.09 2.12921 36.2875 2.9213C36.2935 2.94562 36.2996 2.97091 36.3067 2.99523C36.7362 4.71125 37.2022 6.41603 37.7047 8.10871C38.3144 10.161 38.9769 12.195 39.6922 14.2099C42.0108 20.7466 44.8826 27.0746 48.2751 33.1272Z" fill="#F2F2F2"/>
<path d="M37.7047 8.10871L27.9366 35.1409L25.8316 24.0144L30.8388 0.525601C31.2328 0.439468 31.6269 0.352358 32.022 0.266323C33.1322 0.0232569 34.2343 0.320034 35.0559 0.986538C35.6454 1.46261 36.0901 2.12921 36.2876 2.9213C36.2937 2.94562 36.2997 2.97091 36.3068 2.99523C36.7363 4.71115 37.2022 6.41603 37.7047 8.10871Z" fill="#D5D4E2"/>
<path d="M48.2751 33.1272C44.91 42.8426 35.6787 49.818 24.8187 49.818C20.8397 49.818 17.0795 48.882 13.7458 47.2177C12.6629 45.1492 11.6267 43.0574 10.637 40.9444C11.6237 41.6332 12.6619 42.2521 13.7458 42.7931C17.0795 44.4574 20.8397 45.3934 24.8187 45.3934C34.7094 45.3934 43.2497 39.6073 47.2368 31.235C47.5772 31.8691 47.9237 32.4991 48.2751 33.1272Z" fill="#D5D4E2"/>
<path d="M7.80011 18.4435C7.14777 18.4435 6.54474 18.0201 6.34621 17.3633C6.10343 16.56 6.55763 15.712 7.36095 15.4692L33.4957 7.56801C34.2993 7.32524 35.1471 7.77953 35.3899 8.58276C35.6326 9.38608 35.1784 10.2341 34.3751 10.4769L8.24035 18.3781C8.09377 18.4223 7.94572 18.4435 7.80011 18.4435Z" fill="#D5D4E2"/>
<path d="M11.6503 27.5603C11.0366 27.5603 10.4587 27.1859 10.2288 26.5778C9.93205 25.7929 10.3277 24.9159 11.1126 24.6192L35.2214 15.5023C36.0062 15.2055 36.8833 15.6012 37.1801 16.3861C37.4769 17.1711 37.0813 18.0481 36.2963 18.3448L12.1875 27.4616C12.0105 27.5285 11.8288 27.5603 11.6503 27.5603Z" fill="#D5D4E2"/>
<path d="M16.1587 37.3861C15.5871 37.3861 15.0396 37.062 14.7813 36.5101C14.4258 35.7499 14.7537 34.8454 15.5139 34.4899L30.4553 27.5003C31.2153 27.1447 32.1198 27.4727 32.4755 28.2328C32.831 28.993 32.5031 29.8975 31.743 30.253L16.8016 37.2426C16.5934 37.34 16.3743 37.3861 16.1587 37.3861Z" fill="#D5D4E2"/>
<path d="M39.371 27.6667L33.7934 31.3129L27.9369 35.1411L27.7367 28.1473L27.5465 21.4863L30.2647 21.6054L37.5719 21.9275L39.371 27.6667Z" fill="#D5D4E2"/>
<path d="M27.9369 35.1411L27.7367 28.1473L27.5465 21.4863L30.2647 21.6054L31.4104 24.2359L27.9369 35.1411Z" fill="#CBCBD3"/>
<path d="M49.7377 7.833L47.3585 12.385L35.534 6.20448L37.9132 1.65253C38.5022 0.525481 39.8932 0.0895433 41.0202 0.678508L48.7635 4.72587C49.8906 5.31503 50.3266 6.70605 49.7377 7.833Z" fill="#003244"/>
<path d="M49.7377 7.83299L47.3585 12.3849L39.1441 8.09149L41.5233 3.53954C42.1124 2.41258 43.5034 1.97655 44.6304 2.56551L48.7638 4.72587C49.8906 5.31503 50.3267 6.70604 49.7377 7.83299Z" fill="#0680AE"/>
<path d="M47.3038 12.4894L39.371 27.6666C37.7385 26.8134 35.7229 27.4451 34.8697 29.0775C35.7229 27.4451 35.0912 25.4295 33.4588 24.5763C31.8263 23.723 29.8107 24.3548 28.9575 25.9872C29.8107 24.3548 29.179 22.3391 27.5466 21.4859L35.4794 6.30878L47.3038 12.4894Z" fill="#60A0C2"/>
<path d="M47.3038 12.4894L39.371 27.6666C37.7386 26.8134 35.7229 27.4451 34.8697 29.0775C35.7229 27.4451 35.0912 25.4295 33.4588 24.5763L41.3916 9.39911L47.3038 12.4894Z" fill="#88B9D3"/>
<path d="M44.3476 10.9444L34.8696 29.0777C35.7229 27.4453 35.0911 25.4296 33.4587 24.5764C31.8263 23.7232 29.8107 24.3549 28.9574 25.9874L38.4354 7.85406L44.3476 10.9444Z" fill="#75A6C0"/>
<path d="M48.0362 12.8724C47.8546 13.2198 47.5503 13.4603 47.2046 13.5687C46.8589 13.6771 46.4716 13.6532 46.1242 13.4717L35.3462 7.83827C34.6524 7.47567 34.3842 6.62011 34.7468 5.92626C34.9284 5.5788 35.2327 5.33827 35.5784 5.22987C35.9241 5.12147 36.3114 5.1454 36.6588 5.32694L47.4368 10.9604C48.1307 11.3229 48.3989 12.1786 48.0362 12.8724Z" fill="#CBCBD3"/>
<path d="M48.0363 12.8723C47.8546 13.2198 47.5503 13.4603 47.2046 13.5687C46.8589 13.6771 46.4716 13.6532 46.1243 13.4716L38.5902 9.53365C37.8964 9.17105 37.6282 8.31548 37.9908 7.62163C38.1724 7.27417 38.4767 7.03365 38.8224 6.92525C39.1681 6.81685 39.5554 6.84077 39.9028 7.02232L47.4369 10.9603C48.1307 11.3229 48.399 12.1786 48.0363 12.8723Z" fill="#D5D4E2"/>
<path d="M33.7934 31.3129L27.9368 35.141L27.7367 28.1473C28.5108 28.1241 29.2974 28.2303 30.0608 28.4748C30.44 28.5956 30.8132 28.7509 31.1774 28.9412C32.2773 29.5159 33.1602 30.3425 33.7934 31.3129Z" fill="#454A5B"/>
<path d="M27.9369 35.1411L27.7368 28.1474C28.5109 28.1242 29.2974 28.2304 30.0609 28.4749L27.9369 35.1411Z" fill="#33384A"/>
</g>
<defs>
<clipPath id="clip0">
<rect width="50" height="50" fill="white"/>
</clipPath>
</defs>
</svg>
