<svg width="50" height="50" viewBox="0 0 50 50" fill="none" xmlns="http://www.w3.org/2000/svg">
<g clip-path="url(#clip0)">
<path d="M25 50C38.1351 50 48.7832 39.3519 48.7832 26.2168C48.7832 13.0817 38.1351 2.43359 25 2.43359C11.8649 2.43359 1.2168 13.0817 1.2168 26.2168C1.2168 39.3519 11.8649 50 25 50Z" fill="#FBAC2A"/>
<path d="M23.4132 40.0522C23.1891 44.6704 21.895 46.7727 21.895 46.7727H25H28.1049C28.1049 46.7727 26.8181 44.6802 26.5887 40.091C26.5625 39.5675 26.134 39.1547 25.6099 39.1547H24.3509C23.8486 39.1547 23.4375 39.5506 23.4132 40.0522Z" fill="#CECCCA"/>
<path d="M23.4132 40.0522C23.1891 44.6704 21.895 46.7727 21.895 46.7727H25H28.1049C28.1049 46.7727 26.8181 44.6802 26.5887 40.091C26.5625 39.5675 26.134 39.1547 25.6099 39.1547H24.3509C23.8486 39.1547 23.4375 39.5506 23.4132 40.0522Z" fill="#DDDDDD"/>
<path d="M25.6098 39.1547H24.3509C23.8487 39.1547 23.4375 39.5506 23.4132 40.0522C23.1891 44.6704 21.895 46.7727 21.895 46.7727H25H25.0701C25.0701 46.7727 26.3598 44.6767 26.587 40.0738C26.5523 39.5586 26.1281 39.1547 25.6098 39.1547Z" fill="#CECCCA"/>
<path d="M29.7193 46.5461H20.2806C19.4223 46.5461 18.7199 47.2484 18.7199 48.1068V49.1603C20.7207 49.7066 22.826 50 25 50C27.174 50 29.2792 49.7066 31.28 49.1602V48.1067C31.28 47.2484 30.5777 46.5461 29.7193 46.5461Z" fill="#0680AE"/>
<path d="M23.9933 48.1068C23.9933 47.2485 24.6956 46.5461 25.554 46.5461H20.2806C19.4223 46.5461 18.7199 47.2484 18.7199 48.1068V49.1603C20.4102 49.6219 22.1754 49.9021 23.9933 49.9782V48.1068Z" fill="#006287"/>
<path d="M25 40.02C24.5221 40.02 24.1348 39.6326 24.1348 39.1548V35.2205C24.1348 34.7427 24.5221 34.3553 25 34.3553C25.4779 34.3553 25.8652 34.7427 25.8652 35.2205V39.1548C25.8652 39.6326 25.4779 40.02 25 40.02Z" fill="#CECCCA"/>
<path d="M25 35.2206C20.8266 35.2206 17.412 31.806 17.412 27.6326V16.0164C17.412 11.843 20.8266 8.42841 25 8.42841C29.1733 8.42841 32.588 11.843 32.588 16.0164V27.6326C32.588 31.8059 29.1733 35.2206 25 35.2206Z" fill="#0680AE"/>
<path d="M20.6089 27.6326V16.0164C20.6089 12.3911 23.186 9.33983 26.5984 8.60057C26.0825 8.48876 25.548 8.42841 25 8.42841C20.8265 8.42841 17.412 11.8431 17.412 16.0164V27.6326C17.412 31.8059 20.8266 35.2206 25 35.2206C25.548 35.2206 26.0825 35.1602 26.5984 35.0485C23.186 34.3092 20.6089 31.2579 20.6089 27.6326Z" fill="#006287"/>
<path d="M24.9999 40.02C18.6958 40.02 13.4155 35.2993 12.7173 29.0393C12.5842 27.8436 13.5299 26.7958 14.736 26.7958H18.7198C19.1978 26.7958 19.5851 27.1832 19.5851 27.661C19.5851 28.1389 19.1978 28.5263 18.7198 28.5263H14.736C14.5635 28.5263 14.4176 28.6734 14.4371 28.8476C15.0374 34.2303 19.5783 38.2895 24.9998 38.2895C30.4213 38.2895 34.9624 34.2303 35.5626 28.8475C35.5821 28.6737 35.4366 28.5262 35.2637 28.5262H31.2799C30.802 28.5262 30.4147 28.1388 30.4147 27.6609C30.4147 27.1831 30.802 26.7957 31.2799 26.7957H35.2637C36.4717 26.7957 37.4154 27.8451 37.2824 29.0392C36.5845 35.2993 31.3041 40.02 24.9999 40.02Z" fill="#EFEFEF"/>
<path d="M20.9745 16.8817H17.4486C16.9707 16.8817 16.5834 16.4943 16.5834 16.0164C16.5834 15.5386 16.9707 15.1512 17.4486 15.1512H20.9745C21.4524 15.1512 21.8397 15.5386 21.8397 16.0164C21.8397 16.4943 21.4524 16.8817 20.9745 16.8817Z" fill="#88B9D3"/>
<path d="M20.9745 20.7632H17.4486C16.9707 20.7632 16.5834 20.3758 16.5834 19.8979C16.5834 19.4201 16.9707 19.0327 17.4486 19.0327H20.9745C21.4524 19.0327 21.8397 19.4201 21.8397 19.8979C21.8397 20.3758 21.4524 20.7632 20.9745 20.7632Z" fill="#88B9D3"/>
<path d="M20.9745 24.6448H17.4486C16.9707 24.6448 16.5834 24.2574 16.5834 23.7796C16.5834 23.3018 16.9707 22.9144 17.4486 22.9144H20.9745C21.4524 22.9144 21.8397 23.3018 21.8397 23.7796C21.8397 24.2574 21.4524 24.6448 20.9745 24.6448Z" fill="#88B9D3"/>
<path d="M20.9745 28.5262H17.4486C16.9707 28.5262 16.5834 28.1388 16.5834 27.661C16.5834 27.1832 16.9707 26.7958 17.4486 26.7958H20.9745C21.4524 26.7958 21.8397 27.1832 21.8397 27.661C21.8397 28.1389 21.4524 28.5262 20.9745 28.5262Z" fill="#88B9D3"/>
<path d="M32.588 16.8817H29.0621C28.5842 16.8817 28.1969 16.4943 28.1969 16.0164C28.1969 15.5386 28.5842 15.1512 29.0621 15.1512H32.588C33.0659 15.1512 33.4532 15.5386 33.4532 16.0164C33.4532 16.4943 33.0659 16.8817 32.588 16.8817Z" fill="#88B9D3"/>
<path d="M32.588 20.7632H29.0621C28.5842 20.7632 28.1969 20.3758 28.1969 19.8979C28.1969 19.4201 28.5842 19.0327 29.0621 19.0327H32.588C33.0659 19.0327 33.4532 19.4201 33.4532 19.8979C33.4532 20.3758 33.0659 20.7632 32.588 20.7632Z" fill="#88B9D3"/>
<path d="M32.588 24.6448H29.0621C28.5842 24.6448 28.1969 24.2574 28.1969 23.7796C28.1969 23.3018 28.5842 22.9144 29.0621 22.9144H32.588C33.0659 22.9144 33.4532 23.3018 33.4532 23.7796C33.4532 24.2574 33.0659 24.6448 32.588 24.6448Z" fill="#88B9D3"/>
<path d="M32.588 28.5262H29.0621C28.5842 28.5262 28.1969 28.1388 28.1969 27.661C28.1969 27.1832 28.5842 26.7958 29.0621 26.7958H32.588C33.0659 26.7958 33.4532 27.1832 33.4532 27.661C33.4532 28.1389 33.0659 28.5262 32.588 28.5262Z" fill="#88B9D3"/>
<path d="M25 22.6894C24.5278 22.6894 24.1348 22.3076 24.1348 21.8241C24.1348 21.4351 24.3995 21.0661 24.8304 20.9762C24.9424 20.9543 25.0577 20.9543 25.1696 20.9762C25.5885 21.0636 25.8653 21.423 25.8653 21.8241C25.8652 22.3028 25.4765 22.6894 25 22.6894Z" fill="#88B9D3"/>
<path d="M13.1947 16.6721H10.0584C9.58047 16.6721 9.19316 16.2847 9.19316 15.8068C9.19316 15.329 9.58047 14.9416 10.0584 14.9416H13.1947C13.6727 14.9416 14.06 15.329 14.06 15.8068C14.06 16.2848 13.6727 16.6721 13.1947 16.6721Z" fill="#ADE8F0"/>
<path d="M39.9416 16.6721H36.8051C36.3271 16.6721 35.9398 16.2847 35.9398 15.8068C35.9398 15.329 36.3271 14.9416 36.8051 14.9416H39.9416C40.4195 14.9416 40.8068 15.329 40.8068 15.8068C40.8068 16.2848 40.4195 16.6721 39.9416 16.6721Z" fill="#ADE8F0"/>
<path d="M11.3108 23.7104C11.0719 23.2965 11.2137 22.7673 11.6275 22.5285L14.3438 20.9602C14.7574 20.7212 15.2868 20.863 15.5258 21.2769C15.7647 21.6908 15.6228 22.22 15.2091 22.4588L12.4928 24.0271C12.0825 24.2641 11.5519 24.1277 11.3108 23.7104Z" fill="#ADE8F0"/>
<path d="M34.4743 10.3369C34.2353 9.92314 34.3772 9.39384 34.791 9.15498L37.5072 7.58681C37.9209 7.34785 38.4501 7.48955 38.6892 7.90351C38.9281 8.31728 38.7863 8.84658 38.3725 9.08544L35.6562 10.6536C35.245 10.8911 34.7147 10.7533 34.4743 10.3369Z" fill="#ADE8F0"/>
<path d="M30.4699 6.3325C30.0561 6.09353 29.9143 5.56433 30.1532 5.15056L31.7215 2.43436C31.9602 2.02049 32.4896 1.87859 32.9034 2.11766C33.3172 2.35662 33.4591 2.88582 33.2201 3.29959L31.6519 6.0158C31.4118 6.43172 30.8817 6.57039 30.4699 6.3325Z" fill="#ADE8F0"/>
<path d="M25 4.86689C24.5221 4.86689 24.1348 4.47949 24.1348 4.00166V0.865234C24.1348 0.387402 24.5221 0 25 0C25.4779 0 25.8652 0.387402 25.8652 0.865234V4.00166C25.8652 4.47959 25.4779 4.86689 25 4.86689Z" fill="#ADE8F0"/>
<path d="M18.348 6.01582L16.7799 3.29961C16.5409 2.88574 16.6828 2.35654 17.0966 2.11768C17.5102 1.87861 18.0396 2.02041 18.2785 2.43438L19.8467 5.15059C20.0856 5.56446 19.9438 6.09366 19.53 6.33252C19.1189 6.57002 18.5884 6.43243 18.348 6.01582Z" fill="#ADE8F0"/>
<path d="M37.5071 24.027L34.7909 22.4587C34.3771 22.2197 34.2352 21.6905 34.4742 21.2768C34.7129 20.8628 35.2425 20.7209 35.6561 20.9601L38.3723 22.5283C38.7861 22.7673 38.928 23.2965 38.689 23.7103C38.449 24.1262 37.9188 24.2649 37.5071 24.027Z" fill="#ADE8F0"/>
<path d="M14.3437 10.6536L11.6274 9.08545C11.2137 8.84658 11.0718 8.31738 11.3107 7.90352C11.5496 7.48965 12.0786 7.34766 12.4927 7.58682L15.209 9.15498C15.6228 9.39385 15.7646 9.92305 15.5257 10.3369C15.2869 10.7505 14.7579 10.8927 14.3437 10.6536Z" fill="#ADE8F0"/>
</g>
<defs>
<clipPath id="clip0">
<rect width="50" height="50" fill="white"/>
</clipPath>
</defs>
</svg>
