<svg width="50" height="50" viewBox="0 0 50 50" fill="none" xmlns="http://www.w3.org/2000/svg">
<path d="M50 25C50 38.8073 38.8073 50 25 50C11.1927 50 0 38.8073 0 25C0 11.1927 11.1927 0 25 0C38.8073 0 50 11.1927 50 25Z" fill="#FBAC2A"/>
<path d="M43.8965 0H6.10352C5.75294 0 5.46875 0.284195 5.46875 0.634766V40.6063C7.48062 43.1202 9.96666 45.2374 12.793 46.8224C14.0331 47.5174 15.3389 48.1102 16.6992 48.5878C19.297 49.5029 22.0898 50 25 50C29.4334 50 33.5968 48.8457 37.207 46.8224C40.0333 45.2374 42.5194 43.1202 44.5312 40.6063V0.634766C44.5312 0.284195 44.2471 0 43.8965 0V0ZM39.1602 2.58789C39.1602 2.23732 39.4444 1.95312 39.7949 1.95312H41.9434C42.2939 1.95312 42.5781 2.23732 42.5781 2.58789V4.70428C42.5781 5.05486 42.2939 5.33905 41.9434 5.33905H39.7949C39.4444 5.33905 39.1602 5.05486 39.1602 4.70428V2.58789ZM10.8398 42.0731C10.8398 42.424 10.5556 42.7078 10.2051 42.7078H8.05664C7.70607 42.7078 7.42188 42.424 7.42188 42.0731V39.9582C7.42188 39.6072 7.70607 39.3234 8.05664 39.3234H10.2051C10.5556 39.3234 10.8398 39.6072 10.8398 39.9582V42.0731ZM10.8398 36.7355C10.8398 37.0861 10.5556 37.3703 10.2051 37.3703H8.05664C7.70607 37.3703 7.42188 37.0861 7.42188 36.7355V34.6191C7.42188 34.2686 7.70607 33.9844 8.05664 33.9844H10.2051C10.5556 33.9844 10.8398 34.2686 10.8398 34.6191V36.7355ZM10.8398 31.3965C10.8398 31.7471 10.5556 32.0312 10.2051 32.0312H8.05664C7.70607 32.0312 7.42188 31.7471 7.42188 31.3965V29.2801C7.42188 28.9295 7.70607 28.6453 8.05664 28.6453H10.2051C10.5556 28.6453 10.8398 28.9295 10.8398 29.2801V31.3965ZM10.8398 26.0574C10.8398 26.4084 10.5556 26.6922 10.2051 26.6922H8.05664C7.70607 26.6922 7.42188 26.4084 7.42188 26.0574V23.9426C7.42188 23.5916 7.70607 23.3078 8.05664 23.3078H10.2051C10.5556 23.3078 10.8398 23.5916 10.8398 23.9426V26.0574ZM10.8398 20.7199C10.8398 21.0705 10.5556 21.3547 10.2051 21.3547H8.05664C7.70607 21.3547 7.42188 21.0705 7.42188 20.7199V18.6035C7.42188 18.2529 7.70607 17.9688 8.05664 17.9688H10.2051C10.5556 17.9688 10.8398 18.2529 10.8398 18.6035V20.7199ZM10.8398 15.3809C10.8398 15.7314 10.5556 16.0156 10.2051 16.0156H8.05664C7.70607 16.0156 7.42188 15.7314 7.42188 15.3809V13.2645C7.42188 12.9139 7.70607 12.6297 8.05664 12.6297H10.2051C10.5556 12.6297 10.8398 12.9139 10.8398 13.2645V15.3809ZM10.8398 10.0418C10.8398 10.3928 10.5556 10.6766 10.2051 10.6766H8.05664C7.70607 10.6766 7.42188 10.3928 7.42188 10.0418V7.92694C7.42188 7.57599 7.70607 7.29218 8.05664 7.29218H10.2051C10.5556 7.29218 10.8398 7.57599 10.8398 7.92694V10.0418ZM10.8398 4.70428C10.8398 5.05486 10.5556 5.33905 10.2051 5.33905H8.05664C7.70607 5.33905 7.42188 5.05486 7.42188 4.70428V2.58789C7.42188 2.23732 7.70607 1.95312 8.05664 1.95312H10.2051C10.5556 1.95312 10.8398 2.23732 10.8398 2.58789V4.70428ZM42.5781 42.0731C42.5781 42.424 42.2939 42.7078 41.9434 42.7078H39.7949C39.4444 42.7078 39.1602 42.424 39.1602 42.0731V39.9582C39.1602 39.6072 39.4444 39.3234 39.7949 39.3234H41.9434C42.2939 39.3234 42.5781 39.6072 42.5781 39.9582V42.0731ZM42.5781 36.7355C42.5781 37.0861 42.2939 37.3703 41.9434 37.3703H39.7949C39.4444 37.3703 39.1602 37.0861 39.1602 36.7355V34.6191C39.1602 34.2686 39.4444 33.9844 39.7949 33.9844H41.9434C42.2939 33.9844 42.5781 34.2686 42.5781 34.6191V36.7355ZM42.5781 31.3965C42.5781 31.7471 42.2939 32.0312 41.9434 32.0312H39.7949C39.4444 32.0312 39.1602 31.7471 39.1602 31.3965V29.2801C39.1602 28.9295 39.4444 28.6453 39.7949 28.6453H41.9434C42.2939 28.6453 42.5781 28.9295 42.5781 29.2801V31.3965ZM42.5781 26.0574C42.5781 26.4084 42.2939 26.6922 41.9434 26.6922H39.7949C39.4444 26.6922 39.1602 26.4084 39.1602 26.0574V23.9426C39.1602 23.5916 39.4444 23.3078 39.7949 23.3078H41.9434C42.2939 23.3078 42.5781 23.5916 42.5781 23.9426V26.0574ZM42.5781 20.7199C42.5781 21.0705 42.2939 21.3547 41.9434 21.3547H39.7949C39.4444 21.3547 39.1602 21.0705 39.1602 20.7199V18.6035C39.1602 18.2529 39.4444 17.9688 39.7949 17.9688H41.9434C42.2939 17.9688 42.5781 18.2529 42.5781 18.6035V20.7199ZM42.5781 15.3809C42.5781 15.7314 42.2939 16.0156 41.9434 16.0156H39.7949C39.4444 16.0156 39.1602 15.7314 39.1602 15.3809V13.2645C39.1602 12.9139 39.4444 12.6297 39.7949 12.6297H41.9434C42.2939 12.6297 42.5781 12.9139 42.5781 13.2645V15.3809ZM42.5781 10.0418C42.5781 10.3928 42.2939 10.6766 41.9434 10.6766H39.7949C39.4444 10.6766 39.1602 10.3928 39.1602 10.0418V7.92694C39.1602 7.57599 39.4444 7.29218 39.7949 7.29218H41.9434C42.2939 7.29218 42.5781 7.57599 42.5781 7.92694V10.0418Z" fill="#303A59"/>
<path d="M36.6047 37.3695H13.3953C13.0627 37.3695 12.793 37.1002 12.793 36.7676V13.2324C12.793 12.8998 13.0627 12.6301 13.3953 12.6301H36.6051C36.9373 12.6301 37.207 12.8998 37.207 13.2324V36.7676C37.207 37.1002 36.9373 37.3695 36.6047 37.3695Z" fill="#0BA7E2"/>
<path d="M36.6047 12.6301H29.3736C29.3331 12.7514 29.2946 12.8738 29.2591 12.9974C29.1157 13.4987 29.0157 14.0186 28.9631 14.5523C28.9345 14.8407 28.9192 15.1325 28.9192 15.4281V16.2227C28.0422 16.6378 27.4353 17.5304 27.4353 18.565C27.4353 19.5995 28.0422 20.4918 28.9192 20.9068V30.8601C27.866 31.3881 26.9985 32.2327 26.4317 33.2653C26.4275 33.2737 26.4229 33.2817 26.4183 33.2897C26.3889 33.3443 26.3603 33.3996 26.3321 33.4553C26.3241 33.4717 26.3161 33.4881 26.3077 33.5045C26.2836 33.5537 26.26 33.6029 26.2371 33.6525C25.1812 31.6238 23.0637 30.2589 20.6505 30.2589H17.7425L16.0583 28.4405V26.5663C18.0424 25.4467 19.4817 23.4775 19.8837 21.1517C19.9219 21.1532 19.9604 21.1544 19.9989 21.1544C21.4294 21.1544 22.5887 19.9951 22.5887 18.565C22.5887 17.5304 21.9814 16.6374 21.1044 16.2227L21.1048 16.2231V15.4285C21.1048 14.4508 20.945 13.5101 20.6505 12.6304H13.3953C13.0627 12.6304 12.793 12.9001 12.793 13.2328V36.7679C12.793 37.1002 13.0627 37.3699 13.3953 37.3699H36.6051C36.9377 37.3699 37.2074 37.1002 37.2074 36.7679V13.2328C37.207 12.8998 36.9373 12.6301 36.6047 12.6301Z" fill="#0680AE"/>
<path d="M36.6047 10.677H13.3953C13.0627 10.677 12.793 10.4073 12.793 10.0746V0H37.207V10.075C37.207 10.4073 36.9373 10.677 36.6047 10.677Z" fill="#0680AE"/>
<path d="M16.6992 10.075V0H12.793V10.075C12.793 10.4076 13.0627 10.6773 13.3953 10.6773H17.3016C16.9689 10.677 16.6992 10.4073 16.6992 10.075Z" fill="#025F80"/>
<path d="M37.207 39.9246V46.8224C33.5968 48.8457 29.4334 50 25 50C22.0898 50 19.297 49.5029 16.6992 48.5878C15.3389 48.1102 14.0331 47.5174 12.793 46.8224V39.9246C12.793 39.5927 13.0627 39.3234 13.3957 39.3234H36.6043C36.9373 39.3234 37.207 39.5927 37.207 39.9246Z" fill="#0680AE"/>
<path d="M17.3019 39.3234C16.9689 39.3234 16.6992 39.5927 16.6992 39.9246V48.5878C15.3389 48.1102 14.0331 47.5174 12.793 46.8224V39.9246C12.793 39.5927 13.0627 39.3234 13.3957 39.3234H17.3019Z" fill="#025F80"/>
</svg>
