<svg width="50" height="50" viewBox="0 0 50 50" fill="none" xmlns="http://www.w3.org/2000/svg">
<path d="M25 50C38.2138 50 48.9258 39.2881 48.9258 26.0742C48.9258 12.8604 38.2138 2.14844 25 2.14844C11.7862 2.14844 1.07422 12.8604 1.07422 26.0742C1.07422 39.2881 11.7862 50 25 50Z" fill="#FBAC2A"/>
<path d="M9.83574 41.1762C9.56719 41.1762 9.34746 40.9564 9.34746 40.6879V6.9577H6.1167C5.84814 6.9577 5.62842 7.17743 5.62842 7.44598V40.1165C6.93369 41.9141 8.48174 43.5238 10.2265 44.8953H37.2185C37.487 44.8953 37.7067 44.6756 37.7067 44.407V41.1763L9.83574 41.1762Z" fill="#0680AE"/>
<path d="M7.48389 7.44598C7.48389 7.17743 7.70362 6.9577 7.97217 6.9577H6.1167C5.84814 6.9577 5.62842 7.17743 5.62842 7.44598V40.1165C6.20137 40.9056 6.82129 41.6584 7.48389 42.3709V7.44598Z" fill="#025F80"/>
<path d="M13.0584 37.6608C12.7899 37.6608 12.5701 37.441 12.5701 37.1725V3.51544H9.5589C9.29034 3.51544 9.07062 3.73517 9.07062 4.00372V40.9647C9.07062 41.2333 9.29034 41.4529 9.5589 41.4529H40.6609C40.9294 41.4529 41.1491 41.2333 41.1491 40.9647V37.6608H13.0584Z" fill="#025F80"/>
<path d="M10.8284 40.9647V4.00372C10.8284 3.73517 11.0482 3.51544 11.3167 3.51544H9.5589C9.29034 3.51544 9.07062 3.73517 9.07062 4.00372V40.9647C9.07062 41.2333 9.29034 41.4529 9.5589 41.4529H11.3167C11.0482 41.4529 10.8284 41.2333 10.8284 40.9647Z" fill="#025F80"/>
<path d="M44.3716 37.4492C44.3716 37.7178 44.1519 37.9375 43.8833 37.9375H12.7816C12.513 37.9375 12.2933 37.7178 12.2933 37.4492V0.488281C12.2933 0.219727 12.513 0 12.7816 0H43.8833C44.1519 0 44.3716 0.219727 44.3716 0.488281V37.4492Z" fill="#D9EAFC"/>
<path d="M14.2311 37.4492V0.488281C14.2311 0.219727 14.4509 0 14.7194 0H12.7814C12.5129 0 12.2932 0.219727 12.2932 0.488281V37.4492C12.2932 37.7178 12.5129 37.9375 12.7814 37.9375H14.7194C14.4509 37.9375 14.2311 37.7178 14.2311 37.4492Z" fill="#C3DDF4"/>
<path d="M40.5361 4.96033H33.7431C33.3385 4.96033 33.0107 4.6325 33.0107 4.22791C33.0107 3.82341 33.3385 3.49548 33.7431 3.49548H40.5361C40.9407 3.49548 41.2686 3.82341 41.2686 4.22791C41.2686 4.6325 40.9406 4.96033 40.5361 4.96033Z" fill="#FBAC2A"/>
<path d="M40.5361 7.45044H33.7431C33.3385 7.45044 33.0107 7.12251 33.0107 6.71802C33.0107 6.31343 33.3385 5.9856 33.7431 5.9856H40.5361C40.9407 5.9856 41.2686 6.31343 41.2686 6.71802C41.2686 7.12251 40.9406 7.45044 40.5361 7.45044Z" fill="#FBAC2A"/>
<path d="M40.5361 9.94049H33.7431C33.3385 9.94049 33.0107 9.61256 33.0107 9.20807C33.0107 8.80358 33.3385 8.47565 33.7431 8.47565H40.5361C40.9407 8.47565 41.2686 8.80358 41.2686 9.20807C41.2686 9.61266 40.9406 9.94049 40.5361 9.94049Z" fill="#FBAC2A"/>
<path d="M40.5361 12.4306H33.7431C33.3385 12.4306 33.0107 12.1027 33.0107 11.6982C33.0107 11.2936 33.3385 10.9658 33.7431 10.9658H40.5361C40.9407 10.9658 41.2686 11.2936 41.2686 11.6982C41.2686 12.1027 40.9406 12.4306 40.5361 12.4306Z" fill="#FBAC2A"/>
<path d="M27.8708 29.8126H16.4295C16.0249 29.8126 15.6971 29.4847 15.6971 29.0802C15.6971 28.6757 16.0249 28.3478 16.4295 28.3478H27.8707C28.2753 28.3478 28.6031 28.6757 28.6031 29.0802C28.6032 29.4847 28.2753 29.8126 27.8708 29.8126Z" fill="#52BBEF"/>
<path d="M27.8708 32.3026H16.4295C16.0249 32.3026 15.6971 31.9748 15.6971 31.5702C15.6971 31.1657 16.0249 30.8378 16.4295 30.8378H27.8707C28.2753 30.8378 28.6031 31.1657 28.6031 31.5702C28.6032 31.9748 28.2753 32.3026 27.8708 32.3026Z" fill="#52BBEF"/>
<path d="M27.8708 34.7928H16.4295C16.0249 34.7928 15.6971 34.465 15.6971 34.0604C15.6971 33.6559 16.0249 33.3279 16.4295 33.3279H27.8707C28.2753 33.3279 28.6031 33.6559 28.6031 34.0604C28.6032 34.4649 28.2753 34.7928 27.8708 34.7928Z" fill="#52BBEF"/>
<path d="M40.5361 16.7762H30.1131C29.7085 16.7762 29.3806 16.4483 29.3806 16.0438C29.3806 15.6393 29.7085 15.3113 30.1131 15.3113H40.5361C40.9407 15.3113 41.2685 15.6393 41.2685 16.0438C41.2685 16.4483 40.9406 16.7762 40.5361 16.7762Z" fill="#FE3745"/>
<path d="M40.5361 19.2663H30.1131C29.7085 19.2663 29.3806 18.9384 29.3806 18.5339C29.3806 18.1294 29.7085 17.8015 30.1131 17.8015H40.5361C40.9407 17.8015 41.2685 18.1294 41.2685 18.5339C41.2685 18.9384 40.9406 19.2663 40.5361 19.2663Z" fill="#FE3745"/>
<path d="M40.5361 21.7564H30.1131C29.7085 21.7564 29.3806 21.4284 29.3806 21.024C29.3806 20.6194 29.7085 20.2916 30.1131 20.2916H40.5361C40.9407 20.2916 41.2685 20.6194 41.2685 21.024C41.2685 21.4284 40.9406 21.7564 40.5361 21.7564Z" fill="#FE3745"/>
<path d="M40.5361 24.2464H30.1131C29.7085 24.2464 29.3806 23.9185 29.3806 23.514C29.3806 23.1095 29.7085 22.7816 30.1131 22.7816H40.5361C40.9407 22.7816 41.2685 23.1095 41.2685 23.514C41.2685 23.9185 40.9406 24.2464 40.5361 24.2464Z" fill="#FE3745"/>
<path d="M15.1143 21.0698H17.9699C17.9699 19.4927 19.2483 18.214 20.8255 18.214V15.3586C17.6715 15.3586 15.1143 17.9155 15.1143 21.0698Z" fill="#FE3745"/>
<path d="M22.2738 13.9103V16.7659C23.851 16.7659 25.1294 18.0443 25.1294 19.6215H27.9852C27.9852 16.4672 25.428 13.9103 22.2738 13.9103Z" fill="#91E0E8"/>
<path d="M23.6811 21.0698C23.6811 22.6468 22.4027 23.9254 20.8256 23.9254C19.2484 23.9254 17.97 22.6468 17.97 21.0698H15.1143C15.1143 24.2239 17.6715 26.7811 20.8255 26.7811C23.9797 26.7811 26.5368 24.2239 26.5368 21.0698H23.6811Z" fill="#FBAC2A"/>
<path d="M18.3945 11.2426V4.42285C18.3945 4.26172 18.2626 4.12988 18.1015 4.12988H16.3259C16.1648 4.12988 16.0329 4.26172 16.0329 4.42285V11.2426H18.3945Z" fill="#FBAC2A"/>
<path d="M22.2145 11.2426V6.27832C22.2145 6.11719 22.0826 5.98535 21.9215 5.98535H20.146C19.9849 5.98535 19.853 6.11719 19.853 6.27832V11.2426H22.2145Z" fill="#FE3745"/>
<path d="M26.0344 11.2426V8.52441C26.0344 8.36328 25.9025 8.23145 25.7414 8.23145H23.9659C23.8048 8.23145 23.6729 8.36328 23.6729 8.52441V11.2426H26.0344Z" fill="#37C47A"/>
<path d="M29.8544 11.2426V4.42285C29.8544 4.26172 29.7226 4.12988 29.5614 4.12988H27.7859C27.6247 4.12988 27.4929 4.26172 27.4929 4.42285V11.2426H29.8544Z" fill="#91E0E8"/>
<path d="M37.0696 31.2216C37.0696 31.06 37.201 30.9286 37.3625 30.9286H38.6868V27.6512C38.6868 27.3827 38.4671 27.163 38.1986 27.163H33.7922C33.5237 27.163 33.3039 27.3827 33.3039 27.6512V32.0576C33.3039 32.3261 33.5237 32.5459 33.7922 32.5459H37.0696V31.2216Z" fill="#FE3745"/>
<path d="M40.5361 33.9068C40.5361 34.1754 40.3164 34.3951 40.0478 34.3951H37.3625C37.0939 34.3951 36.8742 34.1754 36.8742 33.9068V31.2215C36.8742 30.9529 37.0939 30.7332 37.3625 30.7332H40.0478C40.3164 30.7332 40.5361 30.9529 40.5361 31.2215V33.9068Z" fill="#37C47A"/>
<path d="M30.3593 12.4306H15.5281C15.1235 12.4306 14.7957 12.1027 14.7957 11.6982C14.7957 11.2936 15.1235 10.9658 15.5281 10.9658H30.3593C30.7639 10.9658 31.0917 11.2936 31.0917 11.6982C31.0917 12.1027 30.7639 12.4306 30.3593 12.4306Z" fill="#52BBEF"/>
</svg>
