<svg width="132" height="100" viewBox="0 0 132 100" fill="none" xmlns="http://www.w3.org/2000/svg">
<g clip-path="url(#clip0)">
<path opacity="0.1" d="M124.032 54.2827C119.394 60.6466 120.924 69.7304 123.605 76.9673C124.503 79.3899 125.523 81.9523 125.057 84.5881C124.489 87.8103 121.816 90.2246 119.038 91.5396C113.974 93.9361 107.992 93.5534 103.462 90.5338C99.5522 87.9276 96.8003 83.5966 92.8152 81.1147C86.1457 76.9626 77.4872 78.8177 70.0642 81.9878C64.8127 84.2303 59.0601 87.1185 53.9425 85.0477C50.3412 83.5906 47.9162 79.8815 46.6404 75.9165C46.0244 74.0022 45.5931 71.9243 44.3659 70.4257C43.6361 69.5349 42.6718 68.9142 41.6803 68.3953C32.6308 63.6567 20.9906 66.6183 12.2172 61.3313C6.29398 57.7608 2.60738 50.8318 1.07565 43.5475C-0.456088 36.2632 -0.0770042 28.5737 0.533084 21.0157C0.966662 15.6445 1.65257 9.90496 4.88189 5.6841C8.2972 1.22156 14.0214 -0.551838 19.1402 0.147098C24.259 0.846035 28.8483 3.68917 32.863 7.08315C37.8847 11.3171 42.5048 16.6325 48.7502 18.2401C53.0042 19.3347 57.5236 18.5599 61.9459 18.2176C69.338 17.6466 76.7041 18.304 84.0252 19.0468C91.0335 19.7576 98.0904 20.5513 104.728 22.8815C109.425 24.5305 113.148 27.6473 117.571 29.7773C120.453 31.1657 123.624 31.4879 126.337 33.2814C129.685 35.4908 132.71 39.4048 131.728 44.1019C130.801 48.5668 126.496 50.9053 124.032 54.2827Z" fill="#FBAC2A"/>
<path d="M98.0027 4.65454H23.8444V94.1302H98.0027V4.65454Z" fill="url(#paint0_linear)"/>
<path d="M97.0549 5.79883H24.7921V92.9882H97.0549V5.79883Z" fill="white"/>
<path d="M82.01 15.6313H52.868V17.0529H82.01V15.6313Z" fill="#C0BCCF"/>
<path d="M82.01 20.1328H52.868V21.5544H82.01V20.1328Z" fill="#C0BCCF"/>
<path d="M75.0206 24.6345H59.8573V26.0561H75.0206V24.6345Z" fill="#FBAC2A"/>
<path opacity="0.5" d="M82.01 44.1812H52.868V45.6027H82.01V44.1812Z" fill="#C0BCCF"/>
<path opacity="0.5" d="M82.01 48.6826H52.868V50.1042H82.01V48.6826Z" fill="#C0BCCF"/>
<path opacity="0.5" d="M75.0206 53.1843H59.8573V54.6059H75.0206V53.1843Z" fill="#FBAC2A"/>
<path opacity="0.5" d="M82.01 72.731H52.868V74.1525H82.01V72.731Z" fill="#C0BCCF"/>
<path opacity="0.5" d="M82.01 77.2324H52.868V78.654H82.01V77.2324Z" fill="#C0BCCF"/>
<path opacity="0.5" d="M75.0206 81.7341H59.8573V83.1557H75.0206V81.7341Z" fill="#FBAC2A"/>
<g opacity="0.5">
<path opacity="0.5" d="M42.6078 52.1098L41.9966 51.835C42.0059 51.7421 42.0099 51.6487 42.0084 51.5554C42.0127 51.4765 42.0127 51.3974 42.0084 51.3185C41.948 50.6954 41.5512 50.1528 41.2704 49.583C41.0133 49.0628 40.8501 48.5014 40.7882 47.9245C40.7136 47.2137 40.7882 46.4769 40.5276 45.8087C40.3156 45.2697 39.8962 44.8196 39.4472 44.4215C38.9433 43.9486 38.3544 43.5752 37.7118 43.321C37.0555 43.0841 36.3009 43.0237 35.6446 43.2653C35.0522 43.4833 34.5962 43.9181 34.1555 44.341C33.8355 44.6229 33.5528 44.9446 33.3144 45.2982C33.0455 45.7388 32.9306 46.2459 32.8405 46.7458C32.6991 47.5462 32.6018 48.3537 32.5491 49.1648C32.5029 49.8412 32.4306 50.6089 31.8525 51.0235C31.5706 51.2261 31.1738 51.3398 31.0446 51.6466C31.008 51.7387 30.9934 51.8381 31.002 51.9369C30.9984 52.019 31.0044 52.1013 31.0197 52.1821C31.028 52.2295 31.0375 52.2757 31.0494 52.323C30.8835 52.7354 30.7442 53.158 30.6324 53.5882C30.5459 53.9081 30.4665 54.222 30.3954 54.5265H30.5874H30.6892L31.7933 54.5525H31.8087L32.9934 54.5798H32.9993L34.1034 54.6058H34.1306L34.4493 54.6283H34.5535L38.9686 54.7302H38.9923L39.2861 54.7373H39.3892L40.2729 54.7575L41.576 54.7871H41.5855L42.5664 54.8108H42.6706H42.872L42.8199 53.7825C43.0355 52.2081 42.6078 52.1098 42.6078 52.1098ZM37.6478 51.9842C37.6478 52.8561 36.7143 53.9235 36.7143 53.9235L35.7749 52.6441L35.8092 52.5943L36.7143 53.8264C36.7143 53.8264 37.6478 52.7602 37.6478 51.8871C37.6695 51.8427 37.6945 51.8 37.7224 51.7592L37.7437 51.8255C37.7079 51.876 37.6758 51.929 37.6478 51.9842ZM39.0836 55.4055C39.0836 55.3616 39.0836 55.3166 39.0753 55.2728C39.067 55.229 39.0682 55.1899 39.0622 55.1472C39.0563 55.1046 39.0516 55.0631 39.0456 55.0205C39.0397 54.9778 39.0314 54.9364 39.0231 54.8937C39.0148 54.8511 39.0066 54.8096 38.9971 54.767C38.9971 54.7527 38.9912 54.7397 38.9876 54.7243C38.9746 54.6686 38.9604 54.6129 38.945 54.5573C38.9296 54.5016 38.9201 54.4672 38.9059 54.4234C38.9059 54.4033 38.894 54.3831 38.8869 54.3642C38.8798 54.3452 38.8668 54.3002 38.8561 54.2682L38.8348 54.2066C38.8253 54.1794 38.8158 54.1509 38.8052 54.1237C38.7874 54.0739 38.7684 54.0254 38.7495 53.9756C38.7305 53.9259 38.7104 53.8773 38.6903 53.8287C38.65 53.7292 38.6062 53.6309 38.5623 53.5314C38.3905 53.1476 38.1975 52.7697 38.0198 52.3953C37.9245 52.1994 37.8398 51.9985 37.7662 51.7935L37.7437 51.8231C37.7078 51.874 37.6758 51.9274 37.6478 51.9831C37.6478 52.855 36.7143 53.9223 36.7143 53.9223L35.7749 52.6429L34.9527 53.8275C34.8343 53.8868 34.7158 54.0882 34.6234 54.3748C34.5973 54.4518 34.5725 54.5371 34.5488 54.626C34.5322 54.6864 34.5168 54.7444 34.5026 54.812C34.4943 54.8439 34.4872 54.8759 34.4801 54.9091L34.4587 55.0098V55.0252C34.4445 55.0939 34.4303 55.165 34.4173 55.2373C34.4043 55.3095 34.3889 55.3924 34.3758 55.4742C34.3663 55.5255 34.3581 55.5764 34.3509 55.627C34.3344 55.7253 34.3201 55.8248 34.3059 55.9243C34.2976 55.9824 34.2893 56.0428 34.2822 56.0961L34.2538 56.3165C34.3142 56.4977 34.3817 56.6718 34.4516 56.8543C34.4961 56.9501 34.5222 57.0533 34.5286 57.1587C35.986 57.5473 37.5196 57.5473 38.9769 57.1587C38.9765 57.1552 38.9765 57.1516 38.9769 57.1481C38.9551 57.0489 38.9456 56.9475 38.9485 56.846C38.9724 56.5613 39.012 56.2781 39.067 55.9978C39.0845 55.8595 39.092 55.7202 39.0895 55.5808V55.531C39.0859 55.486 39.0847 55.4457 39.0836 55.4067V55.4055ZM39.0836 55.4055C39.0836 55.3616 39.0836 55.3166 39.0753 55.2728C39.067 55.229 39.0682 55.1899 39.0622 55.1472C39.0563 55.1046 39.0516 55.0631 39.0456 55.0205C39.0397 54.9778 39.0314 54.9364 39.0231 54.8937C39.0148 54.8511 39.0066 54.8096 38.9971 54.767C38.9971 54.7527 38.9912 54.7397 38.9876 54.7243C38.9746 54.6686 38.9604 54.6129 38.945 54.5573C38.9296 54.5016 38.9201 54.4672 38.9059 54.4234C38.9059 54.4033 38.894 54.3831 38.8869 54.3642C38.8798 54.3452 38.8668 54.3002 38.8561 54.2682L38.8348 54.2066C38.8253 54.1794 38.8158 54.1509 38.8052 54.1237C38.7874 54.0739 38.7684 54.0254 38.7495 53.9756C38.7305 53.9259 38.7104 53.8773 38.6903 53.8287C38.65 53.7292 38.6062 53.6309 38.5623 53.5314C38.3905 53.1476 38.1975 52.7697 38.0198 52.3953C37.9245 52.1994 37.8398 51.9985 37.7662 51.7935L37.7437 51.8231C37.7078 51.874 37.6758 51.9274 37.6478 51.9831C37.6478 52.855 36.7143 53.9223 36.7143 53.9223L35.7749 52.6429L34.9527 53.8275C34.8343 53.8868 34.7158 54.0882 34.6234 54.3748C34.5973 54.4518 34.5725 54.5371 34.5488 54.626C34.5322 54.6864 34.5168 54.7444 34.5026 54.812C34.4943 54.8439 34.4872 54.8759 34.4801 54.9091L34.4587 55.0098V55.0252C34.4445 55.0939 34.4303 55.165 34.4173 55.2373C34.4043 55.3095 34.3889 55.3924 34.3758 55.4742C34.3663 55.5255 34.3581 55.5764 34.3509 55.627C34.3344 55.7253 34.3201 55.8248 34.3059 55.9243C34.2976 55.9824 34.2893 56.0428 34.2822 56.0961L34.2538 56.3165C34.3142 56.4977 34.3817 56.6718 34.4516 56.8543C34.4961 56.9501 34.5222 57.0533 34.5286 57.1587C35.986 57.5473 37.5196 57.5473 38.9769 57.1587C38.9765 57.1552 38.9765 57.1516 38.9769 57.1481C38.9551 57.0489 38.9456 56.9475 38.9485 56.846C38.9724 56.5613 39.012 56.2781 39.067 55.9978C39.0845 55.8595 39.092 55.7202 39.0895 55.5808V55.531C39.0859 55.486 39.0847 55.4457 39.0836 55.4067V55.4055ZM39.0836 55.4055C39.0836 55.3616 39.0836 55.3166 39.0753 55.2728C39.067 55.229 39.0682 55.1899 39.0622 55.1472C39.0563 55.1046 39.0516 55.0631 39.0456 55.0205C39.0397 54.9778 39.0314 54.9364 39.0231 54.8937C39.0148 54.8511 39.0066 54.8096 38.9971 54.767C38.9971 54.7527 38.9912 54.7397 38.9876 54.7243C38.9746 54.6686 38.9604 54.6129 38.945 54.5573C38.9296 54.5016 38.9201 54.4672 38.9059 54.4234C38.9059 54.4033 38.894 54.3831 38.8869 54.3642C38.8798 54.3452 38.8668 54.3002 38.8561 54.2682L38.8348 54.2066C38.8253 54.1794 38.8158 54.1509 38.8052 54.1237C38.7874 54.0739 38.7684 54.0254 38.7495 53.9756C38.7305 53.9259 38.7104 53.8773 38.6903 53.8287C38.65 53.7292 38.6062 53.6309 38.5623 53.5314C38.3905 53.1476 38.1975 52.7697 38.0198 52.3953C37.9245 52.1994 37.8398 51.9985 37.7662 51.7935L37.7437 51.8231C37.7078 51.874 37.6758 51.9274 37.6478 51.9831C37.6478 52.855 36.7143 53.9223 36.7143 53.9223L35.7749 52.6429L34.9527 53.8275C34.8343 53.8868 34.7158 54.0882 34.6234 54.3748C34.5973 54.4518 34.5725 54.5371 34.5488 54.626C34.5322 54.6864 34.5168 54.7444 34.5026 54.812C34.4943 54.8439 34.4872 54.8759 34.4801 54.9091L34.4587 55.0098V55.0252C34.4445 55.0939 34.4303 55.165 34.4173 55.2373C34.4043 55.3095 34.3889 55.3924 34.3758 55.4742C34.3663 55.5255 34.3581 55.5764 34.3509 55.627C34.3344 55.7253 34.3201 55.8248 34.3059 55.9243C34.2976 55.9824 34.2893 56.0428 34.2822 56.0961L34.2538 56.3165C34.3142 56.4977 34.3817 56.6718 34.4516 56.8543C34.4961 56.9501 34.5222 57.0533 34.5286 57.1587C35.986 57.5473 37.5196 57.5473 38.9769 57.1587C38.9765 57.1552 38.9765 57.1516 38.9769 57.1481C38.9551 57.0489 38.9456 56.9475 38.9485 56.846C38.9724 56.5613 39.012 56.2781 39.067 55.9978C39.0845 55.8595 39.092 55.7202 39.0895 55.5808V55.531C39.0859 55.486 39.0847 55.4457 39.0836 55.4067V55.4055ZM39.0836 55.4055C39.0836 55.3616 39.0836 55.3166 39.0753 55.2728C39.067 55.229 39.0682 55.1899 39.0622 55.1472C39.0563 55.1046 39.0516 55.0631 39.0456 55.0205C39.0397 54.9778 39.0314 54.9364 39.0231 54.8937C39.0148 54.8511 39.0066 54.8096 38.9971 54.767C38.9971 54.7527 38.9912 54.7397 38.9876 54.7243C38.9746 54.6686 38.9604 54.6129 38.945 54.5573C38.9296 54.5016 38.9201 54.4672 38.9059 54.4234C38.9059 54.4033 38.894 54.3831 38.8869 54.3642C38.8798 54.3452 38.8668 54.3002 38.8561 54.2682L38.8348 54.2066C38.8253 54.1794 38.8158 54.1509 38.8052 54.1237C38.7874 54.0739 38.7684 54.0254 38.7495 53.9756C38.7305 53.9259 38.7104 53.8773 38.6903 53.8287C38.65 53.7292 38.6062 53.6309 38.5623 53.5314C38.3905 53.1476 38.1975 52.7697 38.0198 52.3953C37.9245 52.1994 37.8398 51.9985 37.7662 51.7935L37.7437 51.8231C37.7078 51.874 37.6758 51.9274 37.6478 51.9831C37.6478 52.855 36.7143 53.9223 36.7143 53.9223L35.7749 52.6429L34.9527 53.8275C34.8343 53.8868 34.7158 54.0882 34.6234 54.3748C34.5973 54.4518 34.5725 54.5371 34.5488 54.626C34.5322 54.6864 34.5168 54.7444 34.5026 54.812C34.4943 54.8439 34.4872 54.8759 34.4801 54.9091L34.4587 55.0098V55.0252C34.4445 55.0939 34.4303 55.165 34.4173 55.2373C34.4043 55.3095 34.3889 55.3924 34.3758 55.4742C34.3663 55.5255 34.3581 55.5764 34.3509 55.627C34.3344 55.7253 34.3201 55.8248 34.3059 55.9243C34.2976 55.9824 34.2893 56.0428 34.2822 56.0961L34.2538 56.3165C34.3142 56.4977 34.3817 56.6718 34.4516 56.8543C34.4961 56.9501 34.5222 57.0533 34.5286 57.1587C35.986 57.5473 37.5196 57.5473 38.9769 57.1587C38.9765 57.1552 38.9765 57.1516 38.9769 57.1481C38.9551 57.0489 38.9456 56.9475 38.9485 56.846C38.9724 56.5613 39.012 56.2781 39.067 55.9978C39.0845 55.8595 39.092 55.7202 39.0895 55.5808V55.531C39.0859 55.486 39.0847 55.4457 39.0836 55.4067V55.4055Z" fill="url(#paint1_linear)"/>
<path opacity="0.5" d="M39.1263 47.1426H33.6769V50.815H39.1263V47.1426Z" fill="#493545"/>
<path opacity="0.5" d="M40.0312 51.1931L37.7508 54.4058L35.3673 54.1985C35.3673 54.1985 32.2577 54.4046 34.3308 52.0223C35.327 50.8768 35.6528 49.9219 35.7227 49.2408C35.7985 48.5039 35.5746 48.0845 35.5746 48.0845L38.1654 47.7742C38.0485 48.1233 38.0337 48.4985 38.1228 48.8557C38.4474 50.2015 40.0312 51.1931 40.0312 51.1931Z" fill="#C77485"/>
<path opacity="0.1" d="M38.1216 48.8521C37.7837 49.108 37.3882 49.277 36.9697 49.3443C36.5513 49.4117 36.1227 49.3753 35.7216 49.2383C35.7974 48.5015 35.5735 48.0821 35.5735 48.0821L38.1643 47.7717C38.0476 48.1205 38.0328 48.4953 38.1216 48.8521Z" fill="black"/>
<path opacity="0.5" d="M36.5591 49.2739C37.99 49.2739 39.1499 48.1139 39.1499 46.6831C39.1499 45.2522 37.99 44.0923 36.5591 44.0923C35.1283 44.0923 33.9683 45.2522 33.9683 46.6831C33.9683 48.1139 35.1283 49.2739 36.5591 49.2739Z" fill="#C77485"/>
<path opacity="0.1" d="M39.9365 51.3256L39.8761 51.0887L39.824 50.8802L39.747 50.5722L39.7328 50.5154L39.7209 50.468C39.7209 50.468 39.7825 50.282 39.3762 50.3424L39.3004 50.3554C39.2364 50.3685 39.1618 50.3862 39.0765 50.4099L38.9995 50.4336L38.8976 50.4656C38.5751 50.5706 38.2809 50.7481 38.0376 50.9845C37.9284 51.0889 37.8317 51.2058 37.7497 51.3327C37.7414 51.3446 37.7355 51.3553 37.7284 51.3647C37.7003 51.4087 37.6754 51.4547 37.6537 51.5022C37.6537 52.4356 36.7202 53.5753 36.7202 53.5753L35.8093 52.2591L35.7915 52.2331L35.5747 51.918L35.4977 51.8161L35.4716 51.7805L34.9978 51.1444L34.8793 50.9857L34.8402 50.9323L34.7822 50.8553L34.6459 50.6741L34.1129 50.9857L33.4021 51.4003L32.9875 54.0953V54.17L33.0005 54.3927L33.087 55.8569V55.877L32.9353 56.4835L32.9578 56.4954C33.3156 56.6884 33.688 56.8532 34.0714 56.9882L34.1721 57.0237C34.2906 57.0628 34.4019 57.0984 34.518 57.1327C34.5223 57.1503 34.5255 57.1681 34.5275 57.186C34.5275 57.1694 34.5275 57.1517 34.5275 57.1351C35.9812 57.5505 37.5221 57.5505 38.9758 57.1351L39.003 57.1268C39.0706 57.1078 39.1393 57.0877 39.2056 57.0652L39.3134 57.0308C39.6057 56.9331 39.8921 56.8184 40.1711 56.6873L40.2706 54.5668L40.3417 53.0374V52.9498L39.9365 51.3256Z" fill="black"/>
<path opacity="0.5" d="M39.0836 55.2646C39.0836 55.2172 39.0836 55.1698 39.0753 55.1224C39.067 55.075 39.0682 55.0336 39.0622 54.9885C39.0563 54.9435 39.0516 54.8985 39.0457 54.8535C39.0397 54.8085 39.0314 54.7635 39.0232 54.7184C39.0149 54.6734 39.0066 54.6284 38.9971 54.5834C38.9971 54.568 38.9912 54.5538 38.9876 54.5384C38.9746 54.4791 38.9604 54.4199 38.945 54.3595C38.9296 54.2991 38.9201 54.2635 38.9059 54.2162C38.9059 54.1948 38.894 54.1735 38.8869 54.1534C38.8798 54.1332 38.8668 54.0847 38.8561 54.0503L38.8348 53.984C38.8253 53.9544 38.8158 53.9247 38.8052 53.8951C38.7874 53.8418 38.7685 53.7897 38.7495 53.7364C38.7305 53.6831 38.7104 53.6309 38.6903 53.5788C38.65 53.4722 38.6062 53.3668 38.5623 53.2613C38.3906 52.8514 38.1975 52.4475 38.0198 52.0471C37.9243 51.8372 37.8397 51.6224 37.7663 51.4038L37.7437 51.4358C37.7077 51.4903 37.6757 51.5473 37.6478 51.6064C37.6478 52.5387 36.7143 53.6795 36.7143 53.6795L35.7749 52.3113L34.9527 53.5753C34.8343 53.6381 34.7158 53.8537 34.6234 54.1605C34.5973 54.2434 34.5725 54.3334 34.5488 54.4294C34.5322 54.4934 34.5168 54.5609 34.5026 54.6284C34.4943 54.6628 34.4872 54.6971 34.4801 54.7327L34.4587 54.8405V54.857C34.4445 54.9305 34.4303 55.0063 34.4173 55.0833C34.4043 55.1603 34.3889 55.2492 34.3758 55.3333C34.3663 55.3878 34.3581 55.4423 34.3509 55.4968C34.3344 55.6022 34.3201 55.7088 34.3059 55.8142C34.2976 55.8758 34.2893 55.9327 34.2822 55.9979L34.2538 56.2348C34.3142 56.4291 34.3817 56.621 34.4516 56.8093C34.4963 56.9125 34.5224 57.0228 34.5286 57.1351C35.9823 57.5505 37.5233 57.5505 38.977 57.1351C38.9764 57.1312 38.9764 57.1272 38.977 57.1233C38.9551 57.0169 38.9455 56.9084 38.9485 56.7999C38.9724 56.4959 39.012 56.1935 39.067 55.8936C39.0845 55.7458 39.092 55.597 39.0895 55.4482V55.3949C39.0859 55.3499 39.0848 55.3072 39.0836 55.2646ZM39.0836 55.2646C39.0836 55.2172 39.0836 55.1698 39.0753 55.1224C39.067 55.075 39.0682 55.0336 39.0622 54.9885C39.0563 54.9435 39.0516 54.8985 39.0457 54.8535C39.0397 54.8085 39.0314 54.7635 39.0232 54.7184C39.0149 54.6734 39.0066 54.6284 38.9971 54.5834C38.9971 54.568 38.9912 54.5538 38.9876 54.5384C38.9746 54.4791 38.9604 54.4199 38.945 54.3595C38.9296 54.2991 38.9201 54.2635 38.9059 54.2162C38.9059 54.1948 38.894 54.1735 38.8869 54.1534C38.8798 54.1332 38.8668 54.0847 38.8561 54.0503L38.8348 53.984C38.8253 53.9544 38.8158 53.9247 38.8052 53.8951C38.7874 53.8418 38.7685 53.7897 38.7495 53.7364C38.7305 53.6831 38.7104 53.6309 38.6903 53.5788C38.65 53.4722 38.6062 53.3668 38.5623 53.2613C38.3906 52.8514 38.1975 52.4475 38.0198 52.0471C37.9243 51.8372 37.8397 51.6224 37.7663 51.4038L37.7437 51.4358C37.7077 51.4903 37.6757 51.5473 37.6478 51.6064C37.6478 52.5387 36.7143 53.6795 36.7143 53.6795L35.7749 52.3113L34.9527 53.5753C34.8343 53.6381 34.7158 53.8537 34.6234 54.1605C34.5973 54.2434 34.5725 54.3334 34.5488 54.4294C34.5322 54.4934 34.5168 54.5609 34.5026 54.6284C34.4943 54.6628 34.4872 54.6971 34.4801 54.7327L34.4587 54.8405V54.857C34.4445 54.9305 34.4303 55.0063 34.4173 55.0833C34.4043 55.1603 34.3889 55.2492 34.3758 55.3333C34.3663 55.3878 34.3581 55.4423 34.3509 55.4968C34.3344 55.6022 34.3201 55.7088 34.3059 55.8142C34.2976 55.8758 34.2893 55.9327 34.2822 55.9979L34.2538 56.2348C34.3142 56.4291 34.3817 56.621 34.4516 56.8093C34.4963 56.9125 34.5224 57.0228 34.5286 57.1351C35.9823 57.5505 37.5233 57.5505 38.977 57.1351C38.9764 57.1312 38.9764 57.1272 38.977 57.1233C38.9551 57.0169 38.9455 56.9084 38.9485 56.7999C38.9724 56.4959 39.012 56.1935 39.067 55.8936C39.0845 55.7458 39.092 55.597 39.0895 55.4482V55.3949C39.0859 55.3499 39.0848 55.3072 39.0836 55.2646ZM39.0836 55.2646C39.0836 55.2172 39.0836 55.1698 39.0753 55.1224C39.067 55.075 39.0682 55.0336 39.0622 54.9885C39.0563 54.9435 39.0516 54.8985 39.0457 54.8535C39.0397 54.8085 39.0314 54.7635 39.0232 54.7184C39.0149 54.6734 39.0066 54.6284 38.9971 54.5834C38.9971 54.568 38.9912 54.5538 38.9876 54.5384C38.9746 54.4791 38.9604 54.4199 38.945 54.3595C38.9296 54.2991 38.9201 54.2635 38.9059 54.2162C38.9059 54.1948 38.894 54.1735 38.8869 54.1534C38.8798 54.1332 38.8668 54.0847 38.8561 54.0503L38.8348 53.984C38.8253 53.9544 38.8158 53.9247 38.8052 53.8951C38.7874 53.8418 38.7685 53.7897 38.7495 53.7364C38.7305 53.6831 38.7104 53.6309 38.6903 53.5788C38.65 53.4722 38.6062 53.3668 38.5623 53.2613C38.3906 52.8514 38.1975 52.4475 38.0198 52.0471C37.9243 51.8372 37.8397 51.6224 37.7663 51.4038L37.7437 51.4358C37.7077 51.4903 37.6757 51.5473 37.6478 51.6064C37.6478 52.5387 36.7143 53.6795 36.7143 53.6795L35.7749 52.3113L34.9527 53.5753C34.8343 53.6381 34.7158 53.8537 34.6234 54.1605C34.5973 54.2434 34.5725 54.3334 34.5488 54.4294C34.5322 54.4934 34.5168 54.5609 34.5026 54.6284C34.4943 54.6628 34.4872 54.6971 34.4801 54.7327L34.4587 54.8405V54.857C34.4445 54.9305 34.4303 55.0063 34.4173 55.0833C34.4043 55.1603 34.3889 55.2492 34.3758 55.3333C34.3663 55.3878 34.3581 55.4423 34.3509 55.4968C34.3344 55.6022 34.3201 55.7088 34.3059 55.8142C34.2976 55.8758 34.2893 55.9327 34.2822 55.9979L34.2538 56.2348C34.3142 56.4291 34.3817 56.621 34.4516 56.8093C34.4963 56.9125 34.5224 57.0228 34.5286 57.1351C35.9823 57.5505 37.5233 57.5505 38.977 57.1351C38.9764 57.1312 38.9764 57.1272 38.977 57.1233C38.9551 57.0169 38.9455 56.9084 38.9485 56.7999C38.9724 56.4959 39.012 56.1935 39.067 55.8936C39.0845 55.7458 39.092 55.597 39.0895 55.4482V55.3949C39.0859 55.3499 39.0848 55.3072 39.0836 55.2646ZM40.3393 53.041L39.9164 51.3529L39.8441 51.0638L39.824 50.9845L39.7209 50.5722C39.7212 50.5686 39.7212 50.5651 39.7209 50.5615C39.7234 50.5433 39.7205 50.5248 39.7126 50.5082C39.6972 50.4774 39.6581 50.4454 39.5669 50.4371C39.5322 50.4347 39.4974 50.4347 39.4627 50.4371C39.3597 50.4473 39.2579 50.4664 39.1582 50.494C39.1096 50.507 39.0575 50.5213 39.0018 50.539L38.9 50.571H38.8905C38.6176 50.6606 38.3643 50.8013 38.1442 50.9856C37.9987 51.1069 37.8711 51.2481 37.7651 51.405L37.7426 51.437C37.7065 51.4915 37.6745 51.5485 37.6466 51.6076C37.6466 52.5399 36.7131 53.6807 36.7131 53.6807L35.7737 52.3124L35.7204 52.2354L35.7109 52.2224L35.5747 52.0222L35.4716 51.8848L35.4444 51.8492L34.9587 51.2012L34.8047 50.9916V50.9845L34.7514 50.9122L34.6495 50.7771L34.2941 50.9845L33.4056 51.5021L32.9957 54.1688V54.1972L33.0076 54.3915L33.0952 55.8758V55.9599L32.9614 56.4942C33.3192 56.6872 33.6915 56.852 34.0749 56.987L34.1756 57.0226C34.2941 57.0617 34.4054 57.0972 34.5215 57.1316C34.5258 57.1491 34.529 57.1669 34.531 57.1849C34.531 57.1683 34.531 57.1505 34.531 57.1339C35.9847 57.5493 37.5256 57.5493 38.9793 57.1339L39.0066 57.1256C39.0741 57.1067 39.1428 57.0865 39.2091 57.064L39.3169 57.0297C39.6093 56.9319 39.8956 56.8172 40.1746 56.6861L40.2729 54.568L40.344 53.0552L40.3393 53.041ZM34.5132 57.1316C34.5175 57.1491 34.5207 57.1669 34.5227 57.1849C34.5227 57.1683 34.5227 57.1505 34.5227 57.1339L34.5132 57.1316ZM39.0836 55.2646C39.0836 55.2172 39.0836 55.1698 39.0753 55.1224C39.067 55.075 39.0682 55.0336 39.0622 54.9885C39.0563 54.9435 39.0516 54.8985 39.0457 54.8535C39.0397 54.8085 39.0314 54.7635 39.0232 54.7184C39.0149 54.6734 39.0066 54.6284 38.9971 54.5834C38.9971 54.568 38.9912 54.5538 38.9876 54.5384C38.9746 54.4791 38.9604 54.4199 38.945 54.3595C38.9296 54.2991 38.9201 54.2635 38.9059 54.2162C38.9059 54.1948 38.894 54.1735 38.8869 54.1534C38.8798 54.1332 38.8668 54.0847 38.8561 54.0503L38.8348 53.984C38.8253 53.9544 38.8158 53.9247 38.8052 53.8951C38.7874 53.8418 38.7685 53.7897 38.7495 53.7364C38.7305 53.6831 38.7104 53.6309 38.6903 53.5788C38.65 53.4722 38.6062 53.3668 38.5623 53.2613C38.3906 52.8514 38.1975 52.4475 38.0198 52.0471C37.9243 51.8372 37.8397 51.6224 37.7663 51.4038L37.7437 51.4358C37.7077 51.4903 37.6757 51.5473 37.6478 51.6064C37.6478 52.5387 36.7143 53.6795 36.7143 53.6795L35.7749 52.3113L34.9527 53.5753C34.8343 53.6381 34.7158 53.8537 34.6234 54.1605C34.5973 54.2434 34.5725 54.3334 34.5488 54.4294C34.5322 54.4934 34.5168 54.5609 34.5026 54.6284C34.4943 54.6628 34.4872 54.6971 34.4801 54.7327L34.4587 54.8405V54.857C34.4445 54.9305 34.4303 55.0063 34.4173 55.0833C34.4043 55.1603 34.3889 55.2492 34.3758 55.3333C34.3663 55.3878 34.3581 55.4423 34.3509 55.4968C34.3344 55.6022 34.3201 55.7088 34.3059 55.8142C34.2976 55.8758 34.2893 55.9327 34.2822 55.9979L34.2538 56.2348C34.3142 56.4291 34.3817 56.621 34.4516 56.8093C34.4963 56.9125 34.5224 57.0228 34.5286 57.1351C35.9823 57.5505 37.5233 57.5505 38.977 57.1351C38.9764 57.1312 38.9764 57.1272 38.977 57.1233C38.9551 57.0169 38.9455 56.9084 38.9485 56.7999C38.9724 56.4959 39.012 56.1935 39.067 55.8936C39.0845 55.7458 39.092 55.597 39.0895 55.4482V55.3949C39.0859 55.3499 39.0848 55.3072 39.0836 55.2646ZM39.0836 55.2646C39.0836 55.2172 39.0836 55.1698 39.0753 55.1224C39.067 55.075 39.0682 55.0336 39.0622 54.9885C39.0563 54.9435 39.0516 54.8985 39.0457 54.8535C39.0397 54.8085 39.0314 54.7635 39.0232 54.7184C39.0149 54.6734 39.0066 54.6284 38.9971 54.5834C38.9971 54.568 38.9912 54.5538 38.9876 54.5384C38.9746 54.4791 38.9604 54.4199 38.945 54.3595C38.9296 54.2991 38.9201 54.2635 38.9059 54.2162C38.9059 54.1948 38.894 54.1735 38.8869 54.1534C38.8798 54.1332 38.8668 54.0847 38.8561 54.0503L38.8348 53.984C38.8253 53.9544 38.8158 53.9247 38.8052 53.8951C38.7874 53.8418 38.7685 53.7897 38.7495 53.7364C38.7305 53.6831 38.7104 53.6309 38.6903 53.5788C38.65 53.4722 38.6062 53.3668 38.5623 53.2613C38.3906 52.8514 38.1975 52.4475 38.0198 52.0471C37.9243 51.8372 37.8397 51.6224 37.7663 51.4038L37.7437 51.4358C37.7077 51.4903 37.6757 51.5473 37.6478 51.6064C37.6478 52.5387 36.7143 53.6795 36.7143 53.6795L35.7749 52.3113L34.9527 53.5753C34.8343 53.6381 34.7158 53.8537 34.6234 54.1605C34.5973 54.2434 34.5725 54.3334 34.5488 54.4294C34.5322 54.4934 34.5168 54.5609 34.5026 54.6284C34.4943 54.6628 34.4872 54.6971 34.4801 54.7327L34.4587 54.8405V54.857C34.4445 54.9305 34.4303 55.0063 34.4173 55.0833C34.4043 55.1603 34.3889 55.2492 34.3758 55.3333C34.3663 55.3878 34.3581 55.4423 34.3509 55.4968C34.3344 55.6022 34.3201 55.7088 34.3059 55.8142C34.2976 55.8758 34.2893 55.9327 34.2822 55.9979L34.2538 56.2348C34.3142 56.4291 34.3817 56.621 34.4516 56.8093C34.4963 56.9125 34.5224 57.0228 34.5286 57.1351C35.9823 57.5505 37.5233 57.5505 38.977 57.1351C38.9764 57.1312 38.9764 57.1272 38.977 57.1233C38.9551 57.0169 38.9455 56.9084 38.9485 56.7999C38.9724 56.4959 39.012 56.1935 39.067 55.8936C39.0845 55.7458 39.092 55.597 39.0895 55.4482V55.3949C39.0859 55.3499 39.0848 55.3072 39.0836 55.2646ZM39.0836 55.2646C39.0836 55.2172 39.0836 55.1698 39.0753 55.1224C39.067 55.075 39.0682 55.0336 39.0622 54.9885C39.0563 54.9435 39.0516 54.8985 39.0457 54.8535C39.0397 54.8085 39.0314 54.7635 39.0232 54.7184C39.0149 54.6734 39.0066 54.6284 38.9971 54.5834C38.9971 54.568 38.9912 54.5538 38.9876 54.5384C38.9746 54.4791 38.9604 54.4199 38.945 54.3595C38.9296 54.2991 38.9201 54.2635 38.9059 54.2162C38.9059 54.1948 38.894 54.1735 38.8869 54.1534C38.8798 54.1332 38.8668 54.0847 38.8561 54.0503L38.8348 53.984C38.8253 53.9544 38.8158 53.9247 38.8052 53.8951C38.7874 53.8418 38.7685 53.7897 38.7495 53.7364C38.7305 53.6831 38.7104 53.6309 38.6903 53.5788C38.65 53.4722 38.6062 53.3668 38.5623 53.2613C38.3906 52.8514 38.1975 52.4475 38.0198 52.0471C37.9243 51.8372 37.8397 51.6224 37.7663 51.4038L37.7437 51.4358C37.7077 51.4903 37.6757 51.5473 37.6478 51.6064C37.6478 52.5387 36.7143 53.6795 36.7143 53.6795L35.7749 52.3113L34.9527 53.5753C34.8343 53.6381 34.7158 53.8537 34.6234 54.1605C34.5973 54.2434 34.5725 54.3334 34.5488 54.4294C34.5322 54.4934 34.5168 54.5609 34.5026 54.6284C34.4943 54.6628 34.4872 54.6971 34.4801 54.7327L34.4587 54.8405V54.857C34.4445 54.9305 34.4303 55.0063 34.4173 55.0833C34.4043 55.1603 34.3889 55.2492 34.3758 55.3333C34.3663 55.3878 34.3581 55.4423 34.3509 55.4968C34.3344 55.6022 34.3201 55.7088 34.3059 55.8142C34.2976 55.8758 34.2893 55.9327 34.2822 55.9979L34.2538 56.2348C34.3142 56.4291 34.3817 56.621 34.4516 56.8093C34.4963 56.9125 34.5224 57.0228 34.5286 57.1351C35.9823 57.5505 37.5233 57.5505 38.977 57.1351C38.9764 57.1312 38.9764 57.1272 38.977 57.1233C38.9551 57.0169 38.9455 56.9084 38.9485 56.7999C38.9724 56.4959 39.012 56.1935 39.067 55.8936C39.0845 55.7458 39.092 55.597 39.0895 55.4482V55.3949C39.0859 55.3499 39.0848 55.3072 39.0836 55.2646ZM39.0836 55.2646C39.0836 55.2172 39.0836 55.1698 39.0753 55.1224C39.067 55.075 39.0682 55.0336 39.0622 54.9885C39.0563 54.9435 39.0516 54.8985 39.0457 54.8535C39.0397 54.8085 39.0314 54.7635 39.0232 54.7184C39.0149 54.6734 39.0066 54.6284 38.9971 54.5834C38.9971 54.568 38.9912 54.5538 38.9876 54.5384C38.9746 54.4791 38.9604 54.4199 38.945 54.3595C38.9296 54.2991 38.9201 54.2635 38.9059 54.2162C38.9059 54.1948 38.894 54.1735 38.8869 54.1534C38.8798 54.1332 38.8668 54.0847 38.8561 54.0503L38.8348 53.984C38.8253 53.9544 38.8158 53.9247 38.8052 53.8951C38.7874 53.8418 38.7685 53.7897 38.7495 53.7364C38.7305 53.6831 38.7104 53.6309 38.6903 53.5788C38.65 53.4722 38.6062 53.3668 38.5623 53.2613C38.3906 52.8514 38.1975 52.4475 38.0198 52.0471C37.9243 51.8372 37.8397 51.6224 37.7663 51.4038L37.7437 51.4358C37.7077 51.4903 37.6757 51.5473 37.6478 51.6064C37.6478 52.5387 36.7143 53.6795 36.7143 53.6795L35.7749 52.3113L34.9527 53.5753C34.8343 53.6381 34.7158 53.8537 34.6234 54.1605C34.5973 54.2434 34.5725 54.3334 34.5488 54.4294C34.5322 54.4934 34.5168 54.5609 34.5026 54.6284C34.4943 54.6628 34.4872 54.6971 34.4801 54.7327L34.4587 54.8405V54.857C34.4445 54.9305 34.4303 55.0063 34.4173 55.0833C34.4043 55.1603 34.3889 55.2492 34.3758 55.3333C34.3663 55.3878 34.3581 55.4423 34.3509 55.4968C34.3344 55.6022 34.3201 55.7088 34.3059 55.8142C34.2976 55.8758 34.2893 55.9327 34.2822 55.9979L34.2538 56.2348C34.3142 56.4291 34.3817 56.621 34.4516 56.8093C34.4963 56.9125 34.5224 57.0228 34.5286 57.1351C35.9823 57.5505 37.5233 57.5505 38.977 57.1351C38.9764 57.1312 38.9764 57.1272 38.977 57.1233C38.9551 57.0169 38.9455 56.9084 38.9485 56.7999C38.9724 56.4959 39.012 56.1935 39.067 55.8936C39.0845 55.7458 39.092 55.597 39.0895 55.4482V55.3949C39.0859 55.3499 39.0848 55.3072 39.0836 55.2646ZM39.0836 55.2646C39.0836 55.2172 39.0836 55.1698 39.0753 55.1224C39.067 55.075 39.0682 55.0336 39.0622 54.9885C39.0563 54.9435 39.0516 54.8985 39.0457 54.8535C39.0397 54.8085 39.0314 54.7635 39.0232 54.7184C39.0149 54.6734 39.0066 54.6284 38.9971 54.5834C38.9971 54.568 38.9912 54.5538 38.9876 54.5384C38.9746 54.4791 38.9604 54.4199 38.945 54.3595C38.9296 54.2991 38.9201 54.2635 38.9059 54.2162C38.9059 54.1948 38.894 54.1735 38.8869 54.1534C38.8798 54.1332 38.8668 54.0847 38.8561 54.0503L38.8348 53.984C38.8253 53.9544 38.8158 53.9247 38.8052 53.8951C38.7874 53.8418 38.7685 53.7897 38.7495 53.7364C38.7305 53.6831 38.7104 53.6309 38.6903 53.5788C38.65 53.4722 38.6062 53.3668 38.5623 53.2613C38.3906 52.8514 38.1975 52.4475 38.0198 52.0471C37.9243 51.8372 37.8397 51.6224 37.7663 51.4038L37.7437 51.4358C37.7077 51.4903 37.6757 51.5473 37.6478 51.6064C37.6478 52.5387 36.7143 53.6795 36.7143 53.6795L35.7749 52.3113L34.9527 53.5753C34.8343 53.6381 34.7158 53.8537 34.6234 54.1605C34.5973 54.2434 34.5725 54.3334 34.5488 54.4294C34.5322 54.4934 34.5168 54.5609 34.5026 54.6284C34.4943 54.6628 34.4872 54.6971 34.4801 54.7327L34.4587 54.8405V54.857C34.4445 54.9305 34.4303 55.0063 34.4173 55.0833C34.4043 55.1603 34.3889 55.2492 34.3758 55.3333C34.3663 55.3878 34.3581 55.4423 34.3509 55.4968C34.3344 55.6022 34.3201 55.7088 34.3059 55.8142C34.2976 55.8758 34.2893 55.9327 34.2822 55.9979L34.2538 56.2348C34.3142 56.4291 34.3817 56.621 34.4516 56.8093C34.4963 56.9125 34.5224 57.0228 34.5286 57.1351C35.9823 57.5505 37.5233 57.5505 38.977 57.1351C38.9764 57.1312 38.9764 57.1272 38.977 57.1233C38.9551 57.0169 38.9455 56.9084 38.9485 56.7999C38.9724 56.4959 39.012 56.1935 39.067 55.8936C39.0845 55.7458 39.092 55.597 39.0895 55.4482V55.3949C39.0859 55.3499 39.0848 55.3072 39.0836 55.2646ZM39.0836 55.2646C39.0836 55.2172 39.0836 55.1698 39.0753 55.1224C39.067 55.075 39.0682 55.0336 39.0622 54.9885C39.0563 54.9435 39.0516 54.8985 39.0457 54.8535C39.0397 54.8085 39.0314 54.7635 39.0232 54.7184C39.0149 54.6734 39.0066 54.6284 38.9971 54.5834C38.9971 54.568 38.9912 54.5538 38.9876 54.5384C38.9746 54.4791 38.9604 54.4199 38.945 54.3595C38.9296 54.2991 38.9201 54.2635 38.9059 54.2162C38.9059 54.1948 38.894 54.1735 38.8869 54.1534C38.8798 54.1332 38.8668 54.0847 38.8561 54.0503L38.8348 53.984C38.8253 53.9544 38.8158 53.9247 38.8052 53.8951C38.7874 53.8418 38.7685 53.7897 38.7495 53.7364C38.7305 53.6831 38.7104 53.6309 38.6903 53.5788C38.65 53.4722 38.6062 53.3668 38.5623 53.2613C38.3906 52.8514 38.1975 52.4475 38.0198 52.0471C37.9243 51.8372 37.8397 51.6224 37.7663 51.4038L37.7437 51.4358C37.7077 51.4903 37.6757 51.5473 37.6478 51.6064C37.6478 52.5387 36.7143 53.6795 36.7143 53.6795L35.7749 52.3113L34.9527 53.5753C34.8343 53.6381 34.7158 53.8537 34.6234 54.1605C34.5973 54.2434 34.5725 54.3334 34.5488 54.4294C34.5322 54.4934 34.5168 54.5609 34.5026 54.6284C34.4943 54.6628 34.4872 54.6971 34.4801 54.7327L34.4587 54.8405V54.857C34.4445 54.9305 34.4303 55.0063 34.4173 55.0833C34.4043 55.1603 34.3889 55.2492 34.3758 55.3333C34.3663 55.3878 34.3581 55.4423 34.3509 55.4968C34.3344 55.6022 34.3201 55.7088 34.3059 55.8142C34.2976 55.8758 34.2893 55.9327 34.2822 55.9979L34.2538 56.2348C34.3142 56.4291 34.3817 56.621 34.4516 56.8093C34.4963 56.9125 34.5224 57.0228 34.5286 57.1351C35.9823 57.5505 37.5233 57.5505 38.977 57.1351C38.9764 57.1312 38.9764 57.1272 38.977 57.1233C38.9551 57.0169 38.9455 56.9084 38.9485 56.7999C38.9724 56.4959 39.012 56.1935 39.067 55.8936C39.0845 55.7458 39.092 55.597 39.0895 55.4482V55.3949C39.0859 55.3499 39.0848 55.3072 39.0836 55.2646ZM39.0836 55.2646C39.0836 55.2172 39.0836 55.1698 39.0753 55.1224C39.067 55.075 39.0682 55.0336 39.0622 54.9885C39.0563 54.9435 39.0516 54.8985 39.0457 54.8535C39.0397 54.8085 39.0314 54.7635 39.0232 54.7184C39.0149 54.6734 39.0066 54.6284 38.9971 54.5834C38.9971 54.568 38.9912 54.5538 38.9876 54.5384C38.9746 54.4791 38.9604 54.4199 38.945 54.3595C38.9296 54.2991 38.9201 54.2635 38.9059 54.2162C38.9059 54.1948 38.894 54.1735 38.8869 54.1534C38.8798 54.1332 38.8668 54.0847 38.8561 54.0503L38.8348 53.984C38.8253 53.9544 38.8158 53.9247 38.8052 53.8951C38.7874 53.8418 38.7685 53.7897 38.7495 53.7364C38.7305 53.6831 38.7104 53.6309 38.6903 53.5788C38.65 53.4722 38.6062 53.3668 38.5623 53.2613C38.3906 52.8514 38.1975 52.4475 38.0198 52.0471C37.9243 51.8372 37.8397 51.6224 37.7663 51.4038L37.7437 51.4358C37.7077 51.4903 37.6757 51.5473 37.6478 51.6064C37.6478 52.5387 36.7143 53.6795 36.7143 53.6795L35.7749 52.3113L34.9527 53.5753C34.8343 53.6381 34.7158 53.8537 34.6234 54.1605C34.5973 54.2434 34.5725 54.3334 34.5488 54.4294C34.5322 54.4934 34.5168 54.5609 34.5026 54.6284C34.4943 54.6628 34.4872 54.6971 34.4801 54.7327L34.4587 54.8405V54.857C34.4445 54.9305 34.4303 55.0063 34.4173 55.0833C34.4043 55.1603 34.3889 55.2492 34.3758 55.3333C34.3663 55.3878 34.3581 55.4423 34.3509 55.4968C34.3344 55.6022 34.3201 55.7088 34.3059 55.8142C34.2976 55.8758 34.2893 55.9327 34.2822 55.9979L34.2538 56.2348C34.3142 56.4291 34.3817 56.621 34.4516 56.8093C34.4963 56.9125 34.5224 57.0228 34.5286 57.1351C35.9823 57.5505 37.5233 57.5505 38.977 57.1351C38.9764 57.1312 38.9764 57.1272 38.977 57.1233C38.9551 57.0169 38.9455 56.9084 38.9485 56.7999C38.9724 56.4959 39.012 56.1935 39.067 55.8936C39.0845 55.7458 39.092 55.597 39.0895 55.4482V55.3949C39.0859 55.3499 39.0848 55.3072 39.0836 55.2646ZM39.0836 55.2646C39.0836 55.2172 39.0836 55.1698 39.0753 55.1224C39.067 55.075 39.0682 55.0336 39.0622 54.9885C39.0563 54.9435 39.0516 54.8985 39.0457 54.8535C39.0397 54.8085 39.0314 54.7635 39.0232 54.7184C39.0149 54.6734 39.0066 54.6284 38.9971 54.5834C38.9971 54.568 38.9912 54.5538 38.9876 54.5384C38.9746 54.4791 38.9604 54.4199 38.945 54.3595C38.9296 54.2991 38.9201 54.2635 38.9059 54.2162C38.9059 54.1948 38.894 54.1735 38.8869 54.1534C38.8798 54.1332 38.8668 54.0847 38.8561 54.0503L38.8348 53.984C38.8253 53.9544 38.8158 53.9247 38.8052 53.8951C38.7874 53.8418 38.7685 53.7897 38.7495 53.7364C38.7305 53.6831 38.7104 53.6309 38.6903 53.5788C38.65 53.4722 38.6062 53.3668 38.5623 53.2613C38.3906 52.8514 38.1975 52.4475 38.0198 52.0471C37.9243 51.8372 37.8397 51.6224 37.7663 51.4038L37.7437 51.4358C37.7077 51.4903 37.6757 51.5473 37.6478 51.6064C37.6478 52.5387 36.7143 53.6795 36.7143 53.6795L35.7749 52.3113L34.9527 53.5753C34.8343 53.6381 34.7158 53.8537 34.6234 54.1605C34.5973 54.2434 34.5725 54.3334 34.5488 54.4294C34.5322 54.4934 34.5168 54.5609 34.5026 54.6284C34.4943 54.6628 34.4872 54.6971 34.4801 54.7327L34.4587 54.8405V54.857C34.4445 54.9305 34.4303 55.0063 34.4173 55.0833C34.4043 55.1603 34.3889 55.2492 34.3758 55.3333C34.3663 55.3878 34.3581 55.4423 34.3509 55.4968C34.3344 55.6022 34.3201 55.7088 34.3059 55.8142C34.2976 55.8758 34.2893 55.9327 34.2822 55.9979L34.2538 56.2348C34.3142 56.4291 34.3817 56.621 34.4516 56.8093C34.4963 56.9125 34.5224 57.0228 34.5286 57.1351C35.9823 57.5505 37.5233 57.5505 38.977 57.1351C38.9764 57.1312 38.9764 57.1272 38.977 57.1233C38.9551 57.0169 38.9455 56.9084 38.9485 56.7999C38.9724 56.4959 39.012 56.1935 39.067 55.8936C39.0845 55.7458 39.092 55.597 39.0895 55.4482V55.3949C39.0859 55.3499 39.0848 55.3072 39.0836 55.2646Z" fill="white"/>
<path opacity="0.1" d="M35.7915 52.2319L35.7121 52.2212C35.5922 52.205 35.4735 52.1812 35.3567 52.1501L35.3129 52.1383C35.0238 52.0565 34.7075 51.9097 34.6364 51.6514C34.6153 51.5683 34.6177 51.4809 34.6435 51.3991C34.6833 51.2581 34.7373 51.1216 34.8046 50.9916V50.9844C34.8136 50.9662 34.8234 50.9484 34.8343 50.9311C34.932 50.7401 35.0798 50.5792 35.2619 50.4656L35.1198 50.4881L33.9162 50.6836L32.0504 50.9844C32.0504 50.9844 31.7187 50.9181 31.2673 52.162C31.2673 52.1774 31.2567 52.1916 31.2519 52.2082C31.1429 52.5126 31.028 52.8929 30.9096 53.3679C30.8278 53.6973 30.7532 54.0207 30.6845 54.3346C30.6643 54.4294 30.6442 54.523 30.6252 54.6154C30.8388 54.8671 31.0688 55.1046 31.3135 55.3261L31.3526 55.3629C31.832 55.797 32.3618 56.1721 32.9305 56.48L32.9531 56.4918C33.3109 56.6848 33.6832 56.8496 34.0666 56.9846L34.1673 57.0202C34.1886 56.801 34.2123 56.5582 34.2408 56.3094C34.2408 56.2845 34.2408 56.2596 34.2502 56.2348L34.2787 55.9978C34.2858 55.9374 34.2941 55.8794 34.3024 55.8142C34.3166 55.7088 34.3308 55.6022 34.3474 55.4967C34.3545 55.4422 34.3628 55.3877 34.3723 55.3333C34.3853 55.2491 34.3995 55.165 34.4137 55.0833C34.4279 55.0016 34.441 54.9305 34.4552 54.857V54.8404L34.4765 54.7326C34.4836 54.6971 34.4907 54.6628 34.499 54.6284C34.5132 54.5609 34.5286 54.4933 34.5452 54.4294C34.5689 54.3334 34.5938 54.2434 34.6198 54.1605C34.7146 53.8536 34.8248 53.638 34.9492 53.5753L35.7713 52.3112L35.8057 52.2579L35.8211 52.2342L35.7915 52.2319Z" fill="black"/>
<path opacity="0.1" d="M34.2953 43.8411C34.1768 44.0046 34.1863 44.2297 34.133 44.4334C34.0062 44.8966 33.5039 45.1868 33.389 45.6536C33.3215 45.9261 33.3997 46.2151 33.3535 46.4923C33.2694 47.0029 32.8026 47.3488 32.542 47.7954C32.4099 48.0255 32.3316 48.2825 32.3129 48.5471C32.2942 48.8118 32.3357 49.0773 32.4342 49.3236C32.4952 49.4479 32.5455 49.577 32.5847 49.7098C32.6145 49.9076 32.602 50.1095 32.5479 50.3021C32.4591 50.7238 32.3679 51.1882 32.5716 51.5685C32.7434 51.8895 33.1 52.0779 33.4589 52.1371C33.8214 52.1781 34.188 52.1613 34.5452 52.0874C34.9373 52.0269 35.3389 51.9571 35.6801 51.7557L34.3972 48.659C34.268 48.3463 34.1353 48.0229 34.1365 47.6841C34.147 47.4341 34.2011 47.188 34.2965 46.9567C34.5448 46.2867 34.9054 45.6637 35.3626 45.1146C35.5486 45.3302 35.5344 45.6583 35.6896 45.8976C35.8267 46.0746 36.0093 46.2109 36.2179 46.2921C36.8258 46.5887 37.4504 46.8497 38.0885 47.074C38.1285 47.079 38.1667 47.0938 38.1996 47.1171C38.2326 47.1405 38.2592 47.1715 38.2773 47.2076C38.2953 47.2437 38.3042 47.2837 38.3031 47.324C38.302 47.3644 38.2909 47.4038 38.2709 47.4388L37.7876 49.4338C37.681 49.8733 37.5874 50.3815 37.861 50.7369C38.1347 51.0923 38.7519 51.2605 38.7554 51.7189C38.7504 51.7915 38.7504 51.8643 38.7554 51.9369C38.7874 52.1513 39.0421 52.2544 39.2589 52.2651C39.6148 52.2721 39.9616 52.1524 40.2374 51.9274C40.5132 51.7024 40.7 51.3866 40.7646 51.0366C40.883 50.2524 40.3642 49.5297 40.1474 48.7656C39.7825 47.4803 40.2658 45.9723 39.5491 44.8433C38.9687 43.9276 37.9108 43.6788 36.9062 43.5651C36.2014 43.4821 34.7916 43.186 34.2953 43.8411Z" fill="black"/>
<path opacity="0.5" d="M34.2953 43.7227C34.1768 43.8862 34.1863 44.1112 34.133 44.315C34.0062 44.7782 33.5039 45.0684 33.389 45.5352C33.3215 45.8076 33.3997 46.0967 33.3535 46.3739C33.2694 46.8845 32.8026 47.2304 32.542 47.677C32.4099 47.9071 32.3316 48.1641 32.3129 48.4287C32.2942 48.6934 32.3357 48.9588 32.4342 49.2052C32.4952 49.3294 32.5455 49.4586 32.5847 49.5914C32.6145 49.7892 32.602 49.9911 32.5479 50.1837C32.4591 50.6054 32.3679 51.0698 32.5716 51.4501C32.7434 51.7711 33.1 51.9595 33.4589 52.0187C33.8214 52.0597 34.188 52.0429 34.5452 51.969C34.9373 51.9085 35.3389 51.8386 35.6801 51.6373L34.3972 48.5406C34.268 48.2279 34.1353 47.9045 34.1365 47.5657C34.147 47.3157 34.2011 47.0695 34.2965 46.8383C34.5448 46.1682 34.9054 45.5453 35.3626 44.9962C35.5486 45.2118 35.5344 45.5399 35.6896 45.7792C35.8267 45.9561 36.0093 46.0925 36.2179 46.1737C36.8258 46.4702 37.4504 46.7313 38.0885 46.9556C38.1285 46.9606 38.1667 46.9754 38.1996 46.9987C38.2326 47.022 38.2592 47.0531 38.2773 47.0892C38.2953 47.1253 38.3042 47.1653 38.3031 47.2056C38.302 47.246 38.2909 47.2854 38.2709 47.3204L37.7876 49.3154C37.681 49.7549 37.5874 50.2631 37.861 50.6185C38.1347 50.9739 38.7519 51.1421 38.7554 51.6005C38.7504 51.6731 38.7504 51.7459 38.7554 51.8185C38.7874 52.0329 39.0421 52.136 39.2589 52.1466C39.6148 52.1537 39.9616 52.034 40.2374 51.809C40.5132 51.5839 40.7 51.2682 40.7646 50.9182C40.883 50.1339 40.3642 49.4113 40.1474 48.6472C39.7825 47.3619 40.2658 45.8538 39.5491 44.7249C38.9687 43.8092 37.9108 43.5604 36.9062 43.4467C36.2014 43.3637 34.7916 43.0676 34.2953 43.7227Z" fill="#493545"/>
</g>
<g opacity="0.5">
<path opacity="0.5" d="M33.5667 75.4531C33.5774 75.85 33.3073 76.1888 33.0929 76.5193C32.8784 76.8498 32.7197 77.3012 32.94 77.6317C33.0123 77.7407 33.1213 77.8248 33.1864 77.9385C33.4151 78.3354 33.0348 78.7914 32.8962 79.2274C32.7363 79.7309 32.9223 80.2936 33.2587 80.7023C33.5951 81.111 34.0595 81.387 34.5286 81.6298C35.515 82.1555 36.5737 82.5323 37.6703 82.7481C38.2437 82.8536 38.8549 82.9009 39.3928 82.6711C39.7659 82.4999 40.0707 82.2083 40.2583 81.8431C40.4458 81.4779 40.5052 81.0603 40.4269 80.6572C40.2907 80.0341 39.8346 79.533 39.5977 78.9443C39.5424 78.8287 39.5156 78.7015 39.5195 78.5735C39.5396 78.3496 39.7114 78.1742 39.8453 77.993C40.181 77.4995 40.3181 76.8975 40.2291 76.3073C40.1356 75.7171 39.9096 75.1557 39.5681 74.6653C39.446 74.4621 39.285 74.2849 39.0942 74.1441C38.836 73.97 38.5161 73.9202 38.2081 73.8764C36.9216 73.6963 35.5889 73.4997 34.2917 73.4333C33.8818 73.412 33.5809 73.4926 33.3784 73.8764C33.0692 74.4486 33.5513 74.8786 33.5667 75.4531Z" fill="#444176"/>
<path opacity="0.5" d="M40.1924 79.4821L37.7509 82.9543L35.3674 82.747C35.3674 82.747 35.2892 83.5762 34.3308 80.5708C33.7954 78.8898 34.8841 79.4738 35.0985 79.0083C35.3129 78.5427 35.6908 78.1317 35.7228 77.7881C35.7986 77.0513 35.5747 76.6319 35.5747 76.6319L38.1655 76.3215C38.0486 76.6706 38.0338 77.0459 38.1229 77.4031C38.4474 78.7512 40.1924 79.4821 40.1924 79.4821Z" fill="#C77485"/>
<path opacity="0.5" d="M36.52 76.5218C38.2211 76.5218 39.6001 75.4345 39.6001 74.0933C39.6001 72.7521 38.2211 71.6648 36.52 71.6648C34.819 71.6648 33.44 72.7521 33.44 74.0933C33.44 75.4345 34.819 76.5218 36.52 76.5218Z" fill="#444176"/>
<path opacity="0.1" d="M38.1216 77.4019C37.7837 77.6578 37.3882 77.8268 36.9697 77.8942C36.5513 77.9615 36.1227 77.9251 35.7216 77.7882C35.7974 77.0513 35.5735 76.6319 35.5735 76.6319L38.1643 76.3215C38.0476 76.6703 38.0328 77.0451 38.1216 77.4019Z" fill="black"/>
<path opacity="0.5" d="M36.5591 77.8237C37.99 77.8237 39.1499 76.6637 39.1499 75.2329C39.1499 73.802 37.99 72.6421 36.5591 72.6421C35.1283 72.6421 33.9683 73.802 33.9683 75.2329C33.9683 76.6637 35.1283 77.8237 36.5591 77.8237Z" fill="#C77485"/>
<path opacity="0.1" d="M39.9365 79.8754L39.8761 79.6385L39.824 79.43L39.747 79.122L39.7328 79.0652L39.7209 79.0178C39.7209 79.0178 39.7825 78.8318 39.3762 78.8922L39.3004 78.9052C39.2364 78.9183 39.1618 78.936 39.0765 78.9597L38.9995 78.9834L38.8976 79.0154C38.5751 79.1204 38.2809 79.2979 38.0376 79.5343C37.9284 79.6387 37.8317 79.7556 37.7497 79.8826C37.7414 79.8944 37.7355 79.9051 37.7284 79.9145C37.7003 79.9585 37.6754 80.0045 37.6537 80.052C37.6537 80.9854 36.7202 82.1251 36.7202 82.1251L35.8093 80.8089L35.7915 80.7829L35.5747 80.4678L35.4977 80.3659L35.4716 80.3303L34.9978 79.6942L34.8793 79.5355L34.8402 79.4821L34.7822 79.4051L34.6459 79.2239L34.1129 79.5355L33.4021 79.9501L32.9875 82.6451V82.7198L33.0005 82.9425L33.087 84.4067V84.4268L32.9353 85.0333L32.9578 85.0452C33.3156 85.2382 33.688 85.403 34.0714 85.538L34.1721 85.5735C34.2906 85.6126 34.4019 85.6482 34.518 85.6825C34.5223 85.7001 34.5255 85.7179 34.5275 85.7358C34.5275 85.7193 34.5275 85.7015 34.5275 85.6849C35.9812 86.1003 37.5221 86.1003 38.9758 85.6849L39.003 85.6766C39.0706 85.6577 39.1393 85.6375 39.2056 85.615L39.3134 85.5807C39.6057 85.4829 39.8921 85.3682 40.1711 85.2371L40.2706 83.1166L40.3417 81.5872V81.4996L39.9365 79.8754Z" fill="black"/>
<path opacity="0.5" d="M39.0836 83.8144C39.0836 83.767 39.0836 83.7196 39.0753 83.6722C39.067 83.6248 39.0682 83.5834 39.0623 83.5383C39.0563 83.4933 39.0516 83.4483 39.0457 83.4033C39.0397 83.3583 39.0315 83.3133 39.0232 83.2682C39.0149 83.2232 39.0066 83.1782 38.9971 83.1332C38.9971 83.1178 38.9912 83.1036 38.9876 83.0882C38.9746 83.0289 38.9604 82.9697 38.945 82.9093C38.9296 82.8489 38.9201 82.8133 38.9059 82.766C38.9059 82.7446 38.894 82.7233 38.8869 82.7032C38.8798 82.683 38.8668 82.6345 38.8561 82.6001L38.8348 82.5338C38.8253 82.5042 38.8158 82.4745 38.8052 82.4449C38.7874 82.3916 38.7685 82.3395 38.7495 82.2862C38.7306 82.2329 38.7104 82.1807 38.6903 82.1286C38.65 82.022 38.6062 81.9166 38.5623 81.8111C38.3906 81.4013 38.1975 80.9973 38.0198 80.5969C37.9243 80.387 37.8397 80.1723 37.7663 79.9536L37.7437 79.9856C37.7077 80.0401 37.6757 80.0971 37.6478 80.1562C37.6478 81.0885 36.7143 82.2293 36.7143 82.2293L35.7749 80.8611L34.9527 82.1251C34.8343 82.1879 34.7158 82.4035 34.6234 82.7103C34.5974 82.7932 34.5725 82.8832 34.5488 82.9792C34.5322 83.0432 34.5168 83.1107 34.5026 83.1782C34.4943 83.2126 34.4872 83.2469 34.4801 83.2825L34.4587 83.3903V83.4068C34.4445 83.4803 34.4303 83.5561 34.4173 83.6331C34.4043 83.7101 34.3889 83.799 34.3758 83.8831C34.3663 83.9376 34.3581 83.9921 34.3509 84.0466C34.3344 84.152 34.3201 84.2586 34.3059 84.364C34.2976 84.4256 34.2893 84.4825 34.2822 84.5477L34.2538 84.7846C34.3142 84.9789 34.3817 85.1708 34.4516 85.3591C34.4963 85.4623 34.5224 85.5726 34.5286 85.6849C35.9823 86.1003 37.5233 86.1003 38.977 85.6849C38.9764 85.681 38.9764 85.677 38.977 85.6731C38.9551 85.5667 38.9455 85.4582 38.9485 85.3497C38.9724 85.0457 39.012 84.7433 39.067 84.4434C39.0845 84.2956 39.092 84.1468 39.0895 83.998V83.9447C39.0859 83.8997 39.0848 83.857 39.0836 83.8144ZM39.0836 83.8144C39.0836 83.767 39.0836 83.7196 39.0753 83.6722C39.067 83.6248 39.0682 83.5834 39.0623 83.5383C39.0563 83.4933 39.0516 83.4483 39.0457 83.4033C39.0397 83.3583 39.0315 83.3133 39.0232 83.2682C39.0149 83.2232 39.0066 83.1782 38.9971 83.1332C38.9971 83.1178 38.9912 83.1036 38.9876 83.0882C38.9746 83.0289 38.9604 82.9697 38.945 82.9093C38.9296 82.8489 38.9201 82.8133 38.9059 82.766C38.9059 82.7446 38.894 82.7233 38.8869 82.7032C38.8798 82.683 38.8668 82.6345 38.8561 82.6001L38.8348 82.5338C38.8253 82.5042 38.8158 82.4745 38.8052 82.4449C38.7874 82.3916 38.7685 82.3395 38.7495 82.2862C38.7306 82.2329 38.7104 82.1807 38.6903 82.1286C38.65 82.022 38.6062 81.9166 38.5623 81.8111C38.3906 81.4013 38.1975 80.9973 38.0198 80.5969C37.9243 80.387 37.8397 80.1723 37.7663 79.9536L37.7437 79.9856C37.7077 80.0401 37.6757 80.0971 37.6478 80.1562C37.6478 81.0885 36.7143 82.2293 36.7143 82.2293L35.7749 80.8611L34.9527 82.1251C34.8343 82.1879 34.7158 82.4035 34.6234 82.7103C34.5974 82.7932 34.5725 82.8832 34.5488 82.9792C34.5322 83.0432 34.5168 83.1107 34.5026 83.1782C34.4943 83.2126 34.4872 83.2469 34.4801 83.2825L34.4587 83.3903V83.4068C34.4445 83.4803 34.4303 83.5561 34.4173 83.6331C34.4043 83.7101 34.3889 83.799 34.3758 83.8831C34.3663 83.9376 34.3581 83.9921 34.3509 84.0466C34.3344 84.152 34.3201 84.2586 34.3059 84.364C34.2976 84.4256 34.2893 84.4825 34.2822 84.5477L34.2538 84.7846C34.3142 84.9789 34.3817 85.1708 34.4516 85.3591C34.4963 85.4623 34.5224 85.5726 34.5286 85.6849C35.9823 86.1003 37.5233 86.1003 38.977 85.6849C38.9764 85.681 38.9764 85.677 38.977 85.6731C38.9551 85.5667 38.9455 85.4582 38.9485 85.3497C38.9724 85.0457 39.012 84.7433 39.067 84.4434C39.0845 84.2956 39.092 84.1468 39.0895 83.998V83.9447C39.0859 83.8997 39.0848 83.857 39.0836 83.8144ZM39.0836 83.8144C39.0836 83.767 39.0836 83.7196 39.0753 83.6722C39.067 83.6248 39.0682 83.5834 39.0623 83.5383C39.0563 83.4933 39.0516 83.4483 39.0457 83.4033C39.0397 83.3583 39.0315 83.3133 39.0232 83.2682C39.0149 83.2232 39.0066 83.1782 38.9971 83.1332C38.9971 83.1178 38.9912 83.1036 38.9876 83.0882C38.9746 83.0289 38.9604 82.9697 38.945 82.9093C38.9296 82.8489 38.9201 82.8133 38.9059 82.766C38.9059 82.7446 38.894 82.7233 38.8869 82.7032C38.8798 82.683 38.8668 82.6345 38.8561 82.6001L38.8348 82.5338C38.8253 82.5042 38.8158 82.4745 38.8052 82.4449C38.7874 82.3916 38.7685 82.3395 38.7495 82.2862C38.7306 82.2329 38.7104 82.1807 38.6903 82.1286C38.65 82.022 38.6062 81.9166 38.5623 81.8111C38.3906 81.4013 38.1975 80.9973 38.0198 80.5969C37.9243 80.387 37.8397 80.1723 37.7663 79.9536L37.7437 79.9856C37.7077 80.0401 37.6757 80.0971 37.6478 80.1562C37.6478 81.0885 36.7143 82.2293 36.7143 82.2293L35.7749 80.8611L34.9527 82.1251C34.8343 82.1879 34.7158 82.4035 34.6234 82.7103C34.5974 82.7932 34.5725 82.8832 34.5488 82.9792C34.5322 83.0432 34.5168 83.1107 34.5026 83.1782C34.4943 83.2126 34.4872 83.2469 34.4801 83.2825L34.4587 83.3903V83.4068C34.4445 83.4803 34.4303 83.5561 34.4173 83.6331C34.4043 83.7101 34.3889 83.799 34.3758 83.8831C34.3663 83.9376 34.3581 83.9921 34.3509 84.0466C34.3344 84.152 34.3201 84.2586 34.3059 84.364C34.2976 84.4256 34.2893 84.4825 34.2822 84.5477L34.2538 84.7846C34.3142 84.9789 34.3817 85.1708 34.4516 85.3591C34.4963 85.4623 34.5224 85.5726 34.5286 85.6849C35.9823 86.1003 37.5233 86.1003 38.977 85.6849C38.9764 85.681 38.9764 85.677 38.977 85.6731C38.9551 85.5667 38.9455 85.4582 38.9485 85.3497C38.9724 85.0457 39.012 84.7433 39.067 84.4434C39.0845 84.2956 39.092 84.1468 39.0895 83.998V83.9447C39.0859 83.8997 39.0848 83.857 39.0836 83.8144ZM40.3393 81.5908L39.9164 79.9027L39.8441 79.6136L39.824 79.5343L39.7209 79.122C39.7212 79.1185 39.7212 79.1149 39.7209 79.1113C39.7234 79.0931 39.7205 79.0746 39.7126 79.058C39.6972 79.0272 39.6581 78.9952 39.5669 78.987C39.5322 78.9845 39.4974 78.9845 39.4627 78.987C39.3597 78.9971 39.2579 79.0162 39.1582 79.0438C39.1096 79.0568 39.0575 79.0711 39.0018 79.0888L38.9 79.1208H38.8905C38.6176 79.2104 38.3643 79.3511 38.1442 79.5354C37.9987 79.6567 37.8711 79.7979 37.7651 79.9548L37.7426 79.9868C37.7065 80.0413 37.6745 80.0983 37.6466 80.1574C37.6466 81.0897 36.7131 82.2305 36.7131 82.2305L35.7737 80.8622L35.7204 80.7852L35.7109 80.7722L35.5747 80.572L35.4716 80.4346L35.4444 80.399L34.9587 79.751L34.8047 79.5414V79.5343L34.7514 79.462L34.6495 79.3269L34.2941 79.5343L33.4056 80.0519L32.9957 82.7186V82.747L33.0076 82.9413L33.0952 84.4256V84.5098L32.9614 85.044C33.3192 85.237 33.6915 85.4018 34.0749 85.5368L34.1756 85.5724C34.2941 85.6115 34.4054 85.647 34.5215 85.6814C34.5258 85.6989 34.529 85.7167 34.531 85.7347C34.531 85.7181 34.531 85.7003 34.531 85.6837C35.9847 86.0992 37.5257 86.0992 38.9793 85.6837L39.0066 85.6754C39.0741 85.6565 39.1428 85.6363 39.2091 85.6138L39.3169 85.5795C39.6093 85.4817 39.8956 85.367 40.1746 85.2359L40.273 83.1178L40.344 81.605L40.3393 81.5908ZM34.5132 85.6814C34.5175 85.6989 34.5207 85.7167 34.5227 85.7347C34.5227 85.7181 34.5227 85.7003 34.5227 85.6837L34.5132 85.6814ZM39.0836 83.8144C39.0836 83.767 39.0836 83.7196 39.0753 83.6722C39.067 83.6248 39.0682 83.5834 39.0623 83.5383C39.0563 83.4933 39.0516 83.4483 39.0457 83.4033C39.0397 83.3583 39.0315 83.3133 39.0232 83.2682C39.0149 83.2232 39.0066 83.1782 38.9971 83.1332C38.9971 83.1178 38.9912 83.1036 38.9876 83.0882C38.9746 83.0289 38.9604 82.9697 38.945 82.9093C38.9296 82.8489 38.9201 82.8133 38.9059 82.766C38.9059 82.7446 38.894 82.7233 38.8869 82.7032C38.8798 82.683 38.8668 82.6345 38.8561 82.6001L38.8348 82.5338C38.8253 82.5042 38.8158 82.4745 38.8052 82.4449C38.7874 82.3916 38.7685 82.3395 38.7495 82.2862C38.7306 82.2329 38.7104 82.1807 38.6903 82.1286C38.65 82.022 38.6062 81.9166 38.5623 81.8111C38.3906 81.4013 38.1975 80.9973 38.0198 80.5969C37.9243 80.387 37.8397 80.1723 37.7663 79.9536L37.7437 79.9856C37.7077 80.0401 37.6757 80.0971 37.6478 80.1562C37.6478 81.0885 36.7143 82.2293 36.7143 82.2293L35.7749 80.8611L34.9527 82.1251C34.8343 82.1879 34.7158 82.4035 34.6234 82.7103C34.5974 82.7932 34.5725 82.8832 34.5488 82.9792C34.5322 83.0432 34.5168 83.1107 34.5026 83.1782C34.4943 83.2126 34.4872 83.2469 34.4801 83.2825L34.4587 83.3903V83.4068C34.4445 83.4803 34.4303 83.5561 34.4173 83.6331C34.4043 83.7101 34.3889 83.799 34.3758 83.8831C34.3663 83.9376 34.3581 83.9921 34.3509 84.0466C34.3344 84.152 34.3201 84.2586 34.3059 84.364C34.2976 84.4256 34.2893 84.4825 34.2822 84.5477L34.2538 84.7846C34.3142 84.9789 34.3817 85.1708 34.4516 85.3591C34.4963 85.4623 34.5224 85.5726 34.5286 85.6849C35.9823 86.1003 37.5233 86.1003 38.977 85.6849C38.9764 85.681 38.9764 85.677 38.977 85.6731C38.9551 85.5667 38.9455 85.4582 38.9485 85.3497C38.9724 85.0457 39.012 84.7433 39.067 84.4434C39.0845 84.2956 39.092 84.1468 39.0895 83.998V83.9447C39.0859 83.8997 39.0848 83.857 39.0836 83.8144ZM39.0836 83.8144C39.0836 83.767 39.0836 83.7196 39.0753 83.6722C39.067 83.6248 39.0682 83.5834 39.0623 83.5383C39.0563 83.4933 39.0516 83.4483 39.0457 83.4033C39.0397 83.3583 39.0315 83.3133 39.0232 83.2682C39.0149 83.2232 39.0066 83.1782 38.9971 83.1332C38.9971 83.1178 38.9912 83.1036 38.9876 83.0882C38.9746 83.0289 38.9604 82.9697 38.945 82.9093C38.9296 82.8489 38.9201 82.8133 38.9059 82.766C38.9059 82.7446 38.894 82.7233 38.8869 82.7032C38.8798 82.683 38.8668 82.6345 38.8561 82.6001L38.8348 82.5338C38.8253 82.5042 38.8158 82.4745 38.8052 82.4449C38.7874 82.3916 38.7685 82.3395 38.7495 82.2862C38.7306 82.2329 38.7104 82.1807 38.6903 82.1286C38.65 82.022 38.6062 81.9166 38.5623 81.8111C38.3906 81.4013 38.1975 80.9973 38.0198 80.5969C37.9243 80.387 37.8397 80.1723 37.7663 79.9536L37.7437 79.9856C37.7077 80.0401 37.6757 80.0971 37.6478 80.1562C37.6478 81.0885 36.7143 82.2293 36.7143 82.2293L35.7749 80.8611L34.9527 82.1251C34.8343 82.1879 34.7158 82.4035 34.6234 82.7103C34.5974 82.7932 34.5725 82.8832 34.5488 82.9792C34.5322 83.0432 34.5168 83.1107 34.5026 83.1782C34.4943 83.2126 34.4872 83.2469 34.4801 83.2825L34.4587 83.3903V83.4068C34.4445 83.4803 34.4303 83.5561 34.4173 83.6331C34.4043 83.7101 34.3889 83.799 34.3758 83.8831C34.3663 83.9376 34.3581 83.9921 34.3509 84.0466C34.3344 84.152 34.3201 84.2586 34.3059 84.364C34.2976 84.4256 34.2893 84.4825 34.2822 84.5477L34.2538 84.7846C34.3142 84.9789 34.3817 85.1708 34.4516 85.3591C34.4963 85.4623 34.5224 85.5726 34.5286 85.6849C35.9823 86.1003 37.5233 86.1003 38.977 85.6849C38.9764 85.681 38.9764 85.677 38.977 85.6731C38.9551 85.5667 38.9455 85.4582 38.9485 85.3497C38.9724 85.0457 39.012 84.7433 39.067 84.4434C39.0845 84.2956 39.092 84.1468 39.0895 83.998V83.9447C39.0859 83.8997 39.0848 83.857 39.0836 83.8144ZM39.0836 83.8144C39.0836 83.767 39.0836 83.7196 39.0753 83.6722C39.067 83.6248 39.0682 83.5834 39.0623 83.5383C39.0563 83.4933 39.0516 83.4483 39.0457 83.4033C39.0397 83.3583 39.0315 83.3133 39.0232 83.2682C39.0149 83.2232 39.0066 83.1782 38.9971 83.1332C38.9971 83.1178 38.9912 83.1036 38.9876 83.0882C38.9746 83.0289 38.9604 82.9697 38.945 82.9093C38.9296 82.8489 38.9201 82.8133 38.9059 82.766C38.9059 82.7446 38.894 82.7233 38.8869 82.7032C38.8798 82.683 38.8668 82.6345 38.8561 82.6001L38.8348 82.5338C38.8253 82.5042 38.8158 82.4745 38.8052 82.4449C38.7874 82.3916 38.7685 82.3395 38.7495 82.2862C38.7306 82.2329 38.7104 82.1807 38.6903 82.1286C38.65 82.022 38.6062 81.9166 38.5623 81.8111C38.3906 81.4013 38.1975 80.9973 38.0198 80.5969C37.9243 80.387 37.8397 80.1723 37.7663 79.9536L37.7437 79.9856C37.7077 80.0401 37.6757 80.0971 37.6478 80.1562C37.6478 81.0885 36.7143 82.2293 36.7143 82.2293L35.7749 80.8611L34.9527 82.1251C34.8343 82.1879 34.7158 82.4035 34.6234 82.7103C34.5974 82.7932 34.5725 82.8832 34.5488 82.9792C34.5322 83.0432 34.5168 83.1107 34.5026 83.1782C34.4943 83.2126 34.4872 83.2469 34.4801 83.2825L34.4587 83.3903V83.4068C34.4445 83.4803 34.4303 83.5561 34.4173 83.6331C34.4043 83.7101 34.3889 83.799 34.3758 83.8831C34.3663 83.9376 34.3581 83.9921 34.3509 84.0466C34.3344 84.152 34.3201 84.2586 34.3059 84.364C34.2976 84.4256 34.2893 84.4825 34.2822 84.5477L34.2538 84.7846C34.3142 84.9789 34.3817 85.1708 34.4516 85.3591C34.4963 85.4623 34.5224 85.5726 34.5286 85.6849C35.9823 86.1003 37.5233 86.1003 38.977 85.6849C38.9764 85.681 38.9764 85.677 38.977 85.6731C38.9551 85.5667 38.9455 85.4582 38.9485 85.3497C38.9724 85.0457 39.012 84.7433 39.067 84.4434C39.0845 84.2956 39.092 84.1468 39.0895 83.998V83.9447C39.0859 83.8997 39.0848 83.857 39.0836 83.8144ZM39.0836 83.8144C39.0836 83.767 39.0836 83.7196 39.0753 83.6722C39.067 83.6248 39.0682 83.5834 39.0623 83.5383C39.0563 83.4933 39.0516 83.4483 39.0457 83.4033C39.0397 83.3583 39.0315 83.3133 39.0232 83.2682C39.0149 83.2232 39.0066 83.1782 38.9971 83.1332C38.9971 83.1178 38.9912 83.1036 38.9876 83.0882C38.9746 83.0289 38.9604 82.9697 38.945 82.9093C38.9296 82.8489 38.9201 82.8133 38.9059 82.766C38.9059 82.7446 38.894 82.7233 38.8869 82.7032C38.8798 82.683 38.8668 82.6345 38.8561 82.6001L38.8348 82.5338C38.8253 82.5042 38.8158 82.4745 38.8052 82.4449C38.7874 82.3916 38.7685 82.3395 38.7495 82.2862C38.7306 82.2329 38.7104 82.1807 38.6903 82.1286C38.65 82.022 38.6062 81.9166 38.5623 81.8111C38.3906 81.4013 38.1975 80.9973 38.0198 80.5969C37.9243 80.387 37.8397 80.1723 37.7663 79.9536L37.7437 79.9856C37.7077 80.0401 37.6757 80.0971 37.6478 80.1562C37.6478 81.0885 36.7143 82.2293 36.7143 82.2293L35.7749 80.8611L34.9527 82.1251C34.8343 82.1879 34.7158 82.4035 34.6234 82.7103C34.5974 82.7932 34.5725 82.8832 34.5488 82.9792C34.5322 83.0432 34.5168 83.1107 34.5026 83.1782C34.4943 83.2126 34.4872 83.2469 34.4801 83.2825L34.4587 83.3903V83.4068C34.4445 83.4803 34.4303 83.5561 34.4173 83.6331C34.4043 83.7101 34.3889 83.799 34.3758 83.8831C34.3663 83.9376 34.3581 83.9921 34.3509 84.0466C34.3344 84.152 34.3201 84.2586 34.3059 84.364C34.2976 84.4256 34.2893 84.4825 34.2822 84.5477L34.2538 84.7846C34.3142 84.9789 34.3817 85.1708 34.4516 85.3591C34.4963 85.4623 34.5224 85.5726 34.5286 85.6849C35.9823 86.1003 37.5233 86.1003 38.977 85.6849C38.9764 85.681 38.9764 85.677 38.977 85.6731C38.9551 85.5667 38.9455 85.4582 38.9485 85.3497C38.9724 85.0457 39.012 84.7433 39.067 84.4434C39.0845 84.2956 39.092 84.1468 39.0895 83.998V83.9447C39.0859 83.8997 39.0848 83.857 39.0836 83.8144ZM39.0836 83.8144C39.0836 83.767 39.0836 83.7196 39.0753 83.6722C39.067 83.6248 39.0682 83.5834 39.0623 83.5383C39.0563 83.4933 39.0516 83.4483 39.0457 83.4033C39.0397 83.3583 39.0315 83.3133 39.0232 83.2682C39.0149 83.2232 39.0066 83.1782 38.9971 83.1332C38.9971 83.1178 38.9912 83.1036 38.9876 83.0882C38.9746 83.0289 38.9604 82.9697 38.945 82.9093C38.9296 82.8489 38.9201 82.8133 38.9059 82.766C38.9059 82.7446 38.894 82.7233 38.8869 82.7032C38.8798 82.683 38.8668 82.6345 38.8561 82.6001L38.8348 82.5338C38.8253 82.5042 38.8158 82.4745 38.8052 82.4449C38.7874 82.3916 38.7685 82.3395 38.7495 82.2862C38.7306 82.2329 38.7104 82.1807 38.6903 82.1286C38.65 82.022 38.6062 81.9166 38.5623 81.8111C38.3906 81.4013 38.1975 80.9973 38.0198 80.5969C37.9243 80.387 37.8397 80.1723 37.7663 79.9536L37.7437 79.9856C37.7077 80.0401 37.6757 80.0971 37.6478 80.1562C37.6478 81.0885 36.7143 82.2293 36.7143 82.2293L35.7749 80.8611L34.9527 82.1251C34.8343 82.1879 34.7158 82.4035 34.6234 82.7103C34.5974 82.7932 34.5725 82.8832 34.5488 82.9792C34.5322 83.0432 34.5168 83.1107 34.5026 83.1782C34.4943 83.2126 34.4872 83.2469 34.4801 83.2825L34.4587 83.3903V83.4068C34.4445 83.4803 34.4303 83.5561 34.4173 83.6331C34.4043 83.7101 34.3889 83.799 34.3758 83.8831C34.3663 83.9376 34.3581 83.9921 34.3509 84.0466C34.3344 84.152 34.3201 84.2586 34.3059 84.364C34.2976 84.4256 34.2893 84.4825 34.2822 84.5477L34.2538 84.7846C34.3142 84.9789 34.3817 85.1708 34.4516 85.3591C34.4963 85.4623 34.5224 85.5726 34.5286 85.6849C35.9823 86.1003 37.5233 86.1003 38.977 85.6849C38.9764 85.681 38.9764 85.677 38.977 85.6731C38.9551 85.5667 38.9455 85.4582 38.9485 85.3497C38.9724 85.0457 39.012 84.7433 39.067 84.4434C39.0845 84.2956 39.092 84.1468 39.0895 83.998V83.9447C39.0859 83.8997 39.0848 83.857 39.0836 83.8144ZM39.0836 83.8144C39.0836 83.767 39.0836 83.7196 39.0753 83.6722C39.067 83.6248 39.0682 83.5834 39.0623 83.5383C39.0563 83.4933 39.0516 83.4483 39.0457 83.4033C39.0397 83.3583 39.0315 83.3133 39.0232 83.2682C39.0149 83.2232 39.0066 83.1782 38.9971 83.1332C38.9971 83.1178 38.9912 83.1036 38.9876 83.0882C38.9746 83.0289 38.9604 82.9697 38.945 82.9093C38.9296 82.8489 38.9201 82.8133 38.9059 82.766C38.9059 82.7446 38.894 82.7233 38.8869 82.7032C38.8798 82.683 38.8668 82.6345 38.8561 82.6001L38.8348 82.5338C38.8253 82.5042 38.8158 82.4745 38.8052 82.4449C38.7874 82.3916 38.7685 82.3395 38.7495 82.2862C38.7306 82.2329 38.7104 82.1807 38.6903 82.1286C38.65 82.022 38.6062 81.9166 38.5623 81.8111C38.3906 81.4013 38.1975 80.9973 38.0198 80.5969C37.9243 80.387 37.8397 80.1723 37.7663 79.9536L37.7437 79.9856C37.7077 80.0401 37.6757 80.0971 37.6478 80.1562C37.6478 81.0885 36.7143 82.2293 36.7143 82.2293L35.7749 80.8611L34.9527 82.1251C34.8343 82.1879 34.7158 82.4035 34.6234 82.7103C34.5974 82.7932 34.5725 82.8832 34.5488 82.9792C34.5322 83.0432 34.5168 83.1107 34.5026 83.1782C34.4943 83.2126 34.4872 83.2469 34.4801 83.2825L34.4587 83.3903V83.4068C34.4445 83.4803 34.4303 83.5561 34.4173 83.6331C34.4043 83.7101 34.3889 83.799 34.3758 83.8831C34.3663 83.9376 34.3581 83.9921 34.3509 84.0466C34.3344 84.152 34.3201 84.2586 34.3059 84.364C34.2976 84.4256 34.2893 84.4825 34.2822 84.5477L34.2538 84.7846C34.3142 84.9789 34.3817 85.1708 34.4516 85.3591C34.4963 85.4623 34.5224 85.5726 34.5286 85.6849C35.9823 86.1003 37.5233 86.1003 38.977 85.6849C38.9764 85.681 38.9764 85.677 38.977 85.6731C38.9551 85.5667 38.9455 85.4582 38.9485 85.3497C38.9724 85.0457 39.012 84.7433 39.067 84.4434C39.0845 84.2956 39.092 84.1468 39.0895 83.998V83.9447C39.0859 83.8997 39.0848 83.857 39.0836 83.8144ZM39.0836 83.8144C39.0836 83.767 39.0836 83.7196 39.0753 83.6722C39.067 83.6248 39.0682 83.5834 39.0623 83.5383C39.0563 83.4933 39.0516 83.4483 39.0457 83.4033C39.0397 83.3583 39.0315 83.3133 39.0232 83.2682C39.0149 83.2232 39.0066 83.1782 38.9971 83.1332C38.9971 83.1178 38.9912 83.1036 38.9876 83.0882C38.9746 83.0289 38.9604 82.9697 38.945 82.9093C38.9296 82.8489 38.9201 82.8133 38.9059 82.766C38.9059 82.7446 38.894 82.7233 38.8869 82.7032C38.8798 82.683 38.8668 82.6345 38.8561 82.6001L38.8348 82.5338C38.8253 82.5042 38.8158 82.4745 38.8052 82.4449C38.7874 82.3916 38.7685 82.3395 38.7495 82.2862C38.7306 82.2329 38.7104 82.1807 38.6903 82.1286C38.65 82.022 38.6062 81.9166 38.5623 81.8111C38.3906 81.4013 38.1975 80.9973 38.0198 80.5969C37.9243 80.387 37.8397 80.1723 37.7663 79.9536L37.7437 79.9856C37.7077 80.0401 37.6757 80.0971 37.6478 80.1562C37.6478 81.0885 36.7143 82.2293 36.7143 82.2293L35.7749 80.8611L34.9527 82.1251C34.8343 82.1879 34.7158 82.4035 34.6234 82.7103C34.5974 82.7932 34.5725 82.8832 34.5488 82.9792C34.5322 83.0432 34.5168 83.1107 34.5026 83.1782C34.4943 83.2126 34.4872 83.2469 34.4801 83.2825L34.4587 83.3903V83.4068C34.4445 83.4803 34.4303 83.5561 34.4173 83.6331C34.4043 83.7101 34.3889 83.799 34.3758 83.8831C34.3663 83.9376 34.3581 83.9921 34.3509 84.0466C34.3344 84.152 34.3201 84.2586 34.3059 84.364C34.2976 84.4256 34.2893 84.4825 34.2822 84.5477L34.2538 84.7846C34.3142 84.9789 34.3817 85.1708 34.4516 85.3591C34.4963 85.4623 34.5224 85.5726 34.5286 85.6849C35.9823 86.1003 37.5233 86.1003 38.977 85.6849C38.9764 85.681 38.9764 85.677 38.977 85.6731C38.9551 85.5667 38.9455 85.4582 38.9485 85.3497C38.9724 85.0457 39.012 84.7433 39.067 84.4434C39.0845 84.2956 39.092 84.1468 39.0895 83.998V83.9447C39.0859 83.8997 39.0848 83.857 39.0836 83.8144ZM39.0836 83.8144C39.0836 83.767 39.0836 83.7196 39.0753 83.6722C39.067 83.6248 39.0682 83.5834 39.0623 83.5383C39.0563 83.4933 39.0516 83.4483 39.0457 83.4033C39.0397 83.3583 39.0315 83.3133 39.0232 83.2682C39.0149 83.2232 39.0066 83.1782 38.9971 83.1332C38.9971 83.1178 38.9912 83.1036 38.9876 83.0882C38.9746 83.0289 38.9604 82.9697 38.945 82.9093C38.9296 82.8489 38.9201 82.8133 38.9059 82.766C38.9059 82.7446 38.894 82.7233 38.8869 82.7032C38.8798 82.683 38.8668 82.6345 38.8561 82.6001L38.8348 82.5338C38.8253 82.5042 38.8158 82.4745 38.8052 82.4449C38.7874 82.3916 38.7685 82.3395 38.7495 82.2862C38.7306 82.2329 38.7104 82.1807 38.6903 82.1286C38.65 82.022 38.6062 81.9166 38.5623 81.8111C38.3906 81.4013 38.1975 80.9973 38.0198 80.5969C37.9243 80.387 37.8397 80.1723 37.7663 79.9536L37.7437 79.9856C37.7077 80.0401 37.6757 80.0971 37.6478 80.1562C37.6478 81.0885 36.7143 82.2293 36.7143 82.2293L35.7749 80.8611L34.9527 82.1251C34.8343 82.1879 34.7158 82.4035 34.6234 82.7103C34.5974 82.7932 34.5725 82.8832 34.5488 82.9792C34.5322 83.0432 34.5168 83.1107 34.5026 83.1782C34.4943 83.2126 34.4872 83.2469 34.4801 83.2825L34.4587 83.3903V83.4068C34.4445 83.4803 34.4303 83.5561 34.4173 83.6331C34.4043 83.7101 34.3889 83.799 34.3758 83.8831C34.3663 83.9376 34.3581 83.9921 34.3509 84.0466C34.3344 84.152 34.3201 84.2586 34.3059 84.364C34.2976 84.4256 34.2893 84.4825 34.2822 84.5477L34.2538 84.7846C34.3142 84.9789 34.3817 85.1708 34.4516 85.3591C34.4963 85.4623 34.5224 85.5726 34.5286 85.6849C35.9823 86.1003 37.5233 86.1003 38.977 85.6849C38.9764 85.681 38.9764 85.677 38.977 85.6731C38.9551 85.5667 38.9455 85.4582 38.9485 85.3497C38.9724 85.0457 39.012 84.7433 39.067 84.4434C39.0845 84.2956 39.092 84.1468 39.0895 83.998V83.9447C39.0859 83.8997 39.0848 83.857 39.0836 83.8144Z" fill="#444176"/>
<path opacity="0.1" d="M35.7915 80.7817L35.7121 80.771C35.5923 80.7548 35.4736 80.7311 35.3567 80.6999L35.3129 80.6881C35.0238 80.6063 34.7075 80.4595 34.6365 80.2012C34.6153 80.1181 34.6178 80.0307 34.6436 79.9489C34.6833 79.8079 34.7373 79.6714 34.8047 79.5414V79.5343C34.8136 79.516 34.8235 79.4982 34.8343 79.4809C34.932 79.2899 35.0799 79.129 35.2619 79.0154L35.1198 79.0379L33.9162 79.2334L32.0504 79.5343C32.0504 79.5343 31.7187 79.4679 31.2673 80.7118C31.2673 80.7272 31.2567 80.7414 31.2519 80.758C31.143 81.0624 31.0281 81.4427 30.9096 81.9177C30.8278 82.2471 30.7532 82.5705 30.6845 82.8844C30.6644 82.9792 30.6442 83.0728 30.6253 83.1652C30.8389 83.4169 31.0688 83.6544 31.3135 83.876L31.3526 83.9127C31.8321 84.3468 32.3618 84.7219 32.9306 85.0298L32.9531 85.0416C33.3109 85.2346 33.6832 85.3994 34.0666 85.5344L34.1673 85.57C34.1887 85.3508 34.2124 85.108 34.2408 84.8592C34.2408 84.8343 34.2408 84.8094 34.2503 84.7846L34.2787 84.5476C34.2858 84.4872 34.2941 84.4292 34.3024 84.364C34.3166 84.2586 34.3308 84.152 34.3474 84.0465C34.3545 83.992 34.3628 83.9376 34.3723 83.8831C34.3853 83.799 34.3995 83.7148 34.4137 83.6331C34.428 83.5514 34.441 83.4803 34.4552 83.4068V83.3902L34.4765 83.2824C34.4836 83.2469 34.4907 83.2126 34.499 83.1782C34.5133 83.1107 34.5287 83.0432 34.5452 82.9792C34.5689 82.8832 34.5938 82.7932 34.6199 82.7103C34.7146 82.4034 34.8248 82.1878 34.9492 82.1251L35.7713 80.861L35.8057 80.8077L35.8211 80.784L35.7915 80.7817Z" fill="black"/>
<path opacity="0.1" d="M35.9893 74.4748C36.3589 74.412 36.7309 74.277 37.0981 74.3563C37.4061 74.4203 37.6632 74.6252 37.9451 74.7674C38.2173 74.9043 38.5151 74.983 38.8194 74.9984C38.9304 75.013 39.0431 74.9909 39.1404 74.9356C39.2873 74.8337 39.3086 74.6252 39.2838 74.4475C39.2127 73.9429 38.8976 73.5093 38.573 73.116C38.4434 72.948 38.2938 72.7964 38.1276 72.6646C37.7023 72.3507 37.1396 72.2974 36.6124 72.3211C36.0106 72.3483 35.3993 72.4644 34.8769 72.7665C34.5215 72.9703 33.7065 73.6124 33.9896 74.0767C34.287 74.5625 35.5237 74.5542 35.9893 74.4748Z" fill="black"/>
<path opacity="0.5" d="M35.9893 74.3564C36.3589 74.2936 36.7309 74.1586 37.0981 74.2379C37.4061 74.3019 37.6632 74.5068 37.9451 74.649C38.2173 74.7859 38.5151 74.8646 38.8194 74.88C38.9304 74.8946 39.0431 74.8725 39.1404 74.8172C39.2873 74.7153 39.3086 74.5068 39.2838 74.3291C39.2127 73.8245 38.8976 73.3909 38.573 72.9976C38.4434 72.8296 38.2938 72.678 38.1276 72.5462C37.7023 72.2323 37.1396 72.179 36.6124 72.2027C36.0106 72.2299 35.3993 72.346 34.8769 72.6481C34.5215 72.8519 33.7065 73.494 33.9896 73.9583C34.287 74.444 35.5237 74.4358 35.9893 74.3564Z" fill="#444176"/>
</g>
<path d="M68.5206 68.555H68.5384C68.5645 69.3487 68.677 70.0665 68.8938 70.2656C69.4103 70.7394 71.5521 69.7917 71.4052 69.2183C71.3756 69.0999 71.3259 68.9056 71.2631 68.6604C71.8412 68.5881 72.3352 68.4235 72.5318 68.0847L72.9038 69.2314L72.9299 69.3131H72.937H72.9583C73.2035 71.6374 73.7591 76.4636 74.2034 77.1104C74.7957 77.9669 75.4768 81.6784 75.4768 81.6784L76.7503 89.292C76.7503 89.292 77.2408 93.6752 77.5346 94.149C77.62 94.2395 77.7336 94.2984 77.8568 94.3161C77.685 94.8302 77.4386 95.4308 77.146 95.7661C76.5537 96.4318 75.7742 97.7646 75.0883 97.6698C74.4024 97.575 74.2069 99.0025 75.4804 99.192C76.1852 99.2975 77.3095 99.1695 78.1731 99.0345C78.1731 99.4159 78.4384 99.8543 79.1054 99.9538C80.3789 100.144 83.0242 99.5735 83.0242 99.5735C83.0242 99.5735 85.275 98.6258 85.3757 97.9553C85.4468 97.4696 85.102 95.5197 84.9101 94.4973C85.2655 93.9275 84.8864 89.0101 84.8864 89.0101L84.2005 79.5887C84.2005 79.5887 84.5926 74.3549 84.2005 73.4025C83.9553 72.8102 83.8641 70.0855 83.8297 68.1368L84.3036 68.1676C84.3305 68.135 84.3551 68.1006 84.377 68.0645L84.4955 68.0728C84.4955 68.0728 85.0878 67.407 84.5938 66.3598C84.2301 65.5815 84.2988 62.0679 84.3569 60.3182L84.4268 59.4889C84.4528 59.4637 84.4726 59.4329 84.4848 59.3989C85.4037 59.2748 86.2967 59.0044 87.1301 58.5981C87.3816 58.4935 87.6157 58.3513 87.8243 58.1763C88.3148 57.7025 88.0198 54.8451 87.0401 50.5627C86.0604 46.2802 85.179 46.6605 85.179 46.6605C85.179 46.6605 82.8275 46.4698 81.7495 45.0423C80.6715 43.6148 79.9477 43.6337 79.9477 43.6337C79.9204 43.4466 79.9015 43.27 79.8884 43.1054C79.8884 43.0438 79.879 42.9869 79.8754 42.9253C80.2419 42.5845 80.5214 42.1608 80.6904 41.6897C80.9108 41.5713 81.1821 41.5322 81.3929 41.3829C81.4467 41.3439 81.4956 41.2985 81.5386 41.2479C81.75 41.0529 81.8841 40.7884 81.9165 40.5027C81.9501 40.1908 81.9354 39.8755 81.8727 39.5681C81.7981 39.1132 81.6879 38.6476 81.4225 38.2898C81.1572 37.9321 80.7603 37.7165 80.3777 37.5163C79.3415 36.9721 78.3026 36.4335 77.2609 35.9004C77.0574 35.7761 76.8303 35.6954 76.594 35.6635C76.177 35.6398 75.8026 35.9253 75.4662 36.1966C75.3319 36.3022 75.2034 36.4149 75.0812 36.5342C74.9772 36.6264 74.8824 36.7283 74.798 36.8386C74.4047 37.3658 74.2377 38.3585 74.4107 39.0172C74.4652 39.2257 74.5824 39.2861 74.727 39.2837C74.5125 39.7101 74.4009 40.1807 74.4012 40.6579C74.4035 41.1804 74.5372 41.6939 74.79 42.1512C75.0427 42.6085 75.4064 42.9949 75.8476 43.2748C75.8476 43.3411 75.8476 43.4063 75.8536 43.4691C75.8584 43.7122 75.8505 43.9553 75.8299 44.1976C75.8299 44.1976 73.2237 45.6062 72.931 46.2719C72.6384 46.9377 71.5592 47.4139 71.5592 47.4139C71.5592 47.4139 69.5015 48.4611 69.5015 52.1726L68.4235 57.4063L68.228 67.3987C68.228 67.3987 68.3631 67.2803 68.5834 67.1121C68.5763 67.1784 68.5704 67.2471 68.5645 67.317C68.5351 67.6989 68.5252 68.082 68.5348 68.4649L68.5206 68.555ZM81.682 94.4168C81.6417 94.5696 81.5825 94.7722 81.5078 95.0091C81.4747 94.8124 81.4415 94.6182 81.4083 94.4334C81.4936 94.4251 81.5848 94.4203 81.682 94.4168Z" fill="url(#paint2_linear)"/>
<path d="M78.1233 93.1896C78.1233 93.1896 77.7454 94.8884 77.1756 95.5482C76.6058 96.2081 75.8595 97.5301 75.2008 97.4354C74.5422 97.3406 74.3514 98.7563 75.5787 98.9446C76.806 99.133 79.3471 98.5679 79.3471 98.5679C79.3471 98.5679 81.5173 97.6202 81.6109 96.9639C81.7045 96.3076 81.0446 92.9065 81.0446 92.9065L78.1233 93.1896Z" fill="#53526B"/>
<path opacity="0.05" d="M78.1233 93.1896C78.1233 93.1896 77.7454 94.8884 77.1756 95.5482C76.6058 96.2081 75.8595 97.5301 75.2008 97.4354C74.5422 97.3406 74.3514 98.7563 75.5787 98.9446C76.806 99.133 79.3471 98.5679 79.3471 98.5679C79.3471 98.5679 81.5173 97.6202 81.6109 96.9639C81.7045 96.3076 81.0446 92.9065 81.0446 92.9065L78.1233 93.1896Z" fill="black"/>
<path d="M81.6144 93.944C81.6144 93.944 81.2365 95.6428 80.6667 96.3026C80.0969 96.9624 79.347 98.2845 78.6896 98.1897C78.0321 98.095 77.8402 99.5106 79.0675 99.699C80.2947 99.8873 82.8417 99.3211 82.8417 99.3211C82.8417 99.3211 85.012 98.3734 85.1055 97.7171C85.1991 97.0608 84.5393 93.6597 84.5393 93.6597L81.6144 93.944Z" fill="#53526B"/>
<path d="M73.0282 68.094C73.0282 68.094 73.7828 76.2076 74.3491 77.057C74.9153 77.9064 75.5752 81.5859 75.5752 81.5859L76.8013 89.1332C76.8013 89.1332 77.2751 93.4737 77.5559 93.9452C77.8366 94.4167 81.3384 94.2141 81.3384 94.2141L79.1611 69.2253L73.0282 68.094Z" fill="#5F5D7E"/>
<path opacity="0.05" d="M73.0282 68.094C73.0282 68.094 73.7828 76.2076 74.3491 77.057C74.9153 77.9064 75.5752 81.5859 75.5752 81.5859L76.8013 89.1332C76.8013 89.1332 77.2751 93.4737 77.5559 93.9452C77.8366 94.4167 81.3384 94.2141 81.3384 94.2141L79.1611 69.2253L73.0282 68.094Z" fill="black"/>
<path d="M71.5189 64.2239L71.7653 65.0069L73.098 69.2373L73.1241 69.3178H73.1312C73.3101 69.3581 77.0867 70.2264 77.9018 70.493C77.9457 70.5066 77.9888 70.5228 78.0309 70.5416C78.4088 70.7299 78.8803 77.5226 78.8803 77.5226C78.8803 77.5226 79.1634 83.9386 79.3541 84.4101C79.5448 84.8816 80.3018 94.598 80.7698 94.3161C81.2377 94.0341 84.6376 94.3161 84.6376 94.3161C85.0155 93.9382 84.6376 88.8442 84.6376 88.8442L83.9671 79.5057C83.9671 79.5057 84.345 74.317 83.9671 73.3728C83.5892 72.4287 83.5892 66.1086 83.5892 66.1086L75.8665 64.9015L75.1202 64.783L71.5189 64.2239Z" fill="#5F5D7E"/>
<path opacity="0.02" d="M71.7653 65.0082L73.098 69.2386L73.13 69.3215C73.3089 69.3618 77.0855 70.2301 77.9005 70.4967H77.9823L75.8724 64.9028L75.812 64.7417L75.1261 64.7855L71.7653 65.0082Z" fill="black"/>
<path opacity="0.1" d="M80.5767 45.3562C80.5767 45.3562 77.0855 49.1304 74.9153 46.016L72.8398 47.4317L73.2177 49.6019L71.9904 66.0174C71.9904 66.0174 75.1984 65.9226 77.4623 66.6773C78.0928 66.9009 78.774 66.9398 79.4259 66.7893C80.0778 66.6388 80.6731 66.3053 81.1417 65.8279L80.7686 51.3943L81.618 46.9602L80.5767 45.3562Z" fill="black"/>
<path d="M80.5767 45.073C80.5767 45.073 77.0855 48.8472 74.9153 45.7328L72.8398 47.1485L73.2177 49.3187L71.9904 65.7342C71.9904 65.7342 75.1984 65.6395 77.4623 66.3941C78.0928 66.6177 78.774 66.6566 79.4259 66.5061C80.0778 66.3556 80.6731 66.0221 81.1417 65.5447L80.7686 51.1111L81.618 46.677L80.5767 45.073Z" fill="#53526B"/>
<path d="M73.6075 61.8809V62.4756H73.4179V62.0799H72.7249V62.4756H72.5342V61.882L73.6075 61.8809Z" fill="#E82127"/>
<path d="M73.4381 61.6888H72.706C72.6581 61.6773 72.6142 61.6529 72.5791 61.6183C72.544 61.5836 72.5191 61.54 72.507 61.4922H73.6359C73.6237 61.54 73.5988 61.5835 73.5637 61.6181C73.5286 61.6528 73.4848 61.6772 73.4369 61.6888" fill="#E82127"/>
<path d="M80.0578 61.4993C80.0453 61.5466 80.0204 61.5896 79.9856 61.624C79.9508 61.6584 79.9074 61.6828 79.86 61.6947H79.552L79.5366 61.7007V62.4778H79.347V61.7007L79.3293 61.6947H79.0213C78.974 61.6825 78.9308 61.6579 78.8961 61.6236C78.8613 61.5893 78.8363 61.5464 78.8234 61.4993H80.0578Z" fill="#E82127"/>
<path d="M73.3113 64.6028C73.3113 64.6028 73.3113 67.0562 72.745 68.0939C72.1788 69.1316 68.8772 68.5677 68.8772 68.5677L69.537 65.0766L73.3113 64.6028Z" fill="#D6DBE6"/>
<path d="M69.2361 70.2657C69.7337 70.7396 71.7961 69.7919 71.654 69.228C71.5544 68.8288 71.2062 67.4001 71.0083 66.5898L70.8709 66.02C70.8709 66.02 69.6626 65.6421 69.2361 66.02C69.0809 66.1574 68.9719 66.6988 68.921 67.3527C68.8333 68.4888 68.9222 69.9648 69.2361 70.2657Z" fill="#FDC2CC"/>
<path d="M73.7792 46.7707L77.0808 49.3176C77.0808 49.3176 81.9864 49.0345 80.7603 46.6759C80.2264 45.6386 79.9043 44.5054 79.8126 43.3423C79.7727 42.9132 79.7727 42.4813 79.8126 42.0522C79.8126 42.0522 75.2837 37.906 75.85 42.6185C75.8946 42.9802 75.9207 43.344 75.9282 43.7084C75.9957 47.2457 73.7792 46.7707 73.7792 46.7707Z" fill="#FDC2CC"/>
<path opacity="0.1" d="M75.8594 42.6196C75.904 42.9813 75.9301 43.3451 75.9376 43.7095C76.4458 44.0461 77.0422 44.225 77.6518 44.2236C78.4964 44.2236 79.1184 43.4015 79.6799 42.8554C79.6171 42.0723 79.8209 42.0534 79.8209 42.0534C79.8209 42.0534 75.2931 37.9024 75.8594 42.6196Z" fill="black"/>
<path d="M77.6518 44.0353C79.3712 44.0353 80.765 42.6415 80.765 40.9221C80.765 39.2027 79.3712 37.8088 77.6518 37.8088C75.9324 37.8088 74.5386 39.2027 74.5386 40.9221C74.5386 42.6415 75.9324 44.0353 77.6518 44.0353Z" fill="#FDC2CC"/>
<path opacity="0.1" d="M79.8682 43.8933C79.8682 43.8933 80.3871 43.9407 81.4248 45.3552C82.4626 46.7696 84.7264 46.9592 84.7264 46.9592C84.7264 46.9592 85.5758 46.5813 86.5188 50.827C87.4618 55.0727 87.7449 57.9028 87.2734 58.3743C86.8019 58.8458 84.9148 59.508 83.9671 59.508C83.9671 59.508 83.684 65.4513 84.1554 66.4891C84.6269 67.5268 84.0607 68.1879 84.0607 68.1879L79.9144 67.9047C79.9144 67.9047 78.4988 66.1124 78.2156 62.9991C77.9325 59.8859 76.9895 51.0165 77.461 49.9788C77.9325 48.941 80.008 46.2993 79.9144 46.0162C79.8208 45.7331 79.8682 43.8933 79.8682 43.8933Z" fill="black"/>
<path d="M79.8789 43.8648C79.8789 43.8648 80.5767 43.8458 81.6144 45.2614C82.6522 46.6771 84.9148 46.8654 84.9148 46.8654C84.9148 46.8654 85.7642 46.4875 86.7072 50.7333C87.6502 54.979 87.9333 57.8091 87.4618 58.2806C86.9903 58.7521 85.1032 59.4131 84.1602 59.4131C84.1602 59.4131 83.8771 65.3564 84.3486 66.3942C84.8201 67.4319 84.2538 68.0929 84.2538 68.0929L80.1076 67.8098C80.1076 67.8098 78.6919 66.0175 78.4088 62.9042C78.1257 59.791 77.1803 50.9228 77.6518 49.8898C78.1233 48.8568 80.1988 46.2103 80.1052 45.9272C80.0116 45.6441 79.8789 43.8648 79.8789 43.8648Z" fill="#D6DBE6"/>
<path opacity="0.1" d="M68.9222 67.3512C69.3736 67.0065 70.2253 66.4699 71.0096 66.5883L70.8722 66.0185C70.8722 66.0185 69.6638 65.6406 69.2374 66.0185C69.0798 66.156 68.972 66.6961 68.9222 67.3512Z" fill="black"/>
<path opacity="0.1" d="M75.9116 44.4595C75.9116 44.4595 73.5056 46.0161 73.2225 46.6771C72.9393 47.3381 71.9016 47.8096 71.9016 47.8096C71.9016 47.8096 69.9209 48.8474 69.9209 52.5269L68.8831 57.7156L73.6004 64.32C73.6004 64.32 74.1666 57.7156 74.4498 56.1116C74.7329 54.5076 75.1096 51.4915 75.1096 51.4915C75.1096 51.4915 76.5253 49.6991 76.3357 49.2276C76.1462 48.7562 75.9116 44.4595 75.9116 44.4595Z" fill="black"/>
<path d="M75.9116 44.4309C75.9116 44.4309 73.4026 45.8276 73.1206 46.4874C72.8387 47.1473 71.7997 47.6199 71.7997 47.6199C71.7997 47.6199 69.819 48.6577 69.819 52.3372L68.7813 57.5259L68.5929 67.4318C68.5929 67.4318 70.2917 65.8278 71.5178 66.5824C72.7439 67.337 73.4985 64.129 73.4985 64.129C73.4985 64.129 74.0648 57.5247 74.3479 55.9207C74.631 54.3167 75.0077 51.3006 75.0077 51.3006C75.0077 51.3006 76.4234 49.5083 76.2339 49.0368C76.0443 48.5653 75.9116 44.4309 75.9116 44.4309Z" fill="#D6DBE6"/>
<path opacity="0.1" d="M74.9188 37.1348C75.0786 36.9316 75.2632 36.7493 75.4685 36.5922C75.7931 36.3221 76.152 36.0402 76.5548 36.0639C76.7827 36.0942 77.0015 36.1726 77.1969 36.2937C78.1999 36.8221 79.2001 37.3559 80.1976 37.8953C80.566 38.0944 80.9463 38.3052 81.2033 38.663C81.4604 39.0208 81.5647 39.4804 81.6369 39.9306C81.6974 40.2355 81.7118 40.5478 81.6796 40.8569C81.6502 41.1601 81.503 41.4395 81.2697 41.6353C81.0008 41.8307 80.6323 41.8319 80.4073 42.0878C80.277 42.2359 80.2201 42.4432 80.1277 42.6232C80.0353 42.8033 79.8754 42.9786 79.6929 42.9467C79.5105 42.9147 79.4003 42.7216 79.3743 42.5261C79.3626 42.328 79.3742 42.1292 79.4086 41.9338C79.4442 41.5784 79.3991 41.2017 79.193 40.9375C79.0509 40.7574 78.8471 40.6485 78.7097 40.4636C78.3803 40.0182 78.5308 39.279 78.1695 38.8608C78.0646 38.7515 77.9325 38.672 77.7869 38.6304C77.6412 38.5888 77.4871 38.5865 77.3402 38.6239C77.0476 38.6855 76.7799 38.8442 76.511 38.9793C76.1477 39.1626 75.7672 39.3094 75.3749 39.4176C75.0456 39.5076 74.6641 39.7232 74.5516 39.2849C74.3798 38.6417 74.5397 37.6572 74.9188 37.1348Z" fill="black"/>
<path d="M75.0136 37.0411C75.1733 36.8379 75.358 36.6556 75.5633 36.4985C75.8878 36.2284 76.2468 35.9465 76.6496 35.9701C76.8774 36.0005 77.0963 36.0788 77.2916 36.2C78.2938 36.7283 79.1266 36.2284 80.2923 37.8016C80.5411 38.138 81.041 38.2115 81.2981 38.5692C81.5551 38.927 81.6594 39.3866 81.7317 39.8368C81.7921 40.1417 81.8065 40.454 81.7743 40.7632C81.7449 41.0663 81.5978 41.3458 81.3644 41.5415C81.0955 41.737 80.7271 41.7382 80.502 41.994C80.3717 42.1421 80.3148 42.3494 80.2224 42.5295C80.13 42.7096 79.9701 42.8849 79.7877 42.8529C79.6052 42.8209 79.4951 42.6278 79.469 42.4324C79.4574 42.2343 79.4689 42.0355 79.5034 41.84C79.5389 41.4846 79.4939 41.1079 79.2878 40.8438C79.1456 40.6637 78.9418 40.5547 78.8044 40.3699C78.4751 39.9245 78.6255 39.1853 78.2642 38.7671C78.1593 38.6578 78.0273 38.5783 77.8816 38.5366C77.7359 38.495 77.5818 38.4928 77.435 38.5302C77.1424 38.5918 76.8746 38.7505 76.6057 38.8855C76.2425 39.0688 75.8619 39.2156 75.4697 39.3239C75.1403 39.4139 74.7589 39.6295 74.6463 39.1912C74.4734 38.5479 74.6345 37.5623 75.0136 37.0411Z" fill="#865A61"/>
<path opacity="0.1" d="M83.517 51.4404C83.517 51.4404 84.7751 54.6485 83.8309 55.9693L81.7554 55.4955C81.7554 55.4955 83.6426 56.0617 83.3594 54.9292C83.0763 53.7967 83.517 51.4404 83.517 51.4404Z" fill="black"/>
<path opacity="0.1" d="M84.204 59.3669C84.204 59.3669 81.4675 59.5552 80.7129 58.989C81.7066 59.7475 82.8801 60.2353 84.1187 60.4046L84.204 59.3669Z" fill="black"/>
<path opacity="0.1" d="M72.4157 53.3252C72.4157 53.3252 71.0001 57.6657 71.0948 58.3256C71.1896 58.9854 71.3779 66.2508 71.3779 66.2508L71.6611 66.156L71.5663 58.2308L72.4157 53.3252Z" fill="black"/>
<path d="M84.5369 58.63L52.1963 32.568C52.0081 32.3798 51.7846 32.2307 51.5386 32.129C51.2927 32.0274 51.0291 31.9753 50.7629 31.9757H49.3887C52.1348 28.4565 53.4353 24.0225 53.0249 19.5777C52.6145 15.1328 50.5241 11.0118 47.1801 8.05504C43.8361 5.09824 39.4901 3.52827 35.0285 3.66525C30.5668 3.80222 26.3254 5.63582 23.169 8.79218C20.0127 11.9485 18.1791 16.19 18.0421 20.6516C17.9051 25.1133 19.4751 29.4592 22.4319 32.8032C25.3887 36.1473 29.5097 38.2376 33.9545 38.648C38.3994 39.0584 42.8334 37.758 46.3525 35.0119V36.3849C46.3521 36.651 46.4042 36.9146 46.5059 37.1606C46.6075 37.4066 46.7567 37.6301 46.9448 37.8183L79.2854 63.8803C79.4726 64.0691 79.6954 64.2189 79.9408 64.3211C80.1862 64.4234 80.4494 64.476 80.7153 64.476C80.9811 64.476 81.2444 64.4234 81.4898 64.3211C81.7352 64.2189 81.9579 64.0691 82.1451 63.8803L84.5286 61.4992C84.909 61.1191 85.1233 60.604 85.1249 60.0663C85.1264 59.5287 84.915 59.0123 84.5369 58.63ZM35.5557 31.9757C33.4203 31.9757 31.3329 31.3424 29.5574 30.1561C27.7818 28.9697 26.398 27.2835 25.5808 25.3106C24.7636 23.3378 24.5498 21.1669 24.9664 19.0725C25.383 16.9782 26.4113 15.0543 27.9213 13.5444C29.4312 12.0344 31.355 11.0061 33.4494 10.5895C35.5438 10.1729 37.7146 10.3868 39.6875 11.2039C41.6603 12.0211 43.3466 13.405 44.5329 15.1805C45.7193 16.956 46.3525 19.0435 46.3525 21.1789C46.3536 22.5971 46.0751 24.0017 45.5329 25.3123C44.9908 26.6228 44.1955 27.8136 43.1928 28.8166C42.19 29.8196 40.9994 30.6151 39.6889 31.1575C38.3785 31.7 36.974 31.9788 35.5557 31.978V31.9757Z" fill="url(#paint3_linear)"/>
<path d="M84.7738 58.3932L52.4332 32.3312C52.245 32.143 52.0215 31.9938 51.7755 31.8922C51.5296 31.7906 51.266 31.7384 50.9998 31.7388H49.6256C52.3717 28.2197 53.6722 23.7857 53.2618 19.3408C52.8514 14.896 50.761 10.775 47.417 7.81822C44.073 4.86143 39.7271 3.29146 35.2654 3.42843C30.8037 3.5654 26.5623 5.39901 23.4059 8.55536C20.2496 11.7117 18.416 15.9531 18.279 20.4148C18.142 24.8765 19.712 29.2224 22.6688 32.5664C25.6256 35.9104 29.7466 38.0008 34.1914 38.4112C38.6363 38.8216 43.0703 37.5212 46.5894 34.7751V36.1481C46.589 36.4142 46.6411 36.6778 46.7428 36.9238C46.8444 37.1697 46.9936 37.3932 47.1817 37.5815L79.5223 63.6435C79.7096 63.8323 79.9323 63.9821 80.1777 64.0843C80.4231 64.1866 80.6863 64.2392 80.9522 64.2392C81.2181 64.2392 81.4813 64.1866 81.7267 64.0843C81.9721 63.9821 82.1948 63.8323 82.382 63.6435L84.7655 61.2624C85.1459 60.8823 85.3602 60.3671 85.3618 59.8295C85.3633 59.2918 85.1519 58.7754 84.7738 58.3932ZM35.7926 31.7388C33.6572 31.7388 31.5698 31.1056 29.7943 29.9193C28.0187 28.7329 26.6349 27.0467 25.8177 25.0738C25.0005 23.101 24.7867 20.9301 25.2033 18.8357C25.6199 16.7413 26.6482 14.8175 28.1582 13.3076C29.6681 11.7976 31.5919 10.7693 33.6863 10.3527C35.7807 9.93613 37.9515 10.1499 39.9244 10.9671C41.8972 11.7843 43.5835 13.1682 44.7698 14.9437C45.9562 16.7192 46.5894 18.8067 46.5894 20.9421C46.5905 22.3603 46.312 23.7649 45.7698 25.0755C45.2277 26.386 44.4325 27.5768 43.4297 28.5798C42.4269 29.5828 41.2363 30.3783 39.9259 30.9207C38.6154 31.4632 37.2109 31.742 35.7926 31.7412V31.7388Z" fill="#FBAC2A"/>
<path d="M82.3691 56.017C82.3691 56.017 77.6482 50.6032 78.3116 54.3182C78.7855 56.96 80.5755 58.3756 81.4249 58.6588C82.2743 58.9419 82.3691 56.017 82.3691 56.017Z" fill="#FDC2CC"/>
<path d="M83.5015 51.0164C83.5015 51.0164 83.5963 54.5075 84.0678 54.979C84.5393 55.4505 83.7847 56.0167 83.7847 56.0167L81.8975 55.5429C81.8975 55.5429 82.3714 58.6561 80.3883 58.2794C80.3883 58.2794 81.7092 59.5055 83.0301 59.695C84.3509 59.8846 84.2561 59.4119 84.2561 59.4119L86.2369 57.0533L83.5015 51.0164Z" fill="#D6DBE6"/>
<path d="M84.024 59.4628L85.9384 59.0422L85.6825 58.1596L84.4979 57.6858L82.9578 58.3966L84.024 59.4628Z" fill="#D6DBE6"/>
<path d="M36.9737 25.4165L39.5219 23.4512C39.5219 23.4512 37.8148 23.8172 37.8634 21.089C37.8628 21.0799 37.8628 21.0708 37.8634 21.0617C37.8634 20.8153 37.8871 20.5452 37.9226 20.2479C38.3597 16.6075 34.865 19.8108 34.865 19.8108C34.8951 20.1331 34.8951 20.4575 34.865 20.7798C34.865 20.7881 34.865 20.7976 34.865 20.8059C34.7959 21.703 34.5487 22.5773 34.1377 23.3777C33.1888 25.1973 36.9737 25.4165 36.9737 25.4165Z" fill="#FDC2CC"/>
<path opacity="0.1" d="M35.1908 20.274C35.6232 20.6945 35.8874 21.4586 36.5378 21.4586C37.0083 21.4596 37.4687 21.3216 37.861 21.0618C37.861 20.8154 37.8847 20.5453 37.9202 20.2479C38.3574 16.6075 34.8627 19.8108 34.8627 19.8108C34.8627 19.8108 35.237 19.6817 35.1908 20.274Z" fill="black"/>
<path d="M36.5378 21.34C37.8646 21.34 38.9402 20.2644 38.9402 18.9376C38.9402 17.6108 37.8646 16.5352 36.5378 16.5352C35.2109 16.5352 34.1353 17.6108 34.1353 18.9376C34.1353 20.2644 35.2109 21.34 36.5378 21.34Z" fill="#FDC2CC"/>
<path opacity="0.1" d="M38.8419 15.8611C38.7041 15.687 38.5449 15.5309 38.368 15.3967C38.0908 15.1657 37.7828 14.9229 37.4381 14.9442C37.243 14.9701 37.0557 15.0372 36.8884 15.1408C36.0296 15.5934 35.3176 15.1657 34.3189 16.5115C34.1057 16.7993 33.6781 16.8668 33.4577 17.1689C33.2374 17.471 33.1485 17.8679 33.0857 18.2541C33.0338 18.5153 33.0215 18.7828 33.049 19.0478C33.0753 19.3078 33.203 19.547 33.4044 19.7135C33.6342 19.8806 33.9505 19.8817 34.1436 20.1009C34.2407 20.2437 34.3203 20.3976 34.3805 20.5594C34.4587 20.7134 34.5961 20.8591 34.7525 20.8366C34.9089 20.8141 35.0025 20.6447 35.025 20.4812C35.0348 20.312 35.0248 20.1422 34.9954 19.9753C34.9658 19.6756 35.0037 19.3487 35.1802 19.1224C35.2986 18.9672 35.4763 18.8748 35.5936 18.7173C35.8756 18.337 35.7476 17.6985 36.0568 17.3454C36.1472 17.2526 36.2606 17.1854 36.3855 17.1506C36.5104 17.1159 36.6422 17.1148 36.7676 17.1476C37.0166 17.2187 37.2555 17.3214 37.4784 17.4532C37.7894 17.6102 38.1152 17.736 38.451 17.8288C38.7329 17.9058 39.0599 18.0906 39.1558 17.7103C39.3063 17.1512 39.1653 16.3077 38.8419 15.8611Z" fill="black"/>
<path d="M38.8419 15.7427C38.7041 15.5685 38.5449 15.4125 38.368 15.2783C38.0908 15.0473 37.7828 14.8044 37.4381 14.8258C37.243 14.8517 37.0557 14.9188 36.8884 15.0224C36.0296 15.475 35.3176 15.0473 34.3189 16.393C34.1057 16.6809 33.6781 16.7484 33.4577 17.0505C33.2374 17.3526 33.1485 17.7495 33.0857 18.1356C33.0338 18.3969 33.0215 18.6644 33.049 18.9294C33.0753 19.1894 33.203 19.4286 33.4044 19.5951C33.6342 19.7622 33.9505 19.7633 34.1436 19.9825C34.2407 20.1252 34.3203 20.2792 34.3805 20.441C34.4587 20.595 34.5961 20.7407 34.7525 20.7182C34.9089 20.6956 35.0025 20.5262 35.025 20.3628C35.0348 20.1936 35.0248 20.0238 34.9954 19.8569C34.9658 19.5572 35.0037 19.2303 35.1802 19.004C35.2986 18.8488 35.4763 18.7564 35.5936 18.5988C35.8756 18.2186 35.7476 17.5801 36.0568 17.227C36.1472 17.1342 36.2606 17.067 36.3855 17.0322C36.5104 16.9975 36.6422 16.9964 36.7676 17.0292C37.0166 17.1003 37.2555 17.203 37.4784 17.3348C37.7894 17.4918 38.1152 17.6176 38.451 17.7104C38.7329 17.7874 39.0599 17.9722 39.1558 17.5919C39.3063 17.0328 39.1653 16.1893 38.8419 15.7427Z" fill="#865A61"/>
<path opacity="0.1" d="M34.1353 26.6805L34.0879 28.4989C34.7764 28.686 35.4867 28.7804 36.2001 28.7796C36.3186 28.7796 36.443 28.7796 36.5638 28.7713C37.1965 28.7441 37.8236 28.6415 38.432 28.4657H38.4438C38.5564 28.4325 38.6677 28.3982 38.7779 28.3603H38.7898L38.8905 28.3247C39.2739 28.1897 39.6462 28.0249 40.004 27.8319L40.0265 27.8201C40.0656 27.7988 40.1047 27.7774 40.145 27.7549L39.9614 25.3039L40.254 23.6229L38.6523 22.5319C38.5624 22.6617 38.4618 22.7837 38.3514 22.8967C38.1933 23.0619 38.0083 23.1989 37.8041 23.3019C36.655 23.8681 35.3472 22.9678 34.6968 22.411L34.5488 22.2795C34.3805 22.1267 34.2846 22.0225 34.2846 22.0225L33.4838 23.2592L34.1353 26.6805Z" fill="black"/>
<path d="M34.1353 26.7989L34.0879 28.6173C34.7764 28.8044 35.4867 28.8988 36.2001 28.898C36.3186 28.898 36.443 28.898 36.5638 28.8897C37.1965 28.8625 37.8236 28.7599 38.432 28.5841H38.4438C38.5564 28.5509 38.6677 28.5166 38.7779 28.4787H38.7898L38.8905 28.4431C39.2739 28.3081 39.6462 28.1433 40.004 27.9503L40.0265 27.9385C40.0656 27.9172 40.1047 27.8958 40.145 27.8733L39.9614 25.4223L40.254 23.7413L38.6523 22.6503C38.5624 22.7801 38.4618 22.9021 38.3514 23.0151C38.1933 23.1803 38.0083 23.3173 37.8041 23.4203C36.655 23.9865 35.3472 23.0862 34.6968 22.5294L34.5488 22.3979C34.3805 22.2451 34.2846 22.1409 34.2846 22.1409L33.4838 23.3776L34.1353 26.7989Z" fill="#53526B"/>
<path d="M38.5754 26.9446C38.5754 26.9446 38.663 27.6423 38.7779 28.4763H38.7898L38.8905 28.4408C39.2739 28.3057 39.6462 28.141 40.004 27.948L40.0265 27.9361C40.0656 27.9148 40.1047 27.8935 40.145 27.871C40.6702 27.5762 41.1605 27.2233 41.6068 26.819L41.6459 26.7823C41.8907 26.5607 42.1206 26.3233 42.3342 26.0715L42.3591 26.0419C41.9362 24.5741 41.056 24.1121 41.056 24.1121C41.056 24.1121 40.2552 23.7472 40.036 23.2378C39.8169 22.7284 37.8823 21.6516 37.8823 21.6516V21.6599C37.8823 21.7511 37.8515 22.5863 37.8053 23.4262C37.7757 23.9723 37.739 24.5208 37.6964 24.8691C37.6871 24.9822 37.6665 25.0942 37.6348 25.2032C37.4843 25.5621 38.5754 26.9446 38.5754 26.9446Z" fill="#555388"/>
</g>
<defs>
<linearGradient id="paint0_linear" x1="60.9235" y1="94.1314" x2="60.9235" y2="4.65454" gradientUnits="userSpaceOnUse">
<stop stop-color="#808080" stop-opacity="0.25"/>
<stop offset="0.54" stop-color="#808080" stop-opacity="0.12"/>
<stop offset="1" stop-color="#808080" stop-opacity="0.1"/>
</linearGradient>
<linearGradient id="paint1_linear" x1="4430.93" y1="7338.82" x2="4430.93" y2="5603.79" gradientUnits="userSpaceOnUse">
<stop stop-color="#808080" stop-opacity="0.25"/>
<stop offset="0.54" stop-color="#808080" stop-opacity="0.12"/>
<stop offset="1" stop-color="#808080" stop-opacity="0.1"/>
</linearGradient>
<linearGradient id="paint2_linear" x1="-20714.5" y1="55874.7" x2="-20714.5" y2="20943.1" gradientUnits="userSpaceOnUse">
<stop stop-color="#808080" stop-opacity="0.25"/>
<stop offset="0.54" stop-color="#808080" stop-opacity="0.12"/>
<stop offset="1" stop-color="#808080" stop-opacity="0.1"/>
</linearGradient>
<linearGradient id="paint3_linear" x1="32121.8" y1="34558" x2="32121.8" y2="3322.55" gradientUnits="userSpaceOnUse">
<stop stop-color="#808080" stop-opacity="0.25"/>
<stop offset="0.54" stop-color="#808080" stop-opacity="0.12"/>
<stop offset="1" stop-color="#808080" stop-opacity="0.1"/>
</linearGradient>
<clipPath id="clip0">
<rect width="131.922" height="100" fill="white"/>
</clipPath>
</defs>
</svg>
