<svg width="132" height="100" viewBox="0 0 132 100" fill="none" xmlns="http://www.w3.org/2000/svg">
<g clip-path="url(#clip0)">
<path opacity="0.1" d="M130.089 28.8456C130.066 28.9531 130.044 29.0605 130.019 29.1667C129.227 32.8175 127.933 36.3356 126.01 39.5664C125.946 39.6738 125.882 39.7812 125.816 39.8886C124.548 41.9673 123.03 43.8832 121.297 45.5936C120.338 46.5398 119.293 47.4389 118.05 48.087C116.309 48.997 114.273 49.3663 112.272 49.668C110.193 49.983 108.086 50.2461 105.985 50.5297C105.238 50.6287 104.496 50.7337 103.758 50.8447C101.728 51.1452 99.7127 51.4928 97.7455 51.9538C95.3136 52.5223 92.9566 53.2669 90.7299 54.3145C90.5521 54.395 90.3763 54.4803 90.2025 54.5704C90.0287 54.6573 89.8537 54.7454 89.6823 54.8347C89.511 54.924 89.342 55.0133 89.1742 55.105C89.0873 55.1521 89.0004 55.1992 88.9148 55.2486C88.8291 55.2981 88.7446 55.3416 88.6613 55.3898C88.4103 55.5298 88.1641 55.6735 87.9179 55.8183L87.9082 55.8243C87.7453 55.9197 87.5848 56.0174 87.4255 56.1152C86.5155 56.6679 85.6248 57.2448 84.7341 57.8253L84.1741 58.1874L83.3064 58.7486C83.1374 58.8584 82.9648 58.9683 82.7946 59.0769C82.674 59.1565 82.5533 59.2362 82.4217 59.3183C81.7893 59.7165 81.1484 60.1076 80.4907 60.4805C80.335 60.5698 80.1781 60.6591 80.02 60.746C78.6911 61.4874 77.3014 62.114 75.8659 62.6191L75.8466 62.6263C75.1245 62.8782 74.3877 63.0862 73.6404 63.2491C73.2096 63.3432 72.7775 63.4204 72.3406 63.4796C71.1727 63.6452 69.9886 63.6618 68.8165 63.5291C66.515 63.2623 64.3583 62.3789 62.058 62.0808C57.3222 61.4774 52.7227 63.4217 48.2693 64.9447C47.1743 65.3189 46.0712 65.6693 44.96 65.9959C44.2214 66.2144 43.4804 66.4208 42.7333 66.6199C38.1563 67.8292 33.4851 68.6484 28.7697 69.0687C26.7985 69.2618 24.8156 69.3058 22.8379 69.2002C22.086 69.1544 21.3425 69.0795 20.6124 68.9588C18.1141 68.5726 15.7848 67.7628 13.9045 66.2796C12.3645 65.0618 11.2626 63.4748 10.4239 61.8141C9.56522 60.1196 8.95899 58.3086 8.62439 56.4386C8.57853 56.184 8.53749 55.9281 8.5037 55.6723C8.44336 55.2346 8.3983 54.7944 8.36853 54.3519C8.20614 51.9932 8.4878 49.6249 9.19887 47.3701C9.99541 44.8453 11.323 42.4219 11.9071 39.8778C11.9313 39.77 11.9542 39.6625 11.9759 39.5555C12.0557 39.1691 12.1149 38.7787 12.1533 38.3861C12.4514 35.2602 11.3085 32.2128 10.4118 29.1558C10.3804 29.0496 10.349 28.9422 10.3189 28.8348C10.2223 28.4952 10.1298 28.1561 10.0413 27.8174C9.21094 24.5853 8.98042 21.1252 9.72024 17.8992C9.74317 17.7918 9.77093 17.6844 9.79748 17.5782C10.2928 15.539 11.2241 13.6314 12.5275 11.9867C13.913 10.2488 15.7317 8.80171 17.6748 7.53086C18.6218 6.91133 19.601 6.33243 20.6124 5.79416C21.3365 5.40796 22.0783 5.04227 22.8379 4.6971C28.9266 1.92127 35.8722 0.565937 42.7406 0.865244C43.1026 0.880934 43.4647 0.900243 43.8268 0.926795C44.1888 0.953346 44.5847 0.984725 44.9637 1.01973C49.3881 1.44938 53.693 2.48609 57.9678 3.61935C59.4004 3.99952 60.8306 4.38934 62.2595 4.77193C62.8955 4.94089 63.5304 5.10986 64.1664 5.27399C67.2814 6.07898 70.4422 6.80794 73.6428 7.35224C74.3839 7.48017 75.1257 7.59684 75.8683 7.70224C78.4468 8.08119 81.0461 8.30166 83.6515 8.36241C84.6645 8.38252 85.6779 8.37367 86.6917 8.33586C87.2034 8.31735 87.7155 8.28959 88.228 8.25258C93.5202 7.87965 98.635 6.63174 103.758 5.46589C104.499 5.29692 105.241 5.13037 105.985 4.96624C106.96 4.75141 107.935 4.54383 108.915 4.35193C115.014 3.1535 120.449 3.84263 126.119 6.31553C127.408 6.87673 128.696 7.555 129.485 8.60861C130.275 9.66222 130.473 10.956 130.62 12.2051C130.829 13.9841 130.965 15.7859 131.017 17.5975C131.017 17.7037 131.017 17.8111 131.024 17.9185C131.106 21.5778 130.833 25.2721 130.089 28.8456Z" fill="#FBAC2A"/>
<path opacity="0.1" d="M89.6365 39.5665H89.2382V39.7089V39.8888H89.6896L89.6365 39.5665ZM85.1191 39.5665C85.1185 39.5693 85.1185 39.5722 85.1191 39.575C85.1082 39.6631 85.0962 39.7512 85.0841 39.8405V39.8646V39.8888H88.5358V39.8694L88.7772 39.5665H85.1191ZM75.8683 39.5665V29.1668H79.839C79.7967 29.139 79.7533 29.1101 79.7086 29.0835L79.6507 29.0461L79.5759 29.0002C79.5324 28.9749 79.489 28.9496 79.4431 28.9254C79.3972 28.9013 79.3695 28.8844 79.3309 28.8639L79.3043 28.8494H79.2983H75.8683V28.2761L75.7754 28.3123L75.6776 28.3582H75.6704L75.6499 28.369L75.5883 28.4016L75.5268 28.4342C75.4664 28.4668 75.4061 28.503 75.3457 28.5404L75.2878 28.579L75.1671 28.6563C75.0114 28.7601 74.8582 28.8687 74.7001 28.9701C74.6602 28.9954 74.6204 29.0208 74.5794 29.0437C74.4937 29.0944 74.4056 29.1427 74.3151 29.1861C74.2764 29.2054 74.239 29.2223 74.1944 29.238L74.1292 29.2633L74.0689 29.2839C73.9273 29.3331 73.782 29.3711 73.6344 29.3973V39.5641H67.6808C67.6808 39.5762 67.6893 39.5858 67.6929 39.5979C67.7255 39.6944 67.7581 39.7898 67.7894 39.8863H73.6428V51.0331C73.6734 51.0331 73.7036 51.0331 73.7333 51.0331L73.8383 51.0392L74.0278 51.05L74.3307 51.0862L74.4695 51.0995L74.6204 51.1152H74.6433L74.9101 51.1478L74.9668 51.155L75.0959 51.1731L75.2806 51.1997L75.7235 51.1804L75.7838 51.1912C75.808 51.1912 75.8333 51.1985 75.8587 51.2033V39.8888H85.072V39.8646V39.8405C85.0841 39.7512 85.0962 39.6631 85.107 39.575C85.1064 39.5722 85.1064 39.5693 85.107 39.5665H75.8683ZM89.6365 39.5665H89.2382V39.7089V39.8888H89.6896L89.6365 39.5665ZM84.8705 39.5665C84.856 39.6739 84.8427 39.7813 84.8282 39.8888H88.677L88.9389 39.5665H84.8705ZM75.8683 39.5665V29.1668H79.839C79.7967 29.139 79.7533 29.1101 79.7086 29.0835L79.6507 29.0461L79.5759 29.0002C79.5324 28.9749 79.489 28.9496 79.4431 28.9254C79.3972 28.9013 79.3695 28.8844 79.3309 28.8639L79.3043 28.8494H79.2959H75.8683V28.2761L75.7754 28.3123L75.6776 28.3582H75.6704L75.6499 28.369L75.5883 28.4016L75.5268 28.4342C75.4664 28.4668 75.4061 28.503 75.3457 28.5404L75.2878 28.579L75.1671 28.6563C75.0114 28.7601 74.8582 28.8687 74.7001 28.9701C74.6602 28.9954 74.6204 29.0208 74.5794 29.0437C74.4937 29.0944 74.4056 29.1427 74.3151 29.1861C74.2764 29.2054 74.239 29.2223 74.1944 29.238L74.1292 29.2633L74.0689 29.2839C73.9273 29.3331 73.782 29.3711 73.6344 29.3973V39.5641H67.6808C67.6808 39.5762 67.6893 39.5858 67.6929 39.5979C67.7255 39.6932 67.7593 39.7898 67.7906 39.8863H73.6428V51.0319H73.7333L73.8383 51.0379L74.0278 51.0488L74.3307 51.0862L74.4695 51.0995L74.6204 51.1152H74.6433L74.9101 51.1478L74.9668 51.155L75.0959 51.1731L75.2806 51.1997L75.7235 51.1804L75.7838 51.1912C75.808 51.1912 75.8333 51.1985 75.8587 51.2033V39.8888H84.8306C84.8451 39.7813 84.8584 39.6739 84.8729 39.5665H75.8683ZM105.985 17.9102H131.024C131.024 17.8028 131.024 17.6954 131.017 17.5892H105.985V4.96273C105.241 5.12365 104.499 5.2902 103.758 5.46238V17.5892H76.5261L76.4573 17.5276L76.5611 17.4359L86.6905 8.33356C85.6767 8.37218 84.6633 8.38103 83.6503 8.36011L75.8671 15.3528V7.70236C75.1237 7.59696 74.3818 7.48029 73.6416 7.35236V15.0004L62.2619 4.77204C60.833 4.38946 59.4028 3.99964 57.9702 3.61947L73.4461 17.5276L73.3773 17.5892H44.9673V1.0307C44.5883 0.9953 44.2093 0.964323 43.8304 0.937772C43.4683 0.91122 43.1062 0.89191 42.7442 0.876221V17.5892H22.8378V4.70808C22.0864 5.05244 21.3445 5.41813 20.6123 5.80514V17.5892H9.79746C9.7709 17.6954 9.74315 17.8028 9.72021 17.9102H20.6123V28.8458H10.3188C10.349 28.9532 10.3804 29.0606 10.4118 29.1668H20.6123V39.5665H11.9759C11.9542 39.6735 11.9312 39.7809 11.9071 39.8888H20.6123V68.9662C21.3365 69.0785 22.0859 69.1569 22.8378 69.2076V39.8888H42.7406V66.6249C43.4876 66.4257 44.2287 66.2193 44.9673 66.0009V39.8888H73.6428V63.248C74.3901 63.0851 75.1269 62.8772 75.849 62.6252L75.8683 62.618V39.8888H103.758V50.8448C104.498 50.7362 105.241 50.632 105.985 50.5323V39.8888H125.816C125.882 39.7813 125.946 39.6739 126.01 39.5665H105.985V29.1668H130.019C130.044 29.0606 130.066 28.9532 130.089 28.8458H105.985V17.9102ZM22.8378 17.9102H42.7406V28.8458H22.8378V17.9102ZM22.8378 39.5665V29.1668H42.7406V39.5665H22.8378ZM44.9673 17.9102H73.6428V28.8458H44.9673V17.9102ZM44.9673 39.5665V29.1668H73.6428V39.5665H44.9673ZM103.758 39.5665H75.8683V29.1668H103.758V39.5665ZM103.758 28.8458H75.8683V18.2035L76.2593 17.9102H103.758V28.8458ZM85.1191 39.5665C85.1185 39.5693 85.1185 39.5722 85.1191 39.575C85.1082 39.6631 85.0962 39.7512 85.0841 39.8405V39.8646V39.8888H88.5358V39.8694L88.7772 39.5665H85.1191ZM89.6365 39.5665H89.2382V39.7089V39.8888H89.6896L89.6365 39.5665ZM75.8683 39.5665V29.1668H79.839C79.7967 29.139 79.7533 29.1101 79.7086 29.0835L79.6507 29.0461L79.5759 29.0002C79.5324 28.9749 79.489 28.9496 79.4431 28.9254C79.3972 28.9013 79.3695 28.8844 79.3309 28.8639L79.3043 28.8494H79.2983H75.8683V28.2761L75.7754 28.3123L75.6776 28.3582H75.6704L75.6499 28.369L75.5883 28.4016L75.5268 28.4342C75.4664 28.4668 75.4061 28.503 75.3457 28.5404L75.2878 28.579L75.1671 28.6563C75.0114 28.7601 74.8582 28.8687 74.7001 28.9701C74.6602 28.9954 74.6204 29.0208 74.5794 29.0437C74.4937 29.0944 74.4056 29.1427 74.3151 29.1861C74.2764 29.2054 74.239 29.2223 74.1944 29.238L74.1292 29.2633L74.0689 29.2839C73.9273 29.3331 73.782 29.3711 73.6344 29.3973V39.5641H67.6808C67.6808 39.5762 67.6893 39.5858 67.6929 39.5979C67.7255 39.6944 67.7581 39.7898 67.7894 39.8863H73.6428V51.0331C73.6734 51.0331 73.7036 51.0331 73.7333 51.0331L73.8383 51.0392L74.0278 51.05L74.3307 51.0862L74.4695 51.0995L74.6204 51.1152H74.6433L74.9101 51.1478L74.9668 51.155L75.0959 51.1731L75.2806 51.1997L75.7235 51.1804L75.7838 51.1912C75.808 51.1912 75.8333 51.1985 75.8587 51.2033V39.8888H85.072V39.8646V39.8405C85.0841 39.7512 85.0962 39.6631 85.107 39.575C85.1064 39.5722 85.1064 39.5693 85.107 39.5665H75.8683Z" fill="#FBAC2A"/>
<path opacity="0.1" d="M32.4072 10.3816H32.5798C32.5229 10.3575 32.4734 10.3188 32.4363 10.2694C32.3992 10.22 32.3759 10.1617 32.3686 10.1004C32.3686 9.8783 32.7005 9.69727 33.106 9.69727H38.2667C38.6722 9.69727 39.0029 9.8783 39.0029 10.1004C39.0029 10.3212 38.6722 10.5035 38.2667 10.5035H38.0941C38.151 10.5271 38.2006 10.5655 38.2377 10.6148C38.2749 10.664 38.2982 10.7222 38.3053 10.7835C38.3053 10.9729 38.0639 11.1323 37.7417 11.1745H39.2273C39.6316 11.1745 39.9635 11.3555 39.9635 11.5776C39.9635 11.7997 39.6316 11.9807 39.2273 11.9807H34.0655C33.6612 11.9807 33.3293 11.7985 33.3293 11.5776C33.3293 11.3881 33.5707 11.23 33.8929 11.1866H32.4072C32.0017 11.1866 31.671 11.0055 31.671 10.7835C31.671 10.5614 32.0017 10.3816 32.4072 10.3816Z" fill="#E9B81C"/>
<path opacity="0.1" d="M88.3391 14.2158H88.5117C88.455 14.1916 88.4058 14.1528 88.3689 14.1034C88.332 14.054 88.3088 13.9958 88.3017 13.9346C88.3017 13.7125 88.6324 13.5315 89.0379 13.5315H94.1985C94.604 13.5315 94.9359 13.7125 94.9359 13.9346C94.9359 14.1555 94.604 14.3365 94.1985 14.3365H94.0271C94.0838 14.3607 94.1331 14.3995 94.1699 14.4489C94.2068 14.4982 94.23 14.5565 94.2371 14.6177C94.2371 14.8072 93.9958 14.9665 93.6735 15.0087H95.1592C95.5647 15.0087 95.8954 15.1898 95.8954 15.4118C95.8954 15.6339 95.5647 15.8149 95.1592 15.8149H89.9986C89.593 15.8149 89.2612 15.6327 89.2612 15.4118C89.2612 15.2223 89.5025 15.063 89.8248 15.0208H88.3391C87.9348 15.0208 87.6029 14.8398 87.6029 14.6177C87.6029 14.3956 87.9348 14.2158 88.3391 14.2158Z" fill="#E9B81C"/>
<path opacity="0.1" d="M24.4864 30.6247H24.6578C24.6011 30.6006 24.5518 30.5619 24.5149 30.5125C24.478 30.4631 24.4549 30.4048 24.4478 30.3435C24.4478 30.1227 24.7797 29.9404 25.184 29.9404H30.3459C30.7502 29.9404 31.0821 30.1227 31.0821 30.3435C31.0821 30.5656 30.7502 30.7466 30.3459 30.7466H30.1733C30.2301 30.7703 30.2795 30.8088 30.3164 30.858C30.3533 30.9073 30.3764 30.9655 30.3833 31.0266C30.3833 31.2161 30.1419 31.3754 29.8197 31.4176H31.3053C31.7108 31.4176 32.0427 31.5999 32.0427 31.8207C32.0427 32.0416 31.7108 32.2238 31.3053 32.2238H26.1495C25.744 32.2238 25.4133 32.0428 25.4133 31.8207C25.4133 31.6325 25.6547 31.4732 25.9769 31.4297H24.4864C24.0809 31.4297 23.749 31.2487 23.749 31.0266C23.749 30.8046 24.0858 30.6247 24.4864 30.6247Z" fill="#E9B81C"/>
<path opacity="0.1" d="M121.659 73.6326C122.526 69.3904 111.912 63.6387 97.9515 60.7858C83.9914 57.9328 71.9716 59.0591 71.1047 63.3012C70.2377 67.5434 80.8519 73.2952 94.8121 76.1481C108.772 79.001 120.792 77.8748 121.659 73.6326Z" fill="#FBAC2A"/>
<path d="M93.4671 46.4506C93.4671 46.4506 94.8394 39.715 100.078 40.3389C100.078 40.3389 103.699 40.5875 104.444 42.9579V48.1969L93.4671 46.4506Z" fill="#3A3768"/>
<path d="M122.158 48.9464L75.5038 45.0784L69.5165 46.3263L69.8906 54.684L70.2985 54.7334L70.7632 67.2838L116.544 75.516L121.41 71.3993V57.7941L122.033 57.4284L122.158 48.9464Z" fill="#D48A9B"/>
<path opacity="0.05" d="M122.221 48.9463L122.096 57.4283L117.044 59.7986L116.981 50.9413L122.221 48.9463Z" fill="black"/>
<path opacity="0.05" d="M121.41 57.8025L121.472 71.1506L116.607 75.2673L116.919 59.7987L121.41 57.8025Z" fill="black"/>
<path opacity="0.05" d="M70.3614 55.2332L116.957 60.9188L116.981 59.8398L70.3264 54.8083L70.3614 55.2332Z" fill="black"/>
<path opacity="0.05" d="M121.41 58.2925V57.8025L116.794 59.8397V60.9211L121.41 58.2925Z" fill="black"/>
<path d="M69.4538 46.3263L75.4411 45.0784L122.096 48.9464L116.857 50.9414L69.4538 46.3263Z" fill="#EFC6CD"/>
<path opacity="0.1" d="M117.126 49.1865L119.415 49.3362L115.621 50.4718L113.688 50.333L117.126 49.1865Z" fill="black"/>
<path d="M117.126 49.0864L119.415 49.2361L115.621 50.373L113.688 50.233L117.126 49.0864Z" fill="white"/>
<path d="M116.852 49.3433C116.942 49.3047 117.038 49.3783 117.134 49.3964C117.19 49.4073 117.246 49.3964 117.302 49.4073C117.414 49.4218 117.525 49.4966 117.633 49.4592" fill="#D3DAE1"/>
<path d="M116.733 49.4123C116.823 49.3737 116.919 49.4461 117.016 49.4654C117.071 49.4751 117.128 49.4654 117.184 49.475C117.296 49.4907 117.407 49.5656 117.514 49.5282" fill="#D3DAE1"/>
<path d="M116.461 49.5498C116.551 49.5111 116.648 49.5835 116.744 49.6017C116.799 49.6125 116.857 49.6016 116.911 49.6125C117.024 49.6282 117.135 49.703 117.242 49.6644" fill="#D3DAE1"/>
<path opacity="0.1" d="M107.229 48.0593L109.519 48.2102L105.724 49.3459L103.792 49.2059L107.229 48.0593Z" fill="black"/>
<path d="M107.229 47.9604L109.519 48.1101L105.724 49.2458L103.792 49.107L107.229 47.9604Z" fill="white"/>
<path d="M106.955 48.2175C107.046 48.1788 107.141 48.2513 107.238 48.2706C107.293 48.2802 107.35 48.2706 107.405 48.2802C107.518 48.2959 107.629 48.3707 107.736 48.3333" fill="#D3DAE1"/>
<path d="M106.837 48.2863C106.926 48.2477 107.023 48.3201 107.119 48.3382C107.175 48.3491 107.232 48.3382 107.287 48.3491C107.399 48.3648 107.51 48.4396 107.618 48.401" fill="#D3DAE1"/>
<path d="M106.564 48.4227C106.655 48.384 106.751 48.4577 106.848 48.4758C106.902 48.4866 106.96 48.4758 107.014 48.4866C107.128 48.5011 107.239 48.5772 107.345 48.5385" fill="#D3DAE1"/>
<path opacity="0.1" d="M111.976 48.623L114.267 48.7727L110.472 49.9096L108.539 49.7696L111.976 48.623Z" fill="black"/>
<path d="M111.976 48.5239L114.267 48.6736L110.472 49.8093L108.539 49.6693L111.976 48.5239Z" fill="white"/>
<path d="M111.702 48.781C111.792 48.7423 111.889 48.8147 111.986 48.8328C112.04 48.8437 112.097 48.8328 112.152 48.8437C112.264 48.8582 112.377 48.9342 112.483 48.8956" fill="#D3DAE1"/>
<path d="M111.584 48.8487C111.674 48.8101 111.771 48.8837 111.867 48.9018C111.922 48.9127 111.978 48.9018 112.034 48.9127C112.146 48.9271 112.258 49.0032 112.365 48.9646" fill="#D3DAE1"/>
<path d="M111.312 48.9863C111.401 48.9476 111.498 49.0201 111.595 49.0394C111.65 49.049 111.707 49.0394 111.762 49.049C111.875 49.0647 111.986 49.1395 112.093 49.1021" fill="#D3DAE1"/>
<path opacity="0.1" d="M60.1415 95.5103C73.6377 95.5103 84.5785 93.2581 84.5785 90.48C84.5785 87.7018 73.6377 85.4497 60.1415 85.4497C46.6453 85.4497 35.7045 87.7018 35.7045 90.48C35.7045 93.2581 46.6453 95.5103 60.1415 95.5103Z" fill="#FBAC2A"/>
<path d="M86.9017 49.2867C86.641 46.9961 85.6091 44.8104 85.6091 44.8104L85.6875 44.038C85.6875 44.038 85.7044 43.6518 85.6791 43.0725C85.6819 42.7108 85.7293 42.3508 85.8203 42.0008C86.0315 41.3309 85.556 40.5079 85.5029 40.4318C85.4498 40.3558 85.5294 38.887 85.0539 38.1665C84.5784 37.446 81.4115 36.1063 81.4115 36.1063C81.4115 36.1063 81.2414 35.7503 81.0012 35.3339L81.0229 35.2917C80.8264 34.9352 80.5829 34.6068 80.2988 34.3153C80.1045 34.1077 79.9174 33.9895 79.7666 34.0474C79.7052 33.8471 79.6584 33.6426 79.6266 33.4355C79.6579 33.444 79.6905 33.4524 79.7219 33.4584C79.8526 33.4888 79.9882 33.492 80.1202 33.4681C80.4147 33.4017 80.6102 33.1374 80.7743 32.8888C81.5926 31.6457 82.2974 30.2819 82.441 28.8107C82.4796 28.5105 82.4653 28.2057 82.3988 27.9104C82.3309 27.6808 82.2361 27.46 82.1164 27.2526C81.9048 26.8272 81.6369 26.4322 81.3198 26.0783C80.7562 25.4846 79.979 25.1213 79.18 24.9065C78.28 24.6644 77.3423 24.5944 76.4163 24.7001C76.1749 24.7278 75.9335 24.7677 75.6921 24.7834C75.386 24.7968 75.0792 24.7916 74.7737 24.7677L73.1939 24.6759L73.1866 24.6518L72.9235 24.6361C72.8197 24.8425 72.9235 25.0875 73.0527 25.2806C73.1818 25.4737 73.3303 25.6752 73.3194 25.9033C73.3085 26.1314 73.1432 26.3149 73.0141 26.5068C72.8849 26.6987 72.7872 26.9497 72.9163 27.138C72.9345 27.164 72.956 27.1876 72.9803 27.208C73.1166 27.3492 73.3544 27.3649 73.5608 27.3625H73.597C73.0772 28.047 72.7962 28.883 72.7968 29.7424C72.8003 30.4769 73.0059 31.1962 73.391 31.8217C73.776 32.4471 74.3258 32.9545 74.9801 33.2883C75.003 33.3667 75.0259 33.4476 75.0477 33.5296C75.2869 34.3774 75.3727 35.261 75.3011 36.1389L75.2733 36.1993L75.2564 36.1353C75.2564 36.1353 73.3954 37.3977 72.8427 37.732C72.2899 38.0663 71.7348 39.1996 71.7082 39.5086C71.6817 39.8175 70.8103 44.4773 70.8103 44.4773C70.6332 44.9467 70.4873 45.4273 70.3734 45.9159L69.2618 46.8923C69.2618 46.8923 66.9688 47.0986 66.305 46.9442L66.3243 47.0721C65.7389 46.9385 65.1428 46.8577 64.5429 46.8307C64.2153 46.7886 63.8824 46.8331 63.5774 46.9599L63.5545 46.9707L63.5364 46.9792C63.187 47.0269 62.8458 47.1228 62.5226 47.264C62.484 47.2797 62.449 47.2954 62.4152 47.3111L62.4224 47.153L59.9411 47.025L58.6739 46.768C58.6739 46.768 58.2249 46.4059 57.9606 46.459C57.6963 46.5121 57.1423 46.15 57.1423 46.15C57.0159 46.051 56.8792 45.966 56.7344 45.8966C56.6922 45.6045 56.6656 45.4271 56.6656 45.4271C56.6656 45.4271 55.6796 41.5144 54.941 39.2141C54.4461 37.6777 53.7341 36.921 53.3141 36.5915C53.127 36.2657 53.0039 36.0557 53.0039 36.0557C52.9231 35.7732 52.4789 35.1372 52.3655 35.1215C52.3474 35.0926 52.3341 35.0781 52.3269 35.0781C52.3026 35.0755 52.278 35.0792 52.2556 35.0889C52.0481 34.0559 51.9274 32.7609 52.2448 31.6324C52.6793 31.2753 53.0295 30.8266 53.2702 30.3183C53.511 29.8101 53.6364 29.2549 53.6375 28.6925C53.6375 28.6756 53.6375 28.6587 53.6375 28.6418C53.6375 28.6249 53.6375 28.6068 53.6375 28.5899C53.6373 27.693 53.3196 26.8251 52.7408 26.1399L52.6998 26.094C52.7108 26.0863 52.7212 26.0778 52.7312 26.0687C52.8218 25.9951 52.8909 25.8984 52.9311 25.7888C52.9712 25.6791 52.981 25.5607 52.9593 25.4459C52.905 25.2142 52.7239 25.032 52.631 24.8123C52.5752 24.6432 52.5304 24.4707 52.497 24.2958C52.4259 24.0474 52.2954 23.82 52.1169 23.6332L52.135 23.6815C51.6619 23.1492 50.8484 22.8849 50.1158 23.0032C49.5715 23.0901 49.0646 23.3435 48.5179 23.422C48.1257 23.4775 47.7262 23.4413 47.3316 23.4811C46.9654 23.5188 46.609 23.6218 46.2792 23.7853C46.193 23.8219 46.1166 23.8781 46.0559 23.9494C45.9998 24.0449 45.9621 24.1501 45.9448 24.2596C45.8109 24.7484 45.3861 25.0971 45.0783 25.5051C44.7268 25.9711 44.5233 26.532 44.4942 27.1151C44.4822 27.2632 44.4965 27.4124 44.5364 27.5556C44.563 27.6413 44.604 27.7221 44.6233 27.809C44.6837 28.0745 44.5449 28.3388 44.4773 28.6019C44.3921 28.9376 44.4223 29.2921 44.563 29.6085C45.0397 30.6754 46.605 31.0314 46.9309 32.1514C47.1802 32.266 47.4436 32.3472 47.7141 32.3928C47.7359 32.5038 47.7552 32.616 47.7709 32.7295C47.7635 32.7326 47.7566 32.7366 47.7503 32.7416C47.3279 33.1531 47.2229 33.9484 47.2229 33.9484L47.1722 33.9895C46.9997 34.1319 46.4095 34.6098 45.8761 34.9779C45.2424 35.416 44.1864 36.8836 43.4478 37.3217C42.7092 37.7598 42.1009 40.4596 42.2602 41.4408C42.4195 42.422 43.0785 45.1737 42.8142 46.1778C42.5499 47.1819 43.2101 51.7645 43.2101 51.7645C43.6531 51.8488 44.0865 51.9774 44.5038 52.1482L44.4906 52.3486L44.4507 52.952C44.4507 52.952 43.2547 57.2775 43.7121 60.6073C44.1695 63.9371 43.5009 64.2799 43.5009 64.2799C43.5009 64.2799 43.6409 65.7559 43.2897 66.2712C42.9385 66.7865 42.8673 67.9186 42.8673 67.9186C42.8673 67.9186 42.8323 70.4591 42.9023 71.1772C42.9723 71.8953 43.0073 73.2035 42.7611 73.5125C42.5149 73.8215 42.0575 75.8454 42.0925 76.4633C42.1275 77.0813 41.2127 78.4897 41.7051 80.3085C42.1975 82.1273 40.2568 82.1622 40.2568 82.1622C40.2568 82.1622 40.5042 84.9381 41.0316 85.7322L41.1089 85.8457C41.0956 85.8915 41.0823 85.9398 41.0678 85.9917C40.8687 86.7158 40.5959 87.8587 40.7854 88.1351C41.0666 88.5479 41.2078 88.4779 41.2078 88.4779L41.3128 90.3316C41.3128 90.3316 43.4249 92.1166 45.0445 92.049C46.6642 91.9815 46.3467 90.3316 46.3467 90.3316L44.9673 86.7544L44.9202 86.6337L46.4529 83.7372C46.4529 83.7372 46.8754 82.4676 46.9804 82.021C47.0854 81.5745 47.6586 79.9923 47.6586 79.9923C47.6586 79.9923 49.1069 76.5599 49.1371 76.1471C49.1672 75.7344 49.2783 73.5053 49.5595 73.0575C49.8407 72.6098 50.6155 70.0403 50.6155 70.0403L50.6348 70.0572C50.7662 70.1863 50.8601 70.3487 50.9065 70.5271C50.9528 70.7054 50.9498 70.893 50.8979 71.0698C50.7205 71.7215 50.8267 73.0599 50.8267 73.0599C50.8267 73.0599 50.7567 74.1932 50.6155 74.7773C50.4743 75.3615 50.4405 80.1323 50.6867 81.2643C50.8834 82.1707 50.8774 83.8676 50.8677 84.5096C50.7024 85.1915 50.5576 86.0388 50.8267 86.1389C51.2853 86.3115 53.6086 86.2765 53.6086 86.2765C53.6086 86.2765 54.5934 85.9326 55.9318 87.1346C57.2702 88.3367 61.3869 86.7919 61.3869 86.7919C61.3869 86.7919 62.6542 86.4479 60.1547 85.4534C58.4108 84.7595 57.2847 84.2972 56.5485 83.8024C56.5654 83.7698 56.5835 83.7372 56.5992 83.7022C56.5992 83.7022 55.5782 82.7367 56.423 81.0254C57.2678 79.314 57.2328 77.867 57.2328 77.867L57.374 72.0992L56.9516 64.4428L56.6246 56.4073L56.6825 56.388C56.738 57.8653 57.0265 61.3821 58.5363 60.7002C60.4371 59.8421 58.8175 57.6106 58.8175 57.6106L57.9642 55.9475L58.2189 55.8606L57.2642 52.7758C57.1726 52.1738 57.1604 51.5623 57.228 50.9571C57.2469 50.603 57.2396 50.248 57.2063 49.895C58.4566 49.6765 59.6538 49.4448 59.8687 49.4979C60.1221 49.5595 61.5402 49.5716 62.0978 49.574C61.9155 49.7164 61.7695 49.8576 61.7695 49.8576L64.0397 51.3855C64.0397 51.3855 64.8097 50.9643 64.9702 50.5177C65.1281 50.4778 65.2739 50.3999 65.395 50.2909C65.4191 50.8183 65.5591 51.3891 66.0467 51.4024C66.1686 51.4049 66.2897 51.3811 66.4015 51.3324L70.1139 50.5974L69.7953 52.5876L70.0174 52.9822C69.9051 54.661 69.776 56.4436 69.6625 58.0113L69.6106 58.354L69.6372 58.3601C69.461 60.7739 69.3198 62.6023 69.3198 62.6023C69.5277 62.2061 69.8503 61.8818 70.2455 61.6718L70.2696 65.2538C70.2696 65.2538 70.4555 70.9177 70.4555 71.6901C70.4555 72.4625 70.4808 74.1872 70.4808 74.1872C70.4808 74.1872 70.8779 76.298 71.1144 76.9932C71.351 77.6883 71.5368 80.8552 71.5368 80.8552C71.5368 80.8552 72.092 81.7302 71.8542 82.0621C71.6165 82.394 72.7787 83.1169 72.7787 83.1169C72.7787 83.1169 72.0389 84.121 71.9858 84.7908C71.9798 84.8681 72.0558 84.9501 72.1934 85.0322C72.1499 85.0672 72.1053 85.1022 72.0558 85.136C71.713 85.3653 71.211 85.5246 70.4555 85.4595C68.3953 85.2784 66.9434 87.1841 68.2106 87.5703C69.4779 87.9565 73.2796 88.0337 73.2796 88.0337C73.2796 88.0337 74.4309 87.3156 75.3313 87.6391C75.318 88.3946 75.3554 89.0873 75.3614 89.1791L75.3506 89.1875C74.8123 89.6703 73.7816 90.5006 72.7751 90.8397C71.3268 91.3285 71.0058 93.3114 72.8801 93.5685C74.7544 93.8256 77.5 93.2595 77.5 93.2595C77.5 93.2595 78.9254 92.2047 80.0079 91.973C81.0905 91.7413 82.015 91.2259 81.8303 90.608C81.7097 90.2134 81.3995 89.1791 81.1895 88.4839C81.1774 88.4421 81.1654 88.4018 81.1533 88.3632C81.1859 88.2908 81.2185 88.216 81.2486 88.1387C81.2486 88.1387 80.6947 85.2555 81.1436 84.535C81.5926 83.8145 81.3548 76.6045 81.3548 76.6045C81.3548 76.6045 80.5885 74.7773 80.9855 73.6706C81.3826 72.5639 80.3519 70.9925 80.3519 70.9925C80.3519 70.9925 80.4641 67.8438 80.7659 66.089C80.7795 66.0141 80.7928 65.9417 80.8057 65.8717C81.3109 65.7218 81.8032 65.5317 82.2781 65.3033C82.2781 65.3033 82.5424 61.3375 82.7005 60.4371C82.7162 60.3526 82.7379 60.2163 82.7645 60.0389L82.8852 59.4028L83.0276 58.6787L83.5103 56.2106L84.3817 55.0834L86.6265 52.7903C86.6265 52.7903 87.166 51.5786 86.9017 49.2867ZM52.2834 35.1264L52.2665 35.1384C52.2639 35.1297 52.2619 35.1208 52.2605 35.1119C52.2675 35.1176 52.2752 35.1225 52.2834 35.1264ZM74.4623 37.9372L74.3754 38.1267L74.6928 37.8105L74.262 38.2932L74.4068 37.9891L74.4623 37.9372ZM72.3189 42.3665C72.2356 42.5873 72.1463 42.8263 72.0534 43.0749L72.2235 42.5668L72.3189 42.3665Z" fill="url(#paint0_linear)"/>
<path d="M65.3926 49.5873C65.3926 49.5873 65.097 51.5557 65.984 51.581C66.8711 51.6064 67.4636 50.0628 67.4636 50.0628L67.1016 48.8281L65.3926 49.5873Z" fill="#585B8A"/>
<path opacity="0.2" d="M65.3926 49.5873C65.3926 49.5873 65.097 51.5557 65.984 51.581C66.8711 51.6064 67.4636 50.0628 67.4636 50.0628L67.1016 48.8281L65.3926 49.5873Z" fill="black"/>
<path d="M45.5237 92.195C43.9451 92.2638 41.8861 90.48 41.8861 90.48L41.7835 88.6275C41.7835 88.6275 41.6472 88.6963 41.372 88.2847C41.1873 88.0083 41.4529 86.863 41.6472 86.1425C41.7413 85.7901 41.8185 85.5391 41.8185 85.5391L45.2823 86.466L45.4476 86.904L46.7921 90.4788C46.7921 90.4788 47.1011 92.1262 45.5237 92.195Z" fill="#636992"/>
<path d="M61.4388 86.9475C61.4388 86.9475 57.4259 88.4911 56.1285 87.2902C54.8311 86.0894 53.8644 86.4322 53.8644 86.4322C53.8644 86.4322 51.6003 86.4671 51.1538 86.2946C50.8907 86.1944 51.0331 85.3363 51.1972 84.6532C51.3082 84.1813 51.4289 83.7915 51.4289 83.7915C51.4289 83.7915 55.373 82.453 55.9909 83.2761C56.1766 83.518 56.3984 83.7297 56.6487 83.9037C57.3632 84.4203 58.4795 84.8885 60.2452 85.6091C62.6735 86.6035 61.4388 86.9475 61.4388 86.9475Z" fill="#636992"/>
<path d="M57.8375 55.594L58.9346 57.7893C58.9346 57.7893 60.5132 60.0197 58.6606 60.8765C56.808 61.7334 56.843 55.938 56.843 55.938L57.8375 55.594Z" fill="#FFD6D6"/>
<path d="M53.2405 36.5564C53.2405 36.5564 54.4413 37.1055 55.1619 39.4034C55.8824 41.7013 56.843 45.6129 56.843 45.6129C56.843 45.6129 57.4948 50.0373 57.391 51.1356C57.3249 51.7404 57.3367 52.3513 57.426 52.9531L58.3516 56.0403L56.4991 56.6921L53.652 45.7842L53.2405 36.5564Z" fill="#DCE6F2"/>
<path opacity="0.05" d="M53.2405 36.5564C53.2405 36.5564 54.4413 37.1055 55.1619 39.4034C55.8824 41.7013 56.843 45.6129 56.843 45.6129C56.843 45.6129 57.4948 50.0373 57.391 51.1356C57.3249 51.7404 57.3367 52.3513 57.426 52.9531L58.3516 56.0403L56.4991 56.6921L53.652 45.7842L53.2405 36.5564Z" fill="black"/>
<path opacity="0.1" d="M45.2823 86.4672L45.4476 86.9053L45.2449 87.2927C44.4556 87.6354 42.5004 87.3615 42.5004 87.3615C42.5004 87.3615 42.1383 86.9017 41.6435 86.1449C41.7376 85.7925 41.8149 85.5415 41.8149 85.5415L45.2823 86.4672Z" fill="black"/>
<path opacity="0.1" d="M56.7743 84.0654C55.7738 86.332 52.3728 85.4908 51.4278 85.2071C51.2721 85.1601 51.1864 85.1287 51.1864 85.1287C51.1864 85.1287 51.1924 84.9441 51.1948 84.6532C51.3059 84.1813 51.4266 83.7915 51.4266 83.7915C51.4266 83.7915 55.3707 82.453 55.9886 83.2761C56.1742 83.518 56.396 83.7297 56.6463 83.9037C56.6841 83.9613 56.7269 84.0154 56.7743 84.0654Z" fill="black"/>
<path d="M56.6017 81.1846C55.7786 82.8983 56.7742 83.8602 56.7742 83.8602C55.7737 86.1255 52.3727 85.2855 51.4277 85.0007C51.2721 84.9549 51.1864 84.9235 51.1864 84.9235C51.1864 84.9235 51.2552 82.5556 51.015 81.4235C50.7748 80.2915 50.8086 75.5243 50.9462 74.9413C51.0838 74.3584 51.1514 73.2251 51.1514 73.2251C51.1514 73.2251 51.0488 71.8879 51.2202 71.2362C51.2717 71.0601 51.2752 70.8735 51.2302 70.6956C51.1852 70.5177 51.0934 70.3552 50.9643 70.2248L50.9462 70.2067C50.9462 70.2067 50.1919 72.7798 49.9167 73.2239C49.6416 73.6681 49.5402 75.8996 49.5052 76.3112C49.4702 76.7227 48.0642 80.1539 48.0642 80.1539C48.0642 80.1539 47.5162 81.7313 47.4137 82.1766C47.3111 82.622 46.8983 83.8928 46.8983 83.8928L45.2449 87.0838C44.4556 87.4266 42.5004 87.1526 42.5004 87.1526C42.5004 87.1526 42.1239 86.6698 41.6085 85.883C41.0932 85.0961 40.8542 82.3166 40.8542 82.3166C40.8542 82.3166 42.7406 82.2816 42.2603 80.464C41.7799 78.6465 42.6718 77.2392 42.638 76.6213C42.6042 76.0034 43.0496 73.9807 43.2897 73.6717C43.5299 73.3627 43.4949 72.0593 43.4261 71.3388C43.3573 70.6183 43.3923 68.0802 43.3923 68.0802C43.3923 68.0802 43.4611 66.9481 43.8039 66.434C44.1466 65.9199 44.0102 64.4439 44.0102 64.4439C44.0102 64.4439 44.6607 64.1011 44.2154 60.7737C43.7701 57.4463 44.9395 53.1245 44.9395 53.1245L44.9794 52.521L45.0421 51.5435C45.0421 51.5435 54.8529 50.9255 55.6422 51.6798C55.8485 51.8892 56.0178 52.132 56.143 52.3979C56.4131 52.9784 56.6039 53.5926 56.7103 54.2239L57.1218 64.6176L57.5334 72.2669L57.3958 78.0298C57.3958 78.0298 57.426 79.4684 56.6017 81.1846Z" fill="#565988"/>
<path opacity="0.1" d="M53.693 60.6714L52.6636 82.9674L51.4277 84.9998C51.272 84.9539 51.1863 84.9225 51.1863 84.9225C51.1863 84.9225 51.2551 82.5546 51.015 81.4225C50.7748 80.2905 50.8086 75.5233 50.9462 74.9404C51.0837 74.3575 51.1513 73.2242 51.1513 73.2242C51.1513 73.2242 51.0488 71.887 51.2201 71.2352C51.2717 71.0592 51.2752 70.8725 51.2302 70.6947C51.1852 70.5168 51.0934 70.3542 50.9643 70.2239L50.9812 70.1032L53.693 60.6714Z" fill="black"/>
<path opacity="0.1" d="M42.6067 84.6146C42.6067 84.6146 45.2823 83.5514 45.6939 83.8905C46.1054 84.2296 42.5391 84.7474 42.5391 84.7474L42.6067 84.6146Z" fill="black"/>
<path opacity="0.1" d="M55.8135 81.8013C55.7109 81.8363 53.1041 82.7668 53.3442 83.7564C53.5844 84.7461 55.8135 81.8013 55.8135 81.8013Z" fill="black"/>
<path d="M47.6671 31.052C47.6671 31.052 48.5409 33.1616 48.0787 34.243C47.6165 35.3243 53.0692 37.1757 53.0692 37.1757C53.0692 37.1757 51.4749 33.059 53.0185 30.743C54.5621 28.427 47.6671 31.052 47.6671 31.052Z" fill="#FFD6D6"/>
<path d="M79.594 92.1263C78.5392 92.358 77.1501 93.4129 77.1501 93.4129C77.1501 93.4129 74.4744 93.9789 72.6472 93.7218C70.82 93.4647 71.1301 91.483 72.5446 90.9942C73.5258 90.6563 74.5311 89.8224 75.0561 89.3444C75.2879 89.1308 75.4254 88.9824 75.4254 88.9824L80.5463 87.9529C80.5463 87.9529 80.6295 88.2389 80.7454 88.6336C80.9506 89.3299 81.2535 90.363 81.3693 90.7565C81.5492 91.3805 80.6488 91.8946 79.594 92.1263Z" fill="#505484"/>
<path d="M78.2822 88.164C78.2822 88.164 76.1206 88.3957 75.2203 87.8816C74.3199 87.3674 73.0334 88.1905 73.0334 88.1905C73.0334 88.1905 69.3283 88.1133 68.0936 87.7271C66.859 87.3409 68.2734 85.434 70.2805 85.6175C71.0119 85.6838 71.5067 85.5233 71.841 85.294C72.1902 85.0546 72.4336 84.6898 72.5205 84.2754L76.8653 84.5325L77.4687 86.0725L78.2822 88.164Z" fill="#505484"/>
<path opacity="0.1" d="M77.5351 86.7749C77.5351 86.7749 72.4855 85.9493 71.841 85.294C72.1902 85.0546 72.4336 84.6898 72.5205 84.2754L76.8652 84.5325L77.4687 86.0724L77.5351 86.7749Z" fill="black"/>
<path d="M70.0488 57.8846L70.1007 65.4216C70.1007 65.4216 70.2805 71.0819 70.2805 71.8543C70.2805 72.6267 70.3058 74.3489 70.3058 74.3489C70.3058 74.3489 70.692 76.4585 70.9238 77.1537C71.1555 77.8489 71.3353 81.0157 71.3353 81.0157C71.3353 81.0157 71.876 81.8907 71.6443 82.2226C71.4125 82.5545 72.5446 83.2774 72.5446 83.2774C72.5446 83.2774 71.8205 84.2816 71.7734 84.9502C71.7263 85.6188 77.5351 86.5686 77.5351 86.5686L75.2722 63.3639L73.4703 57.5503L70.0488 57.8846Z" fill="#575988"/>
<path opacity="0.1" d="M70.0488 57.8846L70.1007 65.4216C70.1007 65.4216 70.2805 71.0819 70.2805 71.8543C70.2805 72.6267 70.3058 74.3489 70.3058 74.3489C70.3058 74.3489 70.692 76.4585 70.9238 77.1537C71.1555 77.8489 71.3353 81.0157 71.3353 81.0157C71.3353 81.0157 71.876 81.8907 71.6443 82.2226C71.4125 82.5545 72.5446 83.2774 72.5446 83.2774C72.5446 83.2774 71.8205 84.2816 71.7734 84.9502C71.7263 85.6188 77.5351 86.5686 77.5351 86.5686L75.2722 63.3639L73.4703 57.5503L70.0488 57.8846Z" fill="black"/>
<path opacity="0.1" d="M80.7453 88.6396C79.0642 92.6476 75.0658 89.5544 75.0658 89.5544C75.0658 89.5544 75.0658 89.4772 75.0561 89.3444C75.2878 89.1308 75.4254 88.9824 75.4254 88.9824L80.5462 87.9529C80.5462 87.9529 80.6295 88.2449 80.7453 88.6396Z" fill="black"/>
<path d="M80.8033 88.2934C79.1559 92.5175 75.0658 89.3482 75.0658 89.3482C75.0658 89.3482 74.9366 87.1613 75.1949 86.1584C75.4532 85.1555 74.9113 82.1443 74.9113 82.1443C74.9113 82.1443 74.6023 79.4686 74.3199 78.8519C74.0375 78.2352 74.0629 76.9993 74.0629 76.8967C74.0629 76.7942 74.1655 75.9699 73.9337 75.4038C73.702 74.8378 73.5717 73.4487 73.5717 73.4487C73.5717 73.4487 73.5717 71.4935 73.3399 70.3361L72.5422 66.3534L71.1012 58.1973L71.5513 58.12L79.6169 56.7056C79.6169 56.7056 81.1352 64.4296 80.6199 65.2213C80.5088 65.3951 80.4111 65.7753 80.3302 66.2653C80.0357 68.0177 79.9259 71.164 79.9259 71.164C79.9259 71.164 80.9288 72.733 80.5438 73.8397C80.1588 74.9464 80.9059 76.7724 80.9059 76.7724C80.9059 76.7724 81.1376 83.9763 80.6995 84.6968C80.2614 85.4174 80.8033 88.2934 80.8033 88.2934Z" fill="#575988"/>
<path d="M80.0309 35.6308C80.0309 35.6308 72.7244 40.7758 74.3706 38.2027C75.2577 36.8172 75.0947 35.0527 74.7472 33.7203C74.5714 33.0427 74.3289 32.3841 74.023 31.7543C74.023 31.7543 80.2312 29.1137 79.4081 31.4804C79.2153 32.0317 79.1332 32.6158 79.1668 33.199C79.2161 34.0756 79.516 34.9197 80.0309 35.6308Z" fill="#D28690"/>
<path d="M66.8758 47.4137C66.8758 47.4137 63.7886 46.5218 63.2745 47.3968C62.7604 48.2717 63.429 50.1919 64.3607 50.5009C65.2924 50.8098 67.431 49.4545 67.431 49.4545L66.8758 47.4137Z" fill="#D28690"/>
<path d="M70.4097 45.8965L69.1231 47.0804C69.1231 47.0804 66.8844 47.2856 66.2411 47.1311C66.2411 47.1311 66.8337 51.0933 65.984 51.5821L71.1809 50.5273L70.4097 45.8965Z" fill="#585B8A"/>
<path opacity="0.1" d="M70.4097 45.8965L69.1231 47.0804C69.1231 47.0804 66.8844 47.2856 66.2411 47.1311C66.2411 47.1311 66.8337 51.0933 65.984 51.5821L71.1809 50.5273L70.4097 45.8965Z" fill="black"/>
<path opacity="0.1" d="M53.8922 28.8904C53.8922 29.9147 53.4853 30.897 52.761 31.6213C52.0368 32.3455 51.0544 32.7524 50.0302 32.7524C48.0485 31.8002 46.1682 31.0254 46.1682 28.8904C46.1476 28.3708 46.2322 27.8524 46.4169 27.3662C46.6015 26.8801 46.8825 26.4363 47.2429 26.0614C47.6032 25.6865 48.0356 25.3882 48.514 25.1845C48.9925 24.9808 49.5071 24.8757 50.0272 24.8757C50.5472 24.8757 51.0618 24.9808 51.5403 25.1845C52.0187 25.3882 52.4511 25.6865 52.8115 26.0614C53.1718 26.4363 53.4528 26.8801 53.6374 27.3662C53.8221 27.8524 53.9067 28.3708 53.8862 28.8904H53.8922Z" fill="black"/>
<path d="M53.8922 28.7867C53.8928 29.6949 53.5726 30.5742 52.9882 31.2695C52.4038 31.9648 51.5926 32.4313 50.6978 32.5869C49.8029 32.7425 48.8819 32.5771 48.0971 32.12C47.3123 31.6628 46.7141 30.9432 46.4081 30.088C46.102 29.2329 46.1078 28.2971 46.4243 27.4458C46.7408 26.5945 47.3478 25.8822 48.1381 25.4347C48.9285 24.9872 49.8515 24.8331 50.7443 24.9997C51.6372 25.1663 52.4426 25.6428 53.0184 26.3451C53.5824 27.034 53.891 27.8964 53.8922 28.7867Z" fill="#FFD6D6"/>
<path opacity="0.1" d="M56.1431 52.4016C55.761 52.6389 55.3611 52.8463 54.9471 53.022C54.9471 53.022 52.9919 52.7383 52.7095 53.0726C52.4271 53.4069 49.9337 53.5361 49.9337 53.5361C49.9337 53.5361 46.1259 53.3563 45.5599 52.8675C45.3849 52.7257 45.1902 52.6103 44.9818 52.5247L45.0446 51.5471C45.0446 51.5471 54.8553 50.9292 55.6446 51.6835C55.8501 51.8931 56.0186 52.1358 56.1431 52.4016Z" fill="black"/>
<path d="M56.6198 51.7102C56.5425 52.1471 54.947 52.8157 54.947 52.8157C54.947 52.8157 52.9919 52.5333 52.7095 52.8676C52.4271 53.2019 49.9336 53.331 49.9336 53.331C49.9336 53.331 46.1259 53.15 45.5599 52.6612C44.9938 52.1724 43.7327 51.937 43.7327 51.937C43.7327 51.937 43.0894 47.3581 43.3477 46.3552C43.6059 45.3523 42.9615 42.5982 42.807 41.6206C42.6525 40.643 43.2439 37.942 43.9644 37.5051C44.6849 37.0682 45.7144 35.6007 46.3311 35.1638C46.8512 34.7957 47.4257 34.319 47.5935 34.1753L47.643 34.1343C47.643 34.1343 47.7468 33.3365 48.1583 32.9274C48.5699 32.5183 52.351 35.5258 52.351 35.5258C52.351 35.5258 52.3776 35.7576 52.6346 35.3207C52.6926 35.2229 53.191 35.9422 53.2779 36.2463C53.2779 36.2463 55.3356 39.8489 55.4648 40.5911C55.5939 41.3334 56.1334 43.7556 56.236 44.347C56.2625 44.499 56.306 45.0325 56.3567 45.7469C56.3663 45.8869 56.3748 46.0354 56.3856 46.1899C56.4617 47.375 56.5437 48.8885 56.5932 50.0326C56.5932 50.1629 56.6041 50.2885 56.6077 50.4091C56.6338 50.8423 56.6378 51.2766 56.6198 51.7102Z" fill="#DCE6F2"/>
<path opacity="0.1" d="M43.5552 42.4219C43.5552 42.4219 44.9697 44.1453 45.4331 44.1453C45.8966 44.1453 43.5552 42.4219 43.5552 42.4219Z" fill="black"/>
<path opacity="0.1" d="M46.5351 46.1272C46.5351 46.1272 44.2191 48.6484 44.528 49.1118C44.837 49.5753 46.5351 46.1272 46.5351 46.1272Z" fill="black"/>
<path opacity="0.1" d="M44.8369 51.1442C44.8369 51.1442 47.4921 48.2368 47.6128 47.2339L44.8369 51.1442Z" fill="black"/>
<path opacity="0.1" d="M48.1813 51.3492C48.1813 51.3492 51.2431 49.7283 51.5002 48.4418C51.7573 47.1552 48.1813 51.3492 48.1813 51.3492Z" fill="black"/>
<path opacity="0.1" d="M52.0662 35.7081L51.6414 36.7363L52.3486 37.0706L53.0438 39.0137C53.0438 39.0137 54.9603 42.8468 54.8831 44.8406C54.8058 46.8343 55.2306 49.831 55.2306 49.831L56.3361 49.6259L55.8148 43.7616C55.7336 42.8537 55.5062 41.9648 55.1413 41.1294C54.2579 39.1067 52.6141 35.3726 52.5103 35.3726C52.3691 35.3726 52.4681 35.4245 52.4681 35.4245L52.0662 35.7081Z" fill="black"/>
<path d="M52.1688 35.6043L51.744 36.6338L52.4524 36.9681L53.1464 38.9112C53.1464 38.9112 55.0629 42.7442 54.9857 44.738C54.9084 46.7318 55.3332 49.7285 55.3332 49.7285L56.44 49.5233L55.9174 43.6591C55.8371 42.7511 55.6101 41.8621 55.2451 41.0269C54.3617 39.0029 52.7179 35.27 52.6153 35.27C52.4729 35.27 52.5719 35.3219 52.5719 35.3219L52.1688 35.6043Z" fill="#575989"/>
<path d="M64.6974 50.7241C64.1592 50.6831 62.8678 50.0301 62.3549 49.7586L62.1376 49.6379L62.1642 47.6453C62.291 47.5708 62.4224 47.5043 62.5576 47.4462C63.2431 47.1469 64.6492 46.7402 65.354 48.0497C66.305 49.8057 65.3793 50.77 64.6974 50.7241Z" fill="#FFD6D6"/>
<path opacity="0.1" d="M53.0184 26.3452C52.9631 26.3798 52.9023 26.4047 52.8386 26.4188C52.3908 26.5166 51.8815 26.1316 51.4977 26.379C51.2636 26.5311 51.2093 26.8461 51.1779 27.1236C51.1232 27.6064 51.0685 28.0859 51.0138 28.5622C51.0023 28.7318 50.9665 28.8989 50.9076 29.0583C50.7181 29.4915 50.1979 29.6955 49.7236 29.6883C49.5378 29.7015 49.3543 29.6408 49.2131 29.5193C49.1298 29.4348 49.0852 29.3166 48.9934 29.2393C48.39 28.7336 48.2066 29.9731 48.3659 30.3255C48.6217 30.9012 49.5305 31.4563 49.1491 32.1877C49.085 32.3066 48.9877 32.4043 48.8691 32.4689C48.2944 32.2889 47.7698 31.977 47.3371 31.5581C46.9044 31.1392 46.5756 30.625 46.3771 30.0564C46.1786 29.4878 46.1158 28.8807 46.1938 28.2835C46.2718 27.6863 46.4883 27.1156 46.8261 26.6171C47.1639 26.1185 47.6137 25.7058 48.1394 25.4121C48.6651 25.1183 49.2523 24.9515 49.8539 24.9251C50.4556 24.8987 51.0551 25.0134 51.6046 25.2599C52.154 25.5065 52.6382 25.8782 53.0184 26.3452Z" fill="black"/>
<path d="M48.8909 29.2343C48.9814 29.3103 49.0273 29.4286 49.1106 29.5131C49.2518 29.6344 49.4353 29.6951 49.6211 29.682C50.0954 29.6893 50.6155 29.4865 50.8038 29.0508C50.8638 28.8921 50.9 28.7253 50.9112 28.556L51.0754 27.1174C51.1067 26.8398 51.1598 26.5248 51.3952 26.3728C51.779 26.1314 52.2883 26.5103 52.736 26.4126C52.8974 26.3716 53.0372 26.2706 53.1268 26.1303C53.2165 25.99 53.2494 25.8208 53.2188 25.6571C53.1669 25.4266 52.9907 25.2443 52.9002 25.0247C52.8453 24.8559 52.8014 24.6838 52.7686 24.5093C52.5188 23.5728 51.4193 23.0466 50.4635 23.2035C49.9324 23.2916 49.4388 23.545 48.9066 23.6223C48.5252 23.6778 48.1354 23.6416 47.7504 23.6826C47.3927 23.7195 47.0449 23.8222 46.7245 23.9855C46.6404 24.0228 46.5661 24.0789 46.5073 24.1497C46.4526 24.2452 46.4158 24.3499 46.3987 24.4586C46.2695 24.9414 45.8544 25.2974 45.5539 25.7041C45.2101 26.1721 45.0112 26.7306 44.9818 27.3105C44.97 27.4586 44.9838 27.6076 45.0228 27.751C45.0482 27.8355 45.088 27.9176 45.1073 28.0045C45.1665 28.2688 45.0313 28.5331 44.9649 28.7962C44.8824 29.1319 44.9121 29.4854 45.0494 29.8027C45.5128 30.8684 47.0395 31.2244 47.3569 32.3432C47.6388 32.4783 47.9432 32.5602 48.2549 32.5846C48.5662 32.5906 48.9018 32.4566 49.0466 32.1803C49.4268 31.4561 48.5192 30.8937 48.2633 30.3193C48.1028 29.9656 48.2826 28.7274 48.8909 29.2343Z" fill="#353045"/>
<path opacity="0.1" d="M79.4142 31.4804C79.2213 32.0317 79.1392 32.6158 79.1728 33.199C78.9869 33.3571 78.7842 32.884 78.5693 33.0059C77.9804 33.3462 77.2997 34.156 76.5707 34.156C75.9386 34.1564 75.3153 34.0071 74.752 33.7203C74.5763 33.0427 74.3337 32.3841 74.0278 31.7543C74.0278 31.7543 80.2372 29.1137 79.4142 31.4804Z" fill="black"/>
<path d="M80.58 29.9367C80.58 30.7306 80.3446 31.5067 79.9035 32.1668C79.4625 32.8269 78.8355 33.3414 78.1021 33.6453C77.3686 33.9491 76.5615 34.0286 75.7828 33.8737C75.0042 33.7188 74.2889 33.3365 73.7275 32.7751C73.1662 32.2137 72.7839 31.4985 72.629 30.7198C72.4741 29.9412 72.5536 29.1341 72.8574 28.4006C73.1612 27.6671 73.6757 27.0402 74.3358 26.5991C74.9959 26.158 75.772 25.9226 76.5659 25.9226C77.0931 25.9224 77.6152 26.0262 78.1023 26.2278C78.5893 26.4295 79.0319 26.7252 79.4047 27.098C79.7775 27.4707 80.0731 27.9133 80.2748 28.4004C80.4765 28.8875 80.5802 29.4095 80.58 29.9367Z" fill="#D28690"/>
<path d="M80.4086 36.5227C80.4086 36.5227 79.6531 37.3458 79.5505 37.4133C79.4479 37.4809 77.2575 46.7063 77.2188 46.8138C77.1802 46.9212 74.6108 55.2511 74.6108 55.2511L70.4941 57.275L70.8381 47.0865L73.8553 38.6842C73.8553 38.6842 74.8509 37.5521 75.1587 37.1406C75.4664 36.729 79.3091 34.2585 79.3091 34.2585L79.9657 35.6115L80.4086 36.5227Z" fill="#F0F3F7"/>
<path opacity="0.1" d="M79.8643 35.8178L75.1309 39.2067L75.0549 37.3457C75.3639 36.9341 79.2054 34.4648 79.2054 34.4648L79.8643 35.8178Z" fill="black"/>
<path d="M79.9669 35.6115L75.2335 39.0004L75.1599 37.1406C75.4689 36.7278 79.3104 34.2585 79.3104 34.2585L79.9669 35.6115Z" fill="#F0F3F7"/>
<path d="M75.0018 36.3127L75.1599 37.1407L74.1015 38.216L74.9463 36.3248C74.9463 36.3248 73.136 37.586 72.5929 37.9203C72.0498 38.2546 71.5067 39.3867 71.4862 39.6956C71.4656 40.0046 70.6112 44.6608 70.6112 44.6608C70.6112 44.6608 69.9679 46.3842 70.1489 46.873C70.33 47.3618 69.1714 62.7724 69.1714 62.7724C69.3262 62.4732 69.5452 62.2117 69.8126 62.0066C70.08 61.8016 70.3894 61.658 70.7186 61.5861L70.3058 52.4789C70.3058 52.4789 70.8079 46.4204 70.8332 46.3432C70.8586 46.2659 72.0039 42.7539 72.0039 42.7539L75.0018 36.3127Z" fill="#585B8A"/>
<path opacity="0.1" d="M75.2637 37.2432L75.1816 38.9328C75.1816 38.9328 74.0363 42.5474 73.6513 43.1388C73.2663 43.7302 72.0944 47.2555 72.0944 47.2555L71.4343 53.3792L70.3022 53.8945L69.7446 52.8675L70.6715 46.9538C70.6715 46.9538 72.4203 41.9633 72.6786 41.448L73.9687 38.73L75.2637 37.2432Z" fill="black"/>
<path d="M75.1599 37.1406L75.0791 38.8303C75.0791 38.8303 73.9337 42.4449 73.5475 43.0362C73.1613 43.6276 71.9918 47.1529 71.9918 47.1529L71.3353 53.2755L70.2032 53.7896L69.6372 52.7613L70.5641 46.8476C70.5641 46.8476 72.3129 41.8559 72.5699 41.3418L73.8698 38.6275L75.1599 37.1406Z" fill="#663D5C"/>
<path d="M61.8167 50.0375L64.0289 51.5691C64.0289 51.5691 65.5894 50.6941 64.6806 50.128C63.7718 49.562 62.9656 49.4763 62.6735 49.4763C62.3815 49.4763 61.8167 50.0375 61.8167 50.0375Z" fill="#D28690"/>
<path d="M63.4688 47.206C63.4194 47.2367 63.3788 47.2796 63.3507 47.3305C63.3226 47.3814 63.308 47.4387 63.3083 47.4968C63.3083 47.9663 63.3614 49.2094 63.7549 48.6482C64.2376 47.9615 64.1495 47.3448 64.8869 47.7901C65.3452 48.0755 65.7463 48.4439 66.0696 48.8763L65.8645 47.4015C65.8645 47.4015 64.3486 46.6532 63.4688 47.206Z" fill="#D28690"/>
<path opacity="0.1" d="M80.6222 65.2162C80.5112 65.39 80.4134 65.7702 80.3326 66.2602C75.8212 67.6131 72.5204 64.7528 72.5204 64.7528C72.1211 63.3995 71.7947 62.0257 71.5428 60.6373C71.462 60.1618 71.4801 59.2397 71.5549 58.1149L79.6205 56.7004C79.6205 56.7004 81.1376 64.4185 80.6222 65.2162Z" fill="black"/>
<path d="M85.2531 42.1903C85.048 42.8601 85.1252 44.2227 85.1252 44.2227L83.2726 52.9702C83.2726 52.9702 82.3723 59.7106 82.2178 60.6109C82.0633 61.5113 81.8063 65.4735 81.8063 65.4735C76.5575 68.0466 72.5133 64.5478 72.5133 64.5478C72.114 63.1941 71.7877 61.8199 71.5357 60.4311C71.2774 58.9032 72.0377 52.7819 72.3974 50.0628C72.5048 49.2578 72.5772 48.7509 72.5772 48.7509L73.9277 43.7339C73.9277 43.7339 75.5872 39.5013 76.2051 38.2667C76.8231 37.032 79.3044 34.2586 79.3044 34.2586C79.6122 34.0631 80.1046 34.7534 80.4703 35.3822C80.7466 35.8577 80.953 36.2995 80.953 36.2995C80.953 36.2995 84.0402 37.6367 84.5025 38.3512C84.9647 39.0656 84.8887 40.538 84.9406 40.6153C84.9925 40.6925 85.4595 41.5217 85.2531 42.1903Z" fill="#585B8A"/>
<path opacity="0.1" d="M77.9732 39.0777C77.9732 39.0777 78.2049 40.4414 77.6111 40.853C77.0378 41.2513 72.7703 49.6427 72.5048 50.1665C72.6122 49.3603 72.6846 48.8534 72.6846 48.8534L74.0351 43.8376C74.0351 43.8376 75.6958 39.6051 76.3125 38.3692C76.9292 37.1334 79.413 34.3612 79.413 34.3612C79.7207 34.1656 80.2119 34.856 80.5776 35.4848C80.0261 36.6301 78.8759 38.7953 77.9732 39.0777Z" fill="black"/>
<path d="M77.8706 38.9751C77.8706 38.9751 78.1011 40.3389 77.5085 40.7504C76.9159 41.162 72.6689 49.539 72.3998 50.0628C72.5072 49.2578 72.5796 48.7509 72.5796 48.7509L73.9301 43.7339C73.9301 43.7339 75.5896 39.5013 76.2075 38.2667C76.8254 37.032 79.3068 34.2586 79.3068 34.2586C79.6145 34.0631 80.1069 34.7534 80.4726 35.3822C79.9235 36.5264 78.7721 38.6927 77.8706 38.9751Z" fill="#585B8A"/>
<path d="M83.9931 51.2986L82.5412 58.8525V58.8537L82.4024 59.5766V59.5778L82.0898 61.2035L80.7562 60.9211L80.1347 60.7895L71.5332 58.9672L70.9008 58.8332L69.4574 58.5279L69.7398 56.6524L69.8569 55.8727L70.8984 48.9573L83.9931 51.2986Z" fill="#FBAC2A"/>
<path d="M75.9661 57.4731C75.9661 57.4731 72.5446 58.7078 73.2905 60.1741C74.0363 61.6405 78.8216 59.0421 78.8216 59.0421L75.9661 57.4731Z" fill="#D28690"/>
<path opacity="0.1" d="M78.4101 67.9946C78.4101 68.0972 78.5392 69.4103 79.0533 69.8725C79.5674 70.3348 78.4101 67.9946 78.4101 67.9946Z" fill="black"/>
<path opacity="0.1" d="M74.9632 72.6509C74.9632 72.6509 75.5799 74.349 78.0239 75.0441C80.4678 75.7393 74.9632 72.6509 74.9632 72.6509Z" fill="black"/>
<path opacity="0.1" d="M80.58 29.9367C80.5802 30.6424 80.3943 31.3356 80.0411 31.9465C79.6879 32.5574 79.1798 33.0643 78.5682 33.4162C78.3376 33.2872 78.133 33.1166 77.9647 32.9129C77.7897 32.7005 77.6533 32.4109 77.7583 32.1574C77.8428 31.9535 78.0661 31.8243 78.1204 31.6131C78.146 31.484 78.1394 31.3505 78.1011 31.2245C78.0564 31.0254 78.0142 30.8262 77.9708 30.6283C77.9333 30.4593 77.867 30.2602 77.6992 30.2192C77.5314 30.1781 77.3915 30.3181 77.2599 30.4219C76.9377 30.6766 76.3197 30.8492 75.9323 30.6404C75.5449 30.4316 75.6535 29.7328 75.5908 29.355C75.59 29.3222 75.582 29.29 75.5674 29.2606C75.5528 29.2312 75.532 29.2053 75.5063 29.1849C75.4499 29.1661 75.3897 29.162 75.3313 29.1728C75.1225 29.1728 74.9547 28.9857 74.8944 28.7854C74.8516 28.5808 74.8282 28.3728 74.8244 28.1638C74.8015 27.955 74.7254 27.7342 74.5468 27.6268C74.4041 27.5603 74.2459 27.5345 74.0894 27.5519L73.3327 27.5604C73.8347 26.8817 74.5379 26.3786 75.3423 26.1225C76.1466 25.8664 77.0113 25.8705 77.8133 26.134C78.6152 26.3976 79.3137 26.9073 79.8093 27.5907C80.3049 28.274 80.5725 29.0962 80.574 29.9404L80.58 29.9367Z" fill="black"/>
<path d="M77.3673 30.4219C77.4988 30.3181 77.6437 30.1805 77.8066 30.2203C77.9695 30.2602 78.0395 30.4617 78.0769 30.6283L78.2073 31.2233C78.2458 31.3496 78.2529 31.4834 78.2278 31.6131C78.1662 31.8255 77.9442 31.9534 77.8585 32.1574C77.7535 32.4108 77.8911 32.7005 78.0649 32.9117C78.3819 33.2937 78.8201 33.5557 79.3067 33.6539C79.4338 33.6844 79.5659 33.6873 79.6942 33.6624C79.9814 33.596 80.1769 33.3317 80.3314 33.0843C81.1291 31.8412 81.8159 30.4786 81.9559 29.0086C81.9943 28.7088 81.9804 28.4046 81.9148 28.1095C81.8494 27.8801 81.7571 27.6593 81.6397 27.4517C81.4342 27.0276 81.1733 26.6327 80.8636 26.2774C80.3145 25.6861 79.5566 25.3228 78.7781 25.108C77.9025 24.865 76.9883 24.7933 76.0856 24.8968C75.8442 24.9245 75.6125 24.9643 75.3747 24.98C75.0762 24.9939 74.7771 24.9891 74.4792 24.9656L72.7027 24.8593C72.6013 25.0657 72.7027 25.3107 72.8233 25.5038C72.944 25.6969 73.0937 25.8973 73.084 26.1266C73.0744 26.3559 72.9114 26.5369 72.7859 26.73C72.6604 26.9231 72.5651 27.1729 72.6906 27.3612C72.8161 27.5495 73.072 27.5616 73.294 27.5591L74.1895 27.5495C74.3455 27.5335 74.5029 27.5606 74.6445 27.6279C74.8232 27.7354 74.8992 27.9574 74.9221 28.165C74.9271 28.3738 74.9506 28.5818 74.9921 28.7866C75.0537 28.9869 75.2202 29.1764 75.429 29.174C75.4875 29.1623 75.548 29.1669 75.604 29.1872C75.6296 29.2075 75.6505 29.2331 75.6651 29.2623C75.6797 29.2915 75.6877 29.3236 75.6885 29.3562C75.7513 29.734 75.6354 30.4315 76.03 30.6415C76.4247 30.8515 77.045 30.6765 77.3673 30.4219Z" fill="#663D5C"/>
<path opacity="0.1" d="M82.4688 38.3499C82.0251 38.3027 81.5785 38.4079 81.2024 38.648C80.8263 38.8882 80.543 39.249 80.399 39.6714C79.9163 41.0461 79.1113 43.5262 79.3128 44.5062C79.5964 45.8953 79.9307 48.2113 79.9307 48.2113C79.9307 48.2113 81.3971 49.0561 80.6549 49.9082C79.9126 50.7603 79.7026 51.9672 79.7026 51.9672C79.7026 51.9672 78.7504 52.3787 78.5452 53.2537C78.3401 54.1287 76.9497 55.3368 76.9497 55.3368L74.8666 57.4211C74.8666 57.4211 78.3135 60.921 79.0087 61.0996L81.1437 58.6038L83.6649 55.2595L85.8517 52.9665C85.8517 52.9665 86.3659 51.7596 86.1088 49.4665C85.8517 47.1734 84.8476 44.9902 84.8476 44.9902L84.9248 44.2177C84.9248 44.2177 85.1614 38.6842 82.4688 38.3499Z" fill="black"/>
<path d="M82.674 38.3499C82.2306 38.3033 81.7846 38.4087 81.409 38.6488C81.0334 38.8889 80.7504 39.2495 80.6066 39.6714C80.1238 41.0461 79.3188 43.5262 79.5204 44.5062C79.8028 45.8953 80.1371 48.2113 80.1371 48.2113C80.1371 48.2113 81.6034 49.0561 80.8612 49.9082C80.119 50.7603 79.9102 51.9671 79.9102 51.9671C79.9102 51.9671 78.958 52.3787 78.7516 53.2537C78.5452 54.1287 77.1573 55.3368 77.1573 55.3368L75.073 57.4211C75.073 57.4211 78.5199 60.921 79.215 61.0996L81.35 58.6038L83.8651 55.2595L86.052 52.9664C86.052 52.9664 86.5674 51.7596 86.3091 49.4665C86.0508 47.1734 85.0491 44.9902 85.0491 44.9902L85.1263 44.2177C85.1263 44.2177 85.3665 38.6842 82.674 38.3499Z" fill="#585B8A"/>
<path opacity="0.1" d="M80.5197 46.179C80.5197 46.179 82.7066 48.8534 83.6335 48.262C84.5604 47.6707 80.5197 46.179 80.5197 46.179Z" fill="black"/>
<path opacity="0.1" d="M81.3428 44.1201C81.5745 44.1974 83.479 46.8477 84.4566 46.5339C85.4341 46.2201 81.3428 44.1201 81.3428 44.1201Z" fill="black"/>
<path opacity="0.1" d="M81.8835 48.6724C81.8835 48.6724 82.0126 50.1906 83.5816 49.9843C85.1505 49.7779 81.8835 48.6724 81.8835 48.6724Z" fill="black"/>
<path opacity="0.1" d="M74.9499 36.4275L74.1015 38.3187L75.1611 37.2433L74.9499 36.4275Z" fill="black"/>
<path d="M74.9499 36.3247L74.1015 38.2159L75.1611 37.1406L74.9499 36.3247Z" fill="#F0F3F7"/>
<path opacity="0.3" d="M71.5332 58.9673L70.9008 58.8333L69.7398 56.6525L69.8569 55.8728L71.5332 58.9673Z" fill="black"/>
<path opacity="0.3" d="M82.5412 58.8538L82.4024 59.5767V59.5779L80.7562 60.9212L80.1347 60.7896L82.5412 58.8538Z" fill="black"/>
<path opacity="0.1" d="M56.604 50.4139C56.2854 50.467 55.9764 50.5153 55.694 50.5515C54.1251 50.7579 50.3934 48.9053 50.3934 48.9053C50.3934 48.9053 45.8398 45.0976 44.5279 41.4962C43.2161 37.8949 46.0969 37.3542 46.0969 37.3542C47.1831 36.7363 49.545 38.4597 49.8793 38.7433C50.2136 39.027 50.4972 39.7463 50.4706 40.2097C50.4441 40.6731 51.2431 41.2645 51.2431 41.2645C51.2431 41.2645 52.6068 43.6312 52.9411 43.8883C53.2754 44.1453 53.3527 44.3771 53.4553 44.8152C53.5579 45.2533 54.4582 45.6129 54.8444 45.5864C55.2306 45.5598 55.6892 45.7155 55.6892 45.9207C55.6892 46.086 56.067 46.1681 56.3771 46.1946C56.4689 47.5138 56.5594 49.242 56.604 50.4139Z" fill="black"/>
<path opacity="0.1" d="M56.5896 50.0375C56.3482 50.0761 56.1165 50.1111 55.8992 50.1401C54.3303 50.3465 50.5998 48.4939 50.5998 48.4939C50.5998 48.4939 46.0462 44.6862 44.7343 41.0849C43.4225 37.4835 46.3033 36.9428 46.3033 36.9428C47.3895 36.3249 49.7502 38.0484 50.0845 38.332C50.4188 38.6156 50.7024 39.3349 50.677 39.7983C50.6517 40.2618 51.4482 40.8531 51.4482 40.8531C51.4482 40.8531 52.812 43.2198 53.1463 43.4769C53.4806 43.734 53.5579 43.9657 53.6617 44.4038C53.7655 44.8419 54.6646 45.2003 55.0508 45.175C55.437 45.1496 55.8956 45.3041 55.8956 45.5093C55.8956 45.63 56.1104 45.7108 56.3494 45.7507C56.3591 45.8907 56.3675 46.0391 56.3784 46.1936C56.458 47.38 56.5401 48.8934 56.5896 50.0375Z" fill="black"/>
<path opacity="0.1" d="M62.5576 47.4463L62.4599 49.7587H62.3549L62.1376 49.638L62.1642 47.6454C62.291 47.5708 62.4224 47.5043 62.5576 47.4463Z" fill="black"/>
<path d="M46.0969 37.148C46.0969 37.148 43.2161 37.6887 44.5279 41.29C45.8398 44.8914 50.3934 48.7003 50.3934 48.7003C50.3934 48.7003 54.1239 50.5517 55.694 50.3465C57.2642 50.1413 59.655 49.6007 59.964 49.6779C60.273 49.7551 62.3572 49.7551 62.3572 49.7551L62.4598 47.3414L60.0461 47.2122L58.8114 46.9552C58.8114 46.9552 58.3733 46.5931 58.1163 46.6462C57.8592 46.6993 57.3197 46.3372 57.3197 46.3372C57.3197 46.3372 56.907 46.0029 56.5956 46.0029C56.2842 46.0029 55.6953 45.9257 55.6953 45.7205C55.6953 45.5154 55.2318 45.3585 54.8504 45.3862C54.4691 45.414 53.5579 45.0519 53.4516 44.609C53.3454 44.1661 53.2718 43.9404 52.9375 43.6833C52.6032 43.4262 51.2394 41.0583 51.2394 41.0583C51.2394 41.0583 50.4417 40.467 50.467 40.0047C50.4924 39.5425 50.21 38.8208 49.8757 38.5371C49.5413 38.2535 47.1759 36.5313 46.0969 37.148Z" fill="#DCE6F2"/>
<path opacity="0.1" d="M53.5072 45.4319C53.5072 45.4319 52.4005 46.5386 52.6829 46.7438L53.5072 45.4319Z" fill="black"/>
<path opacity="0.1" d="M54.69 46.3069C54.69 46.3069 53.249 47.4136 53.6352 47.4908C54.0214 47.5681 54.69 46.3069 54.69 46.3069Z" fill="black"/>
<path opacity="0.1" d="M52.2448 47.9482C52.4512 48.052 55.5118 49.8793 56.6705 49.8527L52.2448 47.9482Z" fill="black"/>
<path opacity="0.1" d="M52.4524 35.7334C52.4524 35.7334 51.9117 37.5087 51.7054 37.5087C51.5436 37.5087 48.8282 35.3098 47.6949 34.3853L47.7444 34.3443C47.7444 34.3443 47.847 33.5465 48.2585 33.1374C48.6701 32.7283 52.4524 35.7334 52.4524 35.7334Z" fill="black"/>
<path d="M52.3486 35.5271C52.3486 35.5271 51.8091 37.3024 51.6027 37.3024C51.4398 37.3024 48.7243 35.1035 47.591 34.179L47.6405 34.138C47.6405 34.138 47.7443 33.3402 48.1559 32.9311C48.5674 32.522 52.3486 35.5271 52.3486 35.5271Z" fill="#DCE6F2"/>
<g opacity="0.15">
<path opacity="0.15" d="M45.0626 29.7896C45.4247 30.6163 46.4216 31.017 46.9997 31.6759C46.6557 30.8661 45.6504 30.469 45.0626 29.7896Z" fill="black"/>
<path opacity="0.15" d="M48.7521 31.6939C48.6084 31.9703 48.2693 32.1043 47.9603 32.0982C47.6857 32.0785 47.4167 32.0099 47.1662 31.8955C47.2571 32.0294 47.3263 32.1769 47.3714 32.3324C47.6531 32.4678 47.9576 32.5496 48.2693 32.5737C48.5819 32.581 48.9174 32.447 49.061 32.1694C49.2915 31.7289 49.0514 31.3524 48.7702 30.9963C48.8226 31.1057 48.8483 31.226 48.8451 31.3473C48.842 31.4686 48.8101 31.5874 48.7521 31.6939Z" fill="black"/>
<path opacity="0.15" d="M53.2309 25.645C53.179 25.4133 53.0028 25.2311 52.9122 25.0126C52.8568 24.8436 52.8129 24.671 52.7807 24.4961C52.7121 24.2487 52.585 24.0214 52.4102 23.8335C52.4345 23.8929 52.455 23.9538 52.4717 24.0157C52.5056 24.1915 52.5507 24.3648 52.6069 24.5347C52.6974 24.7531 52.8736 24.9354 52.9255 25.1671C52.9561 25.3308 52.9232 25.5 52.8336 25.6403C52.7439 25.7807 52.6042 25.8816 52.4428 25.9226C51.9962 26.0204 51.4869 25.6342 51.1031 25.8828C50.8678 26.0336 50.8135 26.3486 50.7821 26.6262C50.7282 27.109 50.6735 27.5889 50.618 28.066C50.6071 28.2353 50.5713 28.402 50.5117 28.5609C50.3223 28.9953 49.8021 29.1993 49.3278 29.1921C49.1425 29.2044 48.9597 29.1438 48.8185 29.0231C48.7499 28.9259 48.6761 28.8325 48.5976 28.7431C47.9942 28.2362 47.8107 29.4757 47.97 29.8293C48.0498 29.9884 48.1487 30.1371 48.2645 30.2722C48.1318 29.8739 48.3176 28.7274 48.9066 29.2186C48.9851 29.3077 49.0584 29.4012 49.1262 29.4986C49.268 29.6191 49.4511 29.6797 49.6368 29.6676C50.1111 29.6748 50.6312 29.4708 50.8207 29.0364C50.8804 28.8772 50.9161 28.71 50.9269 28.5403C50.9816 28.0576 51.0363 27.578 51.0911 27.1017C51.1224 26.8241 51.1767 26.5092 51.4109 26.3583C51.7959 26.1097 52.3052 26.4959 52.7517 26.3969C52.9119 26.3554 53.0503 26.2548 53.1392 26.1152C53.2281 25.9757 53.2609 25.8077 53.2309 25.645Z" fill="black"/>
</g>
<path opacity="0.1" d="M79.9513 33.3546C79.8229 33.3785 79.6909 33.3752 79.5639 33.3449C79.0779 33.2467 78.6401 32.9853 78.3232 32.6039C78.1482 32.3915 78.0106 32.1018 78.1168 31.8484C78.2013 31.6444 78.4234 31.5165 78.4789 31.3041C78.504 31.1744 78.4969 31.0406 78.4584 30.9143L78.328 30.3193C78.2906 30.1503 78.2254 29.9512 78.0577 29.9113C77.8899 29.8715 77.7499 30.0091 77.6184 30.1129C77.2961 30.3675 76.677 30.5413 76.2908 30.3313C75.9046 30.1213 76.012 29.4238 75.9492 29.046C75.9482 29.0134 75.9401 28.9814 75.9255 28.9523C75.9109 28.9231 75.8902 28.8974 75.8648 28.877C75.8082 28.8573 75.7474 28.8528 75.6885 28.8638C75.4798 28.8638 75.3132 28.6767 75.2517 28.4764C75.2098 28.2717 75.1868 28.0637 75.1829 27.8548C75.1587 27.6472 75.0839 27.4252 74.9041 27.3177C74.7623 27.251 74.605 27.2239 74.4491 27.2393L73.5536 27.2489C73.3327 27.2489 73.0708 27.2345 72.9501 27.051C72.8294 26.8676 72.9187 26.6069 73.0455 26.4198C73.1722 26.2328 73.3327 26.0469 73.3436 25.8164C73.3544 25.5859 73.2048 25.3867 73.0829 25.1936C73.013 25.088 72.9616 24.9713 72.9308 24.8485L72.6737 24.8328C72.5736 25.0379 72.6737 25.2829 72.7944 25.4772C72.9151 25.6715 73.066 25.8707 73.0551 26.0988C73.0442 26.3269 72.8837 26.5103 72.757 26.7022C72.6303 26.8941 72.5374 27.1452 72.6629 27.3334C72.7884 27.5217 73.043 27.535 73.2663 27.5326L74.1618 27.5217C74.3179 27.5066 74.4752 27.5341 74.6168 27.6014C74.7967 27.7088 74.8727 27.9308 74.8956 28.1384C74.8994 28.3473 74.9229 28.5554 74.9656 28.76C75.026 28.9591 75.1937 29.1498 75.4025 29.1462C75.461 29.1358 75.5212 29.1404 75.5775 29.1595C75.6031 29.18 75.6238 29.2059 75.6384 29.2353C75.653 29.2646 75.6611 29.2968 75.662 29.3296C75.7248 29.7062 75.6089 30.405 76.0035 30.615C76.3982 30.825 77.0137 30.6512 77.3311 30.3965C77.4627 30.2927 77.6087 30.1551 77.7716 30.1938C77.9346 30.2324 78.0046 30.4351 78.0408 30.6017L78.1723 31.1979C78.2105 31.3243 78.2172 31.4581 78.1916 31.5877C78.1313 31.7989 77.908 31.928 77.8235 32.1308C77.7185 32.3842 77.8549 32.6751 78.0299 32.8863C78.3489 33.2693 78.79 33.531 79.279 33.6273C79.4061 33.6576 79.5381 33.6609 79.6665 33.637C79.8739 33.5738 80.052 33.4385 80.1685 33.2556C80.1026 33.3013 80.029 33.3348 79.9513 33.3546Z" fill="black"/>
<path opacity="0.1" d="M24.583 86.6555C26.194 86.6555 27.5 86.455 27.5 86.2078C27.5 85.9605 26.194 85.76 24.583 85.76C22.972 85.76 21.666 85.9605 21.666 86.2078C21.666 86.455 22.972 86.6555 24.583 86.6555Z" fill="#FBAC2A"/>
<path opacity="0.1" d="M126.434 75.0139C128.045 75.0139 129.351 74.8135 129.351 74.5662C129.351 74.3189 128.045 74.1184 126.434 74.1184C124.823 74.1184 123.517 74.3189 123.517 74.5662C123.517 74.8135 124.823 75.0139 126.434 75.0139Z" fill="#E9B81C"/>
<path opacity="0.1" d="M96.6956 93.9051C101.361 93.9051 105.144 93.3248 105.144 92.6089C105.144 91.8931 101.361 91.3127 96.6956 91.3127C92.0297 91.3127 88.2474 91.8931 88.2474 92.6089C88.2474 93.3248 92.0297 93.9051 96.6956 93.9051Z" fill="#FBAC2A"/>
<path opacity="0.1" d="M120.711 88.1292C124.351 88.1292 127.301 87.6764 127.301 87.1178C127.301 86.5593 124.351 86.1064 120.711 86.1064C117.072 86.1064 114.122 86.5593 114.122 87.1178C114.122 87.6764 117.072 88.1292 120.711 88.1292Z" fill="#FBAC2A"/>
<path opacity="0.1" d="M119.626 98.9102C125.798 98.9102 130.801 98.1424 130.801 97.1952C130.801 96.2481 125.798 95.4802 119.626 95.4802C113.455 95.4802 108.452 96.2481 108.452 97.1952C108.452 98.1424 113.455 98.9102 119.626 98.9102Z" fill="#FBAC2A"/>
<path opacity="0.1" d="M12.0978 99.9999C16.7636 99.9999 20.546 99.4195 20.546 98.7037C20.546 97.9878 16.7636 97.4075 12.0978 97.4075C7.43201 97.4075 3.64963 97.9878 3.64963 98.7037C3.64963 99.4195 7.43201 99.9999 12.0978 99.9999Z" fill="#FBAC2A"/>
<path d="M24.7158 71.9473C24.7158 71.9473 25.0465 72.3793 24.5637 73.0335C24.081 73.6876 23.6827 74.2403 23.8396 74.6434C23.8396 74.6434 24.5637 73.4366 25.1672 73.4148C25.7706 73.3931 25.3687 72.6762 24.7158 71.9473Z" fill="#FBAC2A"/>
<path opacity="0.1" d="M24.7157 71.9473C24.7452 71.9885 24.768 72.0341 24.7833 72.0824C25.3626 72.7631 25.6704 73.3967 25.114 73.41C24.5963 73.4245 23.9747 74.3514 23.8263 74.5855C23.8308 74.6035 23.8364 74.6213 23.8432 74.6386C23.8432 74.6386 24.5673 73.4317 25.1707 73.41C25.7742 73.3883 25.3687 72.6762 24.7157 71.9473Z" fill="black"/>
<path d="M25.3313 72.4974C25.3313 72.6495 25.3132 72.7726 25.2927 72.7726C25.2721 72.7726 25.254 72.6519 25.254 72.4974C25.254 72.3429 25.2758 72.4178 25.2963 72.4178C25.3168 72.4178 25.3313 72.3454 25.3313 72.4974Z" fill="#FFD037"/>
<path d="M25.5413 72.6797C25.4085 72.7521 25.2915 72.8004 25.2818 72.7775C25.2721 72.7546 25.3711 72.6858 25.5051 72.6122C25.639 72.5385 25.5859 72.5928 25.5956 72.6122C25.6052 72.6315 25.6752 72.6061 25.5413 72.6797Z" fill="#FFD037"/>
<path d="M22.9706 71.9473C22.9706 71.9473 22.64 72.3793 23.1227 73.0335C23.6055 73.6876 24.0049 74.2403 23.8468 74.6434C23.8468 74.6434 23.1227 73.4366 22.5253 73.4148C21.9279 73.3931 22.3141 72.6762 22.9706 71.9473Z" fill="#FBAC2A"/>
<path opacity="0.1" d="M22.9706 71.9473C22.9418 71.9889 22.919 72.0344 22.903 72.0824C22.3237 72.7631 22.016 73.3967 22.5723 73.41C23.0901 73.4245 23.7116 74.3514 23.8613 74.5855C23.8563 74.6036 23.8503 74.6213 23.8432 74.6386C23.8432 74.6386 23.119 73.4317 22.5216 73.41C21.9242 73.3883 22.3141 72.6762 22.9706 71.9473Z" fill="black"/>
<path d="M22.3563 72.4974C22.3563 72.6495 22.3732 72.7726 22.3937 72.7726C22.4143 72.7726 22.4324 72.6519 22.4324 72.4974C22.4324 72.3429 22.4106 72.4178 22.3901 72.4178C22.3696 72.4178 22.3563 72.3454 22.3563 72.4974Z" fill="#FFD037"/>
<path d="M22.1451 72.6797C22.279 72.7521 22.3949 72.8004 22.4058 72.7775C22.4166 72.7546 22.3153 72.6858 22.1813 72.6122C22.0473 72.5385 22.1004 72.5928 22.0908 72.6122C22.0811 72.6315 22.0111 72.6061 22.1451 72.6797Z" fill="#FFD037"/>
<path opacity="0.1" d="M23.8432 77.9478C25.7516 77.9478 27.2985 77.7106 27.2985 77.418C27.2985 77.1254 25.7516 76.8882 23.8432 76.8882C21.9349 76.8882 20.3879 77.1254 20.3879 77.418C20.3879 77.7106 21.9349 77.9478 23.8432 77.9478Z" fill="#FBAC2A"/>
<path d="M25.6222 74.0592L25.6053 74.1944L25.5823 74.3851L25.5727 74.4647L25.5498 74.6554L25.5389 74.7351L25.516 74.9258L25.2517 77.0982C25.2287 77.2913 24.9125 77.4421 24.5275 77.4421H23.1589C22.7775 77.4421 22.4613 77.2913 22.4348 77.0982L22.1705 74.9258L22.1476 74.7351L22.1379 74.6554L22.1138 74.4647L22.1041 74.3851L22.0812 74.1944L22.0643 74.0592C22.051 73.9494 22.2224 73.8577 22.4384 73.8577H25.2492C25.4641 73.8577 25.6354 73.9494 25.6222 74.0592Z" fill="#65617D"/>
<path d="M25.6053 74.1943L25.5824 74.385H22.1041L22.0812 74.1943H25.6053Z" fill="#9D9CB5"/>
<path d="M25.5727 74.4648L25.5497 74.6555H22.1379L22.1137 74.4648H25.5727Z" fill="#9D9CB5"/>
<path d="M25.5401 74.7351L25.5159 74.9258H22.1704L22.1475 74.7351H25.5401Z" fill="#9D9CB5"/>
<path d="M124.135 70.2756C124.135 70.2756 123.723 72.197 125.558 72.4239L125.672 72.2103C125.672 72.2103 124.249 70.8718 124.135 70.2756Z" fill="#E9B81C"/>
<path d="M126.256 72.1945L125.829 72.285L125.786 72.2946C125.786 72.2946 124.647 71.3702 124.661 69.3064C124.814 69.6107 124.996 69.899 125.206 70.1669C125.657 70.7643 126.17 71.5609 126.256 72.1945Z" fill="#E9B81C"/>
<path d="M126.399 72.3926C126.366 72.4144 126.328 72.4284 126.288 72.4337C126.248 72.4389 126.208 72.4351 126.17 72.4227C125.074 72.1669 125.446 68.5957 125.446 68.5957C125.506 68.6235 125.567 69.0785 125.825 69.665C126.265 70.6945 126.752 72.1343 126.399 72.3926Z" fill="#E9B81C"/>
<path d="M128.83 70.2756C128.83 70.2756 128.901 72.197 127.066 72.4239L126.951 72.2067C126.951 72.2067 128.717 70.8718 128.83 70.2756Z" fill="#E9B81C"/>
<path d="M128.304 69.3101C128.318 71.3738 126.839 72.2983 126.839 72.2983L126.795 72.2887L126.369 72.1981C126.454 71.5645 126.973 70.768 127.418 70.1706C127.674 69.8456 127.972 69.5562 128.304 69.3101Z" fill="#E9B81C"/>
<path d="M126.789 72.2067C126.724 72.2869 126.642 72.351 126.548 72.3938C126.519 72.4069 126.488 72.417 126.457 72.424C126.188 72.4867 126.095 72.2924 126.11 71.9617C126.135 71.374 126.504 70.3541 126.834 69.5902C126.993 69.2154 127.227 68.8773 127.522 68.5969C127.522 68.5969 127.505 71.3764 126.789 72.2067Z" fill="#E9B81C"/>
<path d="M126.483 67.343C126.483 67.343 125.259 71.6878 126.312 72.3371C127.366 72.9864 126.753 67.7268 126.483 67.343Z" fill="#E9B81C"/>
<path opacity="0.1" d="M124.135 70.2756C124.135 70.2756 123.723 72.197 125.558 72.4239L125.672 72.2103C125.672 72.2103 124.249 70.8718 124.135 70.2756Z" fill="black"/>
<path opacity="0.1" d="M126.256 72.1945L125.829 72.285L125.786 72.2946C125.786 72.2946 124.647 71.3702 124.661 69.3064C124.814 69.6107 124.996 69.899 125.206 70.1669C125.657 70.7643 126.17 71.5609 126.256 72.1945Z" fill="black"/>
<path opacity="0.1" d="M126.399 72.3926C126.366 72.4144 126.328 72.4284 126.288 72.4337C126.248 72.4389 126.208 72.4351 126.17 72.4227C125.074 72.1669 125.446 68.5957 125.446 68.5957C125.506 68.6235 125.567 69.0785 125.825 69.665C126.265 70.6945 126.752 72.1343 126.399 72.3926Z" fill="black"/>
<path opacity="0.1" d="M128.83 70.2756C128.83 70.2756 128.901 72.197 127.066 72.4239L126.951 72.2067C126.951 72.2067 128.717 70.8718 128.83 70.2756Z" fill="black"/>
<path opacity="0.1" d="M128.304 69.3101C128.318 71.3738 126.839 72.2983 126.839 72.2983L126.795 72.2887L126.369 72.1981C126.454 71.5645 126.973 70.768 127.418 70.1706C127.674 69.8456 127.972 69.5562 128.304 69.3101Z" fill="black"/>
<path opacity="0.1" d="M126.789 72.2067C126.724 72.2869 126.642 72.351 126.548 72.3938C126.519 72.4069 126.488 72.417 126.457 72.424C126.188 72.4867 126.095 72.2924 126.11 71.9617C126.135 71.374 126.504 70.3541 126.834 69.5902C126.993 69.2154 127.227 68.8773 127.522 68.5969C127.522 68.5969 127.505 71.3764 126.789 72.2067Z" fill="black"/>
<path opacity="0.1" d="M126.483 67.343C126.483 67.343 125.259 71.6878 126.312 72.3371C127.366 72.9864 126.753 67.7268 126.483 67.343Z" fill="black"/>
<path d="M124.135 70.2756C124.135 70.2756 123.894 72.197 125.728 72.4239L125.842 72.2103C125.842 72.2103 124.249 70.8718 124.135 70.2756Z" fill="#E9B81C"/>
<path d="M126.426 72.1945L125.999 72.285L125.956 72.2947C125.956 72.2947 124.647 71.3702 124.658 69.3101C124.658 69.3101 124.993 69.6721 125.372 70.1706C125.827 70.7644 126.34 71.5609 126.426 72.1945Z" fill="#FBAC2A"/>
<path opacity="0.1" d="M126.426 72.1946L125.999 72.2851C125.594 71.9302 125.434 71.0034 125.376 70.167C125.827 70.7644 126.34 71.5609 126.426 72.1946Z" fill="black"/>
<path d="M126.571 72.3926C126.537 72.4144 126.499 72.4285 126.459 72.4337C126.419 72.4389 126.378 72.4352 126.34 72.4227C125.244 72.1669 125.445 68.5957 125.445 68.5957C125.505 68.6235 125.742 69.0785 125.994 69.665C126.437 70.6945 126.922 72.1343 126.571 72.3926Z" fill="#FBAC2A"/>
<path d="M128.83 70.2756C128.83 70.2756 129.071 72.197 127.237 72.4239L127.124 72.2103C127.124 72.2103 128.717 70.8718 128.83 70.2756Z" fill="#FBAC2A"/>
<path d="M128.304 69.3101C128.318 71.3738 127.009 72.2983 127.009 72.2983L126.967 72.2887L126.539 72.1981C126.624 71.5645 127.143 70.768 127.589 70.1706C127.968 69.6721 128.304 69.3101 128.304 69.3101Z" fill="#FBAC2A"/>
<path opacity="0.1" d="M127.589 70.167C127.534 70.9466 127.391 71.8047 127.045 72.2054C127.021 72.2343 126.995 72.261 126.967 72.2851L126.539 72.1946C126.624 71.5609 127.138 70.7644 127.589 70.167Z" fill="black"/>
<path d="M126.959 72.2067C126.895 72.2873 126.812 72.3514 126.718 72.3938C126.689 72.4067 126.659 72.4168 126.629 72.424C126.358 72.4867 126.267 72.2924 126.28 71.9617C126.306 71.374 126.676 70.3541 127.004 69.5902C127.245 69.0411 127.464 68.6247 127.522 68.5969C127.522 68.5957 127.675 71.3764 126.959 72.2067Z" fill="#FBAC2A"/>
<path opacity="0.1" d="M126.571 72.3926C126.508 72.3933 126.447 72.3738 126.397 72.3371C125.882 72.016 125.871 70.8116 125.994 69.665C126.437 70.6945 126.922 72.1343 126.571 72.3926Z" fill="black"/>
<path opacity="0.1" d="M126.959 72.2066C126.9 72.3357 126.821 72.4033 126.718 72.3937C126.666 72.3873 126.615 72.3683 126.572 72.3381C126.438 72.2462 126.336 72.1145 126.28 71.9616C126.306 71.3738 126.676 70.354 127.004 69.5901C127.122 70.6485 127.162 71.7709 126.959 72.2066Z" fill="black"/>
<path d="M126.483 67.343C126.483 67.343 125.43 71.6878 126.483 72.3371C127.535 72.9864 126.753 67.7268 126.483 67.343Z" fill="#FBAC2A"/>
<path d="M128.503 72.1245H124.121V72.8499H124.789L124.806 72.9355L125.074 74.344H127.622L127.89 72.9355L127.906 72.8499H128.503V72.1245Z" fill="#4B4770"/>
<path opacity="0.1" d="M128.503 72.1245H124.121V72.8499H124.789L124.806 72.9355L125.074 74.344H127.622L127.89 72.9355L127.906 72.8499H128.503V72.1245Z" fill="black"/>
<path d="M128.134 72.5505L128.06 72.9355L127.792 74.344H125.244L124.976 72.9355L124.903 72.5505H128.134Z" fill="#4B4770"/>
<path opacity="0.1" d="M128.134 72.5505L128.06 72.9355H124.976L124.903 72.5505H128.134Z" fill="black"/>
<path d="M128.673 72.1245H124.291V72.8499H128.673V72.1245Z" fill="#4B4770"/>
<path d="M16.8228 84.5362C16.7072 84.6955 16.6146 84.8702 16.5476 85.0552C16.5307 85.0998 16.5138 85.1517 16.4969 85.2012C16.4663 85.1869 16.4344 85.1756 16.4016 85.1674C16.2609 85.1319 16.1153 85.1197 15.9707 85.1312C15.9707 85.0745 15.9779 85.0105 15.9792 84.9538C15.9973 84.3178 15.9224 83.4319 15.3154 83.8073C14.7336 84.1693 15.1488 84.7728 15.5242 85.159C15.5567 85.1928 15.5893 85.2241 15.6207 85.2543C15.278 85.4957 15.2128 86.0665 15.1561 86.6591C15.0993 87.2517 14.5961 87.8998 14.2618 88.2679C14.228 88.3053 14.1978 88.3391 14.1676 88.3705C14.0325 88.2626 13.876 88.1846 13.7086 88.1416C13.5411 88.0985 13.3665 88.0914 13.1961 88.1207C13.1828 88.0688 13.1671 88.0145 13.1514 87.9577C12.8811 86.9814 12.3199 85.2905 11.6042 84.92L11.6983 84.7993C12.0025 84.4023 12.3452 83.8109 11.8395 83.66C11.3339 83.5092 11.288 84.1717 11.3158 84.669C11.3206 84.7317 11.3254 84.7909 11.3302 84.8464C11.2291 84.851 11.1301 84.8763 11.0392 84.9207C10.9482 84.9651 10.8674 85.0277 10.8016 85.1047L10.7232 85.0117C10.3128 84.529 9.56095 83.7602 9.33285 84.3407C9.12043 84.8814 9.78301 85.5838 10.2489 85.9905L10.2778 86.0159C9.96525 87.2843 11.3302 88.3186 12.0652 88.7712L12.1606 88.8291C11.1468 90.0239 10.5204 92.2639 10.5204 92.2639L13.359 92.7708C13.359 92.7708 15.2417 91.1463 15.0004 89.6208H15.0197C16.9012 89.2443 17.3284 87.2384 17.0352 86.0472L17.069 86.034C17.4118 85.8938 17.7121 85.6667 17.9403 85.375C18.4665 84.6448 17.3659 83.8193 16.8228 84.5362Z" fill="#E9B81C"/>
<path opacity="0.1" d="M16.8228 84.5362C16.7072 84.6955 16.6146 84.8702 16.5476 85.0552C16.5307 85.0998 16.5138 85.1517 16.4969 85.2012C16.4663 85.1869 16.4344 85.1756 16.4016 85.1674C16.2609 85.1319 16.1153 85.1197 15.9707 85.1312C15.9707 85.0745 15.9779 85.0105 15.9792 84.9538C15.9973 84.3178 15.9224 83.4319 15.3154 83.8073C14.7336 84.1693 15.1488 84.7728 15.5242 85.159C15.5567 85.1928 15.5893 85.2241 15.6207 85.2543C15.278 85.4957 15.2128 86.0665 15.1561 86.6591C15.0993 87.2517 14.5961 87.8998 14.2618 88.2679C14.228 88.3053 14.1978 88.3391 14.1676 88.3705C14.0325 88.2626 13.876 88.1846 13.7086 88.1416C13.5411 88.0985 13.3665 88.0914 13.1961 88.1207C13.1828 88.0688 13.1671 88.0145 13.1514 87.9577C12.8811 86.9814 12.3199 85.2905 11.6042 84.92L11.6983 84.7993C12.0025 84.4023 12.3452 83.8109 11.8395 83.66C11.3339 83.5092 11.288 84.1717 11.3158 84.669C11.3206 84.7317 11.3254 84.7909 11.3302 84.8464C11.2291 84.851 11.1301 84.8763 11.0392 84.9207C10.9482 84.9651 10.8674 85.0277 10.8016 85.1047L10.7232 85.0117C10.3128 84.529 9.56095 83.7602 9.33285 84.3407C9.12043 84.8814 9.78301 85.5838 10.2489 85.9905L10.2778 86.0159C9.96525 87.2843 11.3302 88.3186 12.0652 88.7712L12.1606 88.8291C11.1468 90.0239 10.5204 92.2639 10.5204 92.2639L13.359 92.7708C13.359 92.7708 15.2417 91.1463 15.0004 89.6208H15.0197C16.9012 89.2443 17.3284 87.2384 17.0352 86.0472L17.069 86.034C17.4118 85.8938 17.7121 85.6667 17.9403 85.375C18.4665 84.6448 17.3659 83.8193 16.8228 84.5362Z" fill="black"/>
<path d="M11.1721 85.3617L10.8402 86.3272C10.8402 86.3272 10.6556 86.1969 10.4226 85.9917C9.95677 85.585 9.29419 84.8826 9.5066 84.3419C9.7347 83.7614 10.4866 84.5278 10.8969 85.0129C11.0623 85.206 11.1721 85.3617 11.1721 85.3617Z" fill="#FBAC2A"/>
<path d="M11.8721 84.8005C11.7713 84.9334 11.6633 85.0607 11.5487 85.1818C11.5203 85.0124 11.5006 84.8416 11.4895 84.6701C11.4618 84.1729 11.5149 83.5127 12.0133 83.6612C12.5118 83.8096 12.1763 84.4034 11.8721 84.8005Z" fill="#FBAC2A"/>
<path d="M16.159 84.9538C16.1493 85.2737 16.1179 85.5295 16.1179 85.5295C15.9719 85.4153 15.8336 85.2915 15.704 85.159C15.3286 84.7692 14.9135 84.1681 15.4952 83.8073C16.0962 83.4307 16.171 84.3178 16.159 84.9538Z" fill="#FBAC2A"/>
<path d="M18.1142 85.3725C17.8859 85.6642 17.5856 85.8913 17.2428 86.0315C17.1476 86.0726 17.0501 86.1081 16.9507 86.1377L16.5597 85.5885C16.6007 85.4071 16.6548 85.2288 16.7214 85.0551C16.7884 84.8701 16.881 84.6954 16.9966 84.5361C17.5373 83.8193 18.6404 84.6448 18.1142 85.3725Z" fill="#FBAC2A"/>
<path opacity="0.1" d="M10.897 85.0129C11.0623 85.206 11.1721 85.3557 11.1721 85.3557L10.8402 86.3212C10.8402 86.3212 10.6556 86.1909 10.4227 85.9857C10.4744 85.6746 10.603 85.3813 10.7968 85.1324C10.8294 85.0926 10.8644 85.0516 10.897 85.0129Z" fill="black"/>
<path opacity="0.1" d="M11.8722 84.8005C11.7713 84.9334 11.6634 85.0607 11.5487 85.1819C11.5204 85.0124 11.5006 84.8416 11.4896 84.6702C11.6275 84.673 11.7612 84.7186 11.8722 84.8005Z" fill="black"/>
<path d="M13.5038 88.6578L12.6783 89.0198C12.6783 89.0198 12.4985 88.9329 12.239 88.7712C11.3712 88.2378 9.62728 86.8945 10.7907 85.3111C11.9542 83.7276 12.9354 86.5674 13.3252 87.9566C13.4422 88.379 13.5038 88.6578 13.5038 88.6578Z" fill="#FBAC2A"/>
<path opacity="0.1" d="M15.698 85.159C15.8181 85.0353 15.9807 84.9619 16.153 84.9539C16.1433 85.2737 16.1119 85.5295 16.1119 85.5295C15.966 85.4153 15.8277 85.2915 15.698 85.159Z" fill="black"/>
<path opacity="0.1" d="M17.2452 86.0315C17.15 86.0727 17.0525 86.1082 16.9531 86.1377L16.5621 85.5886C16.6031 85.4072 16.6572 85.2289 16.7238 85.0552C16.9736 85.2024 17.1595 85.5693 17.2452 86.0315Z" fill="black"/>
<path d="M15.1935 89.6185C15.1488 89.6281 15.1017 89.6366 15.0547 89.6438C12.2873 90.0638 14.1423 88.5709 14.1423 88.5709C14.1423 88.5709 14.263 88.4502 14.4355 88.268C14.7698 87.8999 15.2719 87.2554 15.3298 86.6592C15.4167 85.7625 15.5169 84.9213 16.5753 85.1675C17.6145 85.4113 17.8136 89.0935 15.1935 89.6185Z" fill="#FBAC2A"/>
<path d="M15.1416 96.5085H9.85419V97.8989H15.1416V96.5085Z" fill="#D4DFEC"/>
<path d="M15.9225 91.99H9.01426V96.8417H15.9225V91.99Z" fill="#D4DFEC"/>
<path opacity="0.1" d="M15.1416 96.5085H9.85419V97.8989H15.1416V96.5085Z" fill="black"/>
<path opacity="0.1" d="M15.9225 91.99H9.01426V96.8417H15.9225V91.99Z" fill="black"/>
<path d="M15.4891 96.5085H10.2018V97.8989H15.4891V96.5085Z" fill="#D4DFEC"/>
<path opacity="0.1" d="M13.3252 87.9578C13.4459 88.3729 13.5038 88.6578 13.5038 88.6578L12.6783 89.0198C12.6783 89.0198 12.4985 88.9329 12.239 88.7712C12.5624 88.3621 12.9269 88.0531 13.3252 87.9578Z" fill="black"/>
<path opacity="0.1" d="M15.1935 89.6183C15.1488 89.628 15.1017 89.6364 15.0547 89.6437C12.2873 90.0637 14.1423 88.5708 14.1423 88.5708C14.1423 88.5708 14.263 88.4501 14.4355 88.2678C14.9521 88.6818 15.1657 89.1476 15.1935 89.6183Z" fill="black"/>
<path d="M10.6942 92.265C10.6942 92.265 12.2438 86.7133 14.4174 88.4259C16.591 90.1384 13.5328 92.7707 13.5328 92.7707L10.6942 92.265Z" fill="#FBAC2A"/>
<path opacity="0.1" d="M11.4762 86.3549C11.5722 86.3549 11.65 86.2771 11.65 86.1811C11.65 86.0851 11.5722 86.0073 11.4762 86.0073C11.3803 86.0073 11.3025 86.0851 11.3025 86.1811C11.3025 86.2771 11.3803 86.3549 11.4762 86.3549Z" fill="black"/>
<path opacity="0.1" d="M11.4618 87.1659C11.5578 87.1659 11.6356 87.0881 11.6356 86.9922C11.6356 86.8962 11.5578 86.8184 11.4618 86.8184C11.3658 86.8184 11.288 86.8962 11.288 86.9922C11.288 87.0881 11.3658 87.1659 11.4618 87.1659Z" fill="black"/>
<path opacity="0.1" d="M16.5029 86.5143C16.5989 86.5143 16.6767 86.4365 16.6767 86.3405C16.6767 86.2446 16.5989 86.1667 16.5029 86.1667C16.4069 86.1667 16.3291 86.2446 16.3291 86.3405C16.3291 86.4365 16.4069 86.5143 16.5029 86.5143Z" fill="black"/>
<path opacity="0.1" d="M12.4478 90.6721C12.5438 90.6721 12.6216 90.5942 12.6216 90.4983C12.6216 90.4023 12.5438 90.3245 12.4478 90.3245C12.3519 90.3245 12.274 90.4023 12.274 90.4983C12.274 90.5942 12.3519 90.6721 12.4478 90.6721Z" fill="black"/>
<path opacity="0.1" d="M16.1408 87.8613C16.2368 87.8613 16.3146 87.7834 16.3146 87.6875C16.3146 87.5915 16.2368 87.5137 16.1408 87.5137C16.0449 87.5137 15.967 87.5915 15.967 87.6875C15.967 87.7834 16.0449 87.8613 16.1408 87.8613Z" fill="black"/>
<path opacity="0.1" d="M14.345 89.6581C14.441 89.6581 14.5188 89.5803 14.5188 89.4843C14.5188 89.3884 14.441 89.3105 14.345 89.3105C14.249 89.3105 14.1712 89.3884 14.1712 89.4843C14.1712 89.5803 14.249 89.6581 14.345 89.6581Z" fill="black"/>
<path opacity="0.1" d="M12.0701 86.7026C12.1661 86.7026 12.2439 86.6248 12.2439 86.5288C12.2439 86.4328 12.1661 86.355 12.0701 86.355C11.9741 86.355 11.8963 86.4328 11.8963 86.5288C11.8963 86.6248 11.9741 86.7026 12.0701 86.7026Z" fill="black"/>
<path opacity="0.1" d="M16.025 87.0356C16.121 87.0356 16.1988 86.9578 16.1988 86.8618C16.1988 86.7658 16.121 86.688 16.025 86.688C15.9291 86.688 15.8512 86.7658 15.8512 86.8618C15.8512 86.9578 15.9291 87.0356 16.025 87.0356Z" fill="black"/>
<path opacity="0.1" d="M15.4312 88.3825C15.5272 88.3825 15.605 88.3047 15.605 88.2087C15.605 88.1127 15.5272 88.0349 15.4312 88.0349C15.3352 88.0349 15.2574 88.1127 15.2574 88.2087C15.2574 88.3047 15.3352 88.3825 15.4312 88.3825Z" fill="black"/>
<path opacity="0.1" d="M13.6064 90.5417C13.7024 90.5417 13.7802 90.4639 13.7802 90.3679C13.7802 90.2719 13.7024 90.1941 13.6064 90.1941C13.5104 90.1941 13.4326 90.2719 13.4326 90.3679C13.4326 90.4639 13.5104 90.5417 13.6064 90.5417Z" fill="black"/>
<path opacity="0.1" d="M13.2298 89.6872C13.3258 89.6872 13.4036 89.6094 13.4036 89.5134C13.4036 89.4174 13.3258 89.3396 13.2298 89.3396C13.1338 89.3396 13.056 89.4174 13.056 89.5134C13.056 89.6094 13.1338 89.6872 13.2298 89.6872Z" fill="black"/>
<path opacity="0.1" d="M12.3308 87.7597C12.4267 87.7597 12.5045 87.6819 12.5045 87.5859C12.5045 87.4899 12.4267 87.4121 12.3308 87.4121C12.2348 87.4121 12.157 87.4899 12.157 87.5859C12.157 87.6819 12.2348 87.7597 12.3308 87.7597Z" fill="black"/>
<path opacity="0.1" d="M15.4891 96.5085H10.2018V97.0166H15.4891V96.5085Z" fill="black"/>
<path d="M16.27 91.99H9.36184V96.8417H16.27V91.99Z" fill="#D4DFEC"/>
<path opacity="0.1" d="M13.8381 91.3237C13.9341 91.3237 14.0119 91.2459 14.0119 91.1499C14.0119 91.0539 13.9341 90.9761 13.8381 90.9761C13.7422 90.9761 13.6644 91.0539 13.6644 91.1499C13.6644 91.2459 13.7422 91.3237 13.8381 91.3237Z" fill="black"/>
<path opacity="0.1" d="M12.7954 91.5409C12.8914 91.5409 12.9692 91.4631 12.9692 91.3671C12.9692 91.2712 12.8914 91.1934 12.7954 91.1934C12.6994 91.1934 12.6216 91.2712 12.6216 91.3671C12.6216 91.4631 12.6994 91.5409 12.7954 91.5409Z" fill="black"/>
<path opacity="0.1" d="M6.0344 7.53823C6.7316 7.53823 7.2968 6.97303 7.2968 6.27583C7.2968 5.57862 6.7316 5.01343 6.0344 5.01343C5.33719 5.01343 4.772 5.57862 4.772 6.27583C4.772 6.97303 5.33719 7.53823 6.0344 7.53823Z" fill="#E9B81C"/>
<path opacity="0.1" d="M127.274 47.6827C128.208 47.6827 128.964 46.9263 128.964 45.9931C128.964 45.0599 128.208 44.3035 127.274 44.3035C126.341 44.3035 125.585 45.0599 125.585 45.9931C125.585 46.9263 126.341 47.6827 127.274 47.6827Z" fill="#E9B81C"/>
<path opacity="0.1" d="M130.532 43.606C131.213 43.606 131.765 43.0538 131.765 42.3726C131.765 41.6914 131.213 41.1392 130.532 41.1392C129.851 41.1392 129.298 41.6914 129.298 42.3726C129.298 43.0538 129.851 43.606 130.532 43.606Z" fill="#E9B81C"/>
<path opacity="0.1" d="M8.20682 3.37928C9.13998 3.37928 9.89645 2.6228 9.89645 1.68964C9.89645 0.756477 9.13998 0 8.20682 0C7.27365 0 6.51718 0.756477 6.51718 1.68964C6.51718 2.6228 7.27365 3.37928 8.20682 3.37928Z" fill="#E9B81C"/>
<path opacity="0.1" d="M1.68964 11.1034C2.6228 11.1034 3.37928 10.3469 3.37928 9.41376C3.37928 8.4806 2.6228 7.72412 1.68964 7.72412C0.756477 7.72412 0 8.4806 0 9.41376C0 10.3469 0.756477 11.1034 1.68964 11.1034Z" fill="#E9B81C"/>
</g>
<defs>
<linearGradient id="paint0_linear" x1="63.6185" y1="93.6361" x2="63.6185" y2="22.973" gradientUnits="userSpaceOnUse">
<stop stop-color="#808080" stop-opacity="0.25"/>
<stop offset="0.54" stop-color="#808080" stop-opacity="0.12"/>
<stop offset="1" stop-color="#808080" stop-opacity="0.1"/>
</linearGradient>
<clipPath id="clip0">
<rect width="131.765" height="100" fill="white"/>
</clipPath>
</defs>
</svg>
