<svg width="155" height="100" viewBox="0 0 155 100" fill="none" xmlns="http://www.w3.org/2000/svg">
<g clip-path="url(#clip0)">
<path d="M154.671 98.8696H0V99.9999H154.671V98.8696Z" fill="#85848B"/>
<path d="M122.539 78.9121C122.539 79.7816 117.471 82.3163 111.452 82.3163C105.432 82.3163 100.741 79.7816 100.741 78.9121C100.741 78.0427 105.62 78.3227 111.646 78.3227C117.672 78.3227 122.539 78.0412 122.539 78.9121Z" fill="#504F60"/>
<path opacity="0.2" d="M122.539 78.9121C122.539 79.7816 117.471 82.3162 111.452 82.3162C105.432 82.3162 100.741 79.7816 100.741 78.9121" fill="black"/>
<path d="M61.9151 62.9585C62.8921 63.0838 63.906 63.1634 64.8418 62.8598C64.9891 62.8141 65.1512 62.7124 65.1365 62.5651C65.126 62.5115 65.1033 62.4611 65.0702 62.4177C64.7174 61.8887 64.4211 61.3241 64.186 60.7333C64.1767 60.7025 64.1575 60.6756 64.1315 60.6567C64.101 60.6457 64.0676 60.6457 64.0372 60.6567C63.6054 60.7702 63.2325 61.0487 62.8037 61.1681C62.5851 61.228 62.3569 61.2451 62.1317 61.2182C61.9372 61.1961 61.672 61.0354 61.4951 61.0561C61.5953 61.7 61.8399 62.3013 61.9151 62.9585Z" fill="#E9B81C"/>
<path d="M80.3931 61.3271C81.0371 60.885 81.7047 60.4208 82.0849 59.7385C82.112 59.6977 82.1278 59.6504 82.1306 59.6015C82.1241 59.5533 82.1053 59.5076 82.076 59.4688C81.7139 58.8931 81.2476 58.3898 80.7011 57.9849C80.416 58.1863 80.1584 58.4241 79.9348 58.6922C79.7727 58.8632 79.3247 59.1343 79.3203 59.3952C79.3203 59.5425 79.4913 59.7135 79.5708 59.8372C79.6784 59.9964 79.7801 60.1585 79.8774 60.3236C79.9334 60.4046 80.4447 61.2947 80.3931 61.3271Z" fill="#E9B81C"/>
<path d="M65.7451 64.9318C65.7566 65.0836 65.715 65.2347 65.6273 65.3591C65.5585 65.4283 65.4733 65.479 65.3797 65.5065C64.0136 65.9957 62.4324 65.3856 61.0693 65.8675C60.7893 65.9663 60.524 66.1092 60.2426 66.2035C59.907 66.3044 59.5608 66.3657 59.211 66.3862C58.7291 66.4319 58.2443 66.4614 57.7609 66.4747C57.3937 66.5007 57.0246 66.4683 56.6675 66.3789C56.4889 66.3332 56.322 66.2504 56.1775 66.1359C56.033 66.0213 55.9143 65.8777 55.829 65.7143C55.7549 65.5678 55.7401 65.3983 55.7877 65.2412C55.8091 65.1873 55.8395 65.1375 55.8776 65.0939C55.97 64.9902 56.0785 64.9021 56.1989 64.833L56.7014 64.5088C56.937 64.3422 57.1931 64.2065 57.4633 64.105C57.6622 64.0402 57.8729 64.0122 58.0748 63.9577C58.7807 63.7514 59.3201 63.1914 59.8211 62.6535L60.5049 61.924C60.5688 61.8438 60.6499 61.7788 60.7421 61.734C60.837 61.7023 60.9378 61.6927 61.0369 61.706C61.7011 61.7534 62.3424 61.9683 62.901 62.3308C63.0438 62.4379 63.198 62.5288 63.3608 62.6019C63.7616 62.7581 64.2759 62.6402 64.6458 62.4428C64.8212 62.3485 64.7829 62.2954 64.8565 62.1274C64.9302 61.9594 65.11 61.8518 65.2662 62.0051C65.3133 62.0581 65.3467 62.1219 65.3635 62.1908C65.5108 62.6771 65.4548 63.2002 65.4548 63.7101C65.4505 63.7898 65.4605 63.8697 65.4843 63.9459C65.5219 64.0227 65.5668 64.0958 65.6184 64.164C65.6289 64.182 65.6383 64.2008 65.6464 64.22C65.7366 64.4457 65.7704 64.69 65.7451 64.9318Z" fill="#514E7F"/>
<path d="M65.7451 64.9318C65.7566 65.0836 65.715 65.2347 65.6273 65.3591C65.5585 65.4283 65.4733 65.479 65.3797 65.5065C64.0136 65.9958 62.4324 65.3857 61.0693 65.8675C60.7893 65.9663 60.524 66.1092 60.2426 66.2035C59.907 66.3044 59.5608 66.3657 59.211 66.3863C58.7291 66.432 58.2443 66.4614 57.7609 66.4747C57.3937 66.5007 57.0246 66.4684 56.6675 66.3789C56.4889 66.3332 56.322 66.2504 56.1775 66.1359C56.033 66.0214 55.9143 65.8777 55.829 65.7143C55.7549 65.5678 55.7401 65.3984 55.7877 65.2412C55.8091 65.1874 55.8395 65.1375 55.8776 65.0939C55.9572 65.2604 56.0147 65.4814 56.0648 65.561C56.1325 65.679 56.2245 65.7811 56.3348 65.8606C56.4451 65.9402 56.5711 65.9953 56.7043 66.0223C56.9038 66.0345 57.1038 66.009 57.2938 65.9471C58.5317 65.6406 59.8476 65.6362 61.0369 65.172C61.4451 65.0113 61.8341 64.7977 62.2629 64.7004C62.6918 64.6032 63.1471 64.6297 63.5892 64.5928C64.2877 64.5368 64.9641 64.3261 65.6523 64.2156C65.7412 64.4432 65.773 64.689 65.7451 64.9318Z" fill="#464353"/>
<path d="M83.5218 61.2373C83.4569 61.756 83.1283 62.2025 82.7673 62.5812C82.4062 62.9599 81.998 63.3003 81.7107 63.7365C81.357 64.2774 81.1978 64.9479 80.7381 65.4047C80.5616 65.5708 80.3633 65.7121 80.1486 65.8247C79.9081 65.9666 79.6539 66.0836 79.3897 66.174C78.703 66.3935 77.9632 66.3434 77.2455 66.2904C77.0125 66.2881 76.7819 66.2437 76.5647 66.1592C76.4658 66.109 76.3712 66.0508 76.2818 65.9853C76.1019 65.8745 75.9504 65.7231 75.8397 65.5432C75.7853 65.4454 75.77 65.3306 75.7969 65.222C75.8379 65.1023 75.9084 64.9949 76.0018 64.9096C76.1633 64.7416 76.3366 64.5855 76.5205 64.4424C76.7728 64.2796 77.0001 64.0811 77.1954 63.853C77.3152 63.6727 77.4034 63.4734 77.4563 63.2635C77.5606 62.8958 77.6244 62.5178 77.6464 62.1362C77.6455 61.8826 77.6717 61.6297 77.7245 61.3817C77.8335 60.9926 78.1223 60.6448 78.0899 60.2425C78.0768 60.1849 78.082 60.1247 78.1047 60.0701C78.139 60.0275 78.1868 59.9979 78.2402 59.9861C78.4654 59.8964 78.7029 59.8412 78.9446 59.8225C79.0659 59.8142 79.1875 59.8328 79.3006 59.8772C79.4138 59.9215 79.5157 59.9904 79.5989 60.079C79.6991 60.1998 79.7655 60.3737 79.9128 60.4208C79.9858 60.4408 80.0625 60.4438 80.1368 60.4297C80.4993 60.3928 80.8825 60.3472 81.1684 60.1129C81.3005 59.9943 81.4067 59.8498 81.4802 59.6882C81.5538 59.5267 81.5931 59.3516 81.5957 59.1742C81.5957 59.04 81.5353 58.9001 81.7431 58.8794C81.8993 58.8588 82.0231 59.0268 82.1027 59.1299C82.39 59.5146 82.6848 59.9169 82.7923 60.3855C82.8342 60.3692 82.8786 60.3608 82.9235 60.3604C83.0154 60.3596 83.1061 60.381 83.188 60.4229C83.2698 60.4647 83.3404 60.5257 83.3936 60.6006C83.5109 60.7907 83.5564 61.0165 83.5218 61.2373Z" fill="#514E7F"/>
<path d="M83.5217 61.2373C83.4568 61.756 83.1282 62.2026 82.7672 62.5813C82.4061 62.96 81.9979 63.3004 81.7106 63.7366C81.3569 64.2774 81.1978 64.9479 80.738 65.4048C80.5615 65.5709 80.3632 65.7122 80.1485 65.8247C79.9081 65.9666 79.6538 66.0837 79.3896 66.174C78.7029 66.3936 77.9631 66.3435 77.2455 66.2904C77.0125 66.2882 76.7818 66.2437 76.5646 66.1593C76.4658 66.109 76.3711 66.0509 76.2817 65.9854C76.1018 65.8746 75.9504 65.7232 75.8396 65.5433C75.9777 65.4769 76.1285 65.4407 76.2817 65.4372C76.6 65.4549 76.8328 65.7555 77.1379 65.8483C77.5726 65.9795 78.0059 65.673 78.4465 65.5683C78.7338 65.5005 79.0359 65.5182 79.3203 65.421C79.5574 65.3294 79.7764 65.1967 79.9673 65.029C80.2289 64.8419 80.4618 64.6175 80.6584 64.3629C80.8217 64.1083 80.9575 63.8371 81.0637 63.5539C81.2963 63.0111 81.5703 62.4869 81.883 61.9859C81.9293 61.9066 81.9852 61.8334 82.0495 61.7678C82.1188 61.7045 82.1969 61.6603 82.275 61.6043C82.5697 61.3817 82.692 61.0148 82.7952 60.6552C82.8231 60.5459 82.8621 60.4398 82.9116 60.3384C83.0035 60.3376 83.0943 60.359 83.1761 60.4008C83.258 60.4427 83.3285 60.5036 83.3817 60.5786C83.5085 60.7732 83.5584 61.008 83.5217 61.2373Z" fill="#464353"/>
<path d="M52.6209 15.292C52.9877 15.5669 53.2896 15.919 53.5051 16.3236C53.7114 16.7273 54.9007 19.8603 54.8314 20.3157C55.219 19.9251 56.7471 19.8618 57.1391 19.4713C57.3027 19.3077 58.1854 18.4913 58.3181 18.3012C58.4507 18.1111 59.4351 17.7117 59.5427 17.5113C59.945 16.7907 56.6897 14.06 57.1067 13.3483C57.1298 13.3156 57.1417 13.2763 57.1406 13.2363C57.1311 13.2027 57.1122 13.1725 57.0861 13.1493C56.8194 12.8767 56.4657 12.7072 56.1444 12.5053C55.8232 12.3035 55.5137 12.022 55.4268 11.6506C55.1204 11.7917 54.8392 11.9818 54.5941 12.2136C53.9968 12.7254 53.4098 13.2476 52.8331 13.7801C52.6077 13.9893 52.1715 14.2678 52.0668 14.567C51.9431 14.8882 52.4058 15.1166 52.6209 15.292Z" fill="#A1616A"/>
<path d="M57.8906 14.1323C57.3912 14.4679 56.9244 14.8498 56.4966 15.2729C56.0928 15.6723 55.7096 16.135 55.6124 16.6935C55.5711 16.9131 55.577 17.1356 55.5431 17.3581C55.3957 18.3234 54.5617 19.0307 54.1933 19.9341C54.0865 20.2129 54.008 20.5017 53.9589 20.7961C53.8554 21.3544 53.7987 21.9202 53.7895 22.4879C53.7806 23.0376 54.32 23.4163 54.5175 23.9291C54.7149 24.4419 54.768 24.9695 54.8682 25.4956C55.0568 26.4888 55.4031 27.4467 55.7524 28.3987C56.4789 30.4058 58.8338 35.954 59.5603 37.9626C61.787 37.4041 67.714 36.1206 69.6857 34.9431C70.3429 34.5511 65.1248 30.1287 65.8277 29.8237C65.8679 29.8174 65.9061 29.8019 65.9392 29.7784C65.9724 29.7548 65.9996 29.7239 66.0187 29.688C66.0379 29.6522 66.0485 29.6123 66.0496 29.5717C66.0507 29.531 66.0423 29.4907 66.0252 29.4538C65.3222 26.3798 63.1236 23.854 62.1259 20.861C61.7796 19.8221 61.1577 18.9349 60.6861 17.9476C60.2588 17.0531 60.0304 16.0643 59.519 15.214C59.4226 15.0388 59.2964 14.8817 59.1462 14.7498C59.0186 14.652 58.8808 14.5685 58.735 14.5007C58.4432 14.3593 58.1721 14.2753 57.8906 14.1323Z" fill="#514E7F"/>
<path d="M52.7388 14.9427C54.6636 14.9427 56.2239 13.3824 56.2239 11.4576C56.2239 9.53277 54.6636 7.97241 52.7388 7.97241C50.814 7.97241 49.2536 9.53277 49.2536 11.4576C49.2536 13.3824 50.814 14.9427 52.7388 14.9427Z" fill="#A1616A"/>
<path d="M56.2844 13.0948C56.4581 12.9345 56.6762 12.8308 56.9101 12.7971C57.144 12.7634 57.3826 12.8014 57.5944 12.9061C57.8302 13.0284 58.0365 13.276 57.9835 13.5354L59.7121 13.5619C59.9872 13.5544 60.2622 13.5796 60.5314 13.6371C60.8023 13.696 61.0441 13.8477 61.2152 14.0659C61.2358 14.0939 61.2594 14.1278 61.2948 14.1322C61.3235 14.1326 61.3516 14.1233 61.3743 14.1057C61.6402 13.9723 61.9398 13.921 62.2349 13.9583C63.1692 14.0187 64.0328 14.4859 64.7652 15.0694C64.8973 15.1602 64.9997 15.2878 65.0599 15.4364C65.1203 15.6324 65.0481 15.8785 65.2073 16.0185C65.2073 17.6395 65.7643 19.1544 66.1357 20.7341C66.202 21.0156 66.4717 21.2646 66.6588 21.4857C66.89 21.7307 67.0788 22.0126 67.2173 22.3198C67.5327 23.1391 67.098 24.1029 67.4045 24.9252C67.5342 25.2729 67.7847 25.5588 67.9939 25.8609C68.2698 26.2098 68.4442 26.6279 68.4979 27.0693C68.5112 27.2668 68.4861 27.4657 68.4979 27.6588C68.5177 27.9243 68.5671 28.1868 68.6453 28.4413C68.771 28.9168 68.9027 29.3918 69.0402 29.8663C69.2642 30.6326 69.556 31.4593 70.2427 31.8675C68.5849 32.149 66.8371 32.4245 65.2574 31.8483C65.037 31.7732 64.8278 31.6686 64.6355 31.5374C64.0652 31.1307 63.7896 30.4351 63.5435 29.7779C63.2694 29.041 62.9909 28.291 62.9349 27.507C62.9355 27.2576 62.9002 27.0095 62.8303 26.7702C62.6697 26.3428 62.2408 26.0849 61.8518 25.8477C61.4125 25.6069 61.0145 25.2975 60.6729 24.9311C60.5034 24.7465 60.3736 24.5291 60.2914 24.2924C60.2093 24.0556 60.1766 23.8046 60.1954 23.5547C60.2249 23.3115 60.3207 23.0772 60.3295 22.8326C60.3384 22.588 60.2293 22.308 59.995 22.2431C58.7881 21.8777 58.2119 20.4482 57.9437 19.2163C57.828 18.5795 57.7761 17.9328 57.789 17.2858L57.7727 16.0288C57.6062 15.8773 57.4722 15.6934 57.379 15.4885C57.2858 15.2835 57.2352 15.0617 57.2304 14.8366C57.2464 14.7053 57.244 14.5723 57.2231 14.4417C57.1648 14.282 57.0699 14.1381 56.946 14.0217C56.6796 13.7482 56.4564 13.4356 56.2844 13.0948Z" fill="#464353"/>
<path d="M52.5723 17.0796C52.5325 17.4687 52.6209 17.868 52.5339 18.2497C52.5001 18.3971 52.4411 18.5444 52.3984 18.6815C52.2677 19.2308 52.3243 19.8081 52.559 20.3216C52.7934 20.8301 53.0741 21.316 53.3975 21.7732C53.5069 21.9292 53.5969 22.098 53.6657 22.2757C53.7214 22.4623 53.756 22.6546 53.7689 22.8489C53.8542 23.6293 53.9911 24.4032 54.1785 25.1655C54.3436 25.8257 56.2181 31.4697 56.6543 31.9929C56.7334 32.1087 56.8534 32.1903 56.9903 32.2213C57.0889 32.225 57.187 32.2048 57.2761 32.1624L58.1603 31.8234C58.2355 31.8004 58.3052 31.7623 58.3652 31.7114C58.448 31.6146 58.493 31.4911 58.4919 31.3636C58.5553 30.6445 56.6764 24.9607 56.4376 24.2813C55.7155 22.23 54.7547 20.2524 54.2846 18.1288C54.1535 17.5394 54.0842 16.6316 53.6524 16.1615C53.4741 15.967 53.5346 16.0495 53.3209 16.1512C53.2129 16.1981 53.1085 16.2527 53.0085 16.3148C52.8834 16.4017 52.7793 16.5155 52.7038 16.6479C52.6284 16.7802 52.5834 16.9277 52.5723 17.0796Z" fill="#464353"/>
<path d="M55.2558 20.9713C55.493 22.2254 55.7376 23.4765 55.9808 24.7306L59.4409 23.8243C59.4689 23.4618 59.2759 23.1258 59.1462 22.7927C58.8308 22.0014 58.8234 21.1202 58.5685 20.3067C58.3755 19.6878 58.0395 19.119 57.8582 18.4956C57.7536 18.1331 57.7005 17.7588 57.5974 17.3918C57.4867 17.0315 57.3508 16.6794 57.1906 16.3382C56.9964 15.8433 56.7431 15.3738 56.4361 14.9397C55.9941 15.1047 55.5225 15.2963 55.2705 15.6957C55.1412 15.9207 55.0675 16.1733 55.0553 16.4325C54.9949 17.2091 55.2764 17.9901 55.1835 18.7623C55.0879 19.4977 55.1123 20.2437 55.2558 20.9713Z" fill="#FBAC2A"/>
<path d="M59.4984 37.6531C59.6929 38.3899 59.4114 39.165 59.1815 39.8945C58.8354 40.9932 58.5994 42.1237 58.4771 43.2691C58.4621 43.5606 58.4035 43.8483 58.3032 44.1224C58.1942 44.3685 58.0085 44.5763 57.8818 44.8106C57.534 45.4266 57.5428 46.1781 57.618 46.8825C57.6681 47.3467 57.7432 47.8094 57.8361 48.2663C57.9496 48.8248 58.0896 49.4083 57.926 49.9536C58.2001 49.8932 58.3858 50.2483 58.3681 50.5268C58.3504 50.8054 58.2605 51.1163 58.3946 51.3565C58.7335 51.4803 58.7365 51.946 58.7262 52.307C58.7318 52.933 58.8109 53.5562 58.962 54.1638C59.4748 56.6297 60.019 59.0887 60.5947 61.5409C61.84 61.9269 63.2945 62.3293 64.4822 61.7943C64.7033 61.6956 64.9243 61.5379 64.9744 61.2992C64.9874 61.1705 64.9712 61.0406 64.9273 60.919L64.3643 58.8706C64.2273 58.3755 64.0902 57.8641 64.1624 57.3557C64.217 56.977 64.382 56.5688 64.1963 56.2343C64.133 56.1193 64.0328 56.0294 63.9591 55.9204C63.6643 55.4886 63.8191 54.9109 63.8427 54.3878C63.8519 54.2703 63.8439 54.1522 63.8191 54.0371C63.7787 53.9026 63.7223 53.7734 63.6511 53.6524C63.1859 52.7492 62.9625 51.741 63.0027 50.7258C63.0203 50.5962 63.0025 50.4643 62.9511 50.3441C62.9154 50.2945 62.8833 50.2423 62.8553 50.1879C62.8333 50.0933 62.8443 49.994 62.8863 49.9064C62.7174 49.7783 62.5649 49.6298 62.4324 49.4643C62.5141 49.4135 62.5832 49.3448 62.6345 49.2634C62.6858 49.1819 62.7179 49.0899 62.7284 48.9942C62.7389 48.8986 62.7276 48.8018 62.6952 48.7111C62.6628 48.6205 62.6102 48.5384 62.5414 48.4711C62.6015 48.459 62.6571 48.4305 62.702 48.3887C62.7468 48.3469 62.7792 48.2935 62.7956 48.2344C62.8119 48.1753 62.8115 48.1129 62.7945 48.054C62.7775 47.9951 62.7445 47.9421 62.6991 47.9008C62.6269 47.8507 62.5311 47.8286 62.4795 47.7534C62.4 47.6444 62.4648 47.4926 62.5296 47.3762L62.873 46.7558C63.1294 46.2945 63.1869 45.7242 63.4625 45.2821C63.8574 44.6382 64.1153 43.9205 64.3702 43.2102L65.362 40.4736L66.0295 41.0528C66.2519 41.2226 66.4382 41.435 66.5777 41.6776C66.6727 41.9173 66.7327 42.1694 66.7561 42.4262C67.0007 43.9116 67.935 45.1996 68.2813 46.6629C68.3579 46.9886 68.4095 47.3305 68.5966 47.609C68.6636 47.6945 68.7237 47.7852 68.7764 47.8802C68.8252 48.025 68.8506 48.1768 68.8516 48.3296C68.8825 48.6289 68.9774 48.9181 69.13 49.1775C69.2826 49.4368 69.4892 49.6603 69.7358 49.8328C70.0644 50.0582 70.4726 50.2129 70.6509 50.5696C70.6866 50.68 70.7361 50.7855 70.7983 50.8835C70.9574 51.075 71.3008 51.0971 71.3686 51.3373C71.4069 51.4714 71.3361 51.6321 71.4113 51.75C71.454 51.8045 71.5104 51.8467 71.5749 51.8723L72.5342 52.3512C73.607 52.8876 74.1552 54.1196 74.9466 55.017C75.2198 55.3093 75.4618 55.6294 75.6686 55.9719C76.0105 56.5835 76.1682 57.3513 76.7459 57.7403C76.9012 57.8208 77.0425 57.9258 77.1644 58.0513C77.3457 58.29 77.2793 58.6245 77.2955 58.9251C77.3118 59.2258 77.5416 59.5839 77.8275 59.4925C77.7274 59.8566 77.7274 60.241 77.8275 60.6051C79.0826 60.5406 80.2796 60.0558 81.2258 59.2287C81.5057 58.9841 81.7754 58.6717 81.7784 58.3003C81.7827 58.2362 81.7683 58.1722 81.7371 58.1161C81.6804 58.0436 81.6058 57.9872 81.5205 57.9525C80.623 57.4662 80.3534 56.3389 79.8995 55.4238C79.5031 54.6162 78.9166 53.9206 78.4258 53.1706C77.3589 51.5569 76.6309 49.6043 75.0173 48.5389C74.6621 48.3046 74.2495 48.0968 74.0712 47.7092C73.9725 47.4926 73.9607 47.245 73.8826 47.021C73.8045 46.797 73.6173 46.5789 73.3786 46.5789C73.5112 46.2547 73.4847 45.8598 73.4935 45.5091C73.5026 45.3534 73.4847 45.1974 73.4405 45.0478C73.3792 44.887 73.2996 44.7337 73.2032 44.591C72.7822 43.8782 72.5717 43.0607 72.5961 42.2332C72.6079 41.8073 72.683 41.3681 72.5548 40.9614C72.49 40.7566 72.3765 40.5694 72.2984 40.372C72.1807 40.0141 72.1186 39.6404 72.1142 39.2638L72.0258 37.8476C72.0124 37.376 71.9512 36.9069 71.8431 36.4476C71.5483 35.3483 71.2536 30.7432 70.2442 30.2244C69.2347 29.7057 67.5002 33.2498 66.3641 33.3191C65.8614 33.34 65.3647 33.4359 64.8904 33.6035C64.1344 33.8864 63.5008 34.414 62.8833 34.9298L60.7937 36.6849C60.3516 37.0489 59.9861 37.3967 59.4984 37.6531Z" fill="#464353"/>
<path d="M49.4688 7.58792C49.9285 6.96015 50.7184 6.6271 51.4965 6.5991C52.2746 6.57111 53.0409 6.81573 53.7379 7.16204C53.9437 7.27903 54.1635 7.36917 54.3922 7.43024C54.7606 7.5054 55.1703 7.40519 55.5033 7.5776C55.9454 7.81191 56.0309 8.40874 55.9926 8.90388C55.9543 9.39903 55.8614 9.9487 56.1252 10.3775C56.2188 10.4998 56.304 10.6283 56.3802 10.7621C56.4936 11.0171 56.4273 11.3118 56.3595 11.5815C56.1871 11.4341 56.0898 11.2116 55.9366 11.0407C55.7833 10.8697 55.5166 10.7548 55.3265 10.883C55.1364 11.0112 55.1393 11.244 55.129 11.4533C55.1187 11.6625 55.0657 11.9131 54.8682 11.9809C54.7857 11.9996 54.6995 11.9932 54.6207 11.9625C54.5419 11.9318 54.4741 11.8781 54.4261 11.8084C54.0886 11.3958 54.2242 10.7371 53.8897 10.3215C53.6996 10.0857 53.3828 9.9708 53.2074 9.72323C53.0689 9.52871 53.0335 9.28114 52.9127 9.07188C52.7918 8.86262 52.5104 8.70936 52.3232 8.85378C52.2593 8.9148 52.2061 8.98602 52.1655 9.06451C52.0488 9.23167 51.8792 9.3546 51.684 9.41343C51.4888 9.47226 51.2794 9.46355 51.0898 9.38871C50.9449 9.29975 50.7881 9.23178 50.6241 9.18682C50.5168 9.18145 50.4101 9.2062 50.3161 9.25828C50.222 9.31036 50.1445 9.3877 50.0921 9.48155C49.9864 9.66906 49.9353 9.88247 49.9448 10.0975C49.9448 10.3923 49.9978 10.7062 49.8298 10.9419C49.7659 11.0307 49.6859 11.1067 49.594 11.1659C49.3479 11.3236 49.0046 11.4297 48.7776 11.2499C48.7007 11.1783 48.6435 11.0881 48.6115 10.9879C48.5795 10.8878 48.5738 10.7811 48.5949 10.6782C48.6391 10.473 48.6972 10.2712 48.7688 10.074C48.8985 9.61713 48.729 9.10283 48.8705 8.67252C49.0186 8.285 49.22 7.91996 49.4688 7.58792Z" fill="#464353"/>
<path d="M51.3358 17.9843C51.3137 18.0917 51.325 18.2033 51.3682 18.3041C51.412 18.3727 51.4717 18.4298 51.5421 18.4706C52.0377 18.7793 52.6013 18.962 53.1838 19.0026C53.263 19.004 53.3408 19.0242 53.4107 19.0616C53.5492 19.1529 53.5581 19.3563 53.5065 19.5184C53.4377 19.6713 53.4021 19.837 53.4019 20.0047C53.4446 20.3127 53.8101 20.4468 54.1181 20.4925C54.5498 20.547 55.0229 20.519 55.3648 20.2493C55.5963 20.0381 55.7729 19.7735 55.8791 19.4786C56.7249 17.5349 57.0211 15.3863 57.8773 13.4484C57.9422 13.3219 57.9855 13.1855 58.0055 13.0447C58.0146 12.9742 58.0046 12.9026 57.9766 12.8373C57.9486 12.772 57.9036 12.7154 57.8464 12.6733C57.6872 12.5746 57.4396 12.6306 57.3321 12.4758C57.279 12.3977 57.2849 12.2916 57.2378 12.2091C57.139 12.0337 56.8797 12.0617 56.7028 11.9601C56.5643 11.8864 56.4685 11.7346 56.3138 11.7051C56.2378 11.7008 56.1619 11.7143 56.0921 11.7445C56.0222 11.7747 55.9604 11.8207 55.9115 11.879C55.409 12.3476 55.1452 13.0122 54.8652 13.64C54.4376 14.6023 53.9371 15.5305 53.368 16.4164C53.4343 16.3132 53.0497 15.5322 52.8993 15.4983C52.6356 15.4452 52.2981 15.908 52.1552 16.0804C51.7066 16.6242 51.4224 17.2847 51.3358 17.9843Z" fill="#FBAC2A"/>
<path opacity="0.1" d="M56.6896 12.0972C56.5837 12.0989 56.4796 12.1245 56.385 12.1719C56.2903 12.2194 56.2076 12.2875 56.1428 12.3713C55.9852 12.5761 55.9542 12.8473 55.9144 13.1081C55.7803 13.9345 55.4854 14.7265 55.0464 15.4394" fill="black"/>
<path opacity="0.1" d="M57.4412 12.6851C57.2951 12.6883 57.1523 12.7296 57.027 12.8048C56.9017 12.88 56.7981 12.9865 56.7265 13.1139C56.6289 13.3457 56.5683 13.5913 56.5467 13.8419C56.4203 14.3974 56.1767 14.9194 55.832 15.373" fill="black"/>
<path d="M92.4638 41.4949V39.6646C92.4634 38.3173 91.9279 37.0252 90.975 36.0727C90.0222 35.1201 88.73 34.585 87.3826 34.585H15.1019C13.7546 34.585 12.4624 35.1201 11.5095 36.0727C10.5567 37.0252 10.0212 38.3173 10.0208 39.6646V43.0393L92.4638 41.4949Z" fill="#33323D"/>
<path d="M35.2098 32.4395C35.2098 32.4395 35.0035 45.2395 37.2729 49.4512C39.5423 53.6629 40.5149 71.9847 40.5149 71.9847C40.5149 71.9847 64.3054 74.4457 80.8839 69.0374C97.4624 63.6291 132.738 61.4172 132.738 61.4172L126.794 21.3503C126.794 21.3503 97.4255 19.467 80.7188 27.435C64.0121 35.403 35.2098 32.4395 35.2098 32.4395Z" fill="#8DD070"/>
<path opacity="0.1" d="M35.2098 32.4395C35.2098 32.4395 35.0035 45.2395 37.2729 49.4512C39.5423 53.6629 40.5149 71.9847 40.5149 71.9847C40.5149 71.9847 64.3054 74.4457 80.8839 69.0374C97.4624 63.6291 132.738 61.4172 132.738 61.4172L126.794 21.3503C126.794 21.3503 97.4255 19.467 80.7188 27.435C64.0121 35.403 35.2098 32.4395 35.2098 32.4395Z" fill="black"/>
<path d="M40.4751 37.1151C40.4751 37.1151 39.7309 47.6767 41.598 51.0514C43.4651 54.426 43.5521 69.4911 43.5521 69.4911C43.5521 69.4911 64.9627 70.4843 80.1928 65.3C95.4229 60.1157 127.427 56.7529 127.427 56.7529L123.791 23.9864C123.791 23.9864 97.3091 23.7138 81.8536 31.0113C66.398 38.3088 40.4751 37.1151 40.4751 37.1151Z" fill="#8DD070"/>
<path opacity="0.1" d="M81.6184 59.3008C84.6648 58.9214 86.4746 53.3171 85.6608 46.7834C84.847 40.2497 81.7177 35.2607 78.6713 35.6401C75.6249 36.0195 73.8151 41.6238 74.6289 48.1575C75.4427 54.6912 78.572 59.6803 81.6184 59.3008Z" fill="black"/>
<path opacity="0.2" d="M110.693 1.83179C110.693 1.83179 82.1616 9.05264 68.7072 21.7628C55.2528 34.473 26.9294 40.4913 26.9294 40.4913C26.9294 40.4913 30.6606 52.7359 34.1119 56.0486C37.5632 59.3614 44.1091 76.5028 44.1091 76.5028C44.1091 76.5028 67.5062 71.5425 81.6237 61.3036C95.7412 51.0647 128.643 38.1335 128.643 38.1335L110.693 1.83179Z" fill="black"/>
<path d="M26.5006 38.6581C26.5006 38.6581 30.2304 50.9041 33.6787 54.2168C37.127 57.5296 43.6759 74.6695 43.6759 74.6695C43.6759 74.6695 67.0759 69.7107 81.1949 59.4718C95.3139 49.233 128.213 36.3062 128.213 36.3062L110.262 0C110.262 0 81.7327 7.22085 68.2784 19.931C54.824 32.6412 26.5006 38.6581 26.5006 38.6581Z" fill="#8DD070"/>
<path opacity="0.1" d="M26.5006 38.6581C26.5006 38.6581 30.2304 50.9041 33.6787 54.2168C37.127 57.5296 43.6759 74.6695 43.6759 74.6695C43.6759 74.6695 67.0759 69.7107 81.1949 59.4718C95.3139 49.233 128.213 36.3062 128.213 36.3062L110.262 0C110.262 0 81.7327 7.22085 68.2784 19.931C54.824 32.6412 26.5006 38.6581 26.5006 38.6581Z" fill="black"/>
<path d="M32.9418 41.4934C32.9418 41.4934 35.475 51.775 38.2882 54.4128C41.1014 57.0507 45.8038 71.3597 45.8038 71.3597C45.8038 71.3597 66.4849 65.7334 79.3896 56.1252C92.2943 46.5171 121.726 33.5092 121.726 33.5092L108.211 3.4292C108.211 3.4292 82.9249 11.294 70.4534 22.983C57.982 34.6719 32.9418 41.4934 32.9418 41.4934Z" fill="#8DD070"/>
<path opacity="0.1" d="M78.9126 49.9827C81.6956 48.6868 81.6984 42.7975 78.9189 36.8287C76.1394 30.86 71.6302 27.0719 68.8472 28.3678C66.0642 29.6638 66.0614 35.553 68.8409 41.5218C71.6204 47.4906 76.1296 51.2786 78.9126 49.9827Z" fill="black"/>
<path opacity="0.1" d="M94.4149 43.2914V94.1321C94.4149 94.7095 94.3011 95.2812 94.0801 95.8147C93.8591 96.3481 93.5352 96.8327 93.1268 97.241C92.7185 97.6492 92.2337 97.9729 91.7002 98.1938C91.1667 98.4146 90.5949 98.5282 90.0175 98.528H14.4196C13.254 98.5276 12.1362 98.0643 11.3122 97.2399C10.4881 96.4156 10.0252 95.2977 10.0252 94.1321V38.166C12.1914 38.9706 12.1914 38.9706 14.4196 38.9028H90.0175C91.1822 38.9028 92.2994 39.3649 93.1238 40.1877C93.9482 41.0104 94.4125 42.1266 94.4149 43.2914Z" fill="black"/>
<path d="M94.4149 43.9381V94.7788C94.4145 95.9448 93.951 97.0629 93.1264 97.8872C92.3018 98.7116 91.1835 99.1747 90.0175 99.1747H14.4196C13.254 99.1743 12.1362 98.711 11.3122 97.8866C10.4881 97.0623 10.0252 95.9444 10.0252 94.7788V38.8113C12.1914 39.6144 12.1914 39.6144 14.4196 39.5481H90.0175C91.1825 39.5481 92.2999 40.0104 93.1243 40.8334C93.9488 41.6565 94.4129 42.7731 94.4149 43.9381Z" fill="#504F60"/>
<path opacity="0.1" d="M94.1998 62.7346V78.9933H78.4318C76.2947 78.9646 74.2549 78.0954 72.7538 76.574C71.2527 75.0526 70.4111 73.0012 70.4111 70.864C70.4111 68.7267 71.2527 66.6754 72.7538 65.154C74.2549 63.6325 76.2947 62.7634 78.4318 62.7346H94.1998Z" fill="black"/>
<path d="M94.4149 62.3013V78.5629H78.6469C76.5098 78.5342 74.47 77.665 72.9689 76.1436C71.4678 74.6222 70.6262 72.5708 70.6262 70.4336C70.6262 68.2963 71.4678 66.245 72.9689 64.7236C74.47 63.2021 76.5098 62.333 78.6469 62.3042L94.4149 62.3013Z" fill="#33323D"/>
<path opacity="0.1" d="M79.4028 74.0344C81.1535 74.0344 82.5727 72.6153 82.5727 70.8646C82.5727 69.114 81.1535 67.6948 79.4028 67.6948C77.6522 67.6948 76.233 69.114 76.233 70.8646C76.233 72.6153 77.6522 74.0344 79.4028 74.0344Z" fill="black"/>
<path d="M79.6181 73.604C81.3687 73.604 82.7879 72.1849 82.7879 70.4342C82.7879 68.6836 81.3687 67.2644 79.6181 67.2644C77.8674 67.2644 76.4482 68.6836 76.4482 70.4342C76.4482 72.1849 77.8674 73.604 79.6181 73.604Z" fill="#FBAC2A"/>
<path d="M121.785 62.1613C121.91 63.5185 120.883 64.836 121.182 66.1652C121.247 66.4496 121.369 66.7178 121.414 67.0052C121.537 67.7951 121.067 68.5422 120.618 69.2024L116.757 74.8671C116.602 75.1161 116.417 75.3448 116.206 75.5479C115.469 76.2052 114.361 76.1374 113.391 76.3334C112.709 76.4717 112.066 76.7563 111.505 77.1674C111.481 77.1875 111.466 77.2158 111.463 77.2465C111.46 77.2771 111.468 77.3079 111.487 77.3325C111.647 77.5507 111.86 77.7253 112.105 77.8404C112.35 77.9554 112.62 78.0073 112.89 77.9912C112.992 78.1253 112.89 78.3213 112.743 78.4171C112.535 78.5645 112.25 78.5998 112.209 78.9506C112.194 79.073 112.219 79.1969 112.28 79.3042C112.435 79.5425 112.677 79.711 112.955 79.7743C114.291 80.1825 115.736 79.4649 116.736 78.4878C117.737 77.5108 118.454 76.2774 119.436 75.2827C119.98 74.733 120.597 74.2614 121.157 73.728C122.274 72.664 123.142 71.3701 123.981 70.0748C124.233 69.6843 124.486 69.2834 124.592 68.831C124.698 68.3786 124.648 67.9218 124.768 67.4841C124.924 66.9094 125.344 66.4526 125.693 65.9707C126.378 65.0276 126.835 63.8737 126.745 62.7125C126.655 61.5512 125.935 60.4033 124.838 60.0083C124.499 59.8719 124.124 59.8491 123.77 59.9435C123.32 60.082 122.989 60.4534 122.682 60.8085L121.946 61.6559C121.762 61.8418 121.617 62.0621 121.518 62.3043C121.471 62.4259 121.46 62.5585 121.486 62.6862C121.512 62.814 121.574 62.9316 121.666 63.0249" fill="#FBBEBE"/>
<path opacity="0.05" d="M121.785 62.1613C121.91 63.5185 120.883 64.836 121.182 66.1652C121.247 66.4496 121.369 66.7178 121.414 67.0052C121.537 67.7951 121.067 68.5422 120.618 69.2024L116.757 74.8671C116.602 75.1161 116.417 75.3448 116.206 75.5479C115.469 76.2052 114.361 76.1374 113.391 76.3334C112.709 76.4717 112.066 76.7563 111.505 77.1674C111.481 77.1875 111.466 77.2158 111.463 77.2465C111.46 77.2771 111.468 77.3079 111.487 77.3325C111.647 77.5507 111.86 77.7253 112.105 77.8404C112.35 77.9554 112.62 78.0073 112.89 77.9912C112.992 78.1253 112.89 78.3213 112.743 78.4171C112.535 78.5645 112.25 78.5998 112.209 78.9506C112.194 79.073 112.219 79.1969 112.28 79.3042C112.435 79.5425 112.677 79.711 112.955 79.7743C114.291 80.1825 115.736 79.4649 116.736 78.4878C117.737 77.5108 118.454 76.2774 119.436 75.2827C119.98 74.733 120.597 74.2614 121.157 73.728C122.274 72.664 123.142 71.3701 123.981 70.0748C124.233 69.6843 124.486 69.2834 124.592 68.831C124.698 68.3786 124.648 67.9218 124.768 67.4841C124.924 66.9094 125.344 66.4526 125.693 65.9707C126.378 65.0276 126.835 63.8737 126.745 62.7125C126.655 61.5512 125.935 60.4033 124.838 60.0083C124.499 59.8719 124.124 59.8491 123.77 59.9435C123.32 60.082 122.989 60.4534 122.682 60.8085L121.946 61.6559C121.762 61.8418 121.617 62.0621 121.518 62.3043C121.471 62.4259 121.46 62.5585 121.486 62.6862C121.512 62.814 121.574 62.9316 121.666 63.0249" fill="black"/>
<path d="M124.707 97.1014C123.864 97.6157 122.813 97.6466 121.833 97.5272C121.676 97.5081 121.489 97.4963 121.391 97.6186C121.244 97.7954 121.418 98.0607 121.598 98.1977C122.176 98.6317 122.855 98.9112 123.571 99.0097C124.21 99.1004 124.856 99.1432 125.501 99.1379C127.27 99.1689 129.038 99.1983 130.778 98.9449C130.882 98.9371 130.982 98.908 131.073 98.8594C131.185 98.7806 131.263 98.6621 131.291 98.5278C131.411 98.074 131.181 97.5876 130.833 97.2723C130.485 96.9569 130.039 96.7816 129.603 96.6121L128.07 96.0153C127.71 95.8753 127.134 95.5039 126.744 95.5334C126.01 95.5864 125.316 96.7447 124.707 97.1014Z" fill="#3F3D56"/>
<path opacity="0.05" d="M124.707 97.1014C123.864 97.6157 122.813 97.6466 121.833 97.5272C121.676 97.5081 121.489 97.4963 121.391 97.6186C121.244 97.7954 121.418 98.0607 121.598 98.1977C122.176 98.6317 122.855 98.9112 123.571 99.0097C124.21 99.1004 124.856 99.1432 125.501 99.1379C127.27 99.1689 129.038 99.1983 130.778 98.9449C130.882 98.9371 130.982 98.908 131.073 98.8594C131.185 98.7806 131.263 98.6621 131.291 98.5278C131.411 98.074 131.181 97.5876 130.833 97.2723C130.485 96.9569 130.039 96.7816 129.603 96.6121L128.07 96.0153C127.71 95.8753 127.134 95.5039 126.744 95.5334C126.01 95.5864 125.316 96.7447 124.707 97.1014Z" fill="black"/>
<path d="M125.781 76.7561C125.143 77.605 124.483 78.5849 124.641 79.6356C124.726 80.2015 125.043 80.7011 125.276 81.2242C125.591 81.9345 125.756 82.6979 125.919 83.4583C126.157 84.5694 126.397 85.6835 126.543 86.8123C126.71 88.087 125.927 91.7755 125.855 93.059C125.837 93.3685 125.801 93.703 125.585 93.9255C125.501 94.014 125.389 94.0847 125.351 94.1996C125.329 94.3104 125.347 94.4255 125.403 94.5238C125.762 95.3343 126.498 95.9385 127.318 96.2834C128.139 96.6282 130.118 97.2236 131.013 97.2545C131.131 97.2675 131.25 97.2518 131.361 97.2088C131.48 97.1362 131.573 97.0287 131.629 96.9008C132.27 95.6748 131.654 91.3157 131.663 89.932C131.672 88.7781 131.944 87.6316 131.894 86.4792C131.853 85.5538 131.599 84.649 131.515 83.7265C131.368 82.2145 131.645 80.6952 131.924 79.2009C132.136 78.0544 132.349 76.9079 132.622 75.7762C132.789 75.085 132.982 74.388 133.359 73.7882C133.654 73.3122 134.068 72.9143 134.411 72.4619C135.364 71.2124 135.788 69.6383 135.59 68.0793C135.569 67.932 133.38 68.6349 133.187 68.7189C132.399 69.0524 131.674 69.5184 131.044 70.0967C130.537 70.5801 130.138 71.2255 129.694 71.7664C129.066 72.5317 128.446 73.3024 127.834 74.0785C127.136 74.9657 126.451 75.8582 125.781 76.7561Z" fill="#464353"/>
<path opacity="0.05" d="M125.781 76.7046C125.143 77.5534 124.483 78.5348 124.641 79.5841C124.726 80.1514 125.043 80.651 125.276 81.1741C125.591 81.883 125.756 82.6478 125.919 83.4067C126.157 84.5193 126.397 85.6334 126.543 86.7607C126.71 88.0369 125.927 91.7239 125.855 93.0075C125.837 93.3169 125.801 93.6529 125.585 93.8755C125.501 93.9624 125.389 94.0331 125.351 94.1481C125.329 94.2588 125.347 94.374 125.403 94.4723C125.762 95.2843 126.498 95.887 127.318 96.2406C128.139 96.5943 130.118 96.9023 131.013 96.9318C131.131 96.9448 131.25 96.9291 131.361 96.8861C131.48 96.8144 131.574 96.7073 131.629 96.5796C132.27 95.3535 131.654 91.2745 131.663 89.8893C131.672 88.7339 131.944 87.5889 131.894 86.435C131.853 85.5096 131.599 84.6048 131.515 83.6837C131.368 82.1703 131.645 80.651 131.924 79.1567C132.136 78.0117 132.349 76.8652 132.622 75.732C132.789 75.0408 132.982 74.3438 133.359 73.744C133.654 73.268 134.068 72.8702 134.411 72.4177C135.364 71.1684 135.788 69.5941 135.59 68.0351C135.569 67.8878 133.38 68.5907 133.187 68.6747C132.399 69.0093 131.674 69.4757 131.044 70.054C130.537 70.5359 130.138 71.1814 129.694 71.7222C129.066 72.4875 128.446 73.2587 127.834 74.0358C127.136 74.9161 126.451 75.8056 125.781 76.7046Z" fill="black"/>
<path d="M118.681 58.0615C120.657 58.0615 122.258 56.4602 122.258 54.485C122.258 52.5097 120.657 50.9084 118.681 50.9084C116.706 50.9084 115.105 52.5097 115.105 54.485C115.105 56.4602 116.706 58.0615 118.681 58.0615Z" fill="#FBBEBE"/>
<path d="M121.903 54.3346C122.233 54.8617 122.666 55.3168 123.177 55.6728C123.687 56.0288 124.263 56.2783 124.872 56.4066L124.602 57.3865C124.137 59.0694 123.614 60.8496 122.314 62.0167C122.461 61.4464 122.273 60.8378 121.951 60.3427C121.63 59.8475 121.179 59.4585 120.737 59.0739L118.678 57.2907C118.619 57.2424 118.569 57.1834 118.531 57.1169C118.48 56.9911 118.48 56.8506 118.531 56.7249C118.793 55.9085 119.542 55.3986 120.152 54.8474C120.458 54.5624 120.731 54.2441 120.967 53.8984C121.378 53.3119 121.633 53.9014 121.903 54.3346Z" fill="#FBBEBE"/>
<path d="M113.97 50.8894L113.889 50.2174C114.454 50.3648 114.99 49.8843 115.351 49.3877C115.712 48.8911 116.047 48.3061 116.596 48.0983C117.264 47.8478 117.971 48.2457 118.609 48.5816C119.324 48.978 120.108 49.2332 120.918 49.3332C121.048 49.3375 121.176 49.3583 121.3 49.3951C121.716 49.5425 121.913 50.0641 121.974 50.5372C122.034 51.0102 122.018 51.5127 122.223 51.9342C122.37 52.254 122.644 52.4912 122.812 52.8066C123.254 53.6524 122.827 54.8093 123.288 55.6389L122.142 54.5882C122.037 54.4924 121.89 54.3922 121.773 54.4733C121.682 54.5381 121.674 54.6781 121.638 54.7901C121.527 55.1172 121.117 55.2145 120.821 55.0848C120.525 54.9551 120.308 54.6737 120.084 54.4173C119.577 53.819 118.973 53.2929 118.266 53.0379C117.956 52.922 117.625 52.8734 117.294 52.8952C116.964 52.9171 116.642 53.0089 116.35 53.1647C115.815 53.4668 115.423 54.1712 114.767 54.1962C113.869 54.2301 113.494 52.5561 113.079 51.8944C113.231 51.78 113.338 51.6157 113.381 51.4303C113.424 51.2449 113.4 51.0503 113.314 50.8805C113.375 50.8555 113.957 50.7862 113.97 50.8894Z" fill="#464353"/>
<path d="M69.7328 29.9798C69.4455 30.2354 69.1798 30.5143 68.9385 30.8138C68.6957 31.1175 68.5664 31.4964 68.5731 31.8852C68.5743 31.9979 68.6104 32.1075 68.6762 32.1991C68.7099 32.2429 68.7564 32.2751 68.8092 32.2912C68.862 32.3073 68.9186 32.3065 68.9709 32.289C69.0302 32.2588 69.0808 32.2142 69.1183 32.1593C69.2741 31.9721 69.4393 31.7931 69.6135 31.6229C69.6768 31.5595 69.7608 31.4932 69.8463 31.5168C69.8846 31.5304 69.919 31.5531 69.9465 31.5831C70.0456 31.6688 70.1178 31.7814 70.1543 31.9073C70.2059 32.1328 70.0747 32.3582 69.9259 32.5351C69.777 32.7119 69.6017 32.8814 69.5412 33.1039C69.5184 33.1627 69.5184 33.2279 69.5412 33.2866C69.5697 33.3291 69.6096 33.3628 69.6562 33.3839C69.8672 33.5001 70.1012 33.5685 70.3416 33.5843C70.582 33.6 70.8229 33.5628 71.0473 33.4752C71.342 33.3559 71.6043 33.151 71.9079 33.0449C72.0394 33.009 72.1668 32.9596 72.2881 32.8976C72.375 32.8398 72.4495 32.7654 72.5074 32.6786C72.5653 32.5919 72.6055 32.4945 72.6256 32.3921C72.6639 32.1876 72.6713 31.9785 72.6477 31.7717C72.6109 30.9712 72.4396 30.1825 72.1408 29.4389C72.1235 29.391 72.094 29.3483 72.0553 29.3152C72.011 29.2881 71.9598 29.2743 71.9079 29.2754C71.5307 29.2356 70.9117 29.0425 70.5477 29.1825C70.4204 29.2523 70.3106 29.3501 70.2265 29.4684C70.1587 29.5436 69.7328 29.881 69.7328 29.9798Z" fill="#A1616A"/>
<path d="M69.6134 29.6469C69.6134 29.2873 69.1714 28.4194 69.8743 28.3619C69.8743 27.9773 69.3305 27.7385 69.4322 27.3303C69.4646 27.1948 69.5796 27.0842 69.5928 26.9457C69.637 26.5522 68.9267 26.3386 69.0446 25.9613C69.0888 25.814 69.245 25.7285 69.2789 25.5826C69.3585 25.2422 68.7499 25.0904 68.7381 24.7411C68.7381 24.6232 68.8044 24.5127 68.7985 24.3948C68.7985 24.2475 68.6703 24.1355 68.5996 24.0073C68.4154 23.6786 68.5053 23.1702 68.1693 23.0008C68.3918 23.0199 68.464 22.6898 68.3726 22.4879C68.2813 22.286 68.0941 22.1107 68.0927 21.8867C68.1037 21.8055 68.1037 21.7232 68.0927 21.6421C68.0308 21.4269 67.6786 21.4092 67.6196 21.2C67.612 21.1197 67.6095 21.0389 67.6122 20.9583C67.5887 20.7918 67.4177 20.6857 67.2571 20.6385C67.0902 20.6102 66.9296 20.5528 66.7826 20.4691C66.6794 20.3909 66.5601 20.2613 66.4495 20.3217C66.4083 20.3467 66.3876 20.3939 66.3567 20.4293C66.2241 20.584 65.9706 20.5162 65.8041 20.4027C65.3119 20.0682 65.0672 19.4684 64.9626 18.8834C64.858 18.2984 64.8609 17.6942 64.7298 17.115C64.6898 16.9345 64.6366 16.7572 64.5706 16.5845C64.5146 16.4372 64.3348 16.2058 64.3231 16.057C64.2965 15.718 64.998 15.9494 65.2647 15.9833C65.5237 16.0086 65.7797 16.0579 66.0295 16.1306C66.2962 16.2314 66.5574 16.346 66.8121 16.474C67.876 16.9441 69.161 17.0016 70.0158 17.7914C70.2972 18.0508 70.5345 18.3912 70.8999 18.5091C71.0676 18.5412 71.2329 18.5841 71.3951 18.6373C71.8003 18.8274 71.8637 19.3653 72.0848 19.7543C72.1542 19.8571 72.2149 19.9655 72.266 20.0785C72.3086 20.2118 72.3286 20.3513 72.325 20.4912L72.3559 21.5124C72.406 23.2233 72.4561 24.9386 72.2734 26.6392C72.2144 27.2007 72.126 27.7783 72.2925 28.3177C72.3368 28.465 72.3986 28.6036 72.4399 28.7524C72.4764 28.9269 72.4951 29.1046 72.4959 29.2829L72.5195 29.9446C72.5277 29.996 72.5161 30.0487 72.4871 30.0919C72.4624 30.1119 72.4336 30.1262 72.4028 30.1336C72.3719 30.141 72.3398 30.1413 72.3088 30.1347C71.3877 30.0522 70.4564 29.5334 69.5869 29.8473" fill="#464353"/>
<path d="M111.645 80.4873C117.664 80.4873 122.544 79.782 122.544 78.912C122.544 78.042 117.664 77.3367 111.645 77.3367C105.625 77.3367 100.746 78.042 100.746 78.912C100.746 79.782 105.625 80.4873 111.645 80.4873Z" fill="#504F60"/>
<path d="M121.021 78.9887C120.83 78.1679 120.711 77.4473 120.711 77.4473C120.711 77.4473 120.755 76.5543 120.354 75.8838V75.6598V74.0093C120.468 73.7096 120.608 73.4202 120.771 73.1443C121.066 72.6256 120.771 70.7246 120.771 70.7246C120.771 70.7246 119.67 68.044 119.937 66.3434C120.204 64.6428 117.676 58.7925 117.676 58.7925C117.692 58.2282 117.771 57.6676 117.914 57.1214C117.941 57.0065 117.951 56.8885 117.946 56.7706C117.946 56.7559 117.946 56.7426 117.946 56.7279C117.946 56.7132 117.946 56.7367 117.946 56.7411C117.908 55.6197 117.021 53.5183 117.021 53.5183L117.14 49.5129C117.14 49.5129 117.706 47.1551 116.783 43.9794C116.461 42.8727 116.254 41.987 116.123 41.3033C116.108 41.2266 116.094 41.1559 116.082 41.0807C117.981 40.786 119.433 40.5502 119.433 40.5502C119.433 40.5502 118.331 35.9392 117.586 35.1316C116.842 34.3241 116.247 31.7879 116.247 31.7879C116.247 31.7879 115.859 28.5327 116.486 27.5807C117.112 26.6287 117.2 24.9871 117.2 24.9871C117.2 24.9871 118.628 23.9555 118.808 23.4884C118.988 23.0212 119.284 21.9897 119.284 21.443C119.284 20.8962 119.106 20.4114 119.165 20.1167C119.224 19.822 118.748 18.7329 118.986 18.2142C119.048 18.0549 119.08 17.8855 119.081 17.7146C119.081 17.7097 119.081 17.7048 119.081 17.6999C119.083 17.246 119.041 16.7929 118.955 16.3471C118.542 15.9983 118.06 15.7407 117.541 15.5911L117.51 15.4673L117.429 15.1431C117.384 15.1132 117.337 15.0857 117.289 15.0606V14.9427L117.275 14.4741L117.499 13.4219C117.942 11.5917 115.497 11.319 115.497 11.319C115.349 11.0383 115.102 10.8221 114.804 10.7119C114.313 10.5395 114.723 13.4647 114.952 13.6592C115.124 13.8065 115.657 14.7173 115.915 15.1682L115.957 15.2419C115.916 15.2782 115.879 15.3176 115.845 15.3598L115.937 15.9949L115.952 16.0922C115.79 16.2934 115.659 16.5173 115.562 16.7568C115.562 16.7568 116.004 17.246 115.92 17.7883C115.836 18.3306 116.057 19.0188 116.067 19.0557C116.041 19.0247 115.727 18.6858 115.413 18.7683C115.099 18.8508 114.222 19.1146 114.222 19.1146C114.222 19.1146 113.568 19.2295 113.633 19.374C113.697 19.5184 113.191 20.152 113.191 20.152L111.431 18.4839C111.413 18.4338 111.394 18.3837 111.379 18.3365C111.308 18.096 111.258 17.8493 111.232 17.5997C111.424 17.5541 111.612 17.4945 111.795 17.4214C111.98 17.3579 112.147 17.2507 112.281 17.109C112.46 16.8982 112.494 16.6124 112.566 16.35C112.704 15.8372 113.008 15.3819 113.219 14.8941C113.575 14.0699 113.69 13.1611 113.55 12.2739C113.523 12.0006 113.431 11.7377 113.28 11.5077C112.993 11.1127 112.471 10.9521 112.093 10.6367C111.714 10.3214 111.469 9.83949 111.027 9.60518C110.628 9.3915 110.143 9.41655 109.692 9.49024C108.811 9.63546 107.965 9.94329 107.197 10.398C106.941 10.5454 106.658 10.7266 106.363 10.6721C106.11 10.6264 105.921 10.4245 105.762 10.23C105.764 10.222 105.766 10.2141 105.769 10.2064C105.762 10.1992 105.756 10.1913 105.75 10.1828C105.564 10.5967 105.47 11.0464 105.476 11.5003C105.476 11.571 105.476 11.6476 105.485 11.711V11.7847C105.485 11.8053 105.485 11.826 105.485 11.8451C105.485 11.8765 105.48 11.9078 105.472 11.938C105.434 12.0281 105.378 12.1091 105.307 12.1752C105.252 12.2367 105.203 12.3022 105.159 12.3712C105.159 12.3476 105.174 12.3241 105.183 12.299C105.07 12.4631 105.007 12.6558 105 12.8546C104.992 12.9993 105.039 13.1416 105.133 13.2524C105.221 13.3381 105.317 13.4151 105.42 13.4823C105.385 13.6769 105.367 13.8741 105.367 14.0718C105.37 14.6578 105.525 15.233 105.815 15.7418C106.106 16.2507 106.523 16.6759 107.026 16.9763C107.047 17.025 107.066 17.0751 107.085 17.1237C107.311 17.7132 107.48 18.4058 107.405 19.0394C107.405 19.0851 107.392 19.1323 107.384 19.178C107.377 19.2237 107.34 19.2266 107.321 19.2517C107.321 19.2517 104.414 19.2811 103.73 18.6622C103.046 18.0433 102.003 20.1756 102.003 20.1756C102.003 20.1756 100.961 20.3775 100.752 20.1756C100.542 19.9737 99.3236 20.1476 99.3236 20.1476C98.8243 19.7036 98.1745 19.4665 97.5066 19.4845C97.1018 19.1769 96.6552 18.9288 96.1803 18.7477L96.1479 18.7359C95.9382 18.6595 95.7141 18.6313 95.4921 18.6534C95.4921 18.6534 94.0627 17.4744 93.6456 16.8378C93.2286 16.2012 91.2436 13.8507 91.2347 13.8404V13.727L91.2126 13.3851C91.1536 13.3943 91.094 13.3993 91.0343 13.3998C91.024 13.3659 91.0093 13.3261 90.9945 13.2804C90.8802 12.947 90.7392 12.6232 90.5731 12.3123C90.5731 12.3123 90.5731 11.8805 90.6983 11.7714C90.8236 11.6624 90.6468 10.0782 90.6468 10.0782C90.6468 10.0782 89.3588 7.06757 88.2049 9.31487C88.2049 9.31487 86.0239 10.7694 87.8542 12.464C87.8542 12.464 88.591 12.8177 88.6883 13.0977C88.7561 13.279 89.0036 13.7874 89.1702 14.1293L89.2453 14.2766L89.2247 14.2943L89.2512 14.5773L89.263 14.6863C88.9182 14.8823 88.6839 15.0768 88.7413 15.2227C88.8429 15.4724 88.9127 15.7338 88.9491 16.0008C88.9491 16.0008 91.4808 19.1721 91.808 20.5264C91.808 20.5264 98.5971 24.5612 100.83 24.8486L100.435 26.8601C100.377 27.4059 100.348 27.9543 100.346 28.5032C100.376 28.935 100.078 30.8949 100.078 30.8949C100.078 30.8949 99.6905 33.7774 99.3633 34.1811C99.0362 34.5849 99.0951 36.3135 99.0951 36.3135C99.0179 37.141 98.87 37.9604 98.6531 38.7627C98.3259 39.8576 98.5632 41.2134 98.5632 41.2134C98.5632 41.2134 97.4329 43.807 100.141 42.0489C100.141 42.0489 101.468 41.9664 103.003 41.9133C103.003 41.9635 103.003 42.015 103.003 42.0607C103.003 42.2582 103.003 42.4719 102.993 42.6959C102.972 44.1813 102.963 46.2326 103.031 47.777C103.151 50.515 103.985 55.9336 103.985 55.9336V58.6613C103.931 58.9171 103.904 59.178 103.905 59.4394C103.887 60.3991 104.143 61.3441 104.642 62.1642L104.851 63.9797C104.851 63.9797 105.34 65.1763 105.349 65.8954C105.347 65.9534 105.34 66.0111 105.329 66.0678C105.31 66.1594 105.302 66.2529 105.305 66.3464C105.277 67.1716 105.774 69.1463 105.774 69.1463C105.774 69.1463 105.803 71.1342 106.101 71.2506C106.356 71.3494 105.76 72.3957 105.584 72.6963C105.579 72.6779 105.575 72.6592 105.573 72.6403L105.536 72.6992C105.475 72.8602 105.444 73.031 105.444 73.2032C105.427 73.339 105.449 73.4767 105.507 73.6003C105.566 73.724 105.658 73.8285 105.774 73.9017C106.34 74.248 106.643 74.5354 106.163 74.6503C105.986 74.6778 105.811 74.7147 105.638 74.7609C105.638 74.7388 105.62 74.7152 105.613 74.6945C105.545 74.721 105.489 74.7701 105.453 74.8335C105.417 74.8969 105.405 74.9707 105.417 75.0423C105.422 75.2761 105.482 75.5054 105.592 75.7114C106.068 76.7783 106.399 77.185 106.399 77.185L106.627 77.16C106.593 77.2472 106.549 77.3299 106.494 77.4061C106.407 77.5296 106.292 77.6307 106.158 77.7008C106.034 77.7755 105.894 77.8232 105.75 77.8408C105.589 77.846 105.43 77.8852 105.285 77.9558C105.14 78.0264 105.011 78.1268 104.907 78.2505C104.612 78.6351 104.424 79.1582 105.01 79.618L107.14 80.3548C107.14 80.3548 110.803 80.8308 110.609 80.0085C110.414 79.1862 110.296 78.4671 110.296 78.4671C110.312 77.965 110.211 77.4661 110.002 77.0096C109.963 76.9351 109.92 76.8633 109.872 76.7945L110.002 76.7812C110.002 76.7812 110.27 74.9642 110.626 74.6194C110.709 74.5398 110.728 74.472 110.709 74.4308C110.746 74.332 110.651 74.2746 110.532 74.2407L110.506 74.3129C110.389 74.2874 110.27 74.2741 110.15 74.2731C110.15 74.2731 110.031 73.3226 110.419 72.9763C110.45 72.9368 110.473 72.8913 110.486 72.8426C110.499 72.794 110.501 72.7431 110.494 72.6933C110.497 72.5629 110.483 72.4327 110.453 72.3058C110.449 72.3139 110.444 72.3218 110.439 72.3294C110.245 71.4658 109.585 70.0938 109.585 70.0938C109.585 70.0938 109.555 69.2303 109.794 68.884C110.033 68.5377 109.763 64.186 109.763 64.186C109.763 64.186 109.853 62.0831 109.585 61.1031C109.316 60.1232 109.912 58.9693 109.912 58.9693C109.912 58.9693 109.912 58.9472 109.912 58.9074V58.8927L109.878 58.5611C109.877 58.568 109.877 58.5749 109.878 58.5817C109.817 58.0247 109.704 57.0152 109.62 56.5496C109.501 55.8864 109.651 52.7181 109.651 52.7181L110.186 51.3624L111.139 53.6981L112.152 56.8104C112.152 56.8104 112.653 57.4677 112.664 58.1367C112.664 58.1691 112.664 58.2015 112.664 58.234C112.656 58.3029 112.652 58.3723 112.653 58.4417C112.635 58.835 112.743 59.2237 112.961 59.5514C112.961 59.5514 113.229 61.025 113.646 61.3949C114.063 61.7648 114.063 62.4898 114.063 62.4898C114.063 62.4898 114.568 64.6237 114.8 64.995C115 65.3104 115.01 66.1739 115.009 66.4436C115.009 66.4922 115.009 66.5203 115.009 66.5203C115.009 66.5203 115.08 67.2836 115.077 67.9232C115.077 68.0027 115.077 68.0794 115.077 68.1516C115.077 68.1462 115.077 68.1408 115.077 68.1354C115.077 68.3101 115.056 68.4842 115.015 68.6541L115.006 68.6836C115.006 68.6467 115.006 68.6114 115.016 68.576C114.913 69.0103 114.863 69.4558 114.869 69.9023C114.856 70.6686 114.972 71.5763 115.436 72.1127C116.241 73.0352 116.746 72.9203 116.746 72.9203C116.746 72.9203 116.36 74.0727 115.883 74.304C115.865 74.3126 115.848 74.3235 115.833 74.3365C115.833 74.3129 115.824 74.2908 115.821 74.2687C115.768 74.3261 115.727 74.3941 115.702 74.4682C115.676 74.5423 115.667 74.6209 115.674 74.699C115.64 75.2059 115.96 76.0252 116.263 76.4069C116.376 76.5173 116.514 76.5983 116.665 76.6427C116.641 76.6596 116.616 76.6749 116.59 76.6884C116.537 76.7175 116.483 76.7436 116.427 76.7665C116.349 76.7994 116.267 76.8208 116.184 76.8299C116.022 76.8342 115.863 76.873 115.718 76.9436C115.572 77.0143 115.444 77.1152 115.341 77.2395C115.046 77.6227 114.857 78.1458 115.444 78.6056L117.573 79.3424C117.573 79.3424 121.213 79.8096 121.021 78.9887Z" fill="url(#paint0_linear)"/>
<path d="M107.035 80.3503L104.972 79.6135C104.403 79.1537 104.584 78.6306 104.872 78.2459C104.971 78.1233 105.095 78.0232 105.236 77.9526C105.376 77.8819 105.531 77.8422 105.688 77.8363C105.828 77.8185 105.962 77.7707 106.082 77.6963C106.212 77.6252 106.325 77.5242 106.409 77.4015C106.559 77.1627 106.641 76.8866 106.643 76.6043C106.643 76.6043 108.907 75.9412 109.526 76.6043C109.636 76.7243 109.728 76.8599 109.8 77.0066C110.005 77.4644 110.106 77.9623 110.094 78.464C110.094 78.464 110.209 79.1832 110.397 80.0055C110.584 80.8278 107.035 80.3503 107.035 80.3503Z" fill="#2D293D"/>
<path d="M117.121 79.3337L115.058 78.5969C114.489 78.1371 114.67 77.614 114.958 77.2308C115.056 77.1077 115.179 77.0073 115.32 76.9366C115.461 76.8658 115.615 76.8265 115.772 76.8212C115.854 76.8128 115.934 76.7914 116.008 76.7578C116.063 76.7348 116.116 76.7087 116.167 76.6797C116.744 76.3629 116.729 75.5848 116.729 75.5848C116.729 75.5848 118.991 74.9216 119.611 75.5848C119.694 75.6746 119.767 75.7735 119.828 75.8795C120.215 76.55 120.173 77.4445 120.173 77.4445C120.173 77.4445 120.288 78.1651 120.467 78.9859C120.647 79.8068 117.121 79.3337 117.121 79.3337Z" fill="#2D293D"/>
<path opacity="0.1" d="M109.527 76.603C109.637 76.723 109.73 76.8585 109.801 77.0053L106.412 77.3987C106.562 77.1599 106.643 76.8838 106.646 76.6015C106.646 76.6015 108.908 75.9398 109.527 76.603Z" fill="black"/>
<path opacity="0.1" d="M119.831 75.8824V76.5176C119.303 77.3855 116.752 77.1954 116.011 76.7607C116.066 76.7377 116.119 76.7116 116.17 76.6826C116.746 76.3658 116.732 75.5877 116.732 75.5877C116.732 75.5877 118.994 74.9246 119.614 75.5877C119.697 75.6775 119.77 75.7764 119.831 75.8824Z" fill="black"/>
<path d="M120.233 73.1443C120.075 73.4211 119.941 73.7104 119.831 74.0093V76.2861C119.253 77.2366 116.257 76.9198 115.852 76.4011C115.447 75.8823 115.024 74.5325 115.479 74.2982C115.935 74.0639 116.315 72.9144 116.315 72.9144C116.315 72.9144 115.824 73.0294 115.046 72.1069C114.268 71.1844 114.499 69.1389 114.644 68.6497C114.788 68.1604 114.644 66.5173 114.644 66.5173C114.644 66.5173 114.673 65.3635 114.443 64.9892C114.213 64.6149 113.723 62.484 113.723 62.484C113.723 62.484 113.723 61.7634 113.319 61.3891C112.915 61.0147 112.656 59.544 112.656 59.544C112.42 59.1765 112.318 58.7386 112.368 58.3047C112.454 57.5841 111.878 56.806 111.878 56.806L110.898 53.6922L109.975 51.358L109.456 52.7122C109.456 52.7122 109.309 55.882 109.428 56.5437C109.548 57.2054 109.723 58.9649 109.723 58.9649C109.723 58.9649 109.147 60.1173 109.406 61.0973C109.666 62.0772 109.571 64.1831 109.571 64.1831C109.571 64.1831 109.831 68.5333 109.599 68.8796C109.368 69.2259 109.397 70.0909 109.397 70.0909C109.397 70.0909 110.576 72.6256 110.205 72.9719C109.834 73.3182 109.946 74.2687 109.946 74.2687C109.946 74.2687 110.752 74.2687 110.407 74.615C110.062 74.9613 109.801 76.7768 109.801 76.7768L106.316 77.185C106.316 77.185 105.998 76.7827 105.536 75.7114C105.075 74.6401 105.622 74.7609 106.086 74.6445C106.55 74.5281 106.257 74.2422 105.709 73.8959C105.161 73.5496 105.479 72.7715 105.479 72.7715C105.479 72.7715 106.315 71.3597 106.026 71.2448C105.737 71.1298 105.709 69.1404 105.709 69.1404C105.709 69.1404 105.133 66.7826 105.277 66.143C105.422 65.5035 104.816 63.9827 104.816 63.9827L104.614 62.1671C103.997 61.1369 103.772 59.919 103.98 58.7365V55.9366C103.98 55.9366 103.173 50.5195 103.058 47.7814C102.984 46.0278 103.005 43.6346 103.028 42.1418C103.043 41.3048 103.058 40.7492 103.058 40.7492L115.507 39.4524C115.507 39.4524 115.495 40.0271 115.733 41.3018C115.861 41.9856 116.06 42.8712 116.372 43.978C117.265 47.1478 116.719 49.51 116.719 49.51L116.602 53.5168C116.602 53.5168 117.697 56.1959 117.467 57.1184C117.328 57.6662 117.25 58.2276 117.234 58.7925C117.234 58.7925 119.683 64.6429 119.424 66.3434C119.165 68.044 120.23 70.7246 120.23 70.7246C120.23 70.7246 120.522 72.6256 120.233 73.1443Z" fill="#464353"/>
<path opacity="0.05" d="M113.115 58.1309L116.906 57.6255C116.906 57.6255 114.759 59.8168 113.115 58.1309Z" fill="black"/>
<path opacity="0.1" d="M116.357 53.9221C116.357 53.9221 116.487 55.2631 115.666 55.7671C115.666 55.7671 117.136 55.5372 116.357 53.9221Z" fill="black"/>
<path opacity="0.1" d="M116.125 49.6575C116.125 49.6575 112.956 52.2658 111.804 52.0492C110.652 51.8326 116.125 49.6575 116.125 49.6575Z" fill="black"/>
<path opacity="0.1" d="M108.417 59.354C108.417 59.354 106.011 59.9007 105.939 60.8674C105.866 61.8342 108.417 59.354 108.417 59.354Z" fill="black"/>
<path opacity="0.05" d="M108.946 71.373C108.946 71.373 105.547 72.0067 106.512 72.4385C107.477 72.8703 109.063 73.2166 109.063 73.2166C109.063 73.2166 110.161 73.2741 108.946 71.373Z" fill="black"/>
<g opacity="0.05">
<path opacity="0.05" d="M105.825 73.1253C105.74 73.0719 105.668 72.9999 105.614 72.9147C105.56 72.8294 105.526 72.7332 105.514 72.6331L105.479 72.6935C105.479 72.6935 105.162 73.4716 105.71 73.8164C105.772 73.8562 105.833 73.896 105.887 73.9343C105.989 73.9151 106.098 73.9004 106.203 73.8739C106.667 73.7589 106.374 73.4716 105.825 73.1253Z" fill="black"/>
<path opacity="0.05" d="M110.205 72.8939C110.299 72.8084 110.296 72.5874 110.239 72.3044C110.092 72.527 110.049 72.8747 110.046 73.1385C110.082 73.047 110.136 72.9637 110.205 72.8939Z" fill="black"/>
<path opacity="0.05" d="M109.682 58.5566C109.557 58.8975 109.479 59.2541 109.452 59.6162C109.518 59.366 109.606 59.1224 109.716 58.8882L109.682 58.5566Z" fill="black"/>
<path opacity="0.05" d="M117.469 57.0448C117.491 56.9413 117.502 56.8355 117.5 56.7295C117.457 56.9446 117.427 57.1436 117.405 57.3189C117.424 57.2291 117.445 57.1436 117.469 57.0448Z" fill="black"/>
<path opacity="0.05" d="M109.601 68.8031C109.648 68.7324 109.675 68.4937 109.686 68.1621C109.58 68.4187 109.523 68.6933 109.52 68.9711C109.54 68.9121 109.567 68.8557 109.601 68.8031Z" fill="black"/>
<path opacity="0.05" d="M110.308 74.2378C110.13 74.8158 109.997 75.4071 109.912 76.0062L106.427 76.4085C106.427 76.4085 106.108 76.0062 105.647 74.9348C105.61 74.8521 105.577 74.7675 105.548 74.6814C105.339 74.7771 105.254 74.9938 105.531 75.626C105.992 76.6929 106.312 77.0996 106.312 77.0996L109.797 76.6958C109.797 76.6958 110.056 74.8803 110.401 74.534C110.578 74.3675 110.469 74.2805 110.308 74.2378Z" fill="black"/>
<path opacity="0.05" d="M105.71 69.0624C105.71 69.0624 105.738 71.0504 106.027 71.1653C106.175 70.8367 106.27 70.5243 106.141 70.4727C105.846 70.3578 105.824 68.3683 105.824 68.3683C105.824 68.3683 105.248 66.0105 105.392 65.371C105.537 64.7314 104.931 63.2106 104.931 63.2106L104.729 61.3951C104.112 60.3648 103.887 59.147 104.095 57.9644V55.1645C104.095 55.1645 103.288 49.7474 103.173 47.0094C103.099 45.2557 103.12 42.8625 103.143 41.3697C103.143 41.1 103.152 40.8613 103.157 40.6594L103.058 40.6697C103.058 40.6697 103.042 41.2238 103.028 42.0623C103.005 43.5551 102.983 45.9483 103.058 47.7005C103.173 50.4385 103.979 55.8571 103.979 55.8571V58.657C103.772 59.8393 103.997 61.0565 104.614 62.0862L104.814 63.9017C104.814 63.9017 105.42 65.4284 105.276 66.0636C105.131 66.6987 105.71 69.0624 105.71 69.0624Z" fill="black"/>
<path opacity="0.05" d="M115.97 75.632C115.687 75.2221 115.498 74.7545 115.417 74.2629C115.062 74.5842 115.47 75.8309 115.859 76.3261C116.262 76.8448 119.259 77.1616 119.838 76.2097V75.6614C119.053 76.4322 116.35 76.1227 115.97 75.632Z" fill="black"/>
<path opacity="0.05" d="M120.35 72.3751C120.192 72.6519 120.056 72.9413 119.946 73.2402V73.6484C120.012 73.501 120.105 73.3035 120.241 73.0707C120.332 72.8438 120.375 72.6004 120.367 72.356C120.367 72.356 120.354 72.3692 120.35 72.3751Z" fill="black"/>
<path opacity="0.05" d="M116.147 72.8306C116.256 72.6086 116.351 72.3797 116.431 72.1454C116.431 72.1454 115.94 72.2603 115.162 71.3378C114.596 70.6673 114.564 69.4 114.645 68.5718C114.498 69.0625 114.269 71.1079 115.047 72.0304C115.556 72.6331 115.94 72.7923 116.147 72.8306Z" fill="black"/>
<path opacity="0.05" d="M114.644 66.4394C114.694 67.0072 114.714 67.5774 114.701 68.1474C114.715 68.0574 114.735 67.9683 114.76 67.8806C114.907 67.3899 114.76 65.7483 114.76 65.7483C114.76 65.7483 114.79 64.5944 114.558 64.2201C114.327 63.8458 113.845 61.712 113.845 61.712C113.845 61.712 113.845 60.9913 113.441 60.617C113.037 60.2427 112.778 58.772 112.778 58.772C112.54 58.4053 112.436 57.9674 112.483 57.5327C112.57 56.8121 111.994 56.034 111.994 56.034L111.014 52.9217L110.092 50.5874L109.571 51.9432C109.571 51.9432 109.571 52.1141 109.554 52.3852L109.975 51.2844L110.898 53.6143L111.878 56.7266C111.878 56.7266 112.454 57.5047 112.367 58.2253C112.319 58.66 112.423 59.0979 112.662 59.4646C112.662 59.4646 112.921 60.9383 113.325 61.3096C113.728 61.681 113.727 62.4046 113.727 62.4046C113.727 62.4046 114.218 64.5369 114.448 64.9098C114.678 65.2826 114.644 66.4394 114.644 66.4394Z" fill="black"/>
</g>
<path d="M117.063 13.4174L116.847 14.4696L116.86 14.9382L116.869 15.283L115.666 15.4068L115.532 15.1578C115.283 14.7068 114.766 13.7902 114.599 13.6488C114.377 13.4631 113.981 10.5364 114.452 10.7103C114.742 10.8224 114.981 11.0383 115.121 11.316C115.121 11.316 117.489 11.5871 117.063 13.4174Z" fill="#FFCDD3"/>
<path opacity="0.1" d="M116.869 15.2832L115.666 15.407L115.532 15.1579C115.694 14.9738 115.915 14.8514 116.156 14.8117C116.398 14.7719 116.646 14.8172 116.859 14.9398L116.869 15.2832Z" fill="black"/>
<path d="M117.172 15.8534L115.587 16.2204L115.553 15.9846L115.463 15.3495C115.463 15.3495 116.091 14.5124 116.998 15.1402L117.078 15.4629L117.172 15.8534Z" fill="#E9B81C"/>
<path d="M91.4867 13.5325L89.7935 14.4403L89.6461 14.1219C89.4855 13.7845 89.2453 13.2761 89.179 13.0904C89.0788 12.8104 88.3729 12.4567 88.3729 12.4567C86.6045 10.7635 88.7118 9.30755 88.7118 9.30755C89.8289 7.06024 91.0697 10.0709 91.0697 10.0709C91.0697 10.0709 91.2436 11.658 91.1213 11.7641C90.9989 11.8702 90.9989 12.3049 90.9989 12.3049C91.1603 12.6164 91.2968 12.9401 91.4071 13.2731C91.4587 13.4338 91.4867 13.5325 91.4867 13.5325Z" fill="#FFCDD3"/>
<path opacity="0.1" d="M91.4868 13.5325L89.7935 14.4402L89.6462 14.1219C89.8849 13.9215 90.7323 13.2377 91.0108 13.2657C91.1437 13.2823 91.278 13.2858 91.4116 13.276C91.4588 13.4337 91.4868 13.5325 91.4868 13.5325Z" fill="black"/>
<path d="M91.6592 14.0438L89.7567 14.9811L89.7184 14.5729L89.6919 14.2899C89.6919 14.2899 90.7942 13.3453 91.1199 13.3822C91.2845 13.406 91.4518 13.406 91.6165 13.3822L91.6386 13.724L91.6592 14.0438Z" fill="#E9B81C"/>
<path d="M112.452 20.407C112.452 20.407 104.159 21.3427 105.709 20.8387C106.788 20.4865 107.216 19.8072 107.306 19.0409C107.38 18.4028 107.215 17.7146 106.998 17.1252C106.803 16.6022 106.557 16.1002 106.262 15.6265C106.262 15.6265 112.598 12.1398 111.332 15.3096C111.137 15.7891 111.016 16.2954 110.973 16.8113C110.935 17.3239 110.99 17.8392 111.136 18.3321C111.375 19.1318 111.831 19.8498 112.452 20.407Z" fill="#FFCDD3"/>
<path opacity="0.1" d="M111.328 15.3052C111.133 15.7847 111.011 16.291 110.968 16.8069C110.371 17.3094 109.717 17.2755 108.876 17.2755C108.23 17.2755 107.514 17.4317 106.998 17.1208C106.803 16.5978 106.556 16.0958 106.261 15.6221C106.261 15.6221 112.597 12.1354 111.328 15.3052Z" fill="black"/>
<path d="M108.764 17.4965C110.658 17.4965 112.193 15.9612 112.193 14.0674C112.193 12.1735 110.658 10.6382 108.764 10.6382C106.87 10.6382 105.335 12.1735 105.335 14.0674C105.335 15.9612 106.87 17.4965 108.764 17.4965Z" fill="#FFCDD3"/>
<path opacity="0.1" d="M112.452 20.4071C112.452 20.4071 104.159 21.3429 105.709 20.8389C106.788 20.4867 107.216 19.8074 107.306 19.0411C107.719 18.599 108.549 18.2703 109.075 18.0994C109.561 17.9358 110.086 17.9271 110.578 18.0743C110.771 18.1326 110.955 18.2179 111.125 18.3278C111.366 19.1304 111.826 19.8503 112.452 20.4071Z" fill="black"/>
<path opacity="0.1" d="M117.172 15.8536L115.587 16.2205L115.553 15.9847C115.723 15.7515 115.96 15.5763 116.233 15.483C116.506 15.3896 116.801 15.3827 117.078 15.4631L117.172 15.8536Z" fill="black"/>
<path opacity="0.1" d="M91.6591 14.0439L89.7566 14.9811L89.7183 14.5729C90.3346 14.2416 90.975 13.9574 91.6341 13.7227L91.6591 14.0439Z" fill="black"/>
<path opacity="0.1" d="M115.733 41.3047C112.519 41.8176 107.95 42.4719 107.225 42.2508C106.623 42.0681 104.701 42.0873 103.028 42.1447C103.043 41.3077 103.058 40.7521 103.058 40.7521L115.507 39.4553C115.507 39.4553 115.495 40.03 115.733 41.3047Z" fill="black"/>
<path d="M118.936 40.5501C118.936 40.5501 108.36 42.3657 107.225 42.0238C106.091 41.6819 100.262 42.0518 100.262 42.0518C97.6393 43.8098 98.7342 41.2162 98.7342 41.2162C98.7342 41.2162 98.5043 39.862 98.8211 38.767C99.0339 37.9632 99.1793 37.1429 99.2559 36.3149C99.2559 36.3149 99.1984 34.5848 99.5152 34.1811C99.8321 33.7773 100.208 30.8963 100.208 30.8963C100.208 30.8963 100.495 28.9364 100.467 28.5046C100.439 28.0728 100.553 26.8615 100.553 26.8615L100.928 24.8441C98.7666 24.5567 92.1956 20.5219 92.1956 20.5219C91.8788 19.1676 89.4296 15.9978 89.4296 15.9978C89.3939 15.7312 89.3261 15.47 89.2277 15.2197C89.0553 14.7584 91.6489 13.8359 91.6489 13.8359C91.6489 13.8359 93.5794 16.1938 93.9832 16.8333C94.3869 17.4729 95.7692 18.6489 95.7692 18.6489C95.984 18.6268 96.2009 18.655 96.4029 18.7314L96.4368 18.7417C96.9 18.9236 97.3344 19.1718 97.7262 19.4785C98.3761 19.4631 99.0065 19.7009 99.4843 20.1417C99.4843 20.1417 100.663 19.9678 100.868 20.1697C101.073 20.3715 102.078 20.1697 102.078 20.1697C102.078 20.1697 103.086 18.0373 103.749 18.6562C104.412 19.2752 107.225 19.2457 107.225 19.2457C107.6 18.7476 108.512 18.391 109.082 18.2141C109.569 18.0512 110.094 18.0425 110.585 18.1891C110.797 18.2524 110.997 18.3521 111.175 18.4838L112.886 20.1549C112.886 20.1549 113.375 19.5198 113.317 19.3768C113.26 19.2339 113.894 19.1175 113.894 19.1175C113.894 19.1175 114.729 18.8581 115.046 18.7712C115.363 18.6842 115.653 19.0276 115.68 19.0585C115.669 19.0217 115.453 18.3217 115.532 17.7912C115.612 17.2607 115.186 16.7596 115.186 16.7596C116.194 14.281 118.471 16.3559 118.471 16.3559C118.471 16.3559 118.73 17.7101 118.5 18.2289C118.27 18.7476 118.73 19.8425 118.673 20.1313C118.615 20.4202 118.789 20.9094 118.789 21.4576C118.789 22.0058 118.494 23.0418 118.328 23.503C118.161 23.9643 116.772 25.0017 116.772 25.0017C116.772 25.0017 116.685 26.6448 116.079 27.5953C115.473 28.5458 115.854 31.7967 115.854 31.7967C115.854 31.7967 116.43 34.3328 117.15 35.1404C117.871 35.948 118.936 40.5501 118.936 40.5501Z" fill="#3F3D56"/>
<path opacity="0.1" d="M103.519 21.5874C103.519 21.5874 103.202 20.6369 102.913 20.5559C102.627 20.4504 102.347 20.3253 102.078 20.1816L102.264 19.8264C102.264 19.8264 103.345 20.1211 103.519 20.4409C103.693 20.7607 103.519 21.5874 103.519 21.5874Z" fill="black"/>
<path opacity="0.1" d="M97.7262 19.4845C97.6687 19.7792 95.1031 20.0312 95.1031 20.0312L96.3999 18.7314L96.4323 18.7432C96.8974 18.9261 97.3332 19.1758 97.7262 19.4845Z" fill="black"/>
<path d="M90.3049 15.7591C90.4319 15.7591 90.5348 15.6562 90.5348 15.5292C90.5348 15.4022 90.4319 15.2993 90.3049 15.2993C90.1779 15.2993 90.075 15.4022 90.075 15.5292C90.075 15.6562 90.1779 15.7591 90.3049 15.7591Z" fill="#575988"/>
<path d="M90.5996 16.2205C90.7266 16.2205 90.8295 16.1176 90.8295 15.9906C90.8295 15.8637 90.7266 15.7607 90.5996 15.7607C90.4726 15.7607 90.3697 15.8637 90.3697 15.9906C90.3697 16.1176 90.4726 16.2205 90.5996 16.2205Z" fill="#575988"/>
<path d="M90.8885 16.6463C91.0155 16.6463 91.1184 16.5434 91.1184 16.4164C91.1184 16.2894 91.0155 16.1865 90.8885 16.1865C90.7616 16.1865 90.6586 16.2894 90.6586 16.4164C90.6586 16.5434 90.7616 16.6463 90.8885 16.6463Z" fill="#575988"/>
<path d="M91.1906 17.106C91.3175 17.106 91.4205 17.0031 91.4205 16.8761C91.4205 16.7492 91.3175 16.6462 91.1906 16.6462C91.0636 16.6462 90.9607 16.7492 90.9607 16.8761C90.9607 17.0031 91.0636 17.106 91.1906 17.106Z" fill="#575988"/>
<path d="M118.356 17.0384C118.459 17.0384 118.543 16.9546 118.543 16.8512C118.543 16.7479 118.459 16.6641 118.356 16.6641C118.252 16.6641 118.169 16.7479 118.169 16.8512C118.169 16.9546 118.252 17.0384 118.356 17.0384Z" fill="#575988"/>
<path d="M118.385 17.4642C118.488 17.4642 118.572 17.3804 118.572 17.277C118.572 17.1736 118.488 17.0898 118.385 17.0898C118.282 17.0898 118.198 17.1736 118.198 17.277C118.198 17.3804 118.282 17.4642 118.385 17.4642Z" fill="#575988"/>
<path d="M118.41 17.8885C118.514 17.8885 118.597 17.8047 118.597 17.7013C118.597 17.598 118.514 17.5142 118.41 17.5142C118.307 17.5142 118.223 17.598 118.223 17.7013C118.223 17.8047 118.307 17.8885 118.41 17.8885Z" fill="#575988"/>
<path opacity="0.1" d="M103.529 29.3978C103.501 29.3639 109.999 37.5677 115.041 32.827C115.046 32.8284 107.078 33.9086 103.529 29.3978Z" fill="black"/>
<path opacity="0.1" d="M99.801 33.6624C99.801 33.6624 103.689 33.7685 104.095 34.8869V36.0511C103.985 36.1125 103.86 36.1448 103.733 36.1448C103.607 36.1448 103.482 36.1125 103.372 36.0511C102.98 35.8389 100.629 34.6453 99.801 35.22V33.6624Z" fill="black"/>
<path d="M99.8732 33.6624C99.8732 33.6624 103.591 33.764 103.98 34.831V35.9391C103.874 35.998 103.755 36.0288 103.634 36.0288C103.513 36.0288 103.394 35.998 103.288 35.9391C102.913 35.7387 100.666 34.5996 99.8732 35.1478V33.6624Z" fill="#3F3D56"/>
<path opacity="0.1" d="M101.923 25.2214C102.32 26.1408 102.826 27.009 103.431 27.8077C104.088 28.6904 104.884 29.4604 105.788 30.0874C105.788 30.0874 101.988 25.7549 101.923 25.2214Z" fill="black"/>
<path opacity="0.1" d="M100.651 20.7048C100.651 20.7048 101.3 23.5048 102.971 24.4553L100.651 20.7048Z" fill="black"/>
<path opacity="0.1" d="M99.6566 20.9877C99.6404 20.9361 99.0804 23.1982 101.811 24.4552C101.811 24.4552 100.651 24.0617 99.6566 20.9877Z" fill="black"/>
<path opacity="0.1" d="M116.632 19.1103C116.589 19.1103 117.978 19.9944 118.357 20.4071C118.357 20.4071 117.452 19.0513 116.632 19.1103Z" fill="black"/>
<path d="M107.837 17.1753C107.837 17.2501 107.853 17.324 107.884 17.3923C107.914 17.4606 107.959 17.5218 108.014 17.5721C108.07 17.6224 108.135 17.6606 108.206 17.6844C108.277 17.7082 108.352 17.717 108.426 17.7102C109.471 17.7751 110.56 17.8208 111.521 17.4155C111.701 17.3512 111.863 17.244 111.993 17.1031C112.163 16.8924 112.197 16.6065 112.267 16.3442C112.402 15.8313 112.691 15.376 112.899 14.8882C113.25 14.0641 113.368 13.1591 113.239 12.2725C113.212 12.0007 113.122 11.7389 112.977 11.5077C112.7 11.1113 112.194 10.9506 111.827 10.6353C111.461 10.3199 111.225 9.83803 110.796 9.60372C110.41 9.38857 109.937 9.41509 109.502 9.48878C108.647 9.63398 107.828 9.94162 107.088 10.3951C106.839 10.5424 106.567 10.7237 106.281 10.6692C106.03 10.622 105.847 10.4113 105.691 10.2138C105.49 10.6854 105.406 11.1984 105.445 11.7096C105.456 11.7846 105.453 11.8609 105.438 11.935C105.402 12.0247 105.347 12.1055 105.277 12.1723C105.019 12.467 104.859 12.9459 105.114 13.2495C105.224 13.3807 105.395 13.4529 105.503 13.587C105.696 13.8272 105.631 14.1764 105.626 14.483C105.616 14.59 105.643 14.6974 105.703 14.7865C105.759 14.8385 105.827 14.8752 105.901 14.893C105.975 14.9108 106.053 14.9092 106.126 14.8882C106.272 14.8442 106.425 14.8297 106.577 14.8455C106.737 14.8974 106.875 15.0011 106.969 15.1402C107.445 15.7606 107.633 16.4355 107.837 17.1753Z" fill="#2D293D"/>
<g opacity="0.1">
<path opacity="0.1" d="M112.115 16.8423C111.985 16.9832 111.823 17.0904 111.643 17.1547C110.677 17.557 109.589 17.5113 108.549 17.4494C108.437 17.4506 108.326 17.4258 108.226 17.3772C108.067 17.2844 108.006 17.0899 107.958 16.913C107.754 16.1762 107.567 15.4998 107.084 14.8853C106.991 14.7436 106.853 14.6372 106.692 14.5832C106.54 14.5689 106.387 14.5834 106.241 14.6259C106.168 14.6471 106.09 14.649 106.016 14.6314C105.942 14.6139 105.874 14.5775 105.818 14.5257C105.758 14.4366 105.731 14.3292 105.741 14.2222C105.741 13.9127 105.811 13.5664 105.618 13.3262C105.51 13.1921 105.339 13.1199 105.229 12.9873C105.156 12.8895 105.112 12.774 105.101 12.6531C105.089 12.5321 105.11 12.4103 105.162 12.3005C104.978 12.5953 104.9 12.9651 105.114 13.2186C105.224 13.3498 105.395 13.422 105.503 13.5561C105.696 13.7978 105.631 14.1455 105.626 14.4521C105.615 14.5589 105.642 14.6664 105.702 14.7556C105.757 14.8078 105.826 14.8447 105.9 14.8625C105.975 14.8803 106.052 14.8785 106.126 14.8573C106.272 14.8133 106.425 14.7988 106.577 14.8146C106.737 14.8665 106.875 14.9702 106.969 15.1093C107.451 15.7238 107.639 16.3987 107.843 17.1385C107.867 17.3205 107.957 17.4871 108.098 17.6057C108.199 17.6543 108.31 17.6786 108.422 17.6764C109.467 17.7412 110.556 17.7884 111.516 17.3817C111.697 17.3178 111.859 17.2105 111.988 17.0692C112.053 16.9862 112.103 16.8925 112.135 16.7922C112.137 16.8114 112.127 16.8276 112.115 16.8423Z" fill="black"/>
<path opacity="0.1" d="M105.445 11.8451C105.491 11.7949 105.527 11.7357 105.55 11.6712C105.563 11.5967 105.563 11.5203 105.55 11.4458C105.521 11.0256 105.576 10.6039 105.71 10.205L105.691 10.1829C105.49 10.6537 105.405 11.1665 105.445 11.6771C105.45 11.733 105.45 11.7892 105.445 11.8451Z" fill="black"/>
</g>
<path opacity="0.1" d="M107.225 19.2531C107.225 19.2531 111.509 19.822 111.894 19.178L107.225 19.2531Z" fill="black"/>
<path opacity="0.1" d="M115.553 17.4805C115.553 17.4805 117.934 17.4805 118.457 18.3764L115.553 17.4805Z" fill="black"/>
<path d="M128.876 97.0794C128.17 97.7108 127.252 98.0538 126.305 98.0402C126.063 98.0402 125.728 98.0859 125.727 98.3275C125.733 98.3984 125.757 98.4665 125.798 98.525C126.097 99.0235 126.569 99.3944 127.124 99.5669C127.64 99.7231 128.191 99.6966 128.729 99.6686L130.298 99.5875C130.593 99.5713 130.888 99.5566 131.182 99.5197C131.477 99.4829 131.798 99.4225 132.106 99.3724C132.863 99.2648 133.628 99.2293 134.392 99.2663C134.595 99.2736 134.834 99.2663 134.955 99.1189C135.076 98.9715 135.014 98.6901 134.968 98.469C134.874 98.0137 134.968 97.5362 134.881 97.0794C134.734 96.2777 134.04 95.6632 133.279 95.3729C132.572 95.1047 131.319 94.7967 130.65 95.2447C129.944 95.7148 129.513 96.5002 128.876 97.0794Z" fill="#3F3D56"/>
<path d="M130.435 70.2206C130.574 70.8793 131.212 71.3833 131.229 72.0553C131.246 72.5946 130.861 73.047 130.584 73.5083C130.323 73.986 130.103 74.4849 129.925 74.9996C129.404 76.3398 128.756 77.6277 127.992 78.8458C127.623 79.4353 127.211 80.0645 127.295 80.7498C127.354 81.0702 127.467 81.3783 127.629 81.6605L128.735 83.8562C128.977 84.2946 129.166 84.7601 129.299 85.2429C129.395 85.66 129.404 86.0918 129.46 86.5162C129.633 87.8631 130.266 89.2188 129.891 90.5245C129.859 90.6365 129.744 90.772 129.654 90.6939C130.02 91.3762 130.313 92.063 130.285 92.8366C130.27 93.2419 130.146 93.6648 130.295 94.0421C130.359 94.1998 130.469 94.3471 130.468 94.5166C130.468 94.6286 130.416 94.7332 130.404 94.8423C130.373 95.1532 130.659 95.4126 130.955 95.5113C131.252 95.61 131.574 95.6027 131.873 95.6926C132.448 95.865 132.859 96.3601 133.347 96.7035C133.847 97.0482 134.437 97.2402 135.045 97.2561C135.131 97.2653 135.219 97.2478 135.295 97.206C135.339 97.1681 135.373 97.1215 135.397 97.0691C135.421 97.0168 135.434 96.9599 135.434 96.9024C135.46 96.6272 135.419 96.3496 135.313 96.0942C135.207 95.8387 135.04 95.6133 134.827 95.4376C134.733 95.379 134.655 95.298 134.601 95.2018C134.574 95.1167 134.567 95.0264 134.58 94.938C134.669 93.7302 134.648 92.5168 134.516 91.3129C134.456 90.9313 134.437 90.5446 134.458 90.159C134.489 89.8378 134.586 89.5195 134.551 89.1997C134.516 88.8799 134.352 88.5881 134.256 88.2801C134.085 87.7319 134.133 87.1425 134.109 86.5692C134.079 85.573 133.851 84.5945 133.624 83.6219C133.534 83.2402 133.435 82.8409 133.166 82.558C132.936 82.3177 132.565 82.0879 132.651 81.7681C132.7 81.6502 132.771 81.5434 132.862 81.4542C132.969 81.3203 133.047 81.166 133.092 81.0008C133.137 80.8356 133.148 80.6629 133.125 80.4934C133.221 80.5181 133.324 80.5084 133.415 80.4659C133.505 80.4235 133.578 80.3509 133.621 80.2605C135.416 79.4132 136.863 77.7185 137.509 75.8396C137.547 75.7001 137.605 75.567 137.683 75.4447C137.849 75.2118 138.138 75.1116 138.394 74.9834C139.199 74.5782 139.754 73.8192 140.264 73.0765C140.559 72.6462 140.854 72.2012 140.986 71.6942C141.056 71.3664 141.089 71.0318 141.085 70.6966L141.131 68.965C141.141 68.851 141.13 68.7361 141.098 68.6261C141.055 68.5233 140.991 68.4301 140.911 68.352C140.421 67.8337 139.777 67.4866 139.075 67.3617C138.604 67.2777 138.122 67.2939 137.644 67.2541C136.719 67.1775 135.805 66.8901 134.88 66.9594C133.425 67.067 132.13 68.075 131.445 69.3629C131.204 69.8168 130.951 70.2117 130.435 70.2206Z" fill="#464353"/>
<path d="M122.36 58.9621C122.379 59.2294 122.343 59.4978 122.254 59.7505C122.14 59.9921 121.856 60.1808 121.607 60.082C121.682 59.9126 121.483 59.7195 121.297 59.7401C121.206 59.7612 121.121 59.8041 121.05 59.8652C120.979 59.9263 120.923 60.0037 120.889 60.0909C120.766 60.3384 120.725 60.6186 120.771 60.8911C120.83 61.23 121.026 61.5557 120.974 61.8961C120.933 62.179 120.725 62.4605 120.836 62.7228C120.908 62.8426 120.998 62.9505 121.103 63.0426C121.248 63.2219 121.319 63.4503 121.302 63.6806C121.284 63.9109 121.178 64.1256 121.007 64.2804L123.795 64.3364C123.693 64.8021 123.903 65.2781 124.141 65.6922C124.81 66.8306 125.733 67.7987 126.839 68.5205C127.944 69.2423 129.202 69.6981 130.513 69.8523C130.442 69.8937 130.382 69.9503 130.335 70.0181C130.289 70.0858 130.258 70.1631 130.245 70.2442C130.233 70.3252 130.238 70.4082 130.261 70.4869C130.284 70.5657 130.325 70.6383 130.379 70.6996C130.606 70.9251 130.991 70.8971 131.275 70.7512C131.56 70.6053 131.782 70.3636 132.041 70.1765C132.499 69.852 133.058 69.7016 133.617 69.7521C133.966 69.786 134.305 69.8994 134.656 69.9171C135.687 69.9716 136.571 69.2289 137.565 68.9254C138.288 68.7028 139.109 68.7028 139.716 68.2504C139.979 68.0559 140.194 67.7361 140.117 67.4208C140.054 67.2395 139.953 67.0734 139.822 66.933C139.473 66.4806 139.267 65.9368 139.016 65.4225C138.52 64.4043 137.837 63.4885 137.002 62.7228C136.372 62.172 135.704 61.6659 135.003 61.2079C134.834 61.0829 134.654 60.9739 134.464 60.8822C134.219 60.7746 133.948 60.7231 133.727 60.5875C133.4 60.3812 133.212 60.0172 132.96 59.7239C132.407 59.0785 131.558 58.7823 130.877 58.2753C130.42 57.9349 130.017 57.4869 129.471 57.3234C129.206 57.2423 128.925 57.2364 128.659 57.1568C128.057 56.9741 127.618 56.4392 127.027 56.2226C126.56 56.0516 126.044 56.0958 125.553 56.0354C125 55.9672 124.471 55.7659 124.013 55.4489C123.865 55.3286 123.7 55.2321 123.522 55.163C122.775 54.9361 122.715 56.3272 122.638 56.8091C122.539 57.5253 122.36 58.237 122.36 58.9621Z" fill="#FBAC2A"/>
<path d="M123.088 63.6276C123.213 64.9863 122.187 66.3023 122.486 67.633C122.55 67.9159 122.672 68.1856 122.716 68.473C122.841 69.2614 122.37 70.0085 121.92 70.6687L118.059 76.3348C117.904 76.5836 117.719 76.8123 117.508 77.0157C116.772 77.6714 115.663 77.6051 114.694 77.7996C114.013 77.9396 113.369 78.224 112.807 78.6337C112.782 78.6533 112.765 78.682 112.761 78.7137C112.757 78.7453 112.765 78.7775 112.784 78.8032C112.944 79.0212 113.156 79.1957 113.401 79.3107C113.646 79.4258 113.915 79.4778 114.185 79.4619C114.287 79.5946 114.185 79.792 114.045 79.8878C113.839 80.0352 113.553 80.0691 113.512 80.4213C113.498 80.5437 113.523 80.6673 113.583 80.7749C113.739 81.0124 113.98 81.1803 114.257 81.2436C115.594 81.6532 117.038 80.9341 118.039 79.9571C119.039 78.98 119.757 77.7466 120.739 76.7534C121.282 76.2022 121.9 75.7321 122.46 75.1987C123.577 74.1332 124.446 72.8408 125.283 71.5455C125.535 71.155 125.79 70.7542 125.895 70.3017C125.999 69.8493 125.951 69.391 126.07 68.9534C126.226 68.3801 126.646 67.9218 126.996 67.4414C127.681 66.4983 128.139 65.3444 128.048 64.1817C127.957 63.019 127.237 61.8725 126.141 61.4776C125.801 61.3424 125.426 61.3197 125.073 61.4127C124.623 61.5512 124.292 61.9226 123.985 62.2792L123.248 63.1251C123.069 63.3124 122.928 63.5332 122.834 63.775C122.787 63.8968 122.775 64.0297 122.801 64.1577C122.828 64.2858 122.89 64.4036 122.981 64.4971" fill="#FBBEBE"/>
<path d="M125.045 58.0543C124.538 58.0837 123.979 58.1339 123.621 58.4964C123.471 58.6628 123.349 58.8531 123.261 59.0593C122.914 59.7681 122.575 60.5094 122.55 61.2993C122.529 61.93 122.712 62.5474 122.808 63.1708C122.887 63.6895 122.685 64.2186 122.647 64.7432C123.276 64.5501 124.107 64.2878 124.678 63.9621C125.067 63.7396 125.442 63.4862 125.867 63.3447C126.472 63.1428 127.488 63.492 128.064 63.772C128.095 63.3683 127.791 62.6639 127.824 62.2586C127.828 62.088 127.859 61.9191 127.914 61.7576C128 61.5867 128.102 61.4244 128.219 61.2727C128.438 60.9161 128.539 60.4992 128.507 60.0818C128.475 59.6644 128.312 59.2678 128.04 58.9488C127.529 58.3741 126.729 58.1589 125.966 58.0646C125.485 58.0089 125 57.9921 124.517 58.0145" fill="#FBAC2A"/>
</g>
<defs>
<linearGradient id="paint0_linear" x1="104.072" y1="80.4874" x2="104.072" y2="8.47637" gradientUnits="userSpaceOnUse">
<stop stop-color="#808080" stop-opacity="0.25"/>
<stop offset="0.54" stop-color="#808080" stop-opacity="0.12"/>
<stop offset="1" stop-color="#808080" stop-opacity="0.1"/>
</linearGradient>
<clipPath id="clip0">
<rect width="154.671" height="100" fill="white"/>
</clipPath>
</defs>
</svg>
